<?xml version="1.0" encoding="UTF-8" standalone="no"?>
<!-- Created with Inkscape (http://www.inkscape.org/) -->

<svg
   xmlns:dc="http://purl.org/dc/elements/1.1/"
   xmlns:cc="http://creativecommons.org/ns#"
   xmlns:rdf="http://www.w3.org/1999/02/22-rdf-syntax-ns#"
   xmlns:svg="http://www.w3.org/2000/svg"
   xmlns="http://www.w3.org/2000/svg"
   xmlns:xlink="http://www.w3.org/1999/xlink"
   xmlns:sodipodi="http://sodipodi.sourceforge.net/DTD/sodipodi-0.dtd"
   xmlns:inkscape="http://www.inkscape.org/namespaces/inkscape"
   width="512"
   height="512"
   viewBox="0 0 512.00001 512.00001"
   id="svg18277"
   version="1.1"
   inkscape:version="0.91 r13725"
   sodipodi:docname="FireFighter.svg">
  <defs
     id="defs18279">
    <inkscape:perspective
       sodipodi:type="inkscape:persp3d"
       inkscape:vp_x="0 : 256 : 1"
       inkscape:vp_y="0 : 1000 : 0"
       inkscape:vp_z="512.00001 : 256 : 1"
       inkscape:persp3d-origin="256 : 170.66667 : 1"
       id="perspective19168" />
    <linearGradient
       inkscape:collect="always"
       id="linearGradient18942">
      <stop
         style="stop-color:#000000;stop-opacity:1;"
         offset="0"
         id="stop18944" />
      <stop
         style="stop-color:#000000;stop-opacity:0;"
         offset="1"
         id="stop18946" />
    </linearGradient>
    <radialGradient
       inkscape:collect="always"
       xlink:href="#linearGradient18942"
       id="radialGradient18976"
       cx="-145.71429"
       cy="458.07645"
       fx="-145.71429"
       fy="458.07645"
       r="29.357143"
       gradientUnits="userSpaceOnUse"
       gradientTransform="translate(455.18458,463.84011)" />
    <filter
       inkscape:collect="always"
       style="color-interpolation-filters:sRGB"
       id="filter19037"
       x="-0.5916"
       width="2.1832"
       y="-0.5916"
       height="2.1832">
      <feGaussianBlur
         inkscape:collect="always"
         stdDeviation="13.733572"
         id="feGaussianBlur19039" />
    </filter>
    <radialGradient
       inkscape:collect="always"
       xlink:href="#linearGradient18942"
       id="radialGradient18976-1"
       cx="-145.71429"
       cy="458.07645"
       fx="-145.71429"
       fy="458.07645"
       r="29.357143"
       gradientUnits="userSpaceOnUse"
       gradientTransform="translate(455.18458,463.84011)" />
    <filter
       inkscape:collect="always"
       style="color-interpolation-filters:sRGB"
       id="filter19037-6"
       x="-0.5916"
       width="2.1831999"
       y="-0.5916"
       height="2.1831999">
      <feGaussianBlur
         inkscape:collect="always"
         stdDeviation="13.733572"
         id="feGaussianBlur19039-2" />
    </filter>
  </defs>
  <sodipodi:namedview
     id="base"
     pagecolor="#ffffff"
     bordercolor="#666666"
     borderopacity="1.0"
     inkscape:pageopacity="0.0"
     inkscape:pageshadow="2"
     inkscape:zoom="0.7"
     inkscape:cx="-10.91617"
     inkscape:cy="334.24639"
     inkscape:document-units="px"
     inkscape:current-layer="layer1"
     showgrid="false"
     units="px"
     inkscape:window-width="1280"
     inkscape:window-height="738"
     inkscape:window-x="-8"
     inkscape:window-y="-8"
     inkscape:window-maximized="1" />
  <metadata
     id="metadata18282">
    <rdf:RDF>
      <cc:Work
         rdf:about="">
        <dc:format>image/svg+xml</dc:format>
        <dc:type
           rdf:resource="http://purl.org/dc/dcmitype/StillImage" />
        <dc:title></dc:title>
      </cc:Work>
    </rdf:RDF>
  </metadata>
  <g
     inkscape:label="Layer 1"
     inkscape:groupmode="layer"
     id="layer1"
     transform="translate(0,-540.36216)">
    <ellipse
       style="fill:#000000"
       id="path15866"
       cx="256.57144"
       cy="795.505"
       rx="246.50539"
       ry="247.47853" />
    <ellipse
       style="fill:#ff7f2a;stroke:#000000;stroke-width:0.9633618;stroke-opacity:1"
       id="path15866-4"
       cx="256.57144"
       cy="794.71173"
       rx="221.22278"
       ry="224.47571" />
    <rect
       style="opacity:1;fill:#e9afaf;fill-opacity:1;stroke:#000000;stroke-width:3.07748866;stroke-miterlimit:4;stroke-dasharray:none;stroke-opacity:1"
       id="rect22538"
       width="275.63681"
       height="255.6368"
       x="116.38164"
       y="698.25812"
       rx="29.75806"
       ry="127.8184" />
    <path
       sodipodi:type="spiral"
       style="fill:none;fill-rule:evenodd;stroke:#9e0000;stroke-width:3;stroke-linecap:butt;stroke-linejoin:miter;stroke-miterlimit:4;stroke-dasharray:none;stroke-opacity:1"
       id="path18303-6"
       sodipodi:cx="-290"
       sodipodi:cy="481.21933"
       sodipodi:expansion="1"
       sodipodi:revolution="3"
       sodipodi:radius="36.36549"
       sodipodi:argument="-18.064157"
       sodipodi:t0="0"
       d="m -290,481.21933 c 1.28927,1.28927 -1.10183,2.374 -2.14286,2.14286 -2.82111,-0.62638 -3.27462,-4.23987 -2.14285,-6.42858 2.02446,-3.91507 7.28156,-4.37372 10.71428,-2.14285 5.03767,3.2739 5.50541,10.36452 2.14286,15 -4.48176,6.17837 -13.46212,6.65097 -19.28572,2.14285 -7.3284,-5.67301 -7.80371,-16.5667 -2.14285,-23.57143 6.85607,-8.48365 19.67522,-8.96061 27.85714,-2.14285 9.64211,8.03451 10.12013,22.7862 2.14285,32.14286 -9.21008,10.80264 -25.89879,11.28138 -36.42857,2.14285 -11.9646,-10.38378 -12.44385,-29.01255 -2.14284,-40.71429 11.55616,-13.12757 32.12714,-13.6072 44.99999,-2.14284 14.29131,12.72761 14.77122,35.24237 2.14285,49.28571"
       transform="matrix(-1.348758,0,0,1.3927393,-71.190414,139.31929)" />
    <circle
       style="opacity:1;fill:#000000;fill-opacity:1;stroke:url(#radialGradient18976);stroke-width:3;stroke-miterlimit:4;stroke-dasharray:none;stroke-opacity:1;filter:url(#filter19037)"
       id="path18940-3"
       cx="309.47028"
       cy="921.91656"
       r="27.857143"
       transform="matrix(1.885925,0,0,1.5423082,-271.31031,-589.96294)" />
    <path
       sodipodi:type="spiral"
       style="fill:none;fill-rule:evenodd;stroke:#9e0000;stroke-width:3;stroke-linecap:butt;stroke-linejoin:miter;stroke-miterlimit:4;stroke-dasharray:none;stroke-opacity:1"
       id="path18303"
       sodipodi:cx="-290"
       sodipodi:cy="481.21933"
       sodipodi:expansion="1"
       sodipodi:revolution="3"
       sodipodi:radius="36.36549"
       sodipodi:argument="-18.064157"
       sodipodi:t0="0"
       d="m -290,481.21933 c 1.28927,1.28927 -1.10183,2.374 -2.14286,2.14286 -2.82111,-0.62638 -3.27462,-4.23987 -2.14285,-6.42858 2.02446,-3.91507 7.28156,-4.37372 10.71428,-2.14285 5.03767,3.2739 5.50541,10.36452 2.14286,15 -4.48176,6.17837 -13.46212,6.65097 -19.28572,2.14285 -7.3284,-5.67301 -7.80371,-16.5667 -2.14285,-23.57143 6.85607,-8.48365 19.67522,-8.96061 27.85714,-2.14285 9.64211,8.03451 10.12013,22.7862 2.14285,32.14286 -9.21008,10.80264 -25.89879,11.28138 -36.42857,2.14285 -11.9646,-10.38378 -12.44385,-29.01255 -2.14284,-40.71429 11.55616,-13.12757 32.12714,-13.6072 44.99999,-2.14284 14.29131,12.72761 14.77122,35.24237 2.14285,49.28571"
       transform="matrix(1.348758,0,0,1.3927393,591.40693,139.97736)" />
    <path
       style="fill:#000000;fill-rule:evenodd;stroke:#000000;stroke-width:1.76222539px;stroke-linecap:butt;stroke-linejoin:miter;stroke-opacity:1"
       d="m 149.68631,715.04136 c 2.71302,10.91594 2.51011,6.62935 2.51011,12.62431 0,0.84163 -0.59163,1.92974 0,2.52488 0.59162,0.59512 1.91846,-0.59514 2.51008,0 1.18326,1.1902 -1.18327,3.85946 0,5.04971 0.59163,0.59512 1.91844,-0.59512 2.5101,0 0.59163,0.59512 -0.59166,1.92974 0,2.52486 0.59163,0.59512 1.91845,-0.59512 2.51007,0 0.59165,0.59512 -0.59162,1.92976 0,2.52486 0.59165,0.5951 1.91844,-0.5951 2.5101,0 1.18328,1.19023 -1.18327,3.85949 0,5.04973 0.59163,0.59513 1.91847,-0.59512 2.51007,0 1.18329,1.19023 -1.18325,3.85949 0,5.04972 0.59165,0.59512 1.91847,-0.59513 2.5101,0 1.50011,1.50892 -2.71309,5.04973 2.51009,5.04973 1.6734,0 -0.74836,-3.5442 0,-5.04973 0.52917,-1.06459 1.98092,-1.46028 2.51011,-2.52486 0.74833,-1.50555 -1.18329,-3.85951 0,-5.04971 0.59162,-0.59514 1.91846,0.59508 2.51008,0 1.18326,-1.19025 -1.18328,-3.85951 0,-5.04974 0.59163,-0.59512 1.91845,0.59512 2.5101,0 1.18324,-1.19022 -1.18329,-3.85948 0,-5.04973 0.59163,-0.59512 1.91845,0.59514 2.51007,0 1.18329,-1.19021 -0.74837,-3.5442 0,-5.04972 0.52918,-1.06457 1.9809,-1.46027 2.51009,-2.52485 0.37418,-0.75277 -0.59162,-1.92977 0,-2.52486 0.59164,-0.59511 1.91849,0.59509 2.51008,0 0.59164,-0.59511 -0.59159,-1.92974 0,-2.52488 0.59164,-0.59511 1.91847,0.59514 2.5101,0 1.18327,-1.19022 -1.18326,-3.85948 0,-5.04972 0.59165,-0.59511 1.91846,0.59511 2.5101,0 0.59161,-0.59511 -0.59164,-1.92973 0,-2.52485 0.59161,-0.59514 1.91844,0.59512 2.51009,0 1.18325,-1.19024 -1.18329,-3.8595 0,-5.04973 1.18325,-1.19023 3.83689,1.19023 5.02017,0 1.18327,-1.19023 -1.18328,-3.85949 0,-5.04975 0.59164,-0.59507 1.91847,-0.59507 2.51009,0 0.59163,0.59512 0,1.68326 0,2.5249 0,3.36648 0,6.73296 0,10.09943 0,0.84161 0,1.68324 0,2.52487 0,0.84162 -0.59162,1.92974 0,2.52485 0.59163,0.59514 1.91847,-0.59511 2.51009,0 0.59161,0.59514 -0.59162,1.92977 0,2.52488 0.59161,0.59509 1.91846,-0.59511 2.51011,0 1.18325,1.19022 -1.18328,3.85949 0,5.04971 6.69354,0 -0.8367,-0.84162 2.51008,2.52488 0.5916,0.59512 1.91846,0.59512 2.51007,0 0.51317,-0.51619 -0.49761,-6.57353 0,-7.57459 1.05836,-2.12916 3.96184,-2.9206 5.02018,-5.04973 0.74838,-1.50553 -0.74837,-3.54419 0,-5.04972 0.5292,-1.0646 1.98091,-1.46029 2.5101,-2.52487 0.74837,-1.50554 -1.18328,-3.8595 0,-5.04971 0.59162,-0.59513 1.67339,0 2.51007,0 0.83672,0 1.91847,-0.59513 2.51013,0 1.18323,1.19021 -1.18329,3.85946 0,5.04971 0.59159,0.59513 1.91844,-0.59512 2.51006,0 1.18328,1.19022 -0.74836,3.54418 0,5.04972 0.5292,1.06456 1.98092,1.46029 2.51011,2.52487 0.37416,0.75277 -0.59165,1.92974 0,2.52485 0.59162,0.59514 1.91846,-0.59511 2.51008,0 1.18326,1.19025 -1.18328,3.85951 0,5.04974 0.59163,0.5951 1.91844,-0.59514 2.5101,0 0.59162,0.5951 0.83667,2.52485 0,2.52485 -0.83672,0 0,-1.68325 0,-2.52485 0,-8.12743 -0.59166,4.3102 2.51007,-5.04974 0.52917,-1.59683 -0.74834,-3.54418 0,-5.04972 0.37417,-0.75277 1.91847,0.59511 2.51009,0 0.59163,-0.59511 -0.37417,-1.77209 0,-2.52485 0.52918,-1.0646 1.98094,-1.46029 2.5101,-2.52487 0.37417,-0.75276 -0.59165,-1.92975 0,-2.52486 0.59162,-0.59512 1.91845,0.59511 2.51008,0 0.59162,-0.59512 -0.59163,-1.92974 0,-2.52485 0.59162,-0.59513 1.91844,-0.59513 2.51009,0 0.59164,0.59511 -0.59165,1.92973 0,2.52485 0.59164,0.59511 1.91845,-0.59512 2.5101,0 0.59163,0.59511 -0.59165,1.92974 0,2.52486 0.59163,0.59513 1.91843,-0.59512 2.51009,0 0.59163,0.59513 -0.59166,1.92973 0,2.52487 0.59163,0.59512 1.91846,-0.59514 2.51008,0 0.59164,0.59512 -0.8367,2.52485 0,2.52485 1.9146,0 5.01418,-7.55648 5.02019,-7.57458 0.26458,-0.79843 -0.59163,-1.92974 0,-2.52485 0.59161,-0.59513 1.91844,0.59511 2.51009,0 0.59162,-0.59513 -0.26461,-1.72643 0,-2.5249 0.59162,-1.78533 1.91845,-3.26434 2.51008,-5.0497 0.26458,-0.79842 -0.59163,-1.92973 0,-2.52486 0.59162,-0.59512 1.76173,0.37639 2.51008,0 10.4464,-5.25394 -2.68337,0.17426 2.51011,-5.04973 0.59162,-0.59509 1.91845,0.5951 2.51006,0 0.59166,-0.59509 -0.59161,-1.92975 0,-2.52485 0.59166,-0.59513 1.91848,0.5951 2.51011,0 0.59162,-0.59513 -0.59163,-1.92976 0,-2.52487 0.59162,-0.59511 1.91846,0.59511 2.51009,0 0.59163,-0.59511 -0.59163,-1.92973 0,-2.52486 1.73115,-1.74134 4.6934,1.86752 5.02017,2.52486 0.3742,0.75278 -0.37418,1.77211 0,2.52487 0.52918,1.06457 1.6734,1.68324 2.51011,2.52485 0.83668,0.84162 1.98091,1.4603 2.51007,2.52488 0.49761,1.00108 -0.51313,7.0584 0,7.57457 0.59164,0.59513 1.91846,-0.59513 2.51008,0 0.59165,0.59513 -0.59162,1.92977 0,2.52484 0.59165,0.59512 1.91848,-0.59507 2.5101,0 0.59163,0.59512 -0.59162,1.92977 0,2.5249 0.59163,0.59511 1.91847,-0.59513 2.5101,0 1.18325,1.19021 -1.18328,3.85946 0,5.04971 0.59162,0.59513 1.91844,-0.59512 2.51009,0 0.59162,0.59513 -0.59165,1.92973 0,2.52487 3.34678,3.36646 2.51008,-4.2081 2.51008,2.52485 0,6.90709 1.93712,-1.15267 5.02018,5.04972 0.37418,0.75277 -0.59163,1.92977 0,2.52488 0.59164,0.59509 1.91845,-0.59511 2.5101,0 0.59163,0.59509 0.83668,2.52486 0,2.52486 -0.8367,0 0,-1.68323 0,-2.52486 0,-0.84165 0,-1.68325 0,-2.52488 0,-5.04972 0,-10.09944 0,-15.14915 0,-0.84164 -0.59165,-1.92978 0,-2.5249 0.59163,-0.59507 1.67338,0 2.51008,0 0.83669,0 1.76175,-0.37635 2.5101,0 1.05833,0.53231 1.67339,1.68326 2.51009,2.5249 0.8367,0.84162 1.98092,1.46027 2.51007,2.52485 0.3742,0.75274 -0.59163,1.92974 0,2.52486 0.59166,0.59513 1.91847,-0.59512 2.5101,0 0.59162,0.59513 -0.59163,1.92973 0,2.52487 0.59162,0.59512 1.91844,-0.59514 2.51008,0 1.18329,1.19022 -1.18324,3.85949 0,5.04972 0.59165,0.59512 1.91846,-0.59513 2.51011,0 1.18327,1.19022 -1.18328,3.85947 0,5.04973 0.59162,0.59509 1.76172,-0.37639 2.51006,0 1.05836,0.53227 1.98093,1.46027 2.51013,2.52486 0.37414,0.75275 -0.59165,1.92974 0,2.52485 0.5916,0.59511 1.91844,0.59511 2.51007,0 0.59163,-0.59511 0,-1.68325 0,-2.52485 0,-0.8416 0,-1.68323 0,-2.52486 0,-0.84165 0.3742,-1.77211 0,-2.52488 -0.32677,-0.65734 -4.47228,-3.07598 -2.51007,-5.04972 0.5916,-0.59511 1.91844,-0.59511 2.51007,0 0.59163,0.59511 -0.59163,1.92974 0,2.52487 1.18327,1.19022 3.52342,-0.75278 5.02017,0 1.05837,0.53227 1.45175,1.99256 2.5101,2.52485 0.74836,0.37639 1.91846,-0.59511 2.51008,0 0.59164,0.59514 -0.59162,1.92977 0,2.52488 0.59164,0.59509 1.91846,-0.59511 2.51008,0 0.59165,0.59509 -0.59162,1.92972 0,2.52486 0.59165,0.5951 1.76175,-0.37639 2.51011,0 1.05834,0.53228 1.67339,1.68323 2.51009,2.52485 0.8367,0.84163 1.98093,1.4603 2.51009,2.52488 0.37418,0.75276 -0.3742,1.77206 0,2.52484 1.05835,2.12916 3.96182,2.92059 5.02017,5.04973 0.37419,0.75277 -0.59166,1.92976 0,2.52486 0.59165,0.5951 1.91847,-0.5951 2.51009,0 0.59164,0.5951 0.8367,2.52488 0,2.52488 -0.83669,0 0,-1.68325 0,-2.52488 0,-0.61233 -0.0806,-7.49339 0,-7.57459 0.59164,-0.59512 1.91845,0.59514 2.5101,0 0.59163,-0.59512 -0.37419,-1.77208 0,-2.52484 0.52917,-1.06458 1.98092,-1.4603 2.5101,-2.52488 0.37416,-0.75277 -0.59164,-1.92975 0,-2.52485 0.59159,-0.59514 1.91843,0.5951 2.51008,0 0.59162,-0.59514 -0.59165,-1.92977 0,-2.52486 0.59162,-0.59511 1.67339,0 2.51009,0 0.8367,0 1.76173,-0.37639 2.51007,0 1.05836,0.53227 1.98092,1.46027 2.5101,2.52486 0.37417,0.75275 -0.37419,1.77208 0,2.52485 0.52917,1.06458 1.98092,1.4603 2.51008,2.52488 0.74837,1.50554 -0.74833,3.54417 0,5.04971 0.52919,1.06457 1.9809,1.46028 2.5101,2.52486 0.4976,1.00109 -0.51316,7.05842 0,7.57459 0.59162,0.59513 1.91845,-0.59512 2.5101,0 1.18325,1.19023 -1.18327,3.85949 0,5.04972 0.59163,0.59512 1.91844,-0.59513 2.5101,0 1.18325,1.19023 -1.18329,3.85949 0,5.04973 3.34678,3.36649 2.51007,-4.20811 2.51007,2.52486 0,0.84163 0,1.68323 0,2.52486 0,0.84163 -0.59163,1.92973 0,2.52487 0.59165,0.59512 1.91845,-0.59514 2.5101,0 0.59162,0.59512 -0.3742,1.77208 0,2.52484 0.52917,1.06458 2.51007,1.33465 2.51007,2.52488 0,0.84162 -1.91845,0.59511 -2.51007,0 -0.59165,-0.59513 0,-1.68325 0,-2.52488 0,-5.89134 0,-11.78268 0,-17.67402 0,-0.84163 0,-1.68323 0,-2.52486 0,-0.84163 -0.59165,-1.92977 0,-2.52485 0.59162,-0.59514 1.91844,-0.59514 2.51007,0 0.59166,0.59508 -0.59163,1.92973 0,2.52485 0.59166,0.59513 1.91847,-0.59512 2.5101,0 1.18327,1.19023 -1.18326,3.85949 0,5.04972 0.59162,0.59512 1.91846,-0.59513 2.51008,0 0.59163,0.59512 0.83671,2.52485 0,2.52485 -0.83668,0 0,-1.68323 0,-2.52485 0,-1.68323 0,-3.36649 0,-5.04972 0,-0.84163 0,-1.68324 0,-2.52485 0,-0.84162 -0.37416,-1.77211 0,-2.52488 1.05836,-2.12914 3.96183,-2.92057 5.02019,-5.04972 0.74835,-1.50554 -1.18327,-3.85951 0,-5.04971 0.59161,-0.59514 1.91846,0.59512 2.51009,0 1.18325,-1.19025 -1.18328,-3.85951 0,-5.04973 0.59164,-0.59514 1.91843,0.5951 2.51009,0 0.47266,-0.47546 -0.47266,-7.09914 0,-7.57459 0.59163,-0.59513 1.91845,0.59512 2.51009,0 0.59163,-0.59513 0,-1.68326 0,-2.52487 0,-4.20809 0,-8.41621 0,-12.62433 0,-1.32028 0.33001,-9.43552 0,-10.09941 -0.52919,-1.06458 -1.98093,-1.4603 -2.51009,-2.52488 -0.3742,-0.75276 0.59163,-1.92975 0,-2.52485 -0.59166,-0.59513 -1.91845,0.5951 -2.51009,0 -0.59163,-0.59513 0.59164,-1.92976 0,-2.52487 -0.59163,-0.59511 -1.91848,0.59511 -2.51009,0 -0.59164,-0.59511 0.59161,-1.92973 0,-2.52486 -1.18327,-1.19022 -3.83692,1.19024 -5.02019,0 -0.59162,-0.59513 0.59163,-1.92973 0,-2.52485 -0.47266,-0.47545 -7.05759,0.47545 -7.53025,0 -0.59165,-0.59512 0.59162,-1.92977 0,-2.52488 -0.60402,-0.60755 -9.43636,0.60758 -10.04037,0 -0.59163,-0.59511 0.59162,-1.92974 0,-2.52485 -0.47268,-0.47545 -7.0576,0.47545 -7.53028,0 -0.59163,-0.59513 0.59165,-1.92976 0,-2.52486 -0.47266,-0.47546 -7.05758,0.47545 -7.53024,0 -0.59164,-0.59512 0.59159,-1.92974 0,-2.52486 -1.18329,-1.19025 -3.52348,0.75274 -5.0202,0 -1.05834,-0.53227 -1.45175,-1.9926 -2.51009,-2.52487 -1.49672,-0.75276 -3.83689,1.19022 -5.02017,0 -0.59166,-0.59509 0.59163,-1.92976 0,-2.52486 -0.84647,-0.85144 -4.17372,0.85144 -5.02018,0 -0.59163,-0.59512 0.59162,-1.92975 0,-2.52486 -0.59163,-0.59514 -1.76174,0.37639 -2.51011,0 -1.05831,-0.5323 -1.45172,-1.99257 -2.51008,-2.52486 -1.49673,-0.75277 -3.8369,1.19023 -5.02018,0 -0.59163,-0.59513 0.59166,-1.92973 0,-2.52487 -0.59163,-0.59512 -1.91845,0.59514 -2.51007,0 -0.59165,-0.59512 0.59162,-1.92975 0,-2.52485 -0.59165,-0.59512 -1.91847,0.5951 -2.5101,0 -0.59163,-0.59512 0.74834,-2.14851 0,-2.52486 -1.49675,-0.75278 -3.52345,0.75274 -5.0202,0 -0.74834,-0.37639 0.59166,-1.92976 0,-2.52487 -0.84644,-0.85143 -4.1737,0.85145 -5.02017,0 -0.59164,-0.59513 0,-1.68325 0,-2.52487 -0.83668,0 -1.91846,0.59511 -2.51008,0 -0.59163,-0.59512 0.59162,-1.92972 0,-2.52486 -1.18329,-1.19022 -3.83692,1.19025 -5.02017,0 -0.59163,-0.59512 0.59161,-1.92974 0,-2.52485 -1.18329,-1.19025 -3.83692,1.19021 -5.02019,0 -0.59162,-0.59512 0.59164,-1.92976 0,-2.52486 -0.59162,-0.59512 -1.91845,0.5951 -2.51008,0 -0.59165,-0.59512 0.59163,-1.92977 0,-2.52486 -0.84646,-0.85144 -4.17373,0.85143 -5.02019,0 -0.59165,-0.59514 0.59165,-1.92977 0,-2.52487 -0.47266,-0.47547 -7.05759,0.47545 -7.53026,0 -0.59163,-0.59512 0.59162,-1.92975 0,-2.52487 -0.84565,-0.85063 -4.17455,0.85062 -5.0202,0 -0.59162,-0.59511 0.59165,-1.92974 0,-2.52485 -0.59162,-0.59512 -1.91844,0.59511 -2.51008,0 -0.59164,-0.59512 0.59164,-1.92975 0,-2.52486 -0.47265,-0.47545 -7.05759,0.47542 -7.53025,0 -0.59165,-0.59513 0.5916,-1.92976 0,-2.52487 -0.4727,-0.47546 -7.05759,0.47545 -7.5303,0 -0.59161,-0.59513 0.59166,-1.92975 0,-2.52486 -0.84644,-0.85144 -4.17372,0.85144 -5.02017,0 -0.59164,-0.59512 0.59165,-1.92975 0,-2.52486 -0.59164,-0.59512 -1.67339,0 -2.51008,0 -0.83671,0 -3.34677,0 -2.51008,0 1.67337,0 6.69355,0 5.02016,0 -2.51008,0 -5.02016,0 -7.53025,0 -5.85689,0 -11.71376,0 -17.57063,0 -0.83669,0 -1.91847,-0.59512 -2.5101,0 -0.59162,0.59511 0.59163,1.92974 0,2.52486 -0.47268,0.47545 -7.05759,-0.47545 -7.53026,0 -0.59162,0.59511 0.59163,1.92973 0,2.52486 -1.18328,1.19022 -3.83691,-1.19024 -5.02019,0 -0.59162,0.59511 0.59165,1.92974 0,2.52487 -0.59162,0.59511 -1.76172,-0.37639 -2.51006,0 -1.05836,0.53228 -1.45177,1.99255 -2.51013,2.52486 -0.74835,0.37639 -1.91845,-0.59512 -2.51007,0 -0.59163,0.59511 0.59162,1.92974 0,2.52485 -1.18328,1.19024 -3.83692,-1.19022 -5.02017,0 -0.59166,0.59512 0.59162,1.92975 0,2.52487 -6.69357,0 0.83667,-0.84164 -2.51011,2.52487 -0.59161,0.59509 -1.91847,-0.59514 -2.51007,0 -0.59164,0.59509 0.5916,1.92974 0,2.52486 -1.18329,1.19022 -3.83692,-1.19023 -5.02019,0 -0.59162,0.5951 0.59161,1.92974 0,2.52486 -0.59162,0.59511 -1.91846,-0.59512 -2.51009,0 -0.59162,0.59511 0.59163,1.92973 0,2.52485 -1.18325,1.19025 -3.83692,-1.19022 -5.02018,0 -0.59164,0.59514 0.59164,1.92974 0,2.52486 -0.59164,0.59511 -1.91845,-0.59512 -2.51008,0 -0.59165,0.59511 0.59163,1.92974 0,2.52487 -0.59165,0.59511 -1.91848,-0.59513 -2.51009,0 -0.59164,0.59511 0.59161,1.92975 0,2.52487 -1.18328,1.19022 -3.83691,-1.19023 -5.0202,0 -0.59159,0.59509 0.59164,1.92974 0,2.52486 -0.59159,0.5951 -1.67338,0 -2.51008,0 0,0.84161 0.59164,1.92973 0,2.52485 -0.47268,0.47545 -7.05759,-0.47546 -7.53026,0 -0.59162,0.59514 0.59163,1.92974 0,2.52487 -1.18328,1.19023 -3.83691,-1.19026 -5.02019,0 -0.59162,0.59511 0.59164,1.92972 0,2.52486 -0.59162,0.59511 -1.91844,-0.59514 -2.51009,0 -0.59163,0.59511 0.59165,1.92974 0,2.52486 -0.59163,0.5951 -1.91845,-0.59512 -2.5101,0 -0.5916,0.5951 0.59165,1.92977 0,2.52486 -1.18325,1.19022 -3.52343,-0.75276 -5.02017,0 -1.05834,0.53227 -1.45172,1.9926 -2.51007,2.52487 -0.74838,0.37637 -1.91847,-0.59512 -2.5101,0 -0.59162,0.59512 0.59163,1.92974 0,2.52486 -0.59162,0.5951 -1.91846,-0.59512 -2.51008,0 -0.59163,0.5951 0.59162,1.92973 0,2.52486 -1.18329,1.19022 -3.83692,-1.19023 -5.02019,0 -0.59162,0.59511 0.59163,1.92974 0,2.52485 -0.59162,0.59511 -1.91846,-0.59511 -2.51009,0 -5.19345,5.22402 7.9363,-0.2042 -2.51009,5.04973 -6.69357,0 0.8367,-0.84162 -2.51009,2.52486 -0.59163,0.59511 -1.91845,-0.59511 -2.51008,0 -0.59165,0.59511 0.59163,1.92974 0,2.52487 -5.19349,5.22403 0.20301,-7.98303 -5.0202,2.52485 -0.37416,0.75277 0.59166,1.92977 0,2.52488 -0.59162,0.59512 -1.91844,-0.59511 -2.51009,0 -0.59159,0.59512 0.59165,1.92973 0,2.52485 -0.59159,0.59513 -1.91843,-0.59512 -2.51008,0 -1.18326,1.19023 1.18327,3.85951 0,5.04972 -0.59164,0.59513 -1.91846,-0.59513 -2.51009,0 -0.59162,0.59513 0.59163,1.92977 0,2.52484 -0.59162,0.59512 -1.91844,-0.59507 -2.51007,0 -0.59165,0.59512 0.59163,1.92977 0,2.5249 -0.59165,0.59511 -1.91849,-0.59513 -2.51011,0 -1.18327,1.19021 1.18327,3.85946 0,5.04971 -0.59161,0.59513 -1.91845,-0.59512 -2.51007,0 -0.59166,0.59513 0.59162,1.92973 0,2.52487 -0.59166,0.59512 -1.91847,-0.59514 -2.51012,0 -1.18326,1.19022 1.18329,3.85949 0,5.04972 -0.5916,0.59512 -1.91843,-0.59513 -2.51008,0 -0.47266,0.47545 0.47269,7.09913 0,7.57459 -0.59163,0.5951 -1.91844,-0.59514 -2.5101,0 -0.60401,0.60756 0.60403,9.49187 0,10.09944 -0.59162,0.59512 -1.91844,-0.59512 -2.51007,0 -0.47266,0.47545 0.47266,7.09913 0,7.5746 -0.59165,0.59508 -1.91844,-0.59514 -2.5101,0 -0.59162,0.59508 0,1.68322 0,2.52485 0,0.84163 0,1.68323 0,2.52486 0,0.84163 -0.37417,1.7721 0,2.52486 0.52919,1.06458 1.9809,1.46029 2.5101,2.52485 0.37418,0.75278 -0.59165,1.92977 0,2.52488 0.59163,0.59509 1.91845,-0.59511 2.51007,0 1.18329,1.19022 -1.18325,3.85948 0,5.04972 3.34679,3.36648 2.5101,-4.20812 2.5101,2.52487 0,1.68323 0,3.36647 0,5.04972 0,0.84162 0.83669,2.52485 0,2.52485 -0.83671,0 -0.59163,-1.92974 0,-2.52485 6.69359,0 -0.83671,0.84162 2.51008,-2.52488 0.59165,-0.59509 1.91846,0.59511 2.51012,0 1.18324,-1.19021 -1.18329,-3.85949 0,-5.04971 0.59162,-0.59512 1.91846,0.5951 2.51007,0 0.59162,-0.59512 -0.59161,-1.92974 0,-2.52486 0.59162,-0.59511 1.91846,0.59512 2.51011,0 0.59163,-0.59511 -0.3742,-1.7721 0,-2.52486 0.52915,-1.06457 1.98091,-1.4603 2.51007,-2.52488 1.67339,-3.36648 -2.51007,-2.52485 2.51009,-2.52485 0.83669,0 1.91849,-0.59513 2.51008,0 0.59165,0.59512 -0.59159,1.92974 0,2.52485 0.59165,0.59511 1.91847,-0.59511 2.51009,0 0.59166,0.59511 -0.59162,1.92977 0,2.52488 0.59166,0.59509 1.91848,-0.59511 2.51011,0 0.47267,0.47547 -0.47267,7.09914 0,7.57459 6.69356,0 -0.8367,-0.84163 2.51009,2.52484 0.59163,0.59511 1.67339,0 2.51008,0 0.8367,0 1.91846,0.59511 2.51009,0 0.59166,-0.59509 0,-1.68323 0,-2.52484 0,-3.3665 0,-6.73299 0,-10.09947 0,-0.84161 -0.59163,-1.92973 0,-2.52485 0.47266,-0.47545 7.05759,0.47545 7.53026,0 0.59165,-0.59513 -0.37416,-1.77208 0,-2.52486 0.52918,-1.06458 1.98093,-1.46027 2.51011,-2.52486 0.4976,-1.00109 -0.51318,-7.05841 0,-7.57459 0.59162,-0.59512 1.91846,0.59512 2.51008,0 0.47268,-0.47545 -0.47269,-7.09913 0,-7.57457 0.59163,-0.59514 1.91844,0.59512 2.5101,0 0.59163,-0.59514 -0.59166,-1.92977 0,-2.52488 0.59163,-0.59511 1.91845,0.59511 2.51007,0 0.47269,-0.47544 -0.47266,-7.09913 0,-7.57459 0.59165,-0.59511 1.91844,0.59514 2.5101,0 0.59163,-0.59511 0,-1.68323 0,-2.52485 0,-0.84163 0,-1.68326 0,-2.52487"
       id="path19093"
       inkscape:connector-curvature="0" />
    <rect
       style="opacity:1;fill:#800000;stroke:#000000;stroke-width:5.30203152;stroke-miterlimit:4;stroke-dasharray:none;stroke-opacity:1"
       id="rect22384"
       width="284.75327"
       height="150.85675"
       x="110.39764"
       y="574.4519"
       ry="75.428375" />
    <rect
       style="opacity:1;fill:#800000;stroke:#000000;stroke-width:5.10336399;stroke-miterlimit:4;stroke-dasharray:none;stroke-opacity:1"
       id="rect22388"
       width="69.82486"
       height="159.98186"
       x="220.09344"
       y="560.07025"
       ry="32.161304"
       rx="7.1615248" />
    <rect
       style="opacity:1;fill:#800000;stroke:#000000;stroke-width:5.30203152;stroke-miterlimit:4;stroke-dasharray:none;stroke-opacity:1"
       id="rect22390"
       width="307.96201"
       height="74.089409"
       x="99.685921"
       y="660.14569"
       rx="7.1615252"
       ry="32.161243" />
    <path
       style="opacity:1;fill:#000000;fill-opacity:1;stroke:#000000;stroke-width:1.77070117;stroke-miterlimit:4;stroke-dasharray:none;stroke-opacity:1"
       id="path22394-2"
       sodipodi:type="arc"
       sodipodi:cx="-604.53143"
       sodipodi:cy="558.72717"
       sodipodi:rx="51.939362"
       sodipodi:ry="38.108734"
       sodipodi:start="0.10940983"
       sodipodi:end="3.8778501"
       sodipodi:open="true"
       d="m -552.90263,562.88833 a 51.939362,38.108734 0 0 1 -41.04346,33.14776 51.939362,38.108734 0 0 1 -55.66217,-18.3771 51.939362,38.108734 0 0 1 6.59044,-44.52257"
       transform="matrix(-0.83206321,-0.55468083,-0.55468083,0.83206321,0,0)" />
    <path
       style="opacity:1;fill:#ececec;fill-opacity:1;stroke:#000000;stroke-width:1.52084339;stroke-miterlimit:4;stroke-dasharray:none;stroke-opacity:1"
       id="path22394-6-8"
       sodipodi:type="arc"
       sodipodi:cx="-600.82123"
       sodipodi:cy="561.22864"
       sodipodi:rx="44.884487"
       sodipodi:ry="32.531445"
       sodipodi:start="0.10940983"
       sodipodi:end="3.8778501"
       sodipodi:open="true"
       d="m -556.20512,564.7808 a 44.884487,32.531445 0 0 1 -35.46857,28.29652 44.884487,32.531445 0 0 1 -48.10163,-15.68758 44.884487,32.531445 0 0 1 5.69527,-38.0066"
       transform="matrix(-0.83206321,-0.55468083,-0.55468083,0.83206321,0,0)" />
    <path
       style="opacity:1;fill:#0000ff;fill-opacity:1;stroke:#000000;stroke-width:4.41110659;stroke-miterlimit:4;stroke-dasharray:none;stroke-opacity:1"
       id="path22429"
       sodipodi:type="arc"
       sodipodi:cx="474.05167"
       sodipodi:cy="677.92535"
       sodipodi:rx="28.240854"
       sodipodi:ry="27.419266"
       sodipodi:start="0.020841431"
       sodipodi:end="3.0229359"
       d="m 502.28639,678.49677 a 28.240854,27.419266 0 0 1 -26.85408,26.81506 28.240854,27.419266 0 0 1 -29.42292,-24.14062"
       sodipodi:open="true"
       transform="matrix(0.94247864,0.33426637,-0.3581462,0.93366552,0,0)" />
    <path
       style="opacity:1;fill:#000000;fill-opacity:1;stroke:#000000;stroke-width:3;stroke-miterlimit:4;stroke-dasharray:none;stroke-opacity:1"
       id="path22433"
       sodipodi:type="arc"
       sodipodi:cx="450.79541"
       sodipodi:cy="684.79437"
       sodipodi:rx="8.2142859"
       sodipodi:ry="9.6428576"
       sodipodi:start="0.0208415"
       sodipodi:end="3.0229277"
       sodipodi:open="true"
       d="m 459.00791,684.99533 a 8.2142859,9.6428576 0 0 1 -7.81089,9.43037 8.2142859,9.6428576 0 0 1 -8.55813,-8.48974"
       transform="matrix(0.94787976,0.31862825,-0.31862825,0.94787976,0,0)" />
    <path
       style="opacity:1;fill:#000000;fill-opacity:1;stroke:#000000;stroke-width:1.77070117;stroke-miterlimit:4;stroke-dasharray:none;stroke-opacity:1"
       id="path22394-2-3"
       sodipodi:type="arc"
       sodipodi:cx="-172.76286"
       sodipodi:cy="847.64832"
       sodipodi:rx="51.939362"
       sodipodi:ry="38.108734"
       sodipodi:start="0.10940983"
       sodipodi:end="3.8778501"
       sodipodi:open="true"
       d="m -121.13406,851.80947 a 51.939362,38.108734 0 0 1 -41.04346,33.14776 51.939362,38.108734 0 0 1 -55.66217,-18.3771 51.939362,38.108734 0 0 1 6.59044,-44.52257"
       transform="matrix(0.83206321,-0.55468083,0.55468083,0.83206321,0,0)" />
    <path
       style="opacity:1;fill:#ececec;fill-opacity:1;stroke:#000000;stroke-width:1.52084339;stroke-miterlimit:4;stroke-dasharray:none;stroke-opacity:1"
       id="path22394-6-8-6"
       sodipodi:type="arc"
       sodipodi:cx="-169.05266"
       sodipodi:cy="850.14978"
       sodipodi:rx="44.884487"
       sodipodi:ry="32.531445"
       sodipodi:start="0.10940983"
       sodipodi:end="3.8778501"
       sodipodi:open="true"
       d="m -124.43655,853.70194 a 44.884487,32.531445 0 0 1 -35.46857,28.29652 44.884487,32.531445 0 0 1 -48.10163,-15.68758 44.884487,32.531445 0 0 1 5.69527,-38.0066"
       transform="matrix(0.83206321,-0.55468083,0.55468083,0.83206321,0,0)" />
    <path
       style="opacity:1;fill:#0000ff;fill-opacity:1;stroke:#000000;stroke-width:4.41110659;stroke-miterlimit:4;stroke-dasharray:none;stroke-opacity:1"
       id="path22429-3"
       sodipodi:type="arc"
       sodipodi:cx="-10.836462"
       sodipodi:cy="852.49396"
       sodipodi:rx="28.240854"
       sodipodi:ry="27.419266"
       sodipodi:start="0.020841431"
       sodipodi:end="3.0229359"
       d="M 17.398259,853.06537 A 28.240854,27.419266 0 0 1 -9.4558184,879.88044 28.240854,27.419266 0 0 1 -38.878742,855.73981"
       sodipodi:open="true"
       transform="matrix(-0.94247864,0.33426637,0.3581462,0.93366552,0,0)" />
    <path
       style="opacity:1;fill:#000000;fill-opacity:1;stroke:#000000;stroke-width:3;stroke-miterlimit:4;stroke-dasharray:none;stroke-opacity:1"
       id="path22433-9"
       sodipodi:type="arc"
       sodipodi:cx="-41.355995"
       sodipodi:cy="851.18707"
       sodipodi:rx="8.2142859"
       sodipodi:ry="9.6428576"
       sodipodi:start="0.0208415"
       sodipodi:end="3.0229277"
       sodipodi:open="true"
       d="m -33.143493,851.38803 a 8.2142859,9.6428576 0 0 1 -7.810887,9.43037 8.2142859,9.6428576 0 0 1 -8.558135,-8.48974"
       transform="matrix(-0.94787976,0.31862825,0.31862825,0.94787976,0,0)" />
    <circle
       style="opacity:1;fill:#000000;fill-opacity:1;stroke:url(#radialGradient18976-1);stroke-width:3;stroke-miterlimit:4;stroke-dasharray:none;stroke-opacity:1;filter:url(#filter19037-6)"
       id="path18940-3-3"
       cx="309.47028"
       cy="921.91656"
       r="27.857143"
       transform="matrix(1.885925,0,0,1.5423082,-389.35201,-493.80303)" />
    <path
       style="fill:none;fill-rule:evenodd;stroke:#000000;stroke-width:1px;stroke-linecap:butt;stroke-linejoin:miter;stroke-opacity:1"
       d="m 110,728.07645 4.28571,44.28571"
       id="path22530"
       inkscape:connector-curvature="0" />
  </g>
</svg>
