<?xml version="1.0" encoding="UTF-8" standalone="no"?>
<!-- Created with Inkscape (http://www.inkscape.org/) -->

<svg
   xmlns:dc="http://purl.org/dc/elements/1.1/"
   xmlns:cc="http://creativecommons.org/ns#"
   xmlns:rdf="http://www.w3.org/1999/02/22-rdf-syntax-ns#"
   xmlns:svg="http://www.w3.org/2000/svg"
   xmlns="http://www.w3.org/2000/svg"
   xmlns:sodipodi="http://sodipodi.sourceforge.net/DTD/sodipodi-0.dtd"
   xmlns:inkscape="http://www.inkscape.org/namespaces/inkscape"
   width="1024"
   height="1052.36"
   id="svg2"
   version="1.1"
   inkscape:version="0.91 r13725"
   sodipodi:docname="FortTile.svg"
   inkscape:export-filename="D:\Dev\Unity3D\FireStarter\Assets\Sprites\TileTemplate.png"
   inkscape:export-xdpi="90"
   inkscape:export-ydpi="90">
  <defs
     id="defs4">
    <pattern
       y="0"
       x="0"
       height="6"
       width="6"
       patternUnits="userSpaceOnUse"
       id="EMFhbasepattern" />
  </defs>
  <sodipodi:namedview
     id="base"
     pagecolor="#ffffff"
     bordercolor="#666666"
     borderopacity="1.0"
     inkscape:pageopacity="0.0"
     inkscape:pageshadow="2"
     inkscape:zoom="1.979899"
     inkscape:cx="501.37841"
     inkscape:cy="159.58319"
     inkscape:document-units="px"
     inkscape:current-layer="layer1"
     showgrid="true"
     showguides="true"
     inkscape:window-width="1280"
     inkscape:window-height="738"
     inkscape:window-x="-8"
     inkscape:window-y="-8"
     inkscape:window-maximized="1">
    <inkscape:grid
       type="axonomgrid"
       id="grid2987"
       units="mm"
       empspacing="10"
       visible="true"
       enabled="true"
       snapvisiblegridlinesonly="true"
       spacingy="8mm" />
  </sodipodi:namedview>
  <metadata
     id="metadata7">
    <rdf:RDF>
      <cc:Work
         rdf:about="">
        <dc:format>image/svg+xml</dc:format>
        <dc:type
           rdf:resource="http://purl.org/dc/dcmitype/StillImage" />
        <dc:title></dc:title>
      </cc:Work>
    </rdf:RDF>
  </metadata>
  <g
     inkscape:label="Layer 1"
     inkscape:groupmode="layer"
     id="layer1"
     transform="translate(0,-0.00218262)">
    <path
       style="fill:none;stroke:#000000;stroke-width:1px;stroke-linecap:butt;stroke-linejoin:miter;stroke-opacity:1"
       d="M 490.97503,1052.36 C 245.48752,910.6277 245.48752,910.6277 245.48752,910.6277 L 490.97503,768.89542 736.46255,910.6277 z"
       id="path3038"
       inkscape:connector-curvature="0"
       transform="translate(0,0.00218262)" />
    <path
       inkscape:connector-curvature="0"
       id="path3340"
       d="m 354.63703,878.04173 34.96971,19.15718 0,-95.78524 -34.96971,-19.10649 z"
       style="fill:none;stroke:#000000;stroke-width:0.67673552px;stroke-linecap:butt;stroke-linejoin:miter;stroke-miterlimit:4;stroke-dasharray:none;stroke-opacity:1" />
    <path
       inkscape:connector-curvature="0"
       id="path3342"
       d="m 494.62326,954.66976 -34.96999,-19.15715 0,-95.78458 34.96999,19.15652 35.02275,-19.15652 0,95.78458 -35.02275,19.15715 z"
       style="fill:none;stroke:#000000;stroke-width:0.67673552px;stroke-linecap:butt;stroke-linejoin:miter;stroke-miterlimit:4;stroke-dasharray:none;stroke-opacity:1" />
    <path
       inkscape:connector-curvature="0"
       id="path3344"
       d="m 407.14515,810.99226 52.50812,28.73577 0,76.62806 -52.50812,-28.73577"
       style="fill:none;stroke:#000000;stroke-width:0.67673552px;stroke-linecap:butt;stroke-linejoin:miter;stroke-miterlimit:4;stroke-dasharray:none;stroke-opacity:1" />
    <path
       inkscape:connector-curvature="0"
       id="path3346"
       d="m 459.65327,839.72803 34.96999,-19.15718 35.02275,19.15718"
       style="fill:none;stroke:#000000;stroke-width:0.67673552px;stroke-linecap:butt;stroke-linejoin:miter;stroke-miterlimit:4;stroke-dasharray:none;stroke-opacity:1" />
    <path
       inkscape:connector-curvature="0"
       id="path3348"
       d="m 634.87611,878.34581 -34.4353,19.15718 0,-95.78524 34.4353,-19.15718 z"
       style="fill:none;stroke:#000000;stroke-width:0.67673552px;stroke-linecap:butt;stroke-linejoin:miter;stroke-miterlimit:4;stroke-dasharray:none;stroke-opacity:1" />
    <path
       inkscape:connector-curvature="0"
       id="path3350"
       d="m 582.15448,887.62032 -52.50847,28.73577"
       style="fill:none;stroke:#000000;stroke-width:0.67673552px;stroke-linecap:butt;stroke-linejoin:miter;stroke-miterlimit:4;stroke-dasharray:none;stroke-opacity:1" />
    <path
       inkscape:connector-curvature="0"
       id="path3352"
       d="m 582.15448,810.99226 -52.50847,28.73577"
       style="fill:none;stroke:#000000;stroke-width:0.67673552px;stroke-linecap:butt;stroke-linejoin:miter;stroke-miterlimit:4;stroke-dasharray:none;stroke-opacity:1" />
    <path
       inkscape:connector-curvature="0"
       id="path3354"
       d="m 564.616,801.41367 -52.45499,28.73577"
       style="fill:none;stroke:#000000;stroke-width:0.67673552px;stroke-linecap:butt;stroke-linejoin:miter;stroke-miterlimit:4;stroke-dasharray:none;stroke-opacity:1" />
    <path
       inkscape:connector-curvature="0"
       id="path3356"
       d="m 424.62999,801.41367 52.50827,28.73577"
       style="fill:none;stroke:#000000;stroke-width:0.67673552px;stroke-linecap:butt;stroke-linejoin:miter;stroke-miterlimit:4;stroke-dasharray:none;stroke-opacity:1" />
    <path
       inkscape:connector-curvature="0"
       id="path3358"
       d="m 564.616,782.30718 35.02275,-19.15692 35.02347,19.15692"
       style="fill:none;stroke:#000000;stroke-width:0.67673552px;stroke-linecap:butt;stroke-linejoin:miter;stroke-miterlimit:4;stroke-dasharray:none;stroke-opacity:1" />
    <path
       inkscape:connector-curvature="0"
       id="path3360"
       d="m 354.63703,782.30718 34.96971,-19.15692 35.02325,19.15692 0,19.10649"
       style="fill:none;stroke:#000000;stroke-width:0.67673552px;stroke-linecap:butt;stroke-linejoin:miter;stroke-miterlimit:4;stroke-dasharray:none;stroke-opacity:1" />
    <path
       inkscape:connector-curvature="0"
       id="path3362"
       d="m 564.616,782.30718 0,19.10649"
       style="fill:none;stroke:#000000;stroke-width:0.67673552px;stroke-linecap:butt;stroke-linejoin:miter;stroke-miterlimit:4;stroke-dasharray:none;stroke-opacity:1" />
    <path
       inkscape:connector-curvature="0"
       id="path3364"
       d="m 600.38736,897.65503 -18.23288,-9.98402"
       style="fill:none;stroke:#000000;stroke-width:0.72879207px;stroke-linecap:butt;stroke-linejoin:miter;stroke-miterlimit:4;stroke-dasharray:none;stroke-opacity:1" />
    <path
       inkscape:connector-curvature="0"
       id="path3366"
       d="m 582.15448,810.99226 0,76.62806"
       style="fill:none;stroke:#000000;stroke-width:0.67673552px;stroke-linecap:butt;stroke-linejoin:miter;stroke-miterlimit:4;stroke-dasharray:none;stroke-opacity:1" />
    <path
       inkscape:connector-curvature="0"
       id="path3368"
       d="m 582.15448,810.99226 -17.53848,-9.57859 0,0"
       style="fill:none;stroke:#000000;stroke-width:0.67673552px;stroke-linecap:butt;stroke-linejoin:miter;stroke-miterlimit:4;stroke-dasharray:none;stroke-opacity:1" />
    <path
       inkscape:connector-curvature="0"
       id="path3370"
       d="m 564.616,782.30718 35.02275,19.10649"
       style="fill:none;stroke:#000000;stroke-width:0.67673552px;stroke-linecap:butt;stroke-linejoin:miter;stroke-miterlimit:4;stroke-dasharray:none;stroke-opacity:1" />
    <path
       inkscape:connector-curvature="0"
       id="path3372"
       d="m 389.60674,801.41367 35.02325,-19.10649"
       style="fill:none;stroke:#000000;stroke-width:0.67673552px;stroke-linecap:butt;stroke-linejoin:miter;stroke-miterlimit:4;stroke-dasharray:none;stroke-opacity:1" />
    <path
       inkscape:connector-curvature="0"
       id="path3374"
       d="m 424.62999,801.41367 -17.48484,9.57859"
       style="fill:none;stroke:#000000;stroke-width:0.67673552px;stroke-linecap:butt;stroke-linejoin:miter;stroke-miterlimit:4;stroke-dasharray:none;stroke-opacity:1" />
    <path
       inkscape:connector-curvature="0"
       id="path3376"
       d="m 389.60674,897.19891 17.53841,-9.57859"
       style="fill:none;stroke:#000000;stroke-width:0.67673552px;stroke-linecap:butt;stroke-linejoin:miter;stroke-miterlimit:4;stroke-dasharray:none;stroke-opacity:1" />
    <path
       inkscape:connector-curvature="0"
       id="path3378"
       d="m 407.14515,810.99226 0,76.62806"
       style="fill:none;stroke:#000000;stroke-width:0.67673552px;stroke-linecap:butt;stroke-linejoin:miter;stroke-miterlimit:4;stroke-dasharray:none;stroke-opacity:1" />
    <path
       inkscape:connector-curvature="0"
       id="path3380"
       d="m 459.65327,724.83615 34.96999,-19.15703 35.02275,19.15703 -35.02275,19.15707 -34.96999,-19.15707 z"
       style="fill:none;stroke:#000000;stroke-width:0.67673552px;stroke-linecap:butt;stroke-linejoin:miter;stroke-miterlimit:4;stroke-dasharray:none;stroke-opacity:1" />
    <path
       inkscape:connector-curvature="0"
       id="path3382"
       d="m 582.15448,772.72878 -52.50847,-28.73556 0,0"
       style="fill:none;stroke:#000000;stroke-width:0.67673552px;stroke-linecap:butt;stroke-linejoin:miter;stroke-miterlimit:4;stroke-dasharray:none;stroke-opacity:1" />
    <path
       inkscape:connector-curvature="0"
       id="path3384"
       d="m 512.16101,753.57174 17.485,-9.57852"
       style="fill:none;stroke:#000000;stroke-width:0.67673552px;stroke-linecap:butt;stroke-linejoin:miter;stroke-miterlimit:4;stroke-dasharray:none;stroke-opacity:1" />
    <path
       inkscape:connector-curvature="0"
       id="path3386"
       d="m 564.616,782.30718 -52.45499,-28.73544 0,76.5777 0,0"
       style="fill:none;stroke:#000000;stroke-width:0.67673552px;stroke-linecap:butt;stroke-linejoin:miter;stroke-miterlimit:4;stroke-dasharray:none;stroke-opacity:1" />
    <path
       inkscape:connector-curvature="0"
       id="path3388"
       d="m 459.65327,743.99322 17.48499,9.57852 -52.50827,28.73544"
       style="fill:none;stroke:#000000;stroke-width:0.67673552px;stroke-linecap:butt;stroke-linejoin:miter;stroke-miterlimit:4;stroke-dasharray:none;stroke-opacity:1" />
    <path
       inkscape:connector-curvature="0"
       id="path3390"
       d="m 407.14515,772.72878 52.50812,-28.73556"
       style="fill:none;stroke:#000000;stroke-width:0.67673552px;stroke-linecap:butt;stroke-linejoin:miter;stroke-miterlimit:4;stroke-dasharray:none;stroke-opacity:1" />
    <path
       inkscape:connector-curvature="0"
       id="path3392"
       d="m 477.13826,753.57174 0,38.26334"
       style="fill:none;stroke:#000000;stroke-width:0.67673552px;stroke-linecap:butt;stroke-linejoin:miter;stroke-miterlimit:4;stroke-dasharray:none;stroke-opacity:1" />
    <path
       inkscape:connector-curvature="0"
       id="path3394"
       d="m 477.13826,791.83508 0,38.31436"
       style="fill:none;stroke:#000000;stroke-width:0.67673552px;stroke-linecap:butt;stroke-linejoin:miter;stroke-miterlimit:4;stroke-dasharray:none;stroke-opacity:1" />
    <path
       inkscape:connector-curvature="0"
       id="path3396"
       d="m 529.64601,724.83615 0,19.15707"
       style="fill:none;stroke:#000000;stroke-width:0.67673552px;stroke-linecap:butt;stroke-linejoin:miter;stroke-miterlimit:4;stroke-dasharray:none;stroke-opacity:1" />
    <path
       inkscape:connector-curvature="0"
       id="path3398"
       d="m 494.62326,743.99322 0,76.57763"
       style="fill:none;stroke:#000000;stroke-width:0.67673552px;stroke-linecap:butt;stroke-linejoin:miter;stroke-miterlimit:4;stroke-dasharray:none;stroke-opacity:1" />
    <path
       inkscape:connector-curvature="0"
       id="path3400"
       d="m 442.11479,906.7775 0,-19.15718 -17.4848,-9.57859 0,19.15718 0,0"
       style="fill:none;stroke:#000000;stroke-width:0.67673552px;stroke-linecap:butt;stroke-linejoin:miter;stroke-miterlimit:4;stroke-dasharray:none;stroke-opacity:1" />
    <path
       inkscape:connector-curvature="0"
       id="path3402"
       d="m 564.616,897.19891 0,-19.15718 -17.485,9.57859 0,19.15718 0,0"
       style="fill:none;stroke:#000000;stroke-width:0.67673552px;stroke-linecap:butt;stroke-linejoin:miter;stroke-miterlimit:4;stroke-dasharray:none;stroke-opacity:1" />
    <path
       inkscape:connector-curvature="0"
       id="path3404"
       d="m 424.62999,897.19891 17.4848,-9.57859"
       style="fill:none;stroke:#000000;stroke-width:0.67673552px;stroke-linecap:butt;stroke-linejoin:miter;stroke-miterlimit:4;stroke-dasharray:none;stroke-opacity:1" />
    <path
       inkscape:connector-curvature="0"
       id="path3406"
       d="m 564.616,897.19891 -17.485,-9.57859"
       style="fill:none;stroke:#000000;stroke-width:0.67673552px;stroke-linecap:butt;stroke-linejoin:miter;stroke-miterlimit:4;stroke-dasharray:none;stroke-opacity:1" />
    <path
       inkscape:connector-curvature="0"
       id="path3408"
       d="m 407.14515,782.30718 c 0,5.27075 -7.86023,9.5279 -17.53841,9.5279 -9.62469,0 -17.48484,-4.25715 -17.48484,-9.5279 0,-5.32144 7.86015,-9.5784 17.48484,-9.5784 9.67818,0 17.53841,4.25696 17.53841,9.5784 z"
       style="fill:#ff0000;fill-opacity:1;fill-rule:evenodd;stroke:#000000;stroke-width:0.67673552px;stroke-linecap:butt;stroke-linejoin:miter;stroke-miterlimit:4;stroke-dasharray:none;stroke-opacity:1" />
    <path
       inkscape:connector-curvature="0"
       id="path3410"
       d="m 616.64253,781.80036 c 0,-5.27075 -7.86023,-9.57837 -17.53848,-9.57837 -9.62406,0 -17.48429,4.30762 -17.48429,9.57837 0,5.27078 7.86023,9.57859 17.48429,9.57859 9.67825,0 17.53848,-4.30781 17.53848,-9.57859 z"
       style="fill:#ff0000;fill-opacity:1;fill-rule:evenodd;stroke:#000000;stroke-width:0.67673552px;stroke-linecap:butt;stroke-linejoin:miter;stroke-miterlimit:4;stroke-dasharray:none;stroke-opacity:1" />
    <path
       inkscape:connector-curvature="0"
       id="path3412"
       d="m 511.62629,724.32937 c 0,5.27068 -7.86023,9.57852 -17.48427,9.57852 -9.67824,0 -17.53847,-4.30784 -17.53847,-9.57852 0,-5.27078 7.86023,-9.57852 17.53847,-9.57852 9.62404,0 17.48427,4.30774 17.48427,9.57852 z"
       style="fill:#ff0000;fill-opacity:1;fill-rule:evenodd;stroke:#000000;stroke-width:0.67673552px;stroke-linecap:butt;stroke-linejoin:miter;stroke-miterlimit:4;stroke-dasharray:none;stroke-opacity:1" />
    <path
       inkscape:connector-curvature="0"
       id="path3414"
       d="m 511.62629,839.27191 c 0,5.27008 -7.86023,9.57792 -17.48427,9.57792 -9.67824,0 -17.53847,-4.30784 -17.53847,-9.57792 0,-5.32144 7.86023,-9.57859 17.53847,-9.57859 9.62404,0 17.48427,4.25715 17.48427,9.57859 z"
       style="fill:#ff0000;fill-opacity:1;fill-rule:evenodd;stroke:#000000;stroke-width:0.67673552px;stroke-linecap:butt;stroke-linejoin:miter;stroke-miterlimit:4;stroke-dasharray:none;stroke-opacity:1" />
    <path
       inkscape:connector-curvature="0"
       id="path3416"
       d="m 494.62326,858.88455 0,95.78521"
       style="fill:none;stroke:#000000;stroke-width:0.67673552px;stroke-linecap:butt;stroke-linejoin:miter;stroke-miterlimit:4;stroke-dasharray:none;stroke-opacity:1" />
    <path
       inkscape:connector-curvature="0"
       id="path3418"
       d="m 459.65327,724.83615 0,19.15707 z"
       style="fill:#333333;fill-opacity:1;fill-rule:evenodd;stroke:none" />
    <path
       inkscape:connector-curvature="0"
       id="path3420"
       d="m 459.65327,724.83615 0,19.15707"
       style="fill:none;stroke:#000000;stroke-width:0.67673552px;stroke-linecap:butt;stroke-linejoin:miter;stroke-miterlimit:4;stroke-dasharray:none;stroke-opacity:1" />
    <path
       inkscape:connector-curvature="0"
       id="path3422"
       d="m 494.99754,906.57477 0,-47.38614 16.73571,-9.12247 c 9.19698,-5.01736 16.84335,-9.22315 17.05721,-9.3245 0.26737,-0.2028 0.32083,7.70274 0.32083,47.13205 l 0,47.38548 -12.03096,6.58845 c -6.63038,3.64897 -14.27675,7.80477 -17.05722,9.32518 l -5.02557,2.78743 0,-47.38548 z"
       style="fill:#333333;fill-opacity:1;fill-rule:nonzero;stroke:none" />
    <path
       inkscape:connector-curvature="0"
       id="path3424"
       d="m 530.12724,877.73765 0,-37.80689 19.8912,-10.84561 c 10.96155,-5.98026 22.51127,-12.31533 25.71953,-14.03844 l 5.82831,-3.19287 -0.0536,37.80689 -0.0536,37.80755 -8.02064,4.40919 c -4.43808,2.43266 -8.12757,4.40919 -8.23451,4.40919 -0.10685,0 -0.16041,-4.20646 -0.16041,-9.42655 0,-5.16939 -0.10686,-9.37586 -0.21397,-9.37586 -0.10686,0 -4.22421,2.22993 -9.09007,4.91598 l -8.92964,4.86532 -0.0536,9.62928 -0.10686,9.67994 -8.23453,4.45988 -8.28799,4.51055 0,-37.80755 z"
       style="fill:#333333;fill-opacity:1;fill-rule:nonzero;stroke:none" />
    <path
       inkscape:connector-curvature="0"
       id="path3426"
       d="m 600.97553,849.2046 0.0535,-47.28412 16.62946,-9.27451 16.62948,-9.27451 0,47.38615 0,47.38547 -16.576,9.17316 c -9.09006,5.06804 -16.576,9.22382 -16.68294,9.22382 -0.0535,0 -0.10685,-21.28576 -0.0535,-47.33546 z"
       style="fill:#333333;fill-opacity:1;fill-rule:nonzero;stroke:none" />
    <path
       inkscape:connector-curvature="0"
       id="path3428"
       d="m 503.12441,824.72665 -8.01991,-4.40919 0,-38.06097 0,-38.00988 16.30792,-8.97035 c 8.98312,-4.91601 16.62946,-9.07173 17.00376,-9.27444 l 0.69511,-0.35477 0,9.07173 0,9.02102 -8.39492,4.61185 c -4.65197,2.53403 -8.60884,4.61192 -8.82271,4.61192 -0.32082,0 -0.32082,5.47341 -0.32082,38.1113 0,20.98168 -0.10686,38.11166 -0.21397,38.11166 -0.10686,0 -3.79646,-2.02722 -8.23454,-4.45988 z"
       style="fill:#333333;fill-opacity:1;fill-rule:nonzero;stroke:none" />
    <path
       inkscape:connector-curvature="0"
       id="path3430"
       d="m 390.2484,848.95118 0.0536,-47.33478 11.81702,-6.48708 c 6.52337,-3.59832 14.11625,-7.7541 16.89668,-9.22385 l 5.02625,-2.7874 -0.0536,9.07178 -0.10686,9.07178 -8.23443,4.56123 c -4.59852,2.48335 -8.44835,4.66261 -8.60876,4.81465 -0.26735,0.20281 -0.32083,8.21022 -0.32083,38.46572 l 0,38.21301 -8.07412,4.40919 c -4.438,2.43266 -8.18098,4.45988 -8.28791,4.51055 -0.10686,0.0508 -0.16041,-21.23507 -0.10686,-47.2848 z"
       style="fill:#333333;fill-opacity:1;fill-rule:nonzero;stroke:none" />
    <path
       inkscape:connector-curvature="0"
       id="path3432"
       d="m 450.83056,815.24941 -25.77278,-14.13982 0,-9.22382 0,-9.22382 0.53449,-0.35477 c 1.76454,-1.06429 50.9578,-27.92455 51.06476,-27.8232 0.0535,0.0508 0.0535,16.87643 0,37.45247 l -0.0536,37.40212 -25.77301,-14.08916 z"
       style="fill:#333333;fill-opacity:1;fill-rule:nonzero;stroke:none" />
    <path
       inkscape:connector-curvature="0"
       id="path3434"
       d="m 425.11123,887.56963 c 0,-4.76394 0.0536,-8.61565 0.16041,-8.56497 2.45947,1.16564 15.61333,8.51431 15.55985,8.66635 -0.0536,0.15204 -15.39943,8.61565 -15.6133,8.61565 -0.0535,0 -0.10686,-3.90238 -0.10686,-8.71703 z"
       style="fill:#333333;fill-opacity:1;fill-rule:nonzero;stroke:none" />
    <path
       inkscape:connector-curvature="0"
       id="path3436"
       d="m 450.88402,911.03465 -8.18106,-4.45988 -0.10686,-9.62925 -0.0536,-9.62928 -8.98312,-4.91601 c -4.9728,-2.68605 -9.08985,-4.91598 -9.25026,-4.91598 -0.10686,0 -0.26735,3.90238 -0.26735,9.42655 l -0.10686,9.37586 -8.18097,-4.45988 -8.23454,-4.51054 0,-37.75689 0,-37.7562 1.60413,0.8109 c 3.68949,1.97653 49.03257,26.86059 49.56729,27.21536 l 0.53469,0.35475 -0.0536,37.70553 -0.10685,37.65551 -8.18106,-4.51055 z"
       style="fill:#4d4d4d;fill-opacity:1;fill-rule:nonzero;stroke:none" />
    <path
       inkscape:connector-curvature="0"
       id="path3438"
       d="m 477.03131,944.5337 c -9.14353,-5.01736 -16.73639,-9.22382 -16.84335,-9.32518 -0.10686,-0.10128 -0.16041,-21.43713 -0.16041,-47.43616 l 0.10685,-47.23343 16.89683,9.27384 16.95028,9.22382 0.0536,47.33548 c 0.0536,26.04969 0,47.33476 -0.10686,47.33476 -0.10686,0 -7.69982,-4.10511 -16.89683,-9.17313 z"
       style="fill:#4d4d4d;fill-opacity:1;fill-rule:nonzero;stroke:none" />
    <path
       inkscape:connector-curvature="0"
       id="path3440"
       d="m 477.88685,849.2046 c -9.19701,-5.06804 -16.84335,-9.27384 -16.95028,-9.37519 -0.26737,-0.25342 33.41932,-18.65039 33.90056,-18.49835 0.21397,0.0508 7.913,4.20648 17.10999,9.22384 l 16.73641,9.17313 -12.77955,6.99323 c -7.00471,3.85171 -14.65104,8.00749 -17.00376,9.32519 l -4.27696,2.33128 -16.73641,-9.17313 z m 23.36609,-0.7602 c 12.19137,-2.99016 14.59756,-12.11194 4.43808,-16.82521 -8.4477,-3.95307 -21.33418,-2.78743 -26.84169,2.38197 -1.87148,1.72314 -2.62009,3.24355 -2.62009,5.27075 0,2.9388 2.03191,5.5235 6.09569,7.50003 3.74297,1.8245 7.16512,2.48333 12.67261,2.33129 3.04785,-0.0508 4.33044,-0.20281 6.2554,-0.65883 z"
       style="fill:#4d4d4d;fill-opacity:1;fill-rule:nonzero;stroke:none" />
    <path
       inkscape:connector-curvature="0"
       id="path3442"
       d="m 433.98721,825.18277 c -13.90223,-7.60205 -25.4519,-13.93709 -25.61232,-14.03847 -0.16041,-0.10128 3.36867,-2.12857 7.96719,-4.66259 l 8.28791,-4.51054 25.66585,14.03845 c 14.16981,7.70343 25.71954,14.08916 25.71954,14.13982 0,0.2028 -16.14825,8.97043 -16.41559,8.91977 -0.16042,0 -11.65666,-6.23369 -25.61258,-13.88644 z"
       style="fill:#4d4d4d;fill-opacity:1;fill-rule:nonzero;stroke:none" />
    <path
       inkscape:connector-curvature="0"
       id="path3444"
       d="m 371.96149,887.06284 -16.84322,-9.22384 -0.0536,-47.38547 0,-47.33546 0.69513,0.35475 c 0.42776,0.15204 8.07405,4.35852 17.00363,9.2745 l 16.30848,8.91977 0.0536,47.33478 c 0.0535,25.99904 0,47.28479 -0.10686,47.28479 -0.10686,0 -7.80667,-4.15579 -17.05709,-9.22382 z"
       style="fill:#999999;fill-opacity:1;fill-rule:nonzero;stroke:none" />
    <path
       inkscape:connector-curvature="0"
       id="path3446"
       d="m 450.83056,910.88261 -8.02064,-4.40919 -0.10686,-9.62928 -0.0535,-9.57859 -8.76925,-4.81463 c -4.81239,-2.63539 -8.9829,-4.81463 -9.30372,-4.916 -0.48124,-0.10128 -0.48124,0 -0.53472,1.67245 0,0.96293 -0.10686,5.1694 -0.16041,9.27451 l -0.16041,7.55139 -8.07405,-4.40919 -8.07412,-4.35853 -0.0536,-37.65551 c 0,-32.23205 0.0536,-37.55349 0.37431,-37.45211 0.3743,0.15204 28.07197,15.25477 42.29523,23.11025 l 8.87618,4.91598 -0.0536,37.55349 c -0.0536,20.6269 -0.10686,37.50347 -0.16041,37.50347 0,0.0508 -3.63605,-1.92585 -8.02065,-4.35851 z"
       style="fill:#999999;fill-opacity:1;fill-rule:nonzero;stroke:none" />
    <path
       inkscape:connector-curvature="0"
       id="path3448"
       d="m 486.60262,949.60172 c -3.95686,-2.12858 -11.44279,-6.28435 -16.73641,-9.17313 l -9.62477,-5.32144 0,-47.18275 c 0,-25.94834 0.10686,-47.13208 0.16041,-47.08139 2.13885,1.11498 32.88463,17.94018 33.15198,18.14289 0.21397,0.25342 0.26737,9.88267 0.21397,47.38617 l -0.0536,47.13205 -7.11162,-3.9024 z"
       style="fill:#999999;fill-opacity:1;fill-rule:nonzero;stroke:none" />
    <path
       inkscape:connector-curvature="0"
       id="path3450"
       d="m 457.67483,837.95423 c -0.90899,-0.45612 -11.28237,-6.13233 -23.04596,-12.56873 -11.76342,-6.43641 -22.35059,-12.26466 -23.58041,-12.92349 -1.22985,-0.65886 -2.24578,-1.31771 -2.24578,-1.36837 0,-0.30409 13.31419,-7.80479 15.34607,-8.71704 0.53472,-0.2028 2.51293,0.8109 19.40975,10.08541 27.16325,14.84934 31.97564,17.48473 31.97564,17.73812 0,0.2534 -15.39963,8.66635 -15.93435,8.66635 -0.16042,0 -1.01596,-0.40544 -1.92496,-0.91225 z"
       style="fill:#999999;fill-opacity:1;fill-rule:nonzero;stroke:none" />
    <path
       inkscape:connector-curvature="0"
       id="path3452"
       d="M 484.03602,852.44813 C 462.96846,840.8937 461.2574,839.93076 461.2574,839.82941 c 0,-0.30408 18.1801,-10.38948 28.60693,-15.86297 4.22422,-2.22992 4.86587,-2.53401 5.40058,-2.28061 0.69511,0.30408 5.56027,2.93947 21.01335,11.35239 6.20265,3.44629 11.49627,6.33507 11.76362,6.43642 0.32082,0.2028 -0.21397,0.60816 -3.04785,2.12858 -1.92495,1.06361 -5.93527,3.24285 -8.87618,4.86464 -2.94089,1.62177 -8.82271,4.81463 -13.10037,7.1966 -4.27767,2.3313 -7.96646,4.30784 -8.18035,4.35853 -0.16041,0.0508 -5.02625,-2.43266 -10.80111,-5.57486 z m 14.49061,-3.44626 c 1.33607,0 4.81167,-0.96293 7.00397,-1.97653 1.60413,-0.70952 2.62009,-1.41906 3.90339,-2.63539 1.01596,-0.91225 1.71106,-1.72312 1.60413,-1.87516 -0.10686,-0.15204 0,-0.25342 0.16041,-0.25342 0.16041,0 0.21397,-0.10128 0.16041,-0.15132 -0.10685,-0.10128 0,-0.35475 0.21397,-0.55747 0.21397,-0.20281 0.32083,-0.55748 0.26735,-0.8109 -0.0536,-0.25339 0,-0.45612 0.16041,-0.45612 0.48124,0 0,-2.73674 -0.64165,-4.00374 -0.85552,-1.5711 -3.20826,-3.59832 -5.34708,-4.61192 -2.03191,-0.91224 -4.54504,-1.72314 -5.77486,-1.87518 -0.53472,0 -1.12289,-0.15204 -1.39026,-0.25339 -0.21321,-0.0508 -0.64094,-0.10128 -0.90829,0 -0.32083,0.0508 -0.58817,0 -0.64165,-0.10128 -0.21397,-0.2534 -6.52345,-0.30409 -6.52345,-0.0508 0,0.10128 -0.64165,0.2028 -1.44371,0.2028 -1.92496,0.10128 -5.82835,1.31768 -7.96719,2.48334 -2.40619,1.36837 -5.18667,4.35851 -4.70543,5.11871 0.10686,0.10128 0,0.2028 -0.16041,0.2028 -0.16041,0 -0.21397,0.20281 -0.16041,0.50682 0.10685,0.25339 0.0535,0.55747 -0.10686,0.60816 -0.37431,0.25339 0,2.17924 0.64165,3.5983 0.32083,0.65816 1.17637,1.72245 1.81802,2.33061 2.29923,2.12858 7.21858,4.25715 10.26642,4.45988 0.74859,0 1.44372,0.10128 1.49717,0.15204 0.0536,0.10128 1.76454,0.10128 3.74298,0.0508 1.97843,-0.0508 3.95684,-0.10128 4.33114,-0.10128 z"
       style="fill:#999999;fill-opacity:1;fill-rule:nonzero;stroke:none" />
    <path
       inkscape:connector-curvature="0"
       id="path3454"
       d="m 372.92396,791.73373 c -9.19693,-5.01736 -16.84322,-9.22383 -17.00363,-9.3252 -0.21397,-0.10128 6.46992,-3.85169 16.68281,-9.47722 l 17.0036,-9.27424 16.89676,9.22356 c 9.25038,5.06804 16.89667,9.2745 16.95015,9.32519 0.0535,0.0508 -7.27198,4.15578 -16.36198,9.12247 -9.09005,4.96667 -16.73634,9.12247 -17.00369,9.27451 -0.42776,0.25339 -2.51305,-0.81089 -17.16402,-8.86907 z m 22.77847,0 c 10.58717,-2.22993 15.07866,-9.17316 9.35735,-14.54526 -6.79082,-6.38554 -23.31319,-6.53758 -30.47824,-0.30409 -2.5666,2.17924 -3.42212,4.6119 -2.5666,7.29798 0.3743,1.21633 0.69513,1.72311 2.24578,3.14217 2.62008,2.43266 6.20257,4.00376 11.01495,4.71328 2.13885,0.30408 8.28792,0.10128 10.42676,-0.30408 z"
       style="fill:#999999;fill-opacity:1;fill-rule:nonzero;stroke:none" />
    <path
       inkscape:connector-curvature="0"
       id="path3456"
       d="m 416.39554,777.23913 c -4.43808,-2.38197 -8.0741,-4.45967 -8.0741,-4.51035 0,-0.10129 1.65758,-1.06429 3.74295,-2.17924 2.03191,-1.16567 13.58136,-7.44997 25.66577,-14.08909 l 21.92311,-11.96044 7.96716,4.35845 c 4.43808,2.43266 8.12757,4.45988 8.23453,4.56124 0.16042,0.15204 -50.31594,28.02592 -51.11801,28.17796 -0.16041,0.0508 -3.90339,-1.92587 -8.34141,-4.35853 z"
       style="fill:#999999;fill-opacity:1;fill-rule:nonzero;stroke:none" />
    <path
       inkscape:connector-curvature="0"
       id="path3458"
       d="m 477.56602,734.11062 c -9.19701,-5.01736 -16.68293,-9.22378 -16.68293,-9.32513 0,-0.0508 7.59288,-4.30784 16.89683,-9.37581 l 16.84334,-9.22378 17.05651,9.32515 c 13.4212,7.34857 16.95028,9.37579 16.576,9.52783 -0.21397,0.15205 -7.80677,4.30777 -16.89683,9.22378 -9.03659,4.96659 -16.62874,9.02102 -16.78916,9.02102 -0.21396,0 -7.86022,-4.15578 -17.00376,-9.17306 z m 20.85367,-0.10129 c 4.86513,-0.70954 8.50117,-2.17926 11.0143,-4.51056 1.81802,-1.72307 2.56661,-3.1928 2.56661,-5.16933 0.0535,-8.71696 -18.50023,-13.1768 -30.15691,-7.2979 -4.7589,2.38189 -6.79079,6.38565 -5.02625,9.98395 2.51313,5.16935 12.29831,8.31153 21.60225,6.99384 z"
       style="fill:#999999;fill-opacity:1;fill-rule:nonzero;stroke:none" />
    <path
       inkscape:connector-curvature="0"
       id="path3460"
       d="m 538.94995,767.71142 c -14.06285,-7.70334 -25.61257,-14.03833 -25.66605,-14.08899 -0.16041,-0.15205 15.93435,-8.97038 16.36211,-8.97038 0.3743,0 51.27862,27.87402 51.27862,28.07673 0,0.10128 -15.29267,8.51411 -16.04128,8.81819 -0.21397,0.0508 -10.6407,-5.47348 -25.9334,-13.83555 z"
       style="fill:#999999;fill-opacity:1;fill-rule:nonzero;stroke:none" />
    <path
       inkscape:connector-curvature="0"
       id="path3462"
       d="m 521.51843,834.76137 c -4.33114,-2.38197 -7.96719,-4.4092 -8.07412,-4.51055 -0.10686,-0.10128 11.38931,-6.53777 25.50564,-14.2412 l 25.71953,-14.03845 8.23451,4.51054 8.23453,4.51055 -0.69513,0.40546 c -2.40619,1.41903 -50.36962,27.57011 -50.69045,27.6208 -0.21397,0.0508 -3.90336,-1.87519 -8.23451,-4.25715 z"
       style="fill:#999999;fill-opacity:1;fill-rule:nonzero;stroke:none" />
    <path
       inkscape:connector-curvature="0"
       id="path3464"
       d="m 591.24453,892.0802 -8.39494,-4.61192 -0.0536,-38.31437 -0.10686,-38.263 -0.90899,-0.60817 c -0.53472,-0.30408 -4.49156,-2.48334 -8.82271,-4.81462 l -7.80675,-4.30784 0,-9.02112 c 0,-4.96667 0.0536,-9.02109 0.16041,-8.97043 10.74766,5.92961 33.63251,18.39698 33.95334,18.44767 0.21396,0.0508 0.48123,-0.0508 0.58817,-0.2028 0.0535,-0.2534 -4.97209,-3.14218 -17.05651,-9.73063 l -17.16417,-9.37587 0.6951,-0.40546 c 0.42779,-0.25339 7.43247,-4.10511 15.61353,-8.56496 8.18105,-4.45969 15.50586,-8.51411 16.30792,-8.91948 l 1.39024,-0.7602 17.00378,9.32491 c 9.3574,5.11871 17.05721,9.37586 17.05721,9.47723 0.0536,0.10129 -7.48592,4.35851 -16.73638,9.52791 l -16.7899,9.32519 -0.10685,47.74023 c 0,26.25245 -0.10686,47.74091 -0.21397,47.69025 -0.10686,0 -4.01032,-2.07792 -8.60811,-4.66262 z m 14.97114,-101.10668 c 7.96719,-1.92585 12.1914,-6.53777 10.42686,-11.40309 -0.5882,-1.72314 -3.36867,-4.25715 -5.93527,-5.42279 -9.99908,-4.61173 -25.23759,-2.07769 -28.82015,4.81463 -0.74859,1.46972 -0.80207,4.30784 -0.10686,5.57483 1.65761,2.88879 5.02628,5.06805 9.67825,6.28438 2.99436,0.81089 4.65126,0.96293 8.55463,0.86156 2.94091,-0.0508 4.22421,-0.2028 6.20264,-0.70952 z"
       style="fill:#999999;fill-opacity:1;fill-rule:nonzero;stroke:none" />
    <path
       inkscape:connector-curvature="0"
       id="path3466"
       d="m 512.69573,791.78441 0,-37.45247 1.22982,0.70952 c 0.69513,0.35477 12.24485,6.68974 25.71953,14.08902 l 24.48968,13.37942 -0.0535,9.37587 -0.10686,9.37586 -25.50564,13.98778 c -14.06285,7.65275 -25.61257,13.93712 -25.66605,13.93712 -0.0536,0 -0.10686,-16.8259 -0.10686,-37.40212 z"
       style="fill:#999999;fill-opacity:1;fill-rule:nonzero;stroke:none" />
    <path
       inkscape:connector-curvature="0"
       id="path3468"
       d="m 477.56602,791.2776 0,-37.95926 -8.76922,-4.81465 -8.82271,-4.86524 0,-8.97036 c 0,-5.72687 0.10686,-9.02104 0.26735,-8.97035 0.10686,0.0508 7.80675,4.20639 17.05724,9.27443 l 16.78987,9.17309 0,38.11123 0,38.16232 -8.12758,4.35853 c -4.4381,2.43266 -8.1276,4.40919 -8.23453,4.40919 -0.10686,0 -0.16042,-17.07929 -0.16042,-37.90893 z"
       style="fill:#999999;fill-opacity:1;fill-rule:nonzero;stroke:none" />
    <path
       inkscape:connector-curvature="0"
       id="path3470"
       d="m 433.55943,901.55742 c -4.3846,-2.38197 -7.91368,-4.35851 -7.91368,-4.4092 0.6951,-0.45612 15.82739,-8.56497 15.88087,-8.5143 0.10686,0.0508 0.10686,3.95307 0.0535,8.71703 l -0.0535,8.56499 -7.96719,-4.35852 z"
       style="fill:#808080;fill-opacity:1;fill-rule:nonzero;stroke:none" />
    <path
       inkscape:connector-curvature="0"
       id="path3472"
       d="m 495.15796,906.47342 0,-47.2341 10.1053,-5.52417 c 5.56097,-3.04083 13.10037,-7.14594 16.68293,-9.12247 3.63602,-1.97653 6.63041,-3.54694 6.73734,-3.44559 0.10686,0.10128 0.21397,21.28509 0.21397,47.13208 l 0,46.98002 -11.71014,6.38572 c -6.46999,3.54762 -14.06285,7.70341 -16.89683,9.22383 l -5.1325,2.83809 0,-47.23341 z"
       style="fill:#808080;fill-opacity:1;fill-rule:nonzero;stroke:none" />
    <path
       inkscape:connector-curvature="0"
       id="path3474"
       d="m 530.28766,877.63629 0,-37.70553 6.68386,-3.5983 c 3.68949,-1.97653 15.13228,-8.2609 25.50564,-13.93711 l 18.87526,-10.28811 0.0535,34.30993 c 0.0536,18.8531 0,35.83102 -0.10686,37.7062 l -0.16041,3.3956 -1.55067,0.86156 c -9.03658,4.916 -14.16979,7.65274 -14.27675,7.65274 -0.0536,0 -0.16041,-4.10511 -0.21396,-9.12247 0,-5.01736 -0.16042,-9.22384 -0.21397,-9.3252 -0.10686,-0.10128 -0.96248,0.2534 -1.92496,0.76021 -3.52908,1.82449 -15.02532,8.15953 -15.66697,8.56499 l -0.69513,0.50679 -0.10686,9.52793 -0.0536,9.57859 -8.07409,4.40919 -8.07412,4.40919 0,-37.7062 z"
       style="fill:#808080;fill-opacity:1;fill-rule:nonzero;stroke:none" />
    <path
       inkscape:connector-curvature="0"
       id="path3476"
       d="m 450.99097,815.14806 c -14.00939,-7.65275 -25.55891,-13.9371 -25.66585,-13.9371 -0.10685,0 -0.21396,-4.1558 -0.21396,-9.27451 l 0,-9.2745 6.57669,-3.59833 c 6.36306,-3.49694 30.47844,-16.67357 40.04976,-21.84297 l 4.70542,-2.53394 0.0536,18.54869 c 0.0535,10.18675 0.0535,26.91128 0,37.19938 l -0.0536,18.65037 -25.45216,-13.93709 z"
       style="fill:#808080;fill-opacity:1;fill-rule:nonzero;stroke:none" />
    <path
       inkscape:connector-curvature="0"
       id="path3478"
       d="m 510.28953,828.52768 c -0.42778,-0.2534 -4.01032,-2.22993 -7.96718,-4.40919 l -7.16439,-3.90239 0,-37.90892 c 0,-35.88138 0,-37.95922 0.42778,-38.21261 1.06941,-0.60816 31.86797,-17.43392 32.61655,-17.78867 l 0.80206,-0.40546 0,8.869 0,8.9197 -8.60881,4.66251 -8.60884,4.61192 -0.16041,1.97654 c -0.10686,1.1149 -0.21397,17.53527 -0.21397,36.48953 0,19.00514 -0.10686,35.17219 -0.21397,36.03375 l -0.16041,1.46972 -0.74858,-0.40543 z"
       style="fill:#808080;fill-opacity:1;fill-rule:nonzero;stroke:none" />
    <path
       inkscape:connector-curvature="0"
       id="path3480"
       d="m 390.40881,888.1778 c -0.21397,-9.7813 -0.21397,-37.19939 0,-64.92087 l 0.16041,-21.69122 15.39956,-8.46361 c 8.5018,-4.61193 15.98767,-8.71704 16.68281,-9.07178 l 1.17634,-0.70955 0,8.91977 0,8.91974 -7.48585,4.10511 c -4.11728,2.28061 -7.91371,4.40919 -8.50188,4.71327 l -0.9624,0.60817 -0.16041,5.98029 c -0.10686,3.29421 -0.16042,20.57621 -0.16042,38.36436 l 0,32.33407 -7.86022,4.25715 c -4.3311,2.38199 -7.91364,4.30784 -8.02059,4.30784 -0.0536,0 -0.16042,-3.44626 -0.26735,-7.65274 z"
       style="fill:#808080;fill-opacity:1;fill-rule:nonzero;stroke:none" />
    <path
       inkscape:connector-curvature="0"
       id="path3482"
       d="m 601.08246,887.06284 c -0.0535,-5.06804 -0.0535,-26.30311 0.0536,-47.23343 l 0.21396,-37.95962 11.87058,-6.63912 c 6.46999,-3.5983 13.84898,-7.70341 16.36211,-9.07178 l 4.49156,-2.53403 0,47.23412 0,47.23344 -6.04221,3.3449 c -3.31522,1.87516 -10.64073,5.92961 -16.25518,9.02109 -5.56099,3.09151 -10.21296,5.67621 -10.3199,5.7269 -0.10685,0.0508 -0.26737,-4.05444 -0.3743,-9.12247 z"
       style="fill:#666666;fill-opacity:1;fill-rule:nonzero;stroke:none" />
    <path
       inkscape:connector-curvature="0"
       id="path3484"
       d="m 390.6227,893.70196 c -0.10686,-1.01359 -0.16041,-22.09665 -0.16041,-46.87935 l 0.0536,-44.95282 0.64165,-0.60816 c 0.37428,-0.30408 0.64166,-0.50679 0.64166,-0.40544 0,0.10128 0.37428,-0.0508 0.80206,-0.30408 0.42776,-0.2028 0.74859,-0.50681 0.74859,-0.60816 0,-0.10128 0.10685,-0.15204 0.21396,-0.10128 0.10686,0.10128 0.48124,-0.0508 0.74859,-0.35478 0.32082,-0.25339 0.5882,-0.40543 0.5882,-0.30408 0,0.0508 0.32082,-0.0508 0.74858,-0.30408 0.3743,-0.2028 0.64165,-0.50681 0.58817,-0.60816 -0.0535,-0.15205 0,-0.20281 0.21397,-0.20281 0.5882,0.10129 0.85554,0 1.39019,-0.40543 0.26734,-0.25339 0.64165,-0.45612 0.80206,-0.50681 0.48124,-0.10128 2.45967,-1.267 2.67354,-1.57108 0.0535,-0.15204 0.21397,-0.25342 0.32082,-0.2028 0.26738,0.10128 0.53472,0 1.01596,-0.40546 0.48124,-0.40543 0.69513,-0.50679 1.06941,-0.50679 0.10686,0 0.48124,-0.25341 0.80206,-0.50681 0.26738,-0.25339 0.53472,-0.45612 0.53472,-0.35477 0,0.10128 0.21397,0 0.53472,-0.10128 0.26735,-0.15204 0.42776,-0.40543 0.32083,-0.55748 -0.10686,-0.15204 -0.0536,-0.2028 0.21396,-0.10128 0.48124,0.15204 1.81792,-0.65885 1.55058,-0.91224 -0.10686,-0.10128 -0.0536,-0.15204 0.16041,-0.15204 0.69513,0.10128 0.909,0.0508 1.49719,-0.45613 0.32083,-0.30408 0.5347,-0.45612 0.5347,-0.35477 0,0.0508 0.3743,-0.0508 0.80206,-0.30408 0.42779,-0.25339 0.74861,-0.50679 0.74861,-0.60817 0,-0.15204 0.10686,-0.15204 0.21397,-0.10128 0.10686,0.10128 0.42776,-0.0508 0.6951,-0.30408 0.48124,-0.40543 0.69514,-0.50679 1.06944,-0.50679 0.10686,0 0.48124,-0.25341 0.85552,-0.5575 0.32082,-0.30408 0.64165,-0.50678 0.64165,-0.45612 0.21397,0.15204 0.5882,0 1.12289,-0.50679 0.32083,-0.30408 0.69513,-0.50681 0.74861,-0.50681 0.21372,0.10128 2.56653,-1.16564 2.56653,-1.41906 0,-0.10128 0.0535,-0.15204 0.16041,-0.15204 0.48124,0.0508 0.80207,-0.0508 1.33676,-0.55748 0.3743,-0.30408 0.64165,-0.50681 0.64165,-0.45612 0,0 0.21397,0 0.42778,-0.10128 0.26735,-0.10128 0.37428,-0.30408 0.32083,-0.40543 -0.10686,-0.15205 0,-0.20281 0.16041,-0.15205 0.21397,0.10129 0.58818,0.0508 0.80207,-0.10128 0.42776,-0.2028 0.48124,0.30409 0.48124,8.61566 l 0,8.81838 -1.65761,0.86156 c -0.909,0.45613 -1.65761,0.96294 -1.65761,1.11498 0,0.15204 -0.10686,0.2028 -0.16041,0.10128 -0.21397,-0.15204 -1.65758,0.50681 -1.65758,0.81089 0,0.15205 -0.0536,0.20281 -0.16042,0.20281 -0.3743,-0.10128 -2.88735,1.26699 -2.88735,1.57107 0,0.10128 -0.0536,0.15204 -0.16042,0.10128 -0.16041,-0.2028 -1.60412,0.5575 -1.60412,0.86158 0,0.10129 -0.10686,0.15205 -0.26738,0.0508 -0.10685,-0.10129 -0.48123,0.10128 -0.74858,0.35474 -0.26735,0.25342 -0.58817,0.50681 -0.64165,0.50681 l -0.32083,0 c -0.10685,0 -0.42776,0.15204 -0.69513,0.40544 -0.26734,0.25342 -0.64165,0.45612 -0.74858,0.50681 -0.74859,0.25339 -0.909,0.35477 -0.74859,0.55748 0.10686,0.2028 0,0.2028 -0.26737,0.10128 -0.21397,-0.0508 -0.58817,0.0508 -0.85552,0.30408 -0.26737,0.2028 -0.64165,0.45612 -0.85554,0.45612 -0.16041,0.0508 -0.48116,0.2028 -0.58812,0.35477 -0.32083,0.2534 -0.58817,25.89768 -0.64165,56.86272 0,19.51195 0,19.81603 -0.5347,20.32282 -0.26737,0.25342 -0.48123,0.40546 -0.48123,0.35477 0,-0.10128 -0.37431,0.0508 -0.80207,0.25339 -0.3743,0.2028 -0.74861,0.50682 -0.74861,0.65886 0,0.10128 -0.0535,0.2028 -0.16041,0.10128 -0.21397,-0.2028 -1.60413,0.50681 -1.60413,0.86156 0,0.15204 -0.0535,0.2028 -0.16041,0.10128 -0.21397,-0.2028 -1.60413,0.50681 -1.60413,0.7602 0,0.10128 -0.16041,0.2028 -0.32083,0.2028 -0.21396,0 -1.92495,0.86159 -3.90328,1.92587 -1.97844,1.06429 -3.90339,2.12858 -4.38463,2.33129 l -0.80206,0.40545 -0.21397,-1.87518 z"
       style="fill:#666666;fill-opacity:1;fill-rule:nonzero;stroke:none" />
    <path
       inkscape:connector-curvature="0"
       id="path3486"
       d="m 476.17579,829.03449 c -0.10686,-0.35477 -1.4972,-1.06429 -1.71109,-0.86158 -0.0535,0.10128 -0.16041,0 -0.16041,-0.10128 0,-0.15204 -0.32083,-0.45613 -0.74859,-0.65886 -0.42776,-0.2028 -0.74858,-0.35474 -0.74858,-0.25339 0,0.0508 -0.26737,-0.10128 -0.53472,-0.35477 -0.26735,-0.30408 -0.64165,-0.45612 -0.74858,-0.35475 -0.16042,0.0508 -0.26738,0.0508 -0.26738,-0.0508 0,-0.30408 -1.44371,-1.06428 -1.60412,-0.86156 -0.10686,0.0508 -0.16042,0 -0.16042,-0.15204 0,-0.30408 -1.39023,-1.06428 -1.65758,-0.81089 -0.0535,0.0508 -0.16041,0 -0.16041,-0.15204 0,-0.2534 -2.45967,-1.67245 -2.83398,-1.5711 -0.10686,0.0508 -0.21397,0 -0.21397,-0.15204 0,-0.30408 -1.39023,-1.0136 -1.60412,-0.81087 -0.10686,0.10128 -0.16042,0.0508 -0.16042,-0.10128 0,-0.35477 -1.39023,-1.06429 -1.60413,-0.86159 -0.10685,0.10129 -0.16041,0.0508 -0.16041,-0.10128 0,-0.30408 -2.24578,-1.57107 -2.72702,-1.57107 -0.21396,0 -0.3743,-0.10128 -0.3743,-0.2028 0,-0.30409 -1.39024,-0.96294 -1.60413,-0.76021 -0.10686,0.0508 -0.16041,0 -0.16041,-0.15204 0,-0.25342 -2.51313,-1.62179 -2.83395,-1.52041 -0.10686,0 -0.21397,-0.0508 -0.21397,-0.2028 0,-0.30409 -1.39024,-1.01363 -1.60413,-0.8109 -0.10686,0.10128 -0.16041,0.0508 -0.16041,-0.10128 0,-0.35477 -1.39024,-1.06429 -1.65761,-0.86158 -0.0536,0.10128 -0.16041,0.0508 -0.16041,-0.10128 0,-0.30408 -2.51313,-1.67245 -2.83396,-1.57108 -0.10685,0.0508 -0.21396,-0.0508 -0.21396,-0.15204 0,-0.30408 -1.39024,-1.01362 -1.60413,-0.81089 -0.10686,0.10128 -0.16041,0.0508 -0.16041,-0.10128 0,-0.2534 -4.11726,-2.5847 -4.33115,-2.43266 -0.10686,0.0508 -0.42776,-0.2028 -0.74859,-0.45612 -0.58817,-0.50679 -0.90899,-0.65883 -1.33678,-0.60817 -0.10686,0.0508 -0.21397,-0.0508 -0.21397,-0.2028 0,-0.2028 -2.45967,-1.5711 -2.78049,-1.5711 -0.0536,0.0508 -0.37428,-0.15204 -0.64165,-0.40544 -0.26735,-0.25339 -0.58818,-0.45612 -0.69511,-0.45612 -0.3743,0 -0.5882,-0.0508 -1.06944,-0.50681 -0.26734,-0.25339 -0.58817,-0.45612 -0.6951,-0.45612 -0.42779,0 -0.5882,-0.0508 -1.12289,-0.50679 -0.48124,-0.45613 -0.74861,-0.50681 -1.33678,-0.45613 -0.21397,0.0508 -0.32083,-0.0508 -0.21397,-0.2028 0.16041,-0.2028 -0.53472,-0.60816 -0.909,-0.5575 -0.10686,0.0508 -0.21397,-0.0508 -0.21397,-0.15204 0,-0.15204 -0.3743,-0.40543 -0.90899,-0.55747 -0.48124,-0.15204 -0.85555,-0.35477 -0.85555,-0.45613 0,-0.10128 -0.32082,-0.25339 -0.64165,-0.40543 -0.53449,-0.25342 -0.64145,-0.50681 -0.6949,-1.21633 l 0,-0.91225 -0.21397,0.96291 c -0.10686,0.5575 -0.16041,-3.19286 -0.21397,-8.31157 l 0,-9.27451 1.06919,-0.50681 c 0.58819,-0.2534 1.2833,-0.65883 1.49719,-0.91225 0.26735,-0.2028 0.53472,-0.40543 0.64165,-0.40543 0.37431,0 2.62009,-1.21633 2.62009,-1.46973 0,-0.10128 0.10685,-0.2028 0.21396,-0.2028 0.42776,0.10128 0.74859,-0.0508 1.28331,-0.50681 0.26734,-0.25339 0.53471,-0.45612 0.53471,-0.35477 0,0.10128 0.21397,0 0.5347,-0.10128 0.26737,-0.15204 0.42778,-0.40544 0.32082,-0.55748 -0.10686,-0.15204 0,-0.2028 0.26737,-0.10128 0.21397,0.10128 0.42776,0 0.42776,-0.15204 0,-0.15204 0.0536,-0.2028 0.16042,-0.10128 0.21396,0.25342 1.12289,-0.30408 0.96247,-0.55748 -0.10685,-0.15204 0,-0.25339 0.16042,-0.2028 0.48123,0.10128 3.04784,-1.21633 3.04784,-1.52041 0,-0.15204 0.0535,-0.2028 0.16041,-0.15204 0.21397,0.25339 1.65761,-0.50681 1.44372,-0.81089 -0.10686,-0.15204 0,-0.20281 0.16041,-0.15204 0.53472,0.15204 1.81802,-0.50679 1.60413,-0.81087 -0.10686,-0.20281 0,-0.25342 0.21397,-0.15205 0.48124,0.15205 1.81802,-0.60797 1.55065,-0.91205 -0.10686,-0.10128 0,-0.10128 0.26737,-0.0508 0.26734,0.10128 0.64165,0 0.96247,-0.30408 0.26735,-0.2534 0.48124,-0.40544 0.48124,-0.35477 0,0.0508 0.37428,-0.0508 0.80207,-0.2534 0.42776,-0.2028 0.6951,-0.50681 0.58817,-0.65885 -0.10686,-0.15204 -0.0536,-0.2028 0.16041,-0.10128 0.48124,0.15204 1.81802,-0.50679 1.60413,-0.81087 -0.0536,-0.15204 0,-0.25342 0.21397,-0.2028 0.58817,0.0508 0.85552,0 1.44371,-0.50682 0.26735,-0.30408 0.5347,-0.45612 0.5347,-0.35477 0,0.0508 0.21396,0 0.53471,-0.15204 0.26735,-0.15204 0.42776,-0.35474 0.32083,-0.50678 -0.10686,-0.15205 0,-0.20281 0.21397,-0.15205 0.48124,0.20281 1.81802,-0.50681 1.60413,-0.81089 -0.10686,-0.15204 -0.0536,-0.2028 0.16041,-0.15204 0.53472,0.2028 1.81802,-0.50681 1.60413,-0.8109 -0.10686,-0.2028 -0.0536,-0.25339 0.21396,-0.15204 0.26738,0.10128 0.42779,0.0508 0.42779,-0.0508 0,-0.15204 0.10686,-0.2028 0.26735,-0.10128 0.10685,0.0508 0.48123,-0.10128 0.74858,-0.35474 0.32083,-0.30409 0.53472,-0.45613 0.53472,-0.40546 0,0.10128 0.32082,0 0.74858,-0.2028 0.42779,-0.20257 0.80207,-0.50674 0.80207,-0.6081 0,-0.15204 0.0536,-0.25339 0.16041,-0.25339 0.42778,0.10128 0.74861,-0.0508 1.22985,-0.45612 0.48124,-0.40546 0.6951,-0.50682 1.06941,-0.50682 0.10686,0 0.48124,-0.2028 0.80206,-0.50681 0.26735,-0.25339 0.53472,-0.40543 0.53472,-0.35474 0,0.10128 0.32083,-0.0508 0.74859,-0.25342 0.42775,-0.2534 0.80206,-0.50679 0.80206,-0.60817 0,-0.0508 0.10686,-0.15204 0.26735,-0.15204 0.42778,0 10.21296,-5.3721 10.48031,-5.7268 0.10686,-0.15204 0.16041,-0.15204 0.16041,-0.0508 0,0.15204 0.21397,0.10128 0.42776,-0.10128 0.21397,-0.15204 0.42779,-0.2534 0.48124,-0.15204 0.0536,0.0508 0.10686,16.82575 0.0536,37.24974 -0.0536,20.42417 -0.10685,36.99666 -0.10685,36.84462 z"
       style="fill:#666666;fill-opacity:1;fill-rule:nonzero;stroke:none" />
    <path
       inkscape:connector-curvature="0"
       id="path3488"
       d="m 510.23605,828.42633 c 0,-0.10128 -0.21396,-0.10128 -0.42775,0 -0.26738,0.10128 -0.37431,0.0508 -0.26738,-0.15205 0.21397,-0.30408 -2.29923,-1.62178 -2.83395,-1.52041 -0.21397,0.0508 -0.26734,-0.0508 -0.21397,-0.15204 0.21397,-0.30408 -1.12289,-1.01362 -1.60412,-0.81089 -0.16042,0.0508 -0.26735,0 -0.16042,-0.15204 0.16042,-0.30408 -3.8499,-2.5847 -4.49156,-2.53401 -0.26734,0.0508 -0.42776,-0.0508 -0.32082,-0.15204 0.0535,-0.15205 -0.48124,-0.5575 -1.17637,-0.91225 -0.74788,-0.35477 -1.33605,-0.60817 -1.38953,-0.5575 0,0.0508 -0.26735,-0.10128 -0.64165,-0.40544 -0.58817,-0.55747 -0.85554,-0.65885 -1.39024,-0.60816 -0.16041,0.0508 -0.21397,-12.72077 -0.10685,-37.9596 0.10685,-37.70581 0.10685,-38.06056 0.64165,-38.41533 0.26734,-0.15204 0.6951,-0.45612 0.90899,-0.60816 0.21397,-0.20281 0.53472,-0.35477 0.74859,-0.40544 0.21397,0 0.48124,-0.2028 0.5882,-0.35477 0.26734,-0.30408 0.42776,-0.40543 0.85481,-0.40543 0.10685,0 0.48124,-0.20281 0.80206,-0.50682 0.26737,-0.25339 0.53472,-0.40543 0.53472,-0.30408 0,0.0508 0.32082,-0.0508 0.74858,-0.30408 0.42779,-0.2534 0.80207,-0.50681 0.80207,-0.55748 0,-0.10128 0.10686,-0.15204 0.32082,-0.15204 0.32083,0 2.51315,-1.26702 2.72702,-1.5711 0.10686,-0.15204 0.26737,-0.2028 0.69513,-0.2028 0.10686,0 0.42776,-0.2028 0.69513,-0.45612 0.26735,-0.2534 0.64165,-0.45613 0.74859,-0.45613 0.64165,-0.10128 2.67354,-1.31761 2.5666,-1.52034 -0.10685,-0.10128 0.0536,-0.2028 0.32083,-0.2028 0.42776,0.0508 3.10132,-1.36837 3.36867,-1.72314 0.0535,-0.10128 0.21397,-0.2028 0.3743,-0.2028 0.5347,-0.0508 2.67354,-1.26699 2.67354,-1.52041 0,-0.15204 0.0536,-0.2028 0.16041,-0.15204 0.21397,0.25342 1.60413,-0.50679 1.60413,-0.81087 0,-0.15204 0.10686,-0.2028 0.16042,-0.15204 0.26734,0.2028 1.6576,-0.50681 1.6576,-0.8109 0,-0.15204 0.0536,-0.2028 0.16042,-0.15204 0.16041,0.2028 1.60412,-0.55747 1.60412,-0.86156 0,-0.10128 0.10686,-0.15204 0.26735,-0.0508 0.10686,0.10128 0.42776,-0.0508 0.69513,-0.30408 0.26735,-0.2028 0.64165,-0.45612 0.80207,-0.45612 0.64165,-0.15204 3.04784,-1.57103 3.04784,-1.82445 0,-0.15204 0.10686,-0.2028 0.16041,-0.10128 0.10686,0.0508 0.64165,-0.10128 1.17635,-0.35477 l 0.96247,-0.45612 0,8.81833 c 0,4.81456 -0.0535,8.81832 -0.21397,8.81832 -0.10685,0 -0.42775,0.2028 -0.6951,0.40543 -0.48124,0.45613 -0.69513,0.55748 -1.06944,0.55748 -0.10685,0 -0.48123,0.25342 -0.80206,0.50681 -0.37428,0.30408 -0.64165,0.50681 -0.64165,0.45612 -0.0536,-0.2028 -2.67354,1.21626 -2.67354,1.41899 0,0.10128 -0.16041,0.2028 -0.32083,0.2028 -0.48123,0 -3.26173,1.52041 -3.26173,1.8245 0,0.10128 -0.0536,0.15204 -0.16041,0.10128 -0.26735,-0.2534 -2.08537,0.81089 -2.13883,1.26701 0,0.2534 -0.0536,0.2534 -0.16041,0.0508 -0.16041,-0.40546 -1.60413,0.30408 -1.60413,0.86155 0,0.2534 -0.10685,0.30409 -0.16041,0.10128 -0.10686,-0.2028 -0.3743,-0.15204 -1.12289,0.2534 -0.53472,0.25342 -1.01596,0.60816 -1.01596,0.70954 0,0.15204 -0.0536,0.15204 -0.21396,0.10128 -0.10686,-0.0508 -0.32083,0 -0.53472,0.10128 -0.48124,0.2534 -0.42776,-2.68607 -0.64165,39.42898 -0.0536,18.75175 -0.21397,34.61469 -0.26735,35.27355 -0.10686,0.86155 -0.26735,1.21632 -0.48124,1.21632 -0.21397,0 -0.3743,-0.0508 -0.3743,-0.2028 z"
       style="fill:#666666;fill-opacity:1;fill-rule:nonzero;stroke:none" />
    <path
       inkscape:connector-curvature="0"
       id="path3490"
       d="m 495.21144,906.37207 0,-47.13275 0.85554,-0.40546 c 0.53469,-0.2534 0.909,-0.55748 0.909,-0.65883 0,-0.15204 0.10685,-0.2028 0.21396,-0.15204 0.32083,0.15204 1.60343,-0.70954 1.39024,-0.96294 -0.10686,-0.10128 0,-0.10128 0.21321,-0.0508 0.48124,0.15204 1.81802,-0.60816 1.55065,-0.91224 -0.10686,-0.10129 0,-0.10129 0.21397,-0.0508 0.48124,0.15204 1.8715,-0.60817 1.60413,-0.86156 -0.10686,-0.10128 -0.0536,-0.15204 0.16041,-0.10128 0.5882,0.10128 3.10132,-1.21633 2.88743,-1.5711 -0.10686,-0.15204 0,-0.20281 0.21397,-0.10128 0.48124,0.15204 1.81802,-0.60817 1.55067,-0.91225 -0.10686,-0.10128 0,-0.15204 0.21397,-0.0508 0.48124,0.15204 1.81802,-0.60817 1.55065,-0.91225 -0.10686,-0.10128 0,-0.15204 0.21397,-0.0508 0.48123,0.15204 3.1548,-1.36837 2.88743,-1.62176 -0.10686,-0.15204 -0.0536,-0.15204 0.21397,-0.10128 0.48123,0.2028 1.81802,-0.60817 1.55067,-0.86159 -0.10686,-0.15204 0,-0.15204 0.21397,-0.10128 0.48124,0.2028 1.81799,-0.60816 1.55065,-0.86156 -0.10686,-0.15204 0,-0.15204 0.26734,-0.0508 0.26737,0.0508 0.64165,-0.0508 0.96248,-0.35477 0.26737,-0.25339 0.48124,-0.40543 0.48124,-0.35474 0,0.10128 0.3743,-0.0508 0.74861,-0.25342 0.42776,-0.25339 0.6951,-0.55748 0.58817,-0.65883 -0.0536,-0.15204 0.0536,-0.2028 0.26735,-0.10128 0.42778,0.15204 1.81802,-0.60817 1.55067,-0.91225 -0.10686,-0.10128 -0.0535,-0.10128 0.16041,-0.10128 0.5347,0.10128 3.04785,-1.16566 3.04785,-1.52041 0,-0.15204 0.10685,-0.2028 0.16041,-0.10128 0.26735,0.25339 1.65758,-0.5575 1.49717,-0.86158 -0.10686,-0.15204 -0.0536,-0.2028 0.16041,-0.15204 0.21397,0.10128 1.01596,-0.15205 1.76454,-0.55681 l 1.44372,-0.65883 0.16041,3.80034 c 0.10686,2.07791 0.16041,23.21162 0.16041,46.93004 l 0,43.12832 -0.80206,0.40544 c -0.42776,0.25339 -1.01593,0.60816 -1.2833,0.86156 -0.21397,0.2028 -0.42776,0.35477 -0.42776,0.30408 0,-0.10128 -0.37431,0.0508 -0.80207,0.25342 -0.3743,0.2028 -0.74858,0.45612 -0.74858,0.55747 0,0.10128 -0.16041,0.2028 -0.32083,0.2028 -0.48123,0 -4.49156,2.28062 -4.49156,2.53404 0,0.15204 -0.10685,0.2028 -0.16041,0.10128 -0.21397,-0.2028 -1.65761,0.50679 -1.65761,0.81087 0,0.15204 -0.10685,0.2028 -0.21396,0.15204 -0.32083,-0.0508 -4.59852,2.28062 -4.59852,2.5847 0,0.10128 -0.10686,0.15204 -0.16041,0.10128 -0.21397,-0.2028 -1.65759,0.50681 -1.65759,0.81089 0,0.10129 -0.10685,0.15205 -0.21396,0.10129 -0.16042,-0.10129 -0.48124,0.0508 -0.74859,0.35477 -0.32083,0.25339 -0.53472,0.40543 -0.53472,0.35474 0,-0.0508 -0.3743,0.0508 -0.74858,0.25342 -0.42779,0.2028 -0.80207,0.50679 -0.80207,0.65883 0,0.15204 -0.0535,0.2028 -0.16041,0.10128 -0.21397,-0.2028 -1.60413,0.50679 -1.60413,0.81087 0,0.10128 -0.10686,0.2028 -0.21397,0.2028 -0.42778,-0.0508 -0.74861,0.0508 -1.33678,0.55748 -0.32082,0.30408 -0.58817,0.50681 -0.64165,0.45612 -0.0535,-0.25339 -2.62008,1.21633 -2.62008,1.46975 0,0.10128 -0.10686,0.15204 -0.21397,0.10128 -0.26735,-0.15204 -3.15407,1.46972 -3.42142,1.87518 -0.10686,0.15204 -0.21397,0.2028 -0.21397,0.10128 0,-0.10128 -0.64165,0.15204 -1.39026,0.55748 l -1.39023,0.7602 0,-47.18274 z"
       style="fill:#666666;fill-opacity:1;fill-rule:nonzero;stroke:none" />
    <path
       inkscape:connector-curvature="0"
       id="path3492"
       d="m 425.16471,888.7353 c 0,-4.05445 0.10686,-7.80479 0.16041,-8.41295 l 0.16042,-1.11498 2.45944,1.3177 c 5.02628,2.68606 12.5122,6.94321 12.5122,7.09525 0,0.10128 -0.80206,0.60816 -1.71106,1.11498 -11.12196,6.13231 -13.31406,7.29797 -13.421,7.29797 -0.10685,0 -0.16041,-3.29424 -0.16041,-7.29797 z"
       style="fill:#666666;fill-opacity:1;fill-rule:nonzero;stroke:none" />
    <path
       inkscape:connector-curvature="0"
       id="path3494"
       d="m 530.34114,877.68696 c 0,-30.66162 0.0535,-37.55347 0.32082,-37.90824 0.21397,-0.25339 0.42776,-0.35477 0.5347,-0.25339 0.10685,0.0508 0.16041,0 0.16041,-0.15204 0,-0.15204 0.10686,-0.25342 0.26737,-0.15204 0.10686,0.10128 0.32083,0 0.37428,-0.20281 0.10686,-0.2028 0.26737,-0.35477 0.3743,-0.25341 0.16042,0.0508 0.26735,0 0.26735,-0.15204 0,-0.15205 0.10686,-0.20281 0.21397,-0.10129 0.16041,0.0508 0.26737,0 0.26737,-0.15204 0,-0.15204 0.10686,-0.2028 0.26735,-0.10128 0.16041,0.10128 0.32082,0 0.42776,-0.2028 0.0535,-0.25339 0.21396,-0.35475 0.3743,-0.25339 0.10686,0.0508 0.21397,0 0.21397,-0.15204 0,-0.15204 0.10686,-0.2028 0.26734,-0.10128 0.10686,0.0508 0.26738,0 0.26738,-0.15205 0,-0.15204 0.0535,-0.2028 0.21396,-0.15204 0.10686,0.10128 0.42776,-0.0508 0.69511,-0.25339 0.48124,-0.45612 0.64165,-0.5575 1.06944,-0.5575 0.10685,0 0.42775,-0.2028 0.6951,-0.40544 0.48124,-0.45612 0.69513,-0.55747 1.06944,-0.55747 0.10685,0 0.48124,-0.25342 0.80206,-0.5575 0.37428,-0.2534 0.69511,-0.50679 0.69511,-0.45613 0.21396,0.15205 0.53471,0 1.06943,-0.45612 0.26735,-0.25339 0.53469,-0.40543 0.53469,-0.30408 0,0.0508 0.37431,-0.0508 0.74861,-0.30408 0.42776,-0.2534 0.80207,-0.50679 0.80207,-0.60817 0,-0.15204 0.10686,-0.15204 0.21397,-0.10128 0.10685,0.0508 0.42776,-0.0508 0.6951,-0.30408 0.48124,-0.40544 0.69513,-0.50679 1.06944,-0.50679 0.10686,0 0.42776,-0.25342 0.74858,-0.50681 0.32083,-0.25339 0.58817,-0.40544 0.58817,-0.35477 0,0.10128 0.32083,-0.0508 0.74861,-0.2534 0.42776,-0.25339 0.74859,-0.55747 0.74859,-0.65885 0,-0.10128 0.10686,-0.15204 0.21397,-0.0508 0.32082,0.15204 1.60413,-0.70952 1.39023,-0.96291 -0.10685,-0.10128 0,-0.10128 0.26737,-0.0508 0.32083,0.10128 0.64166,-0.0508 1.06942,-0.45612 0.32082,-0.35477 0.69513,-0.5575 0.85554,-0.50681 0.10686,0.10128 0.48124,-0.0508 0.74858,-0.35478 0.32083,-0.25339 0.53472,-0.40543 0.53472,-0.30408 0,0.0508 0.37428,-0.0508 0.74859,-0.30408 0.42776,-0.2028 0.69513,-0.50679 0.64165,-0.65883 -0.10686,-0.10128 0,-0.15204 0.21397,-0.10128 0.48123,0.2028 1.81802,-0.60816 1.55064,-0.86158 -0.10685,-0.15204 0,-0.15204 0.21397,-0.10128 0.48124,0.2028 1.81802,-0.60817 1.55068,-0.86156 -0.10686,-0.15204 0,-0.15204 0.26734,-0.0508 0.26735,0.10128 0.64165,-0.0508 0.96248,-0.35477 0.26735,-0.2534 0.48124,-0.40544 0.48124,-0.35477 0,0.10128 0.3743,0 0.80206,-0.2534 0.42776,-0.2028 0.69513,-0.45612 0.58817,-0.60816 -0.10685,-0.15204 -0.0535,-0.2028 0.16042,-0.15204 0.53471,0.15204 1.81802,-0.50681 1.60413,-0.8109 -0.10686,-0.2028 -0.0536,-0.25339 0.21396,-0.15204 0.48124,0.15204 1.81802,-0.60816 1.55068,-0.91224 -0.10686,-0.10129 0,-0.10129 0.21397,-0.10129 0.58817,0.15205 3.04784,-1.21632 2.88743,-1.52041 -0.10686,-0.15204 -0.0536,-0.2028 0.21396,-0.10128 0.42776,0.15204 1.818,-0.65883 1.49717,-0.91224 -0.10685,-0.10129 0,-0.15205 0.21397,-0.15205 0.69513,0.10129 0.90902,0.0508 1.55068,-0.50678 0.32082,-0.30409 0.64165,-0.5575 0.6951,-0.50681 0.16041,0.15204 0.48124,0.0508 0.96248,-0.35478 0.26737,-0.25339 0.5882,-0.50678 0.74861,-0.50678 0.6951,-0.25342 0.85552,-0.35477 0.74858,-0.5575 -0.10685,-0.15204 0,-0.2028 0.16042,-0.2028 0.64165,0.10128 0.90899,0 1.39023,-0.45613 0.48124,-0.40543 0.69513,-0.50679 1.06944,-0.50679 0.10686,0 0.48124,-0.2028 0.74858,-0.50681 0.32083,-0.25339 0.58817,-0.40543 0.58817,-0.35477 0,0.10128 0.32083,-0.0508 0.74861,-0.25339 0.42776,-0.2534 0.74859,-0.55748 0.74859,-0.65886 0,-0.10128 0.10686,-0.15204 0.26735,-0.0508 0.10685,0.10129 0.32082,0.0508 0.3743,-0.10128 0.10686,-0.15204 0.26735,-0.25339 0.42776,-0.25339 0.16041,0 0.21397,13.63301 0.16041,37.55349 -0.0535,31.62455 -0.10686,37.60485 -0.42776,37.7062 -0.16041,0.0508 -0.53471,0.30408 -0.80206,0.55747 -0.26735,0.25342 -0.48124,0.40546 -0.48124,0.30409 0,-0.0508 -0.3743,0.0508 -0.74858,0.25342 -0.42779,0.2028 -0.80207,0.45612 -0.80207,0.55747 0,0.15204 -0.10686,0.2028 -0.32082,0.2028 -0.48124,0 -4.49156,2.28062 -4.49156,2.5847 0,0.15204 -0.0536,0.15204 -0.16042,0.10128 -0.21396,-0.2028 -1.60412,0.50681 -1.60412,0.8109 0,0.15204 -0.10686,0.25339 -0.16042,0.15204 -0.26737,-0.2028 -1.6576,0.50679 -1.6576,0.86156 0,0.10128 -0.0536,0.2028 -0.16042,0.10128 -0.10686,-0.10128 -1.01595,0.25339 -1.97843,0.81089 l -1.87148,0.96291 -0.16041,-0.81087 c -0.10686,-0.40546 -0.16041,-3.44628 -0.16041,-6.68981 0.0535,-6.94322 -0.16041,-10.94696 -0.58817,-10.64288 -0.16042,0.10128 -0.48124,0.2028 -0.69513,0.2028 -0.42776,0 -3.58257,1.67246 -3.84991,2.07789 -0.10686,0.15204 -0.21397,0.2028 -0.21397,0.10128 0,-0.25339 -1.49719,0.55748 -1.49719,0.8109 0,0.0508 -0.16042,0.15204 -0.32083,0.15204 -0.32083,0 -4.27767,2.12857 -4.54501,2.43266 -0.0536,0.10128 -0.26737,0.2028 -0.42779,0.2028 -0.48124,0.10128 -4.27766,2.28061 -4.43808,2.5847 -0.10685,0.15204 -0.21397,0.2028 -0.26734,0.15204 -0.0536,-0.0508 -0.32083,0.0508 -0.5882,0.2028 -0.26735,0.15204 -0.37428,0.25339 -0.26735,0.30408 0.16042,0 0,0.10128 -0.3743,0.2028 l -0.64165,0.15204 -0.0536,9.5786 c -0.0535,9.32517 -0.10686,9.57859 -0.58817,9.83198 -0.26735,0.15204 -0.42776,0.35477 -0.32083,0.50681 0.0536,0.15204 -0.0535,0.2028 -0.21396,0.15204 -0.53472,-0.10128 -3.04785,1.267 -2.83398,1.57108 0.0535,0.15204 0,0.2028 -0.21397,0.10128 -0.48124,-0.15204 -1.81799,0.50681 -1.60413,0.86158 0.10686,0.15204 0.0536,0.2028 -0.16041,0.15204 -0.53469,-0.2028 -1.818,0.45613 -1.60413,0.81087 0.10686,0.15204 0,0.2028 -0.21397,0.15204 -0.42776,-0.15204 -1.71106,0.45613 -1.71106,0.8109 0,0.15204 -0.10686,0.2028 -0.16041,0.10128 -0.21397,-0.15204 -1.65761,0.60816 -1.65761,0.86156 0,0.15204 -0.10686,0.15204 -0.21397,0.10128 -0.16041,-0.10128 -0.48123,0.0508 -0.80206,0.30408 -0.26735,0.30408 -0.48124,0.45612 -0.48124,0.35477 0,-0.0508 -0.74858,0.30408 -1.65758,0.76021 l -1.65761,0.86156 0,-37.45279 z"
       style="fill:#666666;fill-opacity:1;fill-rule:nonzero;stroke:none" />
    <path
       inkscape:connector-curvature="0"
       id="path3496"
       d="m 601.40329,894.15809 c -0.21397,-2.38197 -0.21397,-71.8641 0,-83.52058 0.16041,-8.21022 0.26737,-9.27451 0.85554,-9.37588 0.58817,-0.10128 1.55065,-0.65883 1.55065,-0.96291 0,-0.15204 0.10686,-0.25342 0.21397,-0.2028 0.3743,0.25339 1.06943,-0.10129 1.06943,-0.5575 0,-0.2534 0.0536,-0.30409 0.16042,-0.0508 0.16041,0.2028 0.37428,0.15204 0.85551,-0.2534 0.32083,-0.30408 0.5882,-0.50681 0.5882,-0.45612 0.0536,0.15204 1.44372,-0.55748 1.44372,-0.70952 0,-0.10128 0.26734,-0.25342 0.64165,-0.35477 0.32082,-0.0508 0.64165,-0.25339 0.64165,-0.40543 0,-0.10129 0.0535,-0.15205 0.21397,-0.10129 0.10685,0.0508 0.42778,-0.0508 0.69513,-0.30408 0.26734,-0.25342 0.58817,-0.45612 0.69513,-0.50681 0.85552,-0.25339 1.44371,-0.60816 1.44371,-0.91225 0,-0.15204 0.16042,-0.25339 0.32083,-0.15204 0.21397,0.0508 0.53469,-0.0508 0.74858,-0.25339 0.16042,-0.15204 0.58818,-0.40546 0.909,-0.50681 0.32083,-0.0508 0.53472,-0.2534 0.53472,-0.35477 0,-0.15205 0.10686,-0.20281 0.21397,-0.20281 0.37428,0.10129 1.60413,-0.60816 1.60413,-0.91224 0,-0.2028 0.16041,-0.2534 0.32082,-0.2028 0.21397,0.10128 0.53469,0 0.69511,-0.2028 0.21397,-0.20281 0.64165,-0.40544 0.96247,-0.50679 0.32083,-0.10128 0.53472,-0.30408 0.53472,-0.40546 0,-0.10128 0.10686,-0.2028 0.21397,-0.2028 0.26735,0.10128 1.60413,-0.55748 1.60413,-0.76021 0,-0.10128 0.26734,-0.25339 0.58817,-0.30408 0.37431,-0.10128 0.64165,-0.30408 0.64165,-0.40544 0,-0.15204 0.10686,-0.2028 0.21397,-0.15204 0.16041,0.10128 0.53469,-0.10128 0.85552,-0.40543 0.32082,-0.30408 0.64165,-0.50681 0.74861,-0.50681 0.21397,0.0508 1.2833,-0.45613 1.2833,-0.65886 0,-0.10128 0.26735,-0.2028 0.58817,-0.30408 0.37431,-0.10128 0.64165,-0.25339 0.64165,-0.40543 0,-0.15205 0.10686,-0.20281 0.21397,-0.10128 0.16041,0.0508 0.48124,-0.10129 0.74859,-0.35478 0.32082,-0.25339 0.58817,-0.40543 0.69513,-0.30408 0.0536,0.0508 0.16041,-0.0508 0.16041,-0.25339 0,-0.2534 0.10686,-0.35477 0.32083,-0.2534 0.21396,0.0508 0.53469,-0.0508 0.74858,-0.25341 0.16041,-0.15204 0.58817,-0.40544 0.909,-0.50679 0.32082,-0.10128 0.53472,-0.25342 0.53472,-0.40546 0,-0.10128 0.10685,-0.2028 0.21396,-0.15204 0.32083,0.0508 1.60413,-0.60817 1.60413,-0.86156 0,-0.15204 0.26735,-0.30408 0.64165,-0.30408 l 0.58818,-0.0508 0,46.98071 0,47.0307 -0.53472,0.45612 c -0.32083,0.25342 -0.64165,0.45613 -0.69511,0.50682 -0.74861,0.15204 -1.55067,0.70951 -1.55067,1.01359 0,0.30409 -0.0536,0.30409 -0.21397,0.10129 -0.16041,-0.2534 -0.37431,-0.20281 -0.80206,0.2028 -0.37431,0.30408 -0.64166,0.50681 -0.64166,0.45612 0,-0.30408 -2.67356,1.36837 -2.67356,1.67245 0,0.25342 -0.0535,0.30409 -0.21397,0.0508 -0.16041,-0.2028 -0.32082,-0.15204 -0.80206,0.25342 -0.32083,0.30408 -0.64165,0.50679 -0.64165,0.45612 0,-0.35477 -2.67357,1.31769 -2.67357,1.62177 0,0.30408 -0.0535,0.30408 -0.21397,0.10128 -0.16041,-0.25339 -0.32082,-0.15204 -0.80206,0.25339 -0.32082,0.25342 -0.64165,0.50682 -0.64165,0.45613 0,-0.30409 -1.39026,0.5575 -1.39026,0.91224 -0.0536,0.2028 -0.10686,0.25342 -0.16041,0.0508 -0.16042,-0.35474 -1.12289,0.15204 -1.12289,0.65886 0,0.2028 -0.0536,0.25339 -0.16042,0.10128 -0.16041,-0.40544 -2.88743,1.11497 -2.88743,1.5711 -0.0536,0.25339 -0.10686,0.25339 -0.16041,0.10128 -0.16041,-0.35477 -2.88743,1.11495 -2.88743,1.62176 -0.0536,0.2028 -0.10686,0.2534 -0.16041,0.0508 -0.16042,-0.40543 -1.12289,0.15204 -1.12289,0.65886 -0.0536,0.25339 -0.0536,0.25339 -0.16042,0.10128 -0.10686,-0.25342 -0.32082,-0.20281 -0.80206,0.10128 -0.37428,0.2028 -0.74859,0.50678 -0.85552,0.65883 -0.10686,0.10128 -0.26737,0.2028 -0.3743,0.2028 -0.42776,-0.0508 -0.85555,0.2028 -0.85555,0.60816 -0.0535,0.2028 -0.10686,0.25342 -0.16041,0.10128 -0.16041,-0.30408 -2.62006,0.91225 -2.94089,1.46975 -0.10685,0.15204 -0.21396,0.25339 -0.26737,0.2028 -0.10686,-0.15204 -1.49717,0.50679 -1.49717,0.70952 0,0.10128 -0.0535,0.15204 -0.16041,0.15204 -0.10686,-0.0508 -0.42778,0.0508 -0.74861,0.2028 -0.53469,0.30408 -0.53469,0.25339 -0.69511,-1.5711 z"
       style="fill:#666666;fill-opacity:1;fill-rule:nonzero;stroke:none" />
    <path
       inkscape:connector-curvature="0"
       id="path3498"
       d="m 511.67977,796.75108 -0.10686,-32.84062 -0.16041,31.62429 c -0.0536,17.38338 -0.21397,31.82729 -0.37431,32.08068 -0.10685,0.30408 -0.21396,0.65885 -0.26734,0.8109 -0.10686,0.25339 -0.37431,0.2028 -1.17637,-0.20281 -0.64165,-0.30408 -1.17635,-0.5575 -1.22982,-0.5575 -0.0536,0 -0.37431,-0.2028 -0.64166,-0.45612 -0.26734,-0.2028 -0.69513,-0.40543 -0.96247,-0.40543 -0.21397,0 -0.42776,-0.10128 -0.42776,-0.20281 0,-0.10128 -0.37431,-0.35477 -0.74861,-0.60816 -0.42776,-0.25342 -0.80207,-0.35477 -0.80207,-0.30408 0,0.10128 -0.26734,-0.0508 -0.53469,-0.35477 -0.32082,-0.2534 -0.85554,-0.65886 -1.22985,-0.8109 -0.37428,-0.15204 -1.17634,-0.60816 -1.87147,-0.96291 -0.64165,-0.35477 -1.17637,-0.5575 -1.17637,-0.45612 0,0.10128 -0.16041,0 -0.32083,-0.25342 -0.26734,-0.30408 -2.08466,-1.36837 -3.68878,-2.12857 -0.42776,-0.20281 -0.58818,-0.55748 -0.69511,-1.72312 -0.16041,-1.36837 0,-71.10423 0.16041,-73.53684 0.10686,-1.16564 0.48124,-1.67245 1.818,-2.33128 0.3743,-0.2028 0.69513,-0.45612 0.69513,-0.60816 0,-0.15204 0.0535,-0.2028 0.16041,-0.10128 0.21397,0.15204 1.60342,-0.50682 1.60342,-0.8109 0,-0.15204 0.10686,-0.2028 0.21397,-0.2028 0.32083,0.10128 2.83395,-1.26702 2.83395,-1.5711 0,-0.10128 0.10686,-0.2028 0.16042,-0.10128 0.21396,0.2028 1.60412,-0.50679 1.60412,-0.81087 0,-0.10128 0.10686,-0.2028 0.21397,-0.2028 0.42779,0.10128 0.74861,-0.0508 1.22985,-0.45612 0.26735,-0.2534 0.53469,-0.40544 0.64165,-0.40544 0.37428,0 2.78047,-1.36832 2.78047,-1.62172 0,-0.15204 0.0536,-0.2028 0.16042,-0.10128 0.21396,0.2028 1.60412,-0.50681 1.60412,-0.81089 0,-0.15204 0.10686,-0.2028 0.21397,-0.2028 0.42779,0.0508 0.74861,-0.0508 1.22985,-0.45613 0.26735,-0.25339 0.58817,-0.45612 0.74859,-0.50678 0.48123,-0.0508 4.43808,-2.28062 4.43808,-2.48335 0,-0.10128 0.10685,-0.2028 0.21396,-0.15204 0.32083,0.10128 2.83398,-1.26702 2.83398,-1.5711 0,-0.15204 0.10686,-0.2028 0.16041,-0.10128 0.21397,0.2028 1.65759,-0.50679 1.65759,-0.86156 0,-0.15204 0.0535,-0.2028 0.16041,-0.10128 0.21397,0.2028 1.60413,-0.50681 1.60413,-0.81082 0,-0.15204 0.10685,-0.2028 0.21396,-0.10128 0.32083,0.15204 2.83398,-1.31771 2.83398,-1.62179 0,-0.15204 0.16041,-0.10128 0.37428,0.0508 0.26737,0.2028 0.37431,0.2028 0.37431,0 0,-0.15204 0.10685,-0.2534 0.26734,-0.2534 0.16042,0 0.26737,3.04076 0.26737,8.61559 l 0,8.66627 -0.69513,0.70954 c -0.3743,0.40544 -0.90899,0.70952 -1.06941,0.70952 -0.21397,0 -0.64165,0.25339 -0.96247,0.55748 -0.32083,0.30408 -0.5882,0.50681 -0.5882,0.40545 0,-0.2028 -2.40619,1.06422 -2.67354,1.46966 -0.16041,0.2028 -0.37431,0.30408 -0.42776,0.2028 -0.21397,-0.2028 -3.04784,1.36837 -3.20826,1.72314 -0.0535,0.2028 -0.21396,0.25339 -0.42778,0.2028 -0.16041,-0.0508 -0.69511,0.15204 -1.17634,0.50681 -0.42779,0.35475 -1.06944,0.60817 -1.28331,0.60817 -0.26737,0 -0.48124,0.10128 -0.48124,0.2028 0,0.15204 -1.71108,1.11495 -3.26173,1.82449 l -0.53472,0.25339 -0.10686,38.3647 -0.0535,38.41574 -0.10686,-32.84088 z"
       style="fill:#666666;fill-opacity:1;fill-rule:nonzero;stroke:none" />
    <path
       inkscape:connector-curvature="0"
       id="path3500"
       d="m 556.06064,891.97882 c -4.27766,-2.33128 -7.69981,-4.30781 -7.69981,-4.3585 0,-0.0508 3.1548,-1.87518 7.05816,-4.00376 3.84991,-2.07789 7.43247,-4.05442 7.86023,-4.30781 l 0.85554,-0.45613 0,8.71701 c 0,4.81465 -0.10685,8.71703 -0.21396,8.71703 -0.10686,-0.0508 -3.63602,-1.97653 -7.86023,-4.30784 z"
       style="fill:#666666;fill-opacity:1;fill-rule:nonzero;stroke:none" />
    <path
       inkscape:connector-curvature="0"
       id="path3502"
       d="m 547.55876,897.2496 c 0,-4.76396 0.10686,-8.66635 0.16042,-8.66635 0.42778,0 15.82741,8.56497 15.667,8.71701 -0.16041,0.15204 -14.06288,7.80479 -15.23922,8.36227 l -0.5882,0.30408 0,-8.71701 z"
       style="fill:#666666;fill-opacity:1;fill-rule:nonzero;stroke:none" />
    <path
       inkscape:connector-curvature="0"
       id="path3504"
       d="m 559.42931,893.70196 c -8.39492,-4.61192 -10.58724,-5.87891 -10.53376,-6.13233 0.10685,-0.25339 14.65104,-8.41293 15.02532,-8.41293 0.21397,0 0.21397,7.45002 0,13.12621 l -0.16041,3.80102 -4.33115,-2.38197 z"
       style="fill:#666666;fill-opacity:1;fill-rule:nonzero;stroke:none" />
    <path
       inkscape:connector-curvature="0"
       id="path3506"
       d="m 425.27164,888.27917 c 0,-7.04458 0.16042,-9.52792 0.53452,-8.97042 0.26735,0.35474 2.08537,1.36837 2.08537,1.16564 0,-0.15204 0.10685,-0.10128 0.21397,0.0508 0.32082,0.45612 2.5666,1.5711 2.83395,1.41906 0.16041,-0.10129 0.26734,0 0.26734,0.15204 0,0.45612 1.44372,1.21633 1.60413,0.86155 0.10686,-0.15204 0.16041,-0.10128 0.16041,0.10129 0,0.25339 0.26738,0.50681 0.5882,0.60816 0.32083,0.0508 0.69511,0.30408 0.909,0.45612 0.16041,0.2028 0.48124,0.35477 0.69513,0.35477 0.21397,0 0.37428,0.10129 0.37428,0.20281 0,0.15204 0.5882,0.50678 1.39026,0.7602 0.16041,0.0508 0.48124,0.2534 0.69511,0.45612 0.26737,0.20281 0.53471,0.35475 0.58819,0.30409 0.0536,0 0.32083,0.15204 0.58818,0.35474 0.21396,0.2028 0.69513,0.5575 1.01595,0.76021 l 0.58817,0.40546 -1.92495,1.06429 c -1.06941,0.60816 -2.13885,1.21633 -2.29926,1.41903 -0.21397,0.15204 -0.37428,0.30408 -0.42776,0.30408 -0.32082,-0.10128 -0.96248,0.35477 -1.01595,0.70954 0,0.20281 -0.0536,0.2534 -0.10686,0.0508 -0.16042,-0.30408 -2.24578,0.70952 -2.83395,1.36837 -0.16042,0.20281 -0.32083,0.30409 -0.32083,0.20281 0,-0.35477 -1.55065,0.65882 -1.55065,1.0136 0,0.25339 -0.0535,0.30408 -0.16041,0.10128 -0.16041,-0.40544 -1.60413,0.35477 -1.60413,0.86155 -0.0536,0.25342 -0.10686,0.30409 -0.16041,0.10129 -0.10686,-0.20281 -0.42779,-0.15205 -1.22985,0.30408 -0.58817,0.30408 -1.17635,0.60816 -1.28308,0.60816 -0.16041,0 -0.26737,-3.14217 -0.21396,-7.55137 z"
       style="fill:#666666;fill-opacity:1;fill-rule:nonzero;stroke:none" />
    <path
       inkscape:connector-curvature="0"
       id="path3508"
       d="m 547.66572,897.35095 c 0.10686,-4.61192 0.21397,-8.41295 0.26735,-8.46361 0.16041,-0.2028 15.18574,8.10884 15.18574,8.36226 0,0.0508 -0.74859,0.50679 -1.60413,1.0136 -0.85552,0.45612 -4.33115,2.3313 -7.64634,4.1558 -3.31519,1.82449 -6.09568,3.29421 -6.20262,3.29421 -0.10686,0 -0.10686,-3.75034 0,-8.36226 z"
       style="fill:#999999;fill-opacity:1;fill-rule:nonzero;stroke:none" />
    <path
       style="fill:#008000"
       d="m 369.59198,981.4007 c -66.7878,-38.56142 -121.62875,-70.30806 -121.86878,-70.54808 -0.3427,-0.3427 105.01217,-61.71442 105.94316,-61.71442 0.12638,0 0.22978,6.56294 0.22978,14.58432 l 0,14.58431 18.04502,9.88626 c 15.37453,8.42318 18.15884,9.78777 18.81409,9.22075 0.98368,-0.85121 15.83276,-8.87969 16.42344,-8.87969 0.24424,0 11.98789,6.30714 26.097,14.01587 l 25.65292,14.01586 0.0117,9.60456 0.0117,9.60455 16.99556,9.33581 c 9.34756,5.13469 17.38407,9.52668 17.85891,9.75998 0.6414,0.31513 5.39361,-2.05504 18.48604,-9.21991 l 17.62271,-9.64409 0.25254,-9.69499 0.25253,-9.695 25.50636,-14.01734 c 14.02849,-7.70954 25.75644,-14.02813 26.06211,-14.04132 0.30567,-0.0132 4.46396,2.13522 9.24066,4.77424 4.77669,2.63903 8.82523,4.79823 8.99675,4.79823 0.17152,0 8.11232,-4.34018 17.64622,-9.64485 l 17.33437,-9.64485 0.1347,-12.83878 0.1347,-12.83879 49.62175,28.64756 c 27.29196,15.75616 49.45218,28.81349 49.24493,29.0163 -0.20724,0.20281 -54.58412,31.65389 -120.8375,69.89129 -66.25338,38.23742 -120.91526,69.80862 -121.47084,70.15822 -0.90585,0.57 -13.54935,-6.6041 -122.44252,-69.476 z"
       id="path3600"
       inkscape:connector-curvature="0"
       transform="translate(0,0.00218262)" />
    <path
       style="fill:#008000"
       id="path3602"
       d="m 424.42144,905.2571 c -0.88669,1.26915 -1.92198,2.41779 -2.89671,3.61643 -2.0651,2.24229 -4.27357,4.34613 -6.35163,6.57552 -1.2731,1.36117 -2.57635,2.69313 -3.86506,4.03918 -0.81094,0.82428 -1.58401,1.68344 -2.27229,2.61298 -0.54918,0.88286 -1.2118,1.68353 -1.80542,2.53541 -0.57172,0.94445 -1.18378,1.86299 -1.75096,2.81017 -0.68713,1.14529 -1.41054,2.27095 -2.00063,3.47051 -0.41628,0.97745 -0.8921,1.92188 -1.41214,2.8475 -0.5098,0.97392 -1.07035,1.9173 -1.63471,2.86007 -0.58507,0.95599 -0.97418,2.01151 -1.4869,3.00512 -0.69317,1.10086 -1.36138,2.21609 -2.00512,3.34661 -0.618,1.12069 -1.19374,2.26283 -1.83092,3.37289 -0.596,1.04134 -1.16273,2.09792 -1.81253,3.10713 -0.55076,0.68108 -0.90624,1.48539 -1.35488,2.23085 -0.44993,0.7557 -0.88827,1.51894 -1.43546,2.20942 -0.61796,0.92207 -1.46291,1.63926 -2.24879,2.41001 -0.73362,0.67785 -1.39067,1.43136 -2.10361,2.1292 -0.56281,0.5492 -1.1045,1.12189 -1.68459,1.6528 -0.48884,0.52272 -1.04815,0.97087 -1.45254,1.56545 -0.53987,0.63624 -1.12432,1.22689 -1.68554,1.84585 -0.59008,0.58415 -1.06544,1.25217 -1.54328,1.92525 -0.53474,0.81562 -1.07361,1.62586 -1.74159,2.33855 -0.67772,0.63482 -1.34827,1.27674 -2.05043,1.88474 -0.57036,0.50819 -1.09436,1.06556 -1.66333,1.5744 -0.62622,0.35992 -1.12418,0.8239 -1.59894,1.35673 -0.41639,0.54451 -0.93904,0.98638 -1.41863,1.47469 -0.0317,0.0115 -0.0669,0.0533 -0.095,0.0346 -0.0399,-0.0266 -0.0443,-0.0865 -0.0536,-0.13354 -0.0732,-0.37187 0.37858,-0.52265 0.65858,-0.6361 2.52818,-1.47047 -2.10983,1.22842 -5.66842,3.23474 -0.15097,0.0851 0.28676,-0.19474 0.43214,-0.28908 0.42607,-0.2765 0.84759,-0.55807 1.27179,-0.83763 1.04677,-0.68879 1.96802,-1.54191 2.87797,-2.3976 1.10099,-1.01067 2.05462,-2.16138 2.9093,-3.38353 0.59552,-0.90131 1.23137,-1.77421 1.81731,-2.68184 0.55924,-0.88803 1.1709,-1.73965 1.74772,-2.61668 0.63029,-0.87903 1.27092,-1.73373 1.79168,-2.68367 0.51936,-0.99793 0.90448,-2.05881 1.34704,-3.0921 0.40397,-0.99744 0.74588,-2.01711 1.11131,-3.02871 0.42451,-0.95407 0.82914,-1.91255 1.15457,-2.90621 0.3394,-1.18868 0.56986,-2.40394 0.95938,-3.57742 0.46712,-1.3205 0.75,-2.69348 1.16331,-4.03085 0.33921,-1.254 0.6772,-2.49873 1.16549,-3.70426 0.42403,-1.08932 1.01045,-2.08554 1.65986,-3.05191 0.69171,-1.04148 1.45358,-2.03453 2.19614,-3.04014 0.73528,-0.85062 1.40585,-1.74975 2.17392,-2.57145 0.82161,-0.9299 1.66464,-1.83909 2.52345,-2.73459 0.99424,-1.00081 2.08656,-1.89489 3.11635,-2.85701 0.8076,-0.81063 1.67342,-1.5601 2.49608,-2.35474 0.53492,-0.55377 1.13364,-1.01874 1.77626,-1.43979 0.68948,-0.65649 1.46474,-1.19475 2.25166,-1.72537 0.83292,-0.68653 1.67007,-1.35905 2.5476,-1.98887 0.15458,-0.10976 0.3001,-0.23356 0.46375,-0.32929 19.11229,-11.01763 0.24872,-0.13865 0.90249,-0.53255 2.24427,-1.35214 4.55558,-2.59053 6.80569,-3.93293 1.99328,-1.18917 -4.01669,2.32722 -6.03511,3.47322 -0.12004,0.0681 0.22557,-0.15918 0.33835,-0.23877 14.64743,-8.45878 3.75627,-2.16354 0.67529,-0.40527 -0.11053,0.0631 0.21179,-0.1412 0.31973,-0.20861 0.30384,-0.18977 0.58279,-0.39746 0.87495,-0.60504 0.51799,-0.51576 1.1755,-0.84478 1.73848,-1.30395 0.66371,-0.5306 1.33348,-1.06096 1.91728,-1.68151 0.626,-0.66033 1.24408,-1.3308 1.90119,-1.96045 0.51974,-0.5177 1.01775,-1.05925 1.55726,-1.55656 0.50528,-0.51898 0.82674,-1.16899 1.19655,-1.78203 0.25352,-0.43622 0.118,-0.22963 0.40403,-0.62143 0,0 6.87608,-2.9991 6.87608,-2.9991 l 0,0 c -0.26071,0.40715 -0.1149,0.2218 -0.43313,0.5594 -0.34489,0.67035 -0.73014,1.30498 -1.12366,1.94371 -0.45605,0.57695 -1.04356,1.04599 -1.56461,1.56162 -0.58183,0.70354 -1.30424,1.287 -1.92972,1.95288 -0.55829,0.67449 -1.17388,1.24657 -1.82785,1.81677 -0.60063,0.39809 -1.11588,0.90641 -1.76666,1.23233 -0.32775,0.3716 -0.7289,0.67852 -1.15566,0.92634 -0.22836,0.1326 -16.63131,9.68807 -0.68386,0.39992 -2.32028,1.47233 -4.80982,2.67189 -7.09488,4.1983 -1.91558,1.2796 7.97442,-4.61711 5.97957,-3.46498 -22.74529,13.13659 4.17143,-2.39014 -1.40227,0.80626 -0.85858,0.65366 -1.80041,1.20309 -2.53809,2.00362 -0.74822,0.55001 -1.60229,0.97037 -2.23544,1.65894 -0.54986,0.55317 -1.32025,0.79589 -1.80289,1.4241 -0.90191,0.71854 -1.69508,1.57804 -2.55712,2.34486 -1.00447,0.98647 -2.09484,1.87059 -3.1138,2.84282 -0.90086,0.84556 -1.71604,1.77997 -2.52401,2.7121 -0.78372,0.80298 -1.44146,1.67935 -2.20785,2.49208 -0.75707,0.98177 -1.47388,1.99352 -2.2093,2.99087 -0.60705,0.95558 -1.29827,1.85047 -1.71129,2.9184 -0.49065,1.19564 -0.97926,2.38216 -1.21417,3.66273 -0.44062,1.33598 -0.75197,2.7022 -1.15133,4.04985 -0.4304,1.14819 -0.67174,2.34482 -0.95227,3.53674 -0.28132,1.00914 -0.61041,2.02715 -1.13621,2.93531 -0.35456,1.02784 -0.7271,2.04685 -1.0978,3.06845 -0.43053,1.05921 -0.88622,2.10811 -1.31995,3.16559 -0.27327,0.502 -0.50336,1.02764 -0.8178,1.50608 -0.56088,0.8534 -10e-4,-0.0463 -0.62774,0.78164 -0.11417,0.15083 -0.2062,0.31721 -0.3093,0.47582 -0.633,0.82279 -1.18366,1.73328 -1.724,2.6142 -0.68761,0.84265 -1.20667,1.8325 -1.86816,2.69797 -0.88803,1.21753 -1.72813,2.47924 -2.84707,3.50902 -0.89803,0.87096 -1.79721,1.74813 -2.79984,2.50007 -2.81425,1.96183 -5.79999,3.79731 -8.88954,5.25136 -0.81548,0.30844 -1.47778,0.0788 -1.51183,-0.9115 0.34932,-0.62114 0.86885,-1.07214 1.43184,-1.48819 0.40115,-0.64232 0.86551,-1.18311 1.50199,-1.59665 0.70734,-0.32848 1.11105,-0.98935 1.72644,-1.44818 0.63207,-0.6937 1.42947,-1.20967 2.05207,-1.91899 0.77012,-0.57711 1.27499,-1.35211 1.80024,-2.14664 0.43139,-0.74006 0.93496,-1.41448 1.49471,-2.05982 0.5873,-0.58418 1.04426,-1.2588 1.70316,-1.76527 0.47513,-0.5488 0.78621,-1.22648 1.42536,-1.63365 0.4965,-0.61552 1.13409,-1.11372 1.69978,-1.66427 0.66868,-0.76073 1.43303,-1.43492 2.11596,-2.18494 0.7972,-0.70588 1.59564,-1.4383 2.25969,-2.26973 0.49912,-0.7075 1.08625,-1.34607 1.47588,-2.13166 0.43326,-0.77698 0.86575,-1.55512 1.32916,-2.31505 0.78706,-0.90551 1.28021,-2.02314 1.88541,-3.05149 0.6658,-1.09111 1.23084,-2.23632 1.82918,-3.36458 0.65617,-1.11354 1.24544,-2.27084 1.99289,-3.32746 0.58318,-0.9685 0.94993,-2.03479 1.47454,-3.03355 0.57724,-0.91984 1.12562,-1.85375 1.63643,-2.81108 0.47647,-0.9454 1.07489,-1.82288 1.45383,-2.81746 0.53204,-1.24792 1.28497,-2.37419 1.9622,-3.54571 0.57381,-0.94582 1.15324,-1.87934 1.72951,-2.82141 0.53377,-0.9127 1.26182,-1.67186 1.79509,-2.57979 0.68452,-0.96221 1.3943,-1.91436 2.27458,-2.71077 1.26489,-1.4077 2.66906,-2.68905 3.95784,-4.07608 2.03307,-2.22655 4.27535,-4.25085 6.29742,-6.48804 0.91224,-1.20853 1.96928,-2.29347 2.84406,-3.53164 0,0 6.85899,-3.00104 6.85899,-3.00104 z"
       inkscape:connector-curvature="0" />
  </g>
</svg>
