<?xml version="1.0" encoding="UTF-8" standalone="no"?>
<!-- Created with Inkscape (http://www.inkscape.org/) -->

<svg
   xmlns:dc="http://purl.org/dc/elements/1.1/"
   xmlns:cc="http://creativecommons.org/ns#"
   xmlns:rdf="http://www.w3.org/1999/02/22-rdf-syntax-ns#"
   xmlns:svg="http://www.w3.org/2000/svg"
   xmlns="http://www.w3.org/2000/svg"
   xmlns:sodipodi="http://sodipodi.sourceforge.net/DTD/sodipodi-0.dtd"
   xmlns:inkscape="http://www.inkscape.org/namespaces/inkscape"
   width="1024"
   height="1052.36"
   id="svg2"
   version="1.1"
   inkscape:version="0.48.5 r10040"
   sodipodi:docname="GrassTile.svg"
   inkscape:export-filename="D:\Dev\Unity3D\FireStarter\Assets\Sprites\GrassTile.png"
   inkscape:export-xdpi="90"
   inkscape:export-ydpi="90">
  <defs
     id="defs4" />
  <sodipodi:namedview
     id="base"
     pagecolor="#ffffff"
     bordercolor="#666666"
     borderopacity="1.0"
     inkscape:pageopacity="0.0"
     inkscape:pageshadow="2"
     inkscape:zoom="1.979899"
     inkscape:cx="418.40942"
     inkscape:cy="152.40949"
     inkscape:document-units="px"
     inkscape:current-layer="layer1"
     showgrid="true"
     showguides="true"
     inkscape:window-width="1920"
     inkscape:window-height="1017"
     inkscape:window-x="-8"
     inkscape:window-y="-8"
     inkscape:window-maximized="1">
    <inkscape:grid
       type="axonomgrid"
       id="grid2987"
       units="mm"
       empspacing="10"
       visible="true"
       enabled="true"
       snapvisiblegridlinesonly="true"
       spacingy="8mm" />
  </sodipodi:namedview>
  <metadata
     id="metadata7">
    <rdf:RDF>
      <cc:Work
         rdf:about="">
        <dc:format>image/svg+xml</dc:format>
        <dc:type
           rdf:resource="http://purl.org/dc/dcmitype/StillImage" />
        <dc:title></dc:title>
      </cc:Work>
    </rdf:RDF>
  </metadata>
  <g
     inkscape:label="Layer 1"
     inkscape:groupmode="layer"
     id="layer1"
     transform="translate(0,-0.00218262)">
    <path
       style="fill:none;stroke:#000000;stroke-width:1px;stroke-linecap:butt;stroke-linejoin:miter;stroke-opacity:1"
       d="M 490.97503,1052.36 C 245.48752,910.6277 245.48752,910.6277 245.48752,910.6277 L 490.97503,768.89542 736.46255,910.6277 z"
       id="path3038"
       inkscape:connector-curvature="0"
       transform="translate(0,0.00218262)" />
    <path
       style="opacity:0.819;fill:#008000;fill-opacity:1;stroke:#570500;stroke-width:0;stroke-miterlimit:4;stroke-dasharray:none;stroke-opacity:1"
       d="m 369.29038,981.26509 c -66.53117,-38.46596 -121.25286,-70.11068 -121.60375,-70.3216 -0.71634,-0.43057 241.99691,-140.76838 243.36555,-140.71497 0.45275,0.0177 55.51079,31.60341 122.35121,70.19053 l 121.52803,70.15841 -1.37187,0.84274 c -6.69301,4.11156 -241.74369,139.4806 -242.41634,139.611 -0.4919,0.095 -54.77366,-30.9833 -121.85283,-69.76611 z"
       id="path26832"
       inkscape:connector-curvature="0"
       transform="translate(0,0.00218262)" />
    <path
       style="fill:#44aa00;fill-rule:evenodd;stroke:#000000;stroke-width:0;stroke-linecap:butt;stroke-linejoin:miter;stroke-miterlimit:4;stroke-dasharray:none;stroke-opacity:1"
       d="m 395.6105,941.08992 c 1.13325,0.22018 2.24651,0.60781 3.39975,0.66054 0.16819,0.008 0,-0.33671 0,-0.50507 0,-0.50508 0,-1.01015 0,-1.51523 0,-1.34687 0,-2.69374 0,-4.04061 0,-0.16836 0.11905,-0.38603 0,-0.50508 -0.11905,-0.11905 -0.38603,0.11905 -0.50507,0 -0.11905,-0.11905 0,-0.33672 0,-0.50507 0,-0.67344 0,-1.34687 0,-2.02031 0,-0.16836 0.11904,-0.38603 0,-0.50508 -0.11905,-0.11904 -0.38603,0.11905 -0.50508,0 -0.0505,-0.0505 -0.0505,-1.46472 0,-1.51522 0.11905,-0.11905 0.38603,-0.11905 0.50508,0 0.11904,0.11904 -0.11905,0.38602 0,0.50507 0.11904,0.11905 0.38602,-0.11905 0.50507,0 0.11905,0.11905 -0.11905,0.38603 0,0.50508 0.67344,0.67343 0.50508,-0.8418 0.50508,0.50507 0,1.34687 -0.16836,-0.16835 0.50507,0.50508 0.0951,0.0951 -0.0951,1.42012 0,1.51523 0.11905,0.11905 0.38603,-0.11905 0.50508,0 0.11905,0.11905 0,0.33672 0,0.50508 0,0.67343 0,1.34687 0,2.0203 0,0.16836 -0.11905,0.38603 0,0.50508 0.11905,0.11905 0.38603,-0.11905 0.50508,0 0.11904,0.11905 0,0.33672 0,0.50507 0,0.16836 0,0.33672 0,0.50508 0,0.16836 0.16836,0.50508 0,0.50508 -0.16836,0 -0.16836,-0.50508 0,-0.50508 1.46168,0 -0.0872,1.18449 0.50507,0 0.10648,-0.21296 0.3986,-0.29212 0.50508,-0.50508 0.10013,-0.20025 -0.10326,-1.41197 0,-1.51523 0.11905,-0.11904 0.38603,0.11905 0.50508,0 0.11904,-0.11904 0,-0.33671 0,-0.50507 0.16835,0 0.38602,0.11905 0.50507,0 0.11905,-0.11905 -0.11905,-0.38603 0,-0.50508 0.11905,-0.11905 0.42979,0.15059 0.50508,0 0.15058,-0.30117 0,-0.67343 0,-1.01015 0,-0.16836 -0.11905,-0.38603 0,-0.50508 0.11905,-0.11904 0.38603,0.11905 0.50507,0 0.2381,-0.23809 -0.23809,-0.77205 0,-1.01015 0.11905,-0.11905 0.38603,0.11905 0.50508,0 0.11905,-0.11905 -0.11905,-0.38603 0,-0.50508 0.11905,-0.11904 0.38603,0.11905 0.50508,0 0.11904,-0.11904 -0.0753,-0.35449 0,-0.50507 0.10648,-0.21296 0.39859,-0.29212 0.50507,-0.50508 0.32025,-0.64049 -0.77283,-1.01015 0.50508,-1.01015 0.16836,0 0.38603,-0.11905 0.50508,0 0.11904,0.11905 0,0.33672 0,0.50508 0,0.67343 0,1.34687 0,2.0203 0,0.16836 0.11904,0.38603 0,0.50508 -0.11905,0.11904 -0.38603,-0.11905 -0.50508,0 -0.2381,0.23809 0.15058,0.70898 0,1.01015 -0.10648,0.21296 -0.3986,0.29212 -0.50508,0.50508 -0.15058,0.30117 0.2381,0.77205 0,1.01015 -0.11904,0.11905 -0.38603,-0.11905 -0.50507,0 -0.0951,0.0951 0.0951,1.42012 0,1.51523 -0.11905,0.11905 -0.38603,-0.11905 -0.50508,0 -0.11905,0.11905 0,0.33672 0,0.50507 0,0.67344 0,1.34687 0,2.02031 0,0.16836 0.11905,0.38603 0,0.50508 -0.11905,0.11904 -0.38603,-0.11905 -0.50508,0 -0.0743,0.0743 0.0594,1.51522 0,1.51522 -0.16835,0 -0.11904,-0.38602 0,-0.50507 0.16843,-0.16842 0.84174,0.16842 1.01016,0 0.11904,-0.11905 0,-0.33672 0,-0.50508 0.16836,0 0.38603,0.11905 0.50507,0 0.2381,-0.23809 -0.23809,-0.77206 0,-1.01015 0.11905,-0.11905 0.3545,0.0753 0.50508,0 0.21296,-0.10648 0.33672,-0.33672 0.50508,-0.50508 0.16835,-0.16836 0.39859,-0.29211 0.50507,-0.50507 0.0753,-0.15059 -0.0753,-0.3545 0,-0.50508 1.05101,-2.10201 -0.0349,0.53994 1.01015,-0.50508 0,-1.34687 -0.16835,0.16836 0.50508,-0.50507 0.11905,-0.11905 -0.16836,-0.50508 0,-0.50508 0.16836,0 0,0.33672 0,0.50508 0,0.12249 0.0162,1.49898 0,1.51523 -0.11905,0.11904 -0.38603,-0.11905 -0.50508,0 -0.10325,0.10325 0.10013,1.31497 0,1.51523 -0.10647,0.21295 -0.39859,0.29211 -0.50507,0.50507 -0.10013,0.20026 0.10325,1.41197 0,1.51523 -0.11905,0.11905 -0.38603,-0.11905 -0.50508,0 -0.0951,0.0951 0.0951,1.42012 0,1.51523 -0.11905,0.11905 -0.38603,-0.11905 -0.50507,0 -0.11905,0.11905 0.11904,0.38603 0,0.50508 -0.11905,0.11904 -0.33672,0 -0.50508,0 -0.16836,0 -0.33672,0 -0.50508,0 -0.22746,0 -1.36151,0.0769 -1.51523,0 -0.21295,-0.10648 -0.29211,-0.3986 -0.50507,-0.50508 -0.30117,-0.15059 -0.77206,0.23809 -1.01015,0 -0.11905,-0.11905 0.11904,-0.38603 0,-0.50508 -0.2381,-0.23809 -0.70899,0.15059 -1.01016,0 -0.21296,-0.10648 -0.29211,-0.39859 -0.50507,-0.50507 -0.29971,-0.14986 -1.21553,0.14985 -1.51523,0 -0.21296,-0.10648 -0.29212,-0.3986 -0.50508,-0.50508 -0.30116,-0.15058 -1.21027,0.14875 -1.51523,0 -0.66385,-0.32382 -1.1459,-1.16562 -1.88452,-1.16562 -0.67367,0 -1.0584,0.84524 -1.65101,1.16562 -0.1299,0.0702 -1.30661,0 -1.51523,0 -0.16836,0 -0.38603,0.11905 -0.50508,0 -0.11904,-0.11905 0,-0.33672 0,-0.50508 0,-0.16835 0,-0.33671 0,-0.50507 0,-0.16836 0.11905,-0.38603 0,-0.50508 -0.11904,-0.11905 -0.38602,0.11905 -0.50507,0 -0.1382,-0.1382 0.137,-1.74631 0,-2.0203 -0.10648,-0.21296 -0.3986,-0.29212 -0.50508,-0.50508 -0.0753,-0.15058 0.0753,-0.35449 0,-0.50508 -0.10648,-0.21296 -0.3986,-0.29211 -0.50507,-0.50507 -0.0753,-0.15059 0,-0.33672 0,-0.50508 0,-0.16836 0,-0.33672 0,-0.50508 0,-0.16835 -0.16836,-0.50507 0,-0.50507 0.16835,0 -0.16836,0.50507 0,0.50507 0.23809,0 0.29211,-0.39859 0.50507,-0.50507 0.15059,-0.0753 0.33672,0 0.50508,0 0.16836,0 0.33672,0 0.50507,0 0.16836,0 0.38603,-0.11905 0.50508,0 0.11905,0.11905 -0.11905,0.38603 0,0.50507 0.11905,0.11905 0.38603,-0.11904 0.50508,0 0.11904,0.11905 -0.0753,0.3545 0,0.50508 0.10648,0.21296 0.39859,0.29212 0.50507,0.50508 0.0753,0.15058 -0.11904,0.38603 0,0.50507 0.11905,0.11905 0.38603,-0.11904 0.50508,0 0.23809,0.2381 -0.2381,0.77206 0,1.01016 0.11905,0.11904 0.38603,-0.11905 0.50508,0 0.77124,0.77124 -3.43041,2.36991 1.14593,2.36991 0.65729,0 -0.46928,-1.23033 -0.64086,-1.86484 -0.0746,-0.27581 0,-1.19023 0,-1.51523 0,-0.16835 -0.11905,-0.38602 0,-0.50507 0.11905,-0.11905 0.38603,0.11905 0.50508,0 0.23809,-0.2381 -0.15059,-0.70899 0,-1.01016 0.10648,-0.21295 0.3986,-0.29211 0.50507,-0.50507 0.0753,-0.15059 -0.11904,-0.38603 0,-0.50508 0.11905,-0.11905 0.38603,-0.11905 0.50508,0 0.11905,0.11905 -0.0753,0.35449 0,0.50508 0.10648,0.21296 0.3986,0.29212 0.50508,0.50507 0.0753,0.15059 -0.11905,0.38603 0,0.50508 0.11904,0.11905 0.38603,-0.11905 0.50507,0 0.11905,0.11905 0,0.33672 0,0.50508 0,0.67343 0,1.34687 0,2.0203 0,0.16836 -0.11904,0.38603 0,0.50508 0.11905,0.11905 0.38603,-0.11905 0.50508,0 0.11905,0.11905 0,0.33672 0,0.50508 0,0.16835 0.15852,0.44837 0,0.50507 -0.75799,0.27111 -1.59307,0.23308 -2.3896,0.34961"
       id="path26834"
       inkscape:connector-curvature="0" />
    <path
       style="fill:#44aa00;fill-rule:evenodd;stroke:#000000;stroke-width:0;stroke-linecap:butt;stroke-linejoin:miter;stroke-miterlimit:4;stroke-dasharray:none;stroke-opacity:1"
       d="m 573.40757,890.55121 c -6.70778,6.02597 -1.38847,-7.00067 -4.18662,-8.39974 -0.15058,-0.0753 -0.38603,0.11904 -0.50507,0 -0.0951,-0.0951 0.0951,-1.42012 0,-1.51523 -0.11905,-0.11905 -0.38603,0.11904 -0.50508,0 -0.2381,-0.2381 0.23809,-0.77206 0,-1.01016 -0.11905,-0.11904 -0.38603,0.11905 -0.50508,0 -0.23809,-0.23809 0.2381,-0.77205 0,-1.01015 -0.23809,-0.23809 -0.77205,0.2381 -1.01015,0 -0.2381,-0.23809 0.2381,-0.77206 0,-1.01015 -0.11905,-0.11905 -0.67343,0 -0.50508,0 0.33672,0 0.67344,0 1.01016,0 0.16836,0 0.35449,-0.0753 0.50507,0 0.21296,0.10648 0.29212,0.3986 0.50508,0.50508 0.15058,0.0753 0.38603,-0.11905 0.50508,0 0.11904,0.11904 -0.11905,0.38602 0,0.50507 0.11904,0.11905 0.38602,-0.11905 0.50507,0 0.11905,0.11905 -0.11905,0.38603 0,0.50508 0.11905,0.11905 0.38603,-0.11905 0.50508,0 0.23809,0.23809 -0.2381,0.77206 0,1.01015 0.11905,0.11905 0.35449,-0.0753 0.50507,0 2.10201,1.051 -0.53994,-0.0349 0.50508,1.01015 0.11905,0.11905 0.38603,-0.11904 0.50508,0 0.0162,0.0163 0,1.39274 0,1.51523 0,0.16836 0,0.33672 0,0.50508 0,0.16836 -0.11905,0.38603 0,0.50507 0.11904,0.11905 0.38603,-0.11904 0.50507,0 0.11905,0.11905 0,0.33672 0,0.50508 0,0.16836 0,0.33672 0,0.50508 0,0.16836 0.16836,0.50507 0,0.50507 -0.16836,0 0,-0.33671 0,-0.50507 0,-0.33672 0,-0.67344 0,-1.01016 0,-0.16835 0,-0.33671 0,-0.50507 0,-0.16836 -0.0753,-0.35449 0,-0.50508 0.21296,-0.42592 0.7972,-0.58423 1.01016,-1.01015 0.13699,-0.274 -0.1382,-1.88211 0,-2.02031 0.11904,-0.11904 0.38602,0.11905 0.50507,0 0.2381,-0.23809 -0.23809,-0.77205 0,-1.01015 0.11905,-0.11905 0.38603,0.11905 0.50508,0 0.23809,-0.23809 -0.15059,-0.70898 0,-1.01015 0.10648,-0.21296 0.39859,-0.29212 0.50507,-0.50508 0.15059,-0.30117 -0.23809,-0.77205 0,-1.01015 0.11905,-0.11905 0.38603,0.11905 0.50508,0 0.11905,-0.11905 -0.16836,-0.50508 0,-0.50508 0.16836,0 0,0.33672 0,0.50508 0,0.16836 0,0.33672 0,0.50508 0,1.34687 0,2.69374 0,4.04061 0,1.34687 0,2.69374 0,4.04061 0,0.16836 0,0.33671 0,0.50507 0,0.16836 0.16836,0.50508 0,0.50508 -0.16836,0 0,-0.33672 0,-0.50508 0,-0.16836 -0.11905,-0.38603 0,-0.50507 0.11905,-0.11905 0.38603,0.11904 0.50508,0 0.11904,-0.11905 -0.11905,-0.38603 0,-0.50508 0.11904,-0.11905 0.38603,0.11905 0.50507,0 0.11905,-0.11905 -0.0753,-0.35449 0,-0.50508 0.10648,-0.21295 0.33672,-0.33671 0.50508,-0.50507 0.16836,-0.16836 0.29212,-0.3986 0.50508,-0.50508 1.34687,0 -0.16836,0.16836 0.50507,-0.50507 0.11905,-0.11905 0.38603,0.11904 0.50508,0 0.23809,-0.2381 -0.2381,-0.77206 0,-1.01016 0.16844,-0.16843 0.84171,0.16844 1.01015,0 0.11905,-0.11904 -0.11905,-0.38603 0,-0.50507 0.11905,-0.11905 0.38603,0.11904 0.50508,0 0.11904,-0.11905 -0.11905,-0.38603 0,-0.50508 0.11904,-0.11905 0.38603,0.11905 0.50507,0 0.11905,-0.11905 -0.11904,-0.38603 0,-0.50508 0.11905,-0.11904 0.38603,0.11905 0.50508,0 0.11905,-0.11904 -0.11905,-0.38602 0,-0.50507 0.23809,-0.2381 0.77206,0.23809 1.01015,0 0.11905,-0.11905 -0.11905,-0.38603 0,-0.50508 0.11905,-0.11905 0.38603,-0.11905 0.50508,0 0.11905,0.11905 0,0.33672 0,0.50508 0,0.16836 0,0.33672 0,0.50507 0,0.16836 0.0753,0.3545 0,0.50508 -0.10648,0.21296 -0.3986,0.29212 -0.50508,0.50508 -0.0753,0.15058 0.0753,0.35449 0,0.50507 -0.10648,0.21296 -0.39859,0.29212 -0.50507,0.50508 -0.0753,0.15058 0.11904,0.38603 0,0.50508 -0.11905,0.11904 -0.38603,-0.11905 -0.50508,0 -0.0951,0.0951 0.0951,1.42011 0,1.51522 -0.11905,0.11905 -0.38603,-0.11904 -0.50508,0 0,1.34687 0.16836,-0.16835 -0.50507,0.50508 -0.2381,0.2381 0.23809,0.77206 0,1.01015 -0.11905,0.11905 -0.38603,-0.11904 -0.50508,0 -0.12154,0.12154 0.12154,1.89877 0,2.02031 -0.11905,0.11905 -0.38603,-0.11905 -0.50508,0 -0.11904,0.11905 0,0.33672 0,0.50507 0,0.16836 -0.11904,0.38603 0,0.50508 0.39484,0.39483 0.87866,-0.43933 1.01016,-0.50508 0.15058,-0.0753 0.38603,0.11905 0.50507,0 0.11905,-0.11904 -0.11904,-0.38602 0,-0.50507 0.11905,-0.11905 0.38603,0.11905 0.50508,0 0,-1.34687 -0.16836,0.16836 0.50508,-0.50508 0.11904,-0.11905 -0.11905,-0.38603 0,-0.50507 0.23809,-0.2381 0.77205,0.23809 1.01015,0 0.11905,-0.11905 -0.11905,-0.38603 0,-0.50508 0.11905,-0.11905 0.38603,0.11905 0.50507,0 0.11905,-0.11905 -0.11904,-0.38603 0,-0.50508 0.11905,-0.11904 0.38603,-0.11904 0.50508,0 0.11905,0.11905 0,0.33672 0,0.50508 0,0.16836 0,0.33672 0,0.50508 0,0.16835 0.0753,0.35449 0,0.50507 -0.10648,0.21296 -0.3986,0.29212 -0.50508,0.50508 0,1.34687 0.16836,-0.16836 -0.50507,0.50507 -0.0951,0.0951 0.0951,1.42012 0,1.51523 -0.11905,0.11905 -0.33672,0 -0.50508,0 -0.16836,0 -0.33672,0 -0.50507,0 -1.34687,0 -2.69374,0 -4.04061,0 -0.2012,0 -1.39474,-0.0673 -1.51523,0 -0.66864,0.37338 -1.10848,1.32868 -1.8743,1.32868 -0.70908,0 -1.0568,-0.95795 -1.66124,-1.32868 -0.83483,-0.51203 -0.34367,0.34368 -0.50507,0.50508 -0.11905,0.11905 -0.33672,0 -0.50508,0 -0.18548,0 -1.99998,0.0203 -2.0203,0 -0.11905,-0.11905 0.11904,-0.38603 0,-0.50508 -0.11905,-0.11904 -0.38603,0.11905 -0.50508,0 -0.11905,-0.11904 0.11905,-0.38603 0,-0.50507 -0.11905,-0.11905 -0.38603,0.11904 -0.50508,0 -0.11904,-0.11905 0.11905,-0.38603 0,-0.50508 -0.11904,-0.11905 -0.38603,0.11905 -0.50507,0 -0.11905,-0.11905 0.11904,-0.38603 0,-0.50508 -0.11905,-0.11904 -0.38603,0.11905 -0.50508,0 -0.2381,-0.23809 0.15058,-0.70898 0,-1.01015 -0.10648,-0.21296 -0.3986,-0.29212 -0.50508,-0.50507 -0.0753,-0.15059 0.11905,-0.38603 0,-0.50508 -0.23809,-0.2381 -1.01015,0.33672 -1.01015,0 0,-0.16836 0.33672,0 0.50508,0 0.12249,0 1.49898,-0.0162 1.51523,0 0.67343,0.67343 -0.8418,0.50508 0.50507,0.50508 1.34687,0 -0.16836,-0.16836 0.50508,0.50507 0.11905,0.11905 0.38603,-0.11905 0.50508,0 0.11904,0.11905 -0.11905,0.38603 0,0.50508 0.23809,0.23809 0.77205,-0.2381 1.01015,0 0.11905,0.11905 -0.11905,0.38603 0,0.50507 0.16844,0.16844 0.84171,-0.16843 1.01015,0 0.11905,0.11905 -0.11905,0.38603 0,0.50508 0.11905,0.11905 0.33672,0 0.50508,0 0.7221,0.77961 1.4442,1.55922 2.16631,2.33883"
       id="path26836"
       inkscape:connector-curvature="0" />
    <path
       style="fill:#44aa00;fill-rule:evenodd;stroke:#000000;stroke-width:0;stroke-linecap:butt;stroke-linejoin:miter;stroke-miterlimit:4;stroke-dasharray:none;stroke-opacity:1"
       d="m 363.39072,893.55057 c -0.41701,-0.60089 -0.83402,-1.20177 -1.25104,-1.80266 -0.16835,0 -0.38602,0.11905 -0.50507,0 -0.2381,-0.23809 0.23809,-0.77206 0,-1.01015 -0.1679,-0.16789 -0.84226,0.16789 -1.01016,0 -0.11904,-0.11905 0,-0.33672 0,-0.50508 -0.16835,0 -0.38602,0.11905 -0.50507,0 -0.11905,-0.11904 0.11905,-0.38603 0,-0.50507 -0.11905,-0.11905 -0.38603,0.11904 -0.50508,0 -0.11905,-0.11905 0.11905,-0.38603 0,-0.50508 -0.67343,-0.67343 -0.50507,0.84179 -0.50507,-0.50508 0,-1.34687 0.16835,0.16836 -0.50508,-0.50507 -0.11905,-0.11905 0.11905,-0.38603 0,-0.50508 -0.11905,-0.11905 -0.38603,0.11905 -0.50508,0 -0.11904,-0.11905 0.11905,-0.38603 0,-0.50507 -0.11904,-0.11905 -0.38603,0.11904 -0.50507,0 -0.11905,-0.11905 0.11904,-0.38603 0,-0.50508 -0.11905,-0.11905 -0.38603,0.11905 -0.50508,0 -0.23809,-0.2381 0.2381,-0.77206 0,-1.01015 -0.11905,-0.11905 -0.50508,0.16836 -0.50508,0 0,-0.16836 0.33672,0 0.50508,0 0.16836,0 0.38603,-0.11905 0.50508,0 0.11904,0.11904 -0.11905,0.38602 0,0.50507 0.16858,0.16859 0.84156,-0.16858 1.01015,0 0.11905,0.11905 -0.11905,0.38603 0,0.50508 0.11905,0.11905 0.38603,-0.11905 0.50508,0 0.11904,0.11905 -0.0753,0.35449 0,0.50508 0.10648,0.21295 0.39859,0.29211 0.50507,0.50507 0.0753,0.15059 -0.11905,0.38603 0,0.50508 0.11905,0.11905 0.38603,-0.11905 0.50508,0 0.11905,0.11905 0,0.33672 0,0.50507 0.16836,0 0.38603,-0.11904 0.50507,0 0,1.34687 -0.16835,-0.16835 0.50508,0.50508 0.11905,0.11905 -0.11905,0.38603 0,0.50508 0.16789,0.16789 0.84226,-0.1679 1.01015,0 0.11905,0.11904 -0.11904,0.38603 0,0.50507 0.11905,0.11905 0.33672,0 0.50508,0 0.16836,0 0.38603,0.11905 0.50508,0 0.0203,-0.0203 0,-1.83482 0,-2.0203 0,-1.34687 0,-2.69374 0,-4.04061 0,-0.16836 0,-0.33672 0,-0.50508 0,-0.16836 -0.11905,-0.38603 0,-0.50508 0.11904,-0.11904 0.38602,0.11905 0.50507,0 0.2381,-0.23809 -0.23809,-0.77205 0,-1.01015 0.11905,-0.11905 0.38603,0.11905 0.50508,0 0.12154,-0.12153 -0.12154,-1.89877 0,-2.0203 0.11905,-0.11905 0.38603,-0.11905 0.50508,0 0.11904,0.11904 -0.0753,0.35449 0,0.50507 0.10647,0.21296 0.39859,0.29212 0.50507,0.50508 0.0664,0.13281 0,1.75619 0,2.0203 0,1.51523 0,3.03046 0,4.54569 0,0.18548 -0.0203,1.99998 0,2.02031 0.11905,0.11904 0.38603,0.11904 0.50508,0 0.0814,-0.0814 -0.0702,-0.79968 0,-1.01016 0.11905,-0.35714 0.23888,-0.74395 0.50507,-1.01015 0.11905,-0.11905 0.38603,0.11905 0.50508,0 0.2381,-0.23809 -0.2381,-0.77206 0,-1.01015 0.11905,-0.11905 0.35449,0.0753 0.50508,0 2.102,-1.051 -0.53995,0.0349 0.50507,-1.01015 0.11905,-0.11905 0.38603,0.11904 0.50508,0 0.11905,-0.11905 0,-0.33672 0,-0.50508 0.16836,0 0.38603,0.11905 0.50508,0 0.11904,-0.11905 -0.11905,-0.38603 0,-0.50508 0.11904,-0.11904 0.38602,0.11905 0.50507,0 0.11905,-0.11904 -0.11905,-0.38602 0,-0.50507 0.11905,-0.11905 0.38603,0.11905 0.50508,0 0,-1.34687 -0.16836,0.16836 0.50507,-0.50508 0.11905,-0.11905 -0.16835,-0.50508 0,-0.50508 0.16836,0 0,0.33672 0,0.50508 0,0.16836 0,0.33672 0,0.50508 0,0.16836 0.0753,0.35449 0,0.50507 -0.10648,0.21296 -0.39859,0.29212 -0.50507,0.50508 -0.15059,0.30117 0.23809,0.77206 0,1.01015 -0.11905,0.11905 -0.38603,-0.11905 -0.50508,0 0,1.34687 0.16836,-0.16836 -0.50507,0.50508 -0.2381,0.23809 0.15058,0.70898 0,1.01015 -0.10648,0.21296 -0.3986,0.29212 -0.50508,0.50508 -0.0753,0.15058 0.11905,0.38603 0,0.50507 -0.11905,0.11905 -0.38603,-0.11904 -0.50508,0 -0.23809,0.2381 0.2381,0.77206 0,1.01016 -0.11904,0.11904 -0.50507,0.16836 -0.50507,0 0,-0.16836 0.33671,0 0.50507,0 0.18549,0 1.99998,0.0203 2.02031,0 0.11905,-0.11905 -0.11905,-0.38603 0,-0.50508 0.11905,-0.11905 0.34535,0.0532 0.50507,0 0.35715,-0.11905 0.65301,-0.38603 1.01016,-0.50508 0.15972,-0.0532 0.38603,0.11905 0.50507,0 1.04502,-1.04502 -1.59693,0.0409 0.50508,-1.01015 0.15058,-0.0753 0.50508,-0.16836 0.50508,0 0,0.16836 -0.38603,-0.11905 -0.50508,0 -0.11905,0.11905 0.11905,0.38603 0,0.50508 -0.11905,0.11905 -0.38603,-0.11905 -0.50508,0 -0.11904,0.11905 0.11905,0.38603 0,0.50507 -0.16789,0.1679 -0.84226,-0.16789 -1.01015,0 -0.11905,0.11905 0.11905,0.38603 0,0.50508 -0.11905,0.11905 -0.38603,-0.11905 -0.50508,0 -0.11904,0.11905 0,0.33672 0,0.50508 -0.16835,0 -0.38602,-0.11905 -0.50507,0 -0.11905,0.11904 0.11905,0.38603 0,0.50507 -0.1679,0.1679 -0.84226,-0.16789 -1.01015,0 -0.11905,0.11905 0.11904,0.38603 0,0.50508 -0.2381,0.23809 -0.70899,-0.15059 -1.01016,0 -2.102,1.051 0.53995,-0.0349 -0.50507,1.01015 -0.16859,0.16859 -0.84157,-0.16858 -1.01016,0 -0.11904,0.11905 0.11905,0.38603 0,0.50508 -0.16858,0.16858 -0.84156,-0.16859 -1.01015,0 -0.11905,0.11905 0,0.33672 0,0.50507 -0.59314,0.26417 -1.18628,0.52834 -1.77942,0.79251 z"
       id="path26842"
       inkscape:connector-curvature="0" />
    <path
       style="fill:#44aa00;fill-rule:evenodd;stroke:#000000;stroke-width:0;stroke-linecap:butt;stroke-linejoin:miter;stroke-miterlimit:4;stroke-dasharray:none;stroke-opacity:1"
       d="m 395.6105,856.05055 c -0.88706,-0.39107 -1.77411,-0.78214 -2.66116,-1.1732 0,-0.16836 0.11904,-0.38603 0,-0.50508 -0.11905,-0.11905 -0.38603,0.11905 -0.50508,0 -0.11905,-0.11905 0.11905,-0.38603 0,-0.50508 -0.11905,-0.11904 -0.38603,0.11905 -0.50508,0 -0.11904,-0.11904 0.11905,-0.38603 0,-0.50507 -0.11904,-0.11905 -0.38602,0.11904 -0.50507,0 -0.11905,-0.11905 0.11905,-0.38603 0,-0.50508 -0.11905,-0.11905 -0.38603,0.11905 -0.50508,0 -1.04502,-1.04502 1.59693,0.0409 -0.50507,-1.01015 -0.15059,-0.0753 -0.38603,0.11905 -0.50508,0 -0.11905,-0.11905 0.11905,-0.38603 0,-0.50508 -0.11905,-0.11905 -0.38603,0.11905 -0.50508,0 -0.23809,-0.23809 0.2381,-0.77206 0,-1.01015 -0.11904,-0.11905 -0.38603,0.11905 -0.50507,0 -0.2381,-0.2381 0.23809,-0.77206 0,-1.01015 -0.11905,-0.11905 -0.38603,0.11904 -0.50508,0 -0.11905,-0.11905 0.11905,-0.38603 0,-0.50508 -0.11905,-0.11905 -0.38603,0.11905 -0.50508,0 -0.23809,-0.23809 0.2381,-0.77206 0,-1.01015 -0.11904,-0.11905 -0.38602,0.11905 -0.50507,0 -0.11905,-0.11905 0,-0.33672 0,-0.50508 0,-0.16836 -0.11905,-0.38603 0,-0.50507 0.11905,-0.11905 0.50507,-0.16836 0.50507,0 0,0.16835 -0.67343,0 -0.50507,0 0.33672,0 0.67343,0 1.01015,0 0.16836,0 0.38603,-0.11905 0.50508,0 0.11904,0.11904 -0.11905,0.38602 0,0.50507 0.11904,0.11905 0.38603,-0.11905 0.50507,0 0.11905,0.11905 -0.0753,0.35449 0,0.50508 0.10648,0.21296 0.3986,0.29212 0.50508,0.50507 0.0753,0.15059 -0.11905,0.38603 0,0.50508 0.11905,0.11905 0.38603,-0.11905 0.50508,0 0.23809,0.2381 -0.2381,0.77206 0,1.01015 0.11904,0.11905 0.38602,-0.11904 0.50507,0 0.11905,0.11905 -0.0753,0.35449 0,0.50508 0.62037,1.24073 1.01015,-0.37155 1.01015,1.01015 0,1.1845 -0.11904,-0.23809 0.50508,1.01015 0.0753,0.15059 -0.11905,0.38603 0,0.50508 0.11905,0.11905 0.38603,-0.11905 0.50508,0 0.11904,0.11905 0,0.33672 0,0.50508 0,0.16836 0,0.67343 0,0.50507 0,-2.8621 0,-5.72419 0,-8.58629 0,-0.1225 -0.0163,-1.49899 0,-1.51523 0.67343,-0.67344 0.50507,0.84179 0.50507,-0.50508 0,-0.16836 -0.11904,-0.38603 0,-0.50507 0.11905,-0.11905 0.38603,-0.11905 0.50508,0 0.10326,0.10325 -0.10013,1.31497 0,1.51522 0.10648,0.21296 0.3986,0.29212 0.50508,0.50508 0.0753,0.15058 0,0.33672 0,0.50508 0,0.16836 0,0.33671 0,0.50507 0,0.67344 0,1.34687 0,2.02031 0,0.16836 0,0.33672 0,0.50507 0,0.16836 -0.11905,0.38603 0,0.50508 0.11904,0.11905 0.38602,-0.11905 0.50507,0 0.2381,0.2381 -0.23809,0.77206 0,1.01015 0.11905,0.11905 0.38603,-0.11904 0.50508,0 0.0717,0.0717 -0.0717,2.45367 0,2.52538 0.11905,0.11905 0.38603,-0.11904 0.50507,0 0.11905,0.11905 0,0.33672 0,0.50508 0,0.16836 0,0.33672 0,0.50508 0,0.16836 0.16836,0.50507 0,0.50507 -0.16835,0 0,-0.33671 0,-0.50507 0,-1.1845 -0.11904,0.23809 0.50508,-1.01016 0.0753,-0.15058 0,-0.33671 0,-0.50507 0,-0.16836 0,-0.33672 0,-0.50508 0,-2.0203 -0.16836,0.8418 0.50508,-0.50507 0.15058,-0.30117 -0.15059,-0.70899 0,-1.01016 0.0753,-0.15058 0.38603,0.11905 0.50507,0 0.0951,-0.0951 -0.0951,-1.42012 0,-1.51523 0.11905,-0.11904 0.38603,0.11905 0.50508,0 0,-1.34687 -0.16836,0.16836 0.50508,-0.50507 0,-1.34687 -0.16836,0.16836 0.50507,-0.50508 0.2381,-0.23809 -0.23809,-0.77206 0,-1.01015 0.11905,-0.11905 0.38603,0.11905 0.50508,0 0.23809,-0.2381 -0.15059,-0.70898 0,-1.01015 0.10648,-0.21296 0.3986,-0.29212 0.50507,-0.50508 0.0753,-0.15058 -0.11904,-0.38603 0,-0.50508 0.11905,-0.11904 0.38603,0.11905 0.50508,0 0.11905,-0.11904 -0.11905,-0.38602 0,-0.50507 0.11905,-0.11905 0.38603,0.11905 0.50508,0 0.11904,-0.11905 0,-0.33672 0,-0.50508 0,-0.16836 0,-0.67343 0,-0.50507 0,0.67343 0,1.34687 0,2.0203 0,0.16836 0.11904,0.38603 0,0.50508 -0.11905,0.11904 -0.38603,-0.11905 -0.50508,0 -0.12154,0.12153 0.12154,1.89876 0,2.0203 -0.11905,0.11905 -0.38603,-0.11905 -0.50508,0 -0.12153,0.12154 0.12154,1.89877 0,2.02031 -0.11904,0.11904 -0.38602,-0.11905 -0.50507,0 -0.0951,0.0951 0.0951,1.42012 0,1.51523 -0.11905,0.11904 -0.38603,-0.11905 -0.50508,0 -0.0505,0.0505 -0.0505,1.46472 0,1.51522 0.11905,0.11905 0.38603,0.11905 0.50508,0 0.11905,-0.11904 -0.11905,-0.38602 0,-0.50507 0.11905,-0.11905 0.33672,0 0.50507,0 1.34687,0 -0.16835,0.16836 0.50508,-0.50508 0.16789,-0.16789 0.84226,0.1679 1.01015,0 0.11905,-0.11905 -0.11904,-0.38603 0,-0.50507 0.1679,-0.1679 0.84226,0.16789 1.01016,0 0.11904,-0.11905 -0.11905,-0.38603 0,-0.50508 0.11904,-0.11905 0.38602,0.11905 0.50507,0 0,-1.34687 -0.16836,0.16836 0.50508,-0.50508 0.11905,-0.11904 -0.11905,-0.38603 0,-0.50507 0.0505,-0.0505 1.46472,-0.0505 1.51523,0 0.11904,0.11904 0,0.33671 0,0.50507 0,0.16836 0.11904,0.38603 0,0.50508 -0.11905,0.11905 -0.38603,-0.11905 -0.50508,0 -0.11905,0.11905 0.11905,0.38603 0,0.50508 -0.11905,0.11904 -0.38603,-0.11905 -0.50508,0 -0.11904,0.11904 0.11905,0.38602 0,0.50507 -0.11904,0.11905 -0.38602,-0.11905 -0.50507,0 -0.11905,0.11905 0.11905,0.38603 0,0.50508 -0.11905,0.11905 -0.38603,-0.11905 -0.50508,0 -0.11905,0.11905 0.11905,0.38603 0,0.50507 -0.16789,0.1679 -0.84226,-0.16789 -1.01015,0 -0.11905,0.11905 0.11905,0.38603 0,0.50508 -0.2381,0.2381 -0.70898,-0.15058 -1.01015,0 -0.13676,0.0684 -0.8734,0.94177 -1.01016,1.01015 -0.15058,0.0753 -0.38602,-0.11904 -0.50507,0 -0.11905,0.11905 0.15058,0.42979 0,0.50508 -0.30117,0.15058 -0.70898,-0.15059 -1.01015,0 -0.15059,0.0753 0.11904,0.38603 0,0.50508 -0.2381,0.23809 -0.7079,-0.1484 -1.01016,0 -1.52299,0.32863 -2.24015,1.87769 -3.53553,2.52538 -0.63625,0.31812 1.10067,-0.90145 1.65101,-1.35218"
       id="path26844"
       inkscape:connector-curvature="0" />
    <path
       style="fill:#44aa00;fill-rule:evenodd;stroke:#000000;stroke-width:0;stroke-linecap:butt;stroke-linejoin:miter;stroke-miterlimit:4;stroke-dasharray:none;stroke-opacity:1"
       d="m 542.90301,827.7041 c -0.8238,-0.87542 -1.64322,-1.75498 -2.4714,-2.62625 -0.16404,-0.17258 -0.33672,-0.33672 -0.50508,-0.50508 -0.16836,-0.16836 -0.29212,-0.3986 -0.50508,-0.50508 -0.15058,-0.0753 -0.38602,0.11905 -0.50507,0 -0.11905,-0.11904 0.11905,-0.38603 0,-0.50507 -0.2381,-0.2381 -0.77206,0.23809 -1.01015,0 -0.11905,-0.11905 0.11904,-0.38603 0,-0.50508 -0.11905,-0.11905 -0.38603,0.11905 -0.50508,0 -0.11905,-0.11905 0.11905,-0.38603 0,-0.50508 -0.2381,-0.23809 -0.70898,0.15059 -1.01015,0 -0.21296,-0.10647 -0.29212,-0.39859 -0.50508,-0.50507 -0.15058,-0.0753 -0.38603,0.11905 -0.50508,0 -0.11904,-0.11905 0.11905,-0.38603 0,-0.50508 -0.11904,-0.11905 -0.35449,0.0753 -0.50507,0 -0.52666,-0.26332 -0.98858,-1.2519 -1.51523,-1.51523 -0.15058,-0.0753 -0.35449,0.0753 -0.50508,0 -2.102,-1.051 0.53995,0.0349 -0.50507,-1.01015 -0.11905,-0.11905 -0.38603,0.11905 -0.50508,0 -0.11905,-0.11905 0.11905,-0.38603 0,-0.50508 -0.0713,-0.0713 -1.79395,0.27872 -1.01015,-0.50507 0.11905,-0.11905 0.33672,0 0.50507,0 0.16836,0 0.33672,0 0.50508,0 0.16836,0 0.35449,-0.0753 0.50508,0 0.21296,0.10648 0.33671,0.33672 0.50507,0.50507 0.16836,0.16836 0.3986,0.29212 0.50508,0.50508 0.0753,0.15059 -0.11905,0.38603 0,0.50508 0.11905,0.11904 0.35449,-0.0753 0.50508,0 0.42591,0.21296 0.58423,0.79719 1.01015,1.01015 0.15058,0.0753 0.38603,-0.11905 0.50507,0 0.2381,0.23809 -0.23809,0.77206 0,1.01015 0.11905,0.11905 0.38603,-0.11905 0.50508,0 0.11905,0.11905 -0.11905,0.38603 0,0.50508 0.11905,0.11905 0.38603,-0.11905 0.50508,0 0.11904,0.11905 -0.11905,0.38603 0,0.50507 0.11904,0.11905 0.38603,-0.11904 0.50507,0 0.11905,0.11905 -0.11904,0.38603 0,0.50508 0.11905,0.11905 0.38603,-0.11905 0.50508,0 0.11905,0.11905 -0.11905,0.38603 0,0.50508 0.11905,0.11904 0.35449,-0.0753 0.50508,0 0.21295,0.10648 0.29211,0.39859 0.50507,0.50507 0.15059,0.0753 0.38603,-0.11904 0.50508,0 0.11905,0.11905 -0.11905,0.38603 0,0.50508 0.11905,0.11905 0.35449,-0.0753 0.50507,0 0.21296,0.10648 0.29212,0.3986 0.50508,0.50508 0.30117,0.15058 0.77206,-0.2381 1.01015,0 0.11905,0.11904 0.16836,0.50507 0,0.50507 -0.16836,0 0,-0.33672 0,-0.50507 0,-0.67344 0,-1.34687 0,-2.02031 0,-0.75176 0.0753,-0.64468 -0.50507,-1.51523 -0.13207,-0.19811 -0.3986,-0.29212 -0.50508,-0.50507 -0.0913,-0.18266 0,-2.17408 0,-2.52539 0,-0.16835 0.11905,-0.38602 0,-0.50507 -0.11905,-0.11905 -0.38603,0.11905 -0.50508,0 -0.11904,-0.11905 0,-0.33672 0,-0.50508 0,-0.16836 0,-0.33672 0,-0.50507 0,-0.1225 0.0163,-1.49899 0,-1.51523 -0.11904,-0.11905 -0.50507,0.16836 -0.50507,0 0,-0.16836 0.38603,-0.11905 0.50507,0 0.2381,0.23809 -0.23809,0.77205 0,1.01015 0.11905,0.11905 0.38603,-0.11905 0.50508,0 0.11905,0.11905 -0.0753,0.35449 0,0.50508 0.10648,0.21295 0.3986,0.29211 0.50508,0.50507 0.15058,0.30117 -0.2381,0.77206 0,1.01015 0.11905,0.11905 0.38603,-0.11904 0.50507,0 0.10326,0.10326 -0.10013,1.31497 0,1.51523 0.10648,0.21296 0.3986,0.29212 0.50508,0.50508 0.15058,0.30117 -0.2381,0.77206 0,1.01015 0.11905,0.11905 0.38603,-0.11905 0.50508,0 0.0717,0.0717 -0.0717,2.45367 0,2.52538 0.11904,0.11905 0.38602,-0.11904 0.50507,0 0.0761,0.0761 -0.0544,1.76435 0,2.02031 0.11634,0.54706 0.9898,1.46573 0.4511,1.6161 -0.5994,0.1673 -0.4511,-3.75045 -0.4511,-4.14148 0,-1.34687 -0.16836,0.16836 0.50508,-0.50508 0.12154,-0.12154 -0.12154,-1.89877 0,-2.0203 0.11905,-0.11905 0.38603,0.11904 0.50508,0 0.11904,-0.11905 -0.11905,-0.38603 0,-0.50508 0.11904,-0.11905 0.38602,0.11905 0.50507,0 0.11905,-0.11905 -0.0753,-0.35449 0,-0.50508 0.10648,-0.21296 0.3986,-0.29211 0.50508,-0.50507 0.15058,-0.30117 -0.2381,-0.77206 0,-1.01016 1.04502,-1.04502 -0.0409,1.59693 1.01015,-0.50507 0.15058,-0.30117 -0.2381,-0.77206 0,-1.01015 0.11905,-0.11905 0.38603,0.11904 0.50508,0 0,-1.34687 -0.16836,0.16835 0.50507,-0.50508 0.2381,-0.2381 -0.23809,-0.77206 0,-1.01015 0.11905,-0.11905 0.38603,0.11904 0.50508,0 0.11905,-0.11905 -0.16836,-0.50508 0,-0.50508 0.16836,0 0,0.33672 0,0.50508 0,0.33671 0,0.67343 0,1.01015 0,0.84179 0,1.68359 0,2.52538 0,0.1225 0.0162,1.49899 0,1.51523 -0.11905,0.11905 -0.38603,-0.11905 -0.50508,0 -0.0951,0.0951 0.0951,1.42012 0,1.51523 -0.11904,0.11905 -0.38603,-0.11905 -0.50507,0 -0.0951,0.0951 0.0951,1.42012 0,1.51523 -0.11905,0.11904 -0.38603,-0.11905 -0.50508,0 -0.2381,0.23809 0.2381,0.77205 0,1.01015 -0.11905,0.11905 -0.38603,-0.11905 -0.50508,0 -0.11904,0.11905 -0.11904,0.38603 0,0.50508 0.34834,0.34834 0.94441,-0.37358 1.01016,-0.50508 0.0753,-0.15059 -0.11905,-0.38603 0,-0.50508 0.11904,-0.11904 0.38603,0.11905 0.50507,0 0.11905,-0.11904 -0.11904,-0.38603 0,-0.50507 0.11905,-0.11905 0.35449,0.0753 0.50508,0 2.10201,-1.05101 -0.53995,0.0349 0.50508,-1.01016 0.11904,-0.11904 0.38602,0.11905 0.50507,0 0.11905,-0.11904 -0.11905,-0.38602 0,-0.50507 0.2381,-0.2381 0.77206,0.23809 1.01015,0 1.04502,-1.04502 -1.59693,0.0408 0.50508,-1.01015 0.15058,-0.0753 0.38603,0.11904 0.50508,0 0.11904,-0.11905 -0.11905,-0.38603 0,-0.50508 0.11904,-0.11905 0.38603,0.11905 0.50507,0 0.11905,-0.11905 -0.11904,-0.38603 0,-0.50508 0.11905,-0.11904 0.50508,-0.16836 0.50508,0 0,0.16836 -0.38603,-0.11904 -0.50508,0 -0.11904,0.11905 0.11905,0.38603 0,0.50508 -0.11904,0.11905 -0.38603,-0.11905 -0.50507,0 -0.11905,0.11905 0.0753,0.35449 0,0.50508 -0.10648,0.21295 -0.33672,0.33671 -0.50508,0.50507 -0.16836,0.16836 -0.29212,0.3986 -0.50508,0.50508 -0.15058,0.0753 -0.38602,-0.11905 -0.50507,0 -0.2662,0.2662 -0.29626,0.69692 -0.50508,1.01015 -0.16836,0.16836 -0.33672,0.33672 -0.50507,0.50508 -0.16836,0 -0.38603,-0.11905 -0.50508,0 -0.11905,0.11904 0.11905,0.38603 0,0.50507 -0.11905,0.11905 -0.38603,-0.11904 -0.50508,0 -0.11904,0.11905 0.0753,0.35449 0,0.50508 -0.55837,1.11675 -0.31347,0.15674 -1.01015,0.50508 -2.10201,1.051 0.53994,-0.0349 -0.50508,1.01015 -0.11904,0.11905 -0.38602,-0.11905 -0.50507,0 -0.11905,0.11905 0,0.33672 0,0.50507 -0.52307,0.37035 -1.04614,0.74069 -1.56921,1.11103 z"
       id="path26846"
       inkscape:connector-curvature="0" />
    <path
       style="fill:#44aa00;fill-rule:evenodd;stroke:#000000;stroke-width:0;stroke-linecap:butt;stroke-linejoin:miter;stroke-miterlimit:4;stroke-dasharray:none;stroke-opacity:1"
       d="m 461.46018,1001.5747 c 1.13325,0.2202 2.24651,0.6078 3.39975,0.6605 0.16819,0.01 0,-0.3367 0,-0.505 0,-0.5051 0,-1.0102 0,-1.5153 0,-1.34682 0,-2.69369 0,-4.04056 0,-0.16836 0.11905,-0.38603 0,-0.50508 -0.11905,-0.11905 -0.38603,0.11905 -0.50507,0 -0.11905,-0.11905 0,-0.33672 0,-0.50508 0,-0.67344 0,-1.34686 0,-2.02031 0,-0.16836 0.11904,-0.38603 0,-0.50508 -0.11905,-0.11904 -0.38603,0.11905 -0.50508,0 -0.0505,-0.0505 -0.0505,-1.46472 0,-1.51522 0.11905,-0.11905 0.38603,-0.11905 0.50508,0 0.11904,0.11905 -0.11905,0.38603 0,0.50508 0.11904,0.11905 0.38602,-0.11905 0.50507,0 0.11905,0.11905 -0.11905,0.38603 0,0.50508 0.67344,0.67343 0.50508,-0.8418 0.50508,0.50507 0,1.34687 -0.16836,-0.16835 0.50507,0.50508 0.0951,0.0951 -0.0951,1.42012 0,1.51523 0.11905,0.11905 0.38603,-0.11905 0.50508,0 0.11905,0.11905 0,0.33672 0,0.50508 0,0.67343 0,1.34687 0,2.0203 0,0.16836 -0.11905,0.38603 0,0.50508 0.11905,0.11905 0.38603,-0.11905 0.50508,0 0.11904,0.11905 0,0.33672 0,0.50507 0,0.16836 0,0.33672 0,0.50508 0,0.16836 0.16836,0.50508 0,0.50508 -0.16836,0 -0.16836,-0.50508 0,-0.50508 1.46168,0 -0.0872,1.18449 0.50507,0 0.10648,-0.21296 0.3986,-0.29212 0.50508,-0.50508 0.10013,-0.20025 -0.10326,-1.41197 0,-1.51523 0.11905,-0.11904 0.38603,0.11905 0.50508,0 0.11904,-0.11904 0,-0.33671 0,-0.50507 0.16835,0 0.38602,0.11905 0.50507,0 0.11905,-0.11905 -0.11905,-0.38603 0,-0.50508 0.11905,-0.11905 0.42979,0.15059 0.50508,0 0.15058,-0.30117 0,-0.67343 0,-1.01015 0,-0.16836 -0.11905,-0.38603 0,-0.50508 0.11905,-0.11904 0.38603,0.11905 0.50507,0 0.2381,-0.23809 -0.23809,-0.77205 0,-1.01015 0.11905,-0.11905 0.38603,0.11905 0.50508,0 0.11905,-0.11905 -0.11905,-0.38603 0,-0.50508 0.11905,-0.11904 0.38603,0.11905 0.50508,0 0.11904,-0.11904 -0.0753,-0.35449 0,-0.50507 0.10648,-0.21296 0.39859,-0.29212 0.50507,-0.50508 0.32025,-0.64049 -0.77283,-1.01015 0.50508,-1.01015 0.16836,0 0.38603,-0.11905 0.50508,0 0.11904,0.11905 0,0.33672 0,0.50508 0,0.67343 0,1.34687 0,2.0203 0,0.16836 0.11904,0.38603 0,0.50508 -0.11905,0.11904 -0.38603,-0.11905 -0.50508,0 -0.2381,0.23809 0.15058,0.70898 0,1.01015 -0.10648,0.21296 -0.3986,0.29212 -0.50508,0.50508 -0.15058,0.30117 0.2381,0.77205 0,1.01015 -0.11904,0.11905 -0.38603,-0.11905 -0.50507,0 -0.0951,0.0951 0.0951,1.42012 0,1.51523 -0.11905,0.11905 -0.38603,-0.11905 -0.50508,0 -0.11905,0.11905 0,0.33672 0,0.50507 0,0.67344 0,1.34687 0,2.02026 0,0.1684 0.11905,0.3861 0,0.5051 -0.11905,0.1191 -0.38603,-0.119 -0.50508,0 -0.0743,0.074 0.0594,1.5152 0,1.5152 -0.16835,0 -0.11904,-0.386 0,-0.505 0.16843,-0.1684 0.84174,0.1684 1.01016,0 0.11904,-0.1191 0,-0.3367 0,-0.5051 0.16836,0 0.38603,0.119 0.50507,0 0.2381,-0.2381 -0.23809,-0.7721 0,-1.0102 0.11905,-0.119 0.3545,0.075 0.50508,0 0.21296,-0.1064 0.33672,-0.33667 0.50508,-0.50503 0.16835,-0.16836 0.39859,-0.29211 0.50507,-0.50507 0.0753,-0.15059 -0.0753,-0.3545 0,-0.50508 1.05101,-2.10201 -0.0349,0.53994 1.01015,-0.50508 0,-1.34687 -0.16835,0.16836 0.50508,-0.50507 0.11905,-0.11905 -0.16836,-0.50508 0,-0.50508 0.16836,0 0,0.33672 0,0.50508 0,0.12249 0.0162,1.49897 0,1.51523 -0.11905,0.11904 -0.38603,-0.11906 -0.50508,0 -0.10325,0.10325 0.10013,1.315 0,1.5152 -0.10647,0.213 -0.39859,0.2921 -0.50507,0.5051 -0.10013,0.2002 0.10325,1.412 0,1.5152 -0.11905,0.1191 -0.38603,-0.119 -0.50508,0 -0.0951,0.095 0.0951,1.4201 0,1.5152 -0.11905,0.1191 -0.38603,-0.119 -0.50507,0 -0.11905,0.1191 0.11904,0.3861 0,0.5051 -0.11905,0.1191 -0.33672,0 -0.50508,0 -0.16836,0 -0.33672,0 -0.50508,0 -0.22746,0 -1.36151,0.077 -1.51523,0 -0.21295,-0.1065 -0.29211,-0.3986 -0.50507,-0.5051 -0.30117,-0.1505 -0.77206,0.2381 -1.01015,0 -0.11905,-0.119 0.11904,-0.386 0,-0.505 -0.2381,-0.2381 -0.70899,0.1506 -1.01016,0 -0.21296,-0.1065 -0.29211,-0.3986 -0.50507,-0.5051 -0.29971,-0.1499 -1.21553,0.1498 -1.51523,0 -0.21296,-0.1065 -0.29212,-0.3986 -0.50508,-0.5051 -0.30116,-0.1506 -1.21027,0.1488 -1.51523,0 -0.66385,-0.3238 -1.1459,-1.1656 -1.88452,-1.1656 -0.67367,0 -1.0584,0.8452 -1.65101,1.1656 -0.1299,0.07 -1.30661,0 -1.51523,0 -0.16836,0 -0.38603,0.1191 -0.50508,0 -0.11904,-0.119 0,-0.3367 0,-0.5051 0,-0.1683 0,-0.3367 0,-0.505 0,-0.1684 0.11905,-0.3861 0,-0.5051 -0.11904,-0.1191 -0.38602,0.119 -0.50507,0 -0.1382,-0.1382 0.137,-1.74632 0,-2.02031 -0.10648,-0.21296 -0.3986,-0.29212 -0.50508,-0.50508 -0.0753,-0.15058 0.0753,-0.35449 0,-0.50508 -0.10648,-0.21296 -0.3986,-0.29211 -0.50507,-0.50507 -0.0753,-0.15059 0,-0.33672 0,-0.50508 0,-0.16836 0,-0.33672 0,-0.50508 0,-0.16835 -0.16836,-0.50507 0,-0.50507 0.16835,0 -0.16836,0.50507 0,0.50507 0.23809,0 0.29211,-0.39859 0.50507,-0.50507 0.15059,-0.0753 0.33672,0 0.50508,0 0.16836,0 0.33672,0 0.50507,0 0.16836,0 0.38603,-0.11905 0.50508,0 0.11905,0.11905 -0.11905,0.38603 0,0.50507 0.11905,0.11905 0.38603,-0.11904 0.50508,0 0.11904,0.11905 -0.0753,0.3545 0,0.50508 0.10648,0.21296 0.39859,0.29212 0.50507,0.50508 0.0753,0.15058 -0.11904,0.38603 0,0.50507 0.11905,0.11905 0.38603,-0.11904 0.50508,0 0.23809,0.2381 -0.2381,0.77206 0,1.01016 0.11905,0.11904 0.38603,-0.11905 0.50508,0 0.77124,0.77124 -3.43041,2.36991 1.14593,2.36991 0.65729,0 -0.46928,-1.2303 -0.64086,-1.86484 -0.0746,-0.27581 0,-1.19023 0,-1.51523 0,-0.16835 -0.11905,-0.38602 0,-0.50507 0.11905,-0.11905 0.38603,0.11905 0.50508,0 0.23809,-0.2381 -0.15059,-0.70899 0,-1.01016 0.10648,-0.21295 0.3986,-0.29211 0.50507,-0.50507 0.0753,-0.15059 -0.11904,-0.38603 0,-0.50508 0.11905,-0.11905 0.38603,-0.11905 0.50508,0 0.11905,0.11905 -0.0753,0.35449 0,0.50508 0.10648,0.21296 0.3986,0.29212 0.50508,0.50507 0.0753,0.15059 -0.11905,0.38603 0,0.50508 0.11904,0.11905 0.38603,-0.11905 0.50507,0 0.11905,0.11905 0,0.33672 0,0.50508 0,0.67343 0,1.34687 0,2.0203 0,0.16836 -0.11904,0.38604 0,0.50504 0.11905,0.1191 0.38603,-0.119 0.50508,0 0.11905,0.1191 0,0.3368 0,0.5051 0,0.1684 0.15852,0.4484 0,0.5051 -0.75799,0.2711 -1.59307,0.2331 -2.3896,0.3496"
       id="path26834-1"
       inkscape:connector-curvature="0" />
    <path
       style="fill:#44aa00;fill-rule:evenodd;stroke:#000000;stroke-width:0;stroke-linecap:butt;stroke-linejoin:miter;stroke-miterlimit:4;stroke-dasharray:none;stroke-opacity:1"
       d="m 589.2547,969.21874 c -6.70778,6.02597 -1.38847,-7.00067 -4.18662,-8.39974 -0.15058,-0.0753 -0.38603,0.11904 -0.50507,0 -0.0951,-0.0951 0.0951,-1.42012 0,-1.51523 -0.11905,-0.11905 -0.38603,0.11904 -0.50508,0 -0.2381,-0.2381 0.23809,-0.77206 0,-1.01016 -0.11905,-0.11904 -0.38603,0.11905 -0.50508,0 -0.23809,-0.23809 0.2381,-0.77205 0,-1.01015 -0.23809,-0.23809 -0.77205,0.2381 -1.01015,0 -0.2381,-0.23809 0.2381,-0.77206 0,-1.01015 -0.11905,-0.11905 -0.67343,0 -0.50508,0 0.33672,0 0.67344,0 1.01016,0 0.16836,0 0.35449,-0.0753 0.50507,0 0.21296,0.10648 0.29212,0.3986 0.50508,0.50508 0.15058,0.0753 0.38603,-0.11905 0.50508,0 0.11904,0.11904 -0.11905,0.38602 0,0.50507 0.11904,0.11905 0.38602,-0.11905 0.50507,0 0.11905,0.11905 -0.11905,0.38603 0,0.50508 0.11905,0.11905 0.38603,-0.11905 0.50508,0 0.23809,0.23809 -0.2381,0.77206 0,1.01015 0.11905,0.11905 0.35449,-0.0753 0.50507,0 2.10201,1.051 -0.53994,-0.0349 0.50508,1.01015 0.11905,0.11905 0.38603,-0.11904 0.50508,0 0.0162,0.0163 0,1.39274 0,1.51523 0,0.16836 0,0.33672 0,0.50508 0,0.16836 -0.11905,0.38603 0,0.50507 0.11904,0.11905 0.38603,-0.11904 0.50507,0 0.11905,0.11905 0,0.33672 0,0.50508 0,0.16836 0,0.33672 0,0.50508 0,0.16836 0.16836,0.50507 0,0.50507 -0.16836,0 0,-0.33671 0,-0.50507 0,-0.33672 0,-0.67344 0,-1.01016 0,-0.16835 0,-0.33671 0,-0.50507 0,-0.16836 -0.0753,-0.35449 0,-0.50508 0.21296,-0.42592 0.7972,-0.58423 1.01016,-1.01015 0.13699,-0.274 -0.1382,-1.88211 0,-2.02031 0.11904,-0.11904 0.38602,0.11905 0.50507,0 0.2381,-0.23809 -0.23809,-0.77205 0,-1.01015 0.11905,-0.11905 0.38603,0.11905 0.50508,0 0.23809,-0.23809 -0.15059,-0.70898 0,-1.01015 0.10648,-0.21296 0.39859,-0.29212 0.50507,-0.50508 0.15059,-0.30117 -0.23809,-0.77205 0,-1.01015 0.11905,-0.11905 0.38603,0.11905 0.50508,0 0.11905,-0.11905 -0.16836,-0.50508 0,-0.50508 0.16836,0 0,0.33672 0,0.50508 0,0.16836 0,0.33672 0,0.50508 0,1.34687 0,2.69374 0,4.04061 0,1.34687 0,2.69374 0,4.04061 0,0.16836 0,0.33671 0,0.50507 0,0.16836 0.16836,0.50508 0,0.50508 -0.16836,0 0,-0.33672 0,-0.50508 0,-0.16836 -0.11905,-0.38603 0,-0.50507 0.11905,-0.11905 0.38603,0.11904 0.50508,0 0.11904,-0.11905 -0.11905,-0.38603 0,-0.50508 0.11904,-0.11905 0.38603,0.11905 0.50507,0 0.11905,-0.11905 -0.0753,-0.35449 0,-0.50508 0.10648,-0.21295 0.33672,-0.33671 0.50508,-0.50507 0.16836,-0.16836 0.29212,-0.3986 0.50508,-0.50508 1.34687,0 -0.16836,0.16836 0.50507,-0.50507 0.11905,-0.11905 0.38603,0.11904 0.50508,0 0.23809,-0.2381 -0.2381,-0.77206 0,-1.01016 0.16844,-0.16843 0.84171,0.16844 1.01015,0 0.11905,-0.11904 -0.11905,-0.38603 0,-0.50507 0.11905,-0.11905 0.38603,0.11904 0.50508,0 0.11904,-0.11905 -0.11905,-0.38603 0,-0.50508 0.11904,-0.11905 0.38603,0.11905 0.50507,0 0.11905,-0.11905 -0.11904,-0.38603 0,-0.50508 0.11905,-0.11904 0.38603,0.11905 0.50508,0 0.11905,-0.11904 -0.11905,-0.38602 0,-0.50507 0.23809,-0.2381 0.77206,0.23809 1.01015,0 0.11905,-0.11905 -0.11905,-0.38603 0,-0.50508 0.11905,-0.11905 0.38603,-0.11905 0.50508,0 0.11905,0.11905 0,0.33672 0,0.50508 0,0.16836 0,0.33672 0,0.50507 0,0.16836 0.0753,0.3545 0,0.50508 -0.10648,0.21296 -0.3986,0.29212 -0.50508,0.50508 -0.0753,0.15058 0.0753,0.35449 0,0.50507 -0.10648,0.21296 -0.39859,0.29212 -0.50507,0.50508 -0.0753,0.15058 0.11904,0.38603 0,0.50508 -0.11905,0.11904 -0.38603,-0.11905 -0.50508,0 -0.0951,0.0951 0.0951,1.42011 0,1.51522 -0.11905,0.11905 -0.38603,-0.11904 -0.50508,0 0,1.34687 0.16836,-0.16835 -0.50507,0.50508 -0.2381,0.2381 0.23809,0.77206 0,1.01015 -0.11905,0.11905 -0.38603,-0.11904 -0.50508,0 -0.12154,0.12154 0.12154,1.89877 0,2.02031 -0.11905,0.11905 -0.38603,-0.11905 -0.50508,0 -0.11904,0.11905 0,0.33672 0,0.50507 0,0.16836 -0.11904,0.38603 0,0.50508 0.39484,0.39483 0.87866,-0.43933 1.01016,-0.50508 0.15058,-0.0753 0.38603,0.11905 0.50507,0 0.11905,-0.11904 -0.11904,-0.38602 0,-0.50507 0.11905,-0.11905 0.38603,0.11905 0.50508,0 0,-1.34687 -0.16836,0.16836 0.50508,-0.50508 0.11904,-0.11905 -0.11905,-0.38603 0,-0.50507 0.23809,-0.2381 0.77205,0.23809 1.01015,0 0.11905,-0.11905 -0.11905,-0.38603 0,-0.50508 0.11905,-0.11905 0.38603,0.11905 0.50507,0 0.11905,-0.11905 -0.11904,-0.38603 0,-0.50508 0.11905,-0.11904 0.38603,-0.11904 0.50508,0 0.11905,0.11905 0,0.33672 0,0.50508 0,0.16836 0,0.33672 0,0.50508 0,0.16835 0.0753,0.35449 0,0.50507 -0.10648,0.21296 -0.3986,0.29212 -0.50508,0.50508 0,1.34687 0.16836,-0.16836 -0.50507,0.50507 -0.0951,0.0951 0.0951,1.42012 0,1.51523 -0.11905,0.11905 -0.33672,0 -0.50508,0 -0.16836,0 -0.33672,0 -0.50507,0 -1.34687,0 -2.69374,0 -4.04061,0 -0.2012,0 -1.39474,-0.0673 -1.51523,0 -0.66864,0.37338 -1.10848,1.32868 -1.8743,1.32868 -0.70908,0 -1.0568,-0.95795 -1.66124,-1.32868 -0.83483,-0.51203 -0.34367,0.34368 -0.50507,0.50508 -0.11905,0.11905 -0.33672,0 -0.50508,0 -0.18548,0 -1.99998,0.0203 -2.0203,0 -0.11905,-0.11905 0.11904,-0.38603 0,-0.50508 -0.11905,-0.11904 -0.38603,0.11905 -0.50508,0 -0.11905,-0.11904 0.11905,-0.38603 0,-0.50507 -0.11905,-0.11905 -0.38603,0.11904 -0.50508,0 -0.11904,-0.11905 0.11905,-0.38603 0,-0.50508 -0.11904,-0.11905 -0.38603,0.11905 -0.50507,0 -0.11905,-0.11905 0.11904,-0.38603 0,-0.50508 -0.11905,-0.11904 -0.38603,0.11905 -0.50508,0 -0.2381,-0.23809 0.15058,-0.70898 0,-1.01015 -0.10648,-0.21296 -0.3986,-0.29212 -0.50508,-0.50507 -0.0753,-0.15059 0.11905,-0.38603 0,-0.50508 -0.23809,-0.2381 -1.01015,0.33672 -1.01015,0 0,-0.16836 0.33672,0 0.50508,0 0.12249,0 1.49898,-0.0162 1.51523,0 0.67343,0.67343 -0.8418,0.50508 0.50507,0.50508 1.34687,0 -0.16836,-0.16836 0.50508,0.50507 0.11905,0.11905 0.38603,-0.11905 0.50508,0 0.11904,0.11905 -0.11905,0.38603 0,0.50508 0.23809,0.23809 0.77205,-0.2381 1.01015,0 0.11905,0.11905 -0.11905,0.38603 0,0.50507 0.16844,0.16844 0.84171,-0.16843 1.01015,0 0.11905,0.11905 -0.11905,0.38603 0,0.50508 0.11905,0.11905 0.33672,0 0.50508,0 0.7221,0.77961 1.4442,1.55922 2.16631,2.33883"
       id="path26836-8"
       inkscape:connector-curvature="0" />
    <path
       style="fill:#44aa00;fill-rule:evenodd;stroke:#000000;stroke-width:0;stroke-linecap:butt;stroke-linejoin:miter;stroke-miterlimit:4;stroke-dasharray:none;stroke-opacity:1"
       d="m 515.60844,955.04551 c -0.41701,-0.60089 -0.83402,-1.20177 -1.25104,-1.80266 -0.16835,0 -0.38602,0.11905 -0.50507,0 -0.2381,-0.23809 0.23809,-0.77206 0,-1.01015 -0.1679,-0.16789 -0.84226,0.16789 -1.01016,0 -0.11904,-0.11905 0,-0.33672 0,-0.50508 -0.16835,0 -0.38602,0.11905 -0.50507,0 -0.11905,-0.11904 0.11905,-0.38603 0,-0.50507 -0.11905,-0.11905 -0.38603,0.11904 -0.50508,0 -0.11905,-0.11905 0.11905,-0.38603 0,-0.50508 -0.67343,-0.67343 -0.50507,0.84179 -0.50507,-0.50508 0,-1.34687 0.16835,0.16836 -0.50508,-0.50507 -0.11905,-0.11905 0.11905,-0.38603 0,-0.50508 -0.11905,-0.11905 -0.38603,0.11905 -0.50508,0 -0.11904,-0.11905 0.11905,-0.38603 0,-0.50507 -0.11904,-0.11905 -0.38603,0.11904 -0.50507,0 -0.11905,-0.11905 0.11904,-0.38603 0,-0.50508 -0.11905,-0.11905 -0.38603,0.11905 -0.50508,0 -0.23809,-0.2381 0.2381,-0.77206 0,-1.01015 -0.11905,-0.11905 -0.50508,0.16836 -0.50508,0 0,-0.16836 0.33672,0 0.50508,0 0.16836,0 0.38603,-0.11905 0.50508,0 0.11904,0.11904 -0.11905,0.38602 0,0.50507 0.16858,0.16859 0.84156,-0.16858 1.01015,0 0.11905,0.11905 -0.11905,0.38603 0,0.50508 0.11905,0.11905 0.38603,-0.11905 0.50508,0 0.11904,0.11905 -0.0753,0.35449 0,0.50508 0.10648,0.21295 0.39859,0.29211 0.50507,0.50507 0.0753,0.15059 -0.11905,0.38603 0,0.50508 0.11905,0.11905 0.38603,-0.11905 0.50508,0 0.11905,0.11905 0,0.33672 0,0.50507 0.16836,0 0.38603,-0.11904 0.50507,0 0,1.34687 -0.16835,-0.16835 0.50508,0.50508 0.11905,0.11905 -0.11905,0.38603 0,0.50508 0.16789,0.16789 0.84226,-0.1679 1.01015,0 0.11905,0.11904 -0.11904,0.38603 0,0.50507 0.11905,0.11905 0.33672,0 0.50508,0 0.16836,0 0.38603,0.11905 0.50508,0 0.0203,-0.0203 0,-1.83482 0,-2.0203 0,-1.34687 0,-2.69374 0,-4.04061 0,-0.16836 0,-0.33672 0,-0.50508 0,-0.16836 -0.11905,-0.38603 0,-0.50508 0.11904,-0.11904 0.38602,0.11905 0.50507,0 0.2381,-0.23809 -0.23809,-0.77205 0,-1.01015 0.11905,-0.11905 0.38603,0.11905 0.50508,0 0.12154,-0.12153 -0.12154,-1.89877 0,-2.0203 0.11905,-0.11905 0.38603,-0.11905 0.50508,0 0.11904,0.11904 -0.0753,0.35449 0,0.50507 0.10647,0.21296 0.39859,0.29212 0.50507,0.50508 0.0664,0.13281 0,1.75619 0,2.0203 0,1.51523 0,3.03046 0,4.54569 0,0.18548 -0.0203,1.99998 0,2.02031 0.11905,0.11904 0.38603,0.11904 0.50508,0 0.0814,-0.0814 -0.0702,-0.79968 0,-1.01016 0.11905,-0.35714 0.23888,-0.74395 0.50507,-1.01015 0.11905,-0.11905 0.38603,0.11905 0.50508,0 0.2381,-0.23809 -0.2381,-0.77206 0,-1.01015 0.11905,-0.11905 0.35449,0.0753 0.50508,0 2.102,-1.051 -0.53995,0.0349 0.50507,-1.01015 0.11905,-0.11905 0.38603,0.11904 0.50508,0 0.11905,-0.11905 0,-0.33672 0,-0.50508 0.16836,0 0.38603,0.11905 0.50508,0 0.11904,-0.11905 -0.11905,-0.38603 0,-0.50508 0.11904,-0.11904 0.38602,0.11905 0.50507,0 0.11905,-0.11904 -0.11905,-0.38602 0,-0.50507 0.11905,-0.11905 0.38603,0.11905 0.50508,0 0,-1.34687 -0.16836,0.16836 0.50507,-0.50508 0.11905,-0.11905 -0.16835,-0.50508 0,-0.50508 0.16836,0 0,0.33672 0,0.50508 0,0.16836 0,0.33672 0,0.50508 0,0.16836 0.0753,0.35449 0,0.50507 -0.10648,0.21296 -0.39859,0.29212 -0.50507,0.50508 -0.15059,0.30117 0.23809,0.77206 0,1.01015 -0.11905,0.11905 -0.38603,-0.11905 -0.50508,0 0,1.34687 0.16836,-0.16836 -0.50507,0.50508 -0.2381,0.23809 0.15058,0.70898 0,1.01015 -0.10648,0.21296 -0.3986,0.29212 -0.50508,0.50508 -0.0753,0.15058 0.11905,0.38603 0,0.50507 -0.11905,0.11905 -0.38603,-0.11904 -0.50508,0 -0.23809,0.2381 0.2381,0.77206 0,1.01016 -0.11904,0.11904 -0.50507,0.16836 -0.50507,0 0,-0.16836 0.33671,0 0.50507,0 0.18549,0 1.99998,0.0203 2.02031,0 0.11905,-0.11905 -0.11905,-0.38603 0,-0.50508 0.11905,-0.11905 0.34535,0.0532 0.50507,0 0.35715,-0.11905 0.65301,-0.38603 1.01016,-0.50508 0.15972,-0.0532 0.38603,0.11905 0.50507,0 1.04502,-1.04502 -1.59693,0.0409 0.50508,-1.01015 0.15058,-0.0753 0.50508,-0.16836 0.50508,0 0,0.16836 -0.38603,-0.11905 -0.50508,0 -0.11905,0.11905 0.11905,0.38603 0,0.50508 -0.11905,0.11905 -0.38603,-0.11905 -0.50508,0 -0.11904,0.11905 0.11905,0.38603 0,0.50507 -0.16789,0.1679 -0.84226,-0.16789 -1.01015,0 -0.11905,0.11905 0.11905,0.38603 0,0.50508 -0.11905,0.11905 -0.38603,-0.11905 -0.50508,0 -0.11904,0.11905 0,0.33672 0,0.50508 -0.16835,0 -0.38602,-0.11905 -0.50507,0 -0.11905,0.11904 0.11905,0.38603 0,0.50507 -0.1679,0.1679 -0.84226,-0.16789 -1.01015,0 -0.11905,0.11905 0.11904,0.38603 0,0.50508 -0.2381,0.23809 -0.70899,-0.15059 -1.01016,0 -2.102,1.051 0.53995,-0.0349 -0.50507,1.01015 -0.16859,0.16859 -0.84157,-0.16858 -1.01016,0 -0.11904,0.11905 0.11905,0.38603 0,0.50508 -0.16858,0.16858 -0.84156,-0.16859 -1.01015,0 -0.11905,0.11905 0,0.33672 0,0.50507 -0.59314,0.26417 -1.18628,0.52834 -1.77942,0.79251 z"
       id="path26842-0"
       inkscape:connector-curvature="0" />
    <path
       style="fill:#44aa00;fill-rule:evenodd;stroke:#000000;stroke-width:0;stroke-linecap:butt;stroke-linejoin:miter;stroke-miterlimit:4;stroke-dasharray:none;stroke-opacity:1"
       d="m 509.44242,864.0074 c -0.88706,-0.39107 -1.77411,-0.78214 -2.66116,-1.1732 0,-0.16836 0.11904,-0.38603 0,-0.50508 -0.11905,-0.11905 -0.38603,0.11905 -0.50508,0 -0.11905,-0.11905 0.11905,-0.38603 0,-0.50508 -0.11905,-0.11904 -0.38603,0.11905 -0.50508,0 -0.11904,-0.11904 0.11905,-0.38603 0,-0.50507 -0.11904,-0.11905 -0.38602,0.11904 -0.50507,0 -0.11905,-0.11905 0.11905,-0.38603 0,-0.50508 -0.11905,-0.11905 -0.38603,0.11905 -0.50508,0 -1.04502,-1.04502 1.59693,0.0409 -0.50507,-1.01015 -0.15059,-0.0753 -0.38603,0.11905 -0.50508,0 -0.11905,-0.11905 0.11905,-0.38603 0,-0.50508 -0.11905,-0.11905 -0.38603,0.11905 -0.50508,0 -0.23809,-0.23809 0.2381,-0.77206 0,-1.01015 -0.11904,-0.11905 -0.38603,0.11905 -0.50507,0 -0.2381,-0.2381 0.23809,-0.77206 0,-1.01015 -0.11905,-0.11905 -0.38603,0.11904 -0.50508,0 -0.11905,-0.11905 0.11905,-0.38603 0,-0.50508 -0.11905,-0.11905 -0.38603,0.11905 -0.50508,0 -0.23809,-0.23809 0.2381,-0.77206 0,-1.01015 -0.11904,-0.11905 -0.38602,0.11905 -0.50507,0 -0.11905,-0.11905 0,-0.33672 0,-0.50508 0,-0.16836 -0.11905,-0.38603 0,-0.50507 0.11905,-0.11905 0.50507,-0.16836 0.50507,0 0,0.16835 -0.67343,0 -0.50507,0 0.33672,0 0.67343,0 1.01015,0 0.16836,0 0.38603,-0.11905 0.50508,0 0.11904,0.11904 -0.11905,0.38602 0,0.50507 0.11904,0.11905 0.38603,-0.11905 0.50507,0 0.11905,0.11905 -0.0753,0.35449 0,0.50508 0.10648,0.21296 0.3986,0.29212 0.50508,0.50507 0.0753,0.15059 -0.11905,0.38603 0,0.50508 0.11905,0.11905 0.38603,-0.11905 0.50508,0 0.23809,0.2381 -0.2381,0.77206 0,1.01015 0.11904,0.11905 0.38602,-0.11904 0.50507,0 0.11905,0.11905 -0.0753,0.35449 0,0.50508 0.62037,1.24073 1.01015,-0.37155 1.01015,1.01015 0,1.1845 -0.11904,-0.23809 0.50508,1.01015 0.0753,0.15059 -0.11905,0.38603 0,0.50508 0.11905,0.11905 0.38603,-0.11905 0.50508,0 0.11904,0.11905 0,0.33672 0,0.50508 0,0.16836 0,0.67343 0,0.50507 0,-2.8621 0,-5.72419 0,-8.58629 0,-0.1225 -0.0163,-1.49899 0,-1.51523 0.67343,-0.67344 0.50507,0.84179 0.50507,-0.50508 0,-0.16836 -0.11904,-0.38603 0,-0.50507 0.11905,-0.11905 0.38603,-0.11905 0.50508,0 0.10326,0.10325 -0.10013,1.31497 0,1.51522 0.10648,0.21296 0.3986,0.29212 0.50508,0.50508 0.0753,0.15058 0,0.33672 0,0.50508 0,0.16836 0,0.33671 0,0.50507 0,0.67344 0,1.34687 0,2.02031 0,0.16836 0,0.33672 0,0.50507 0,0.16836 -0.11905,0.38603 0,0.50508 0.11904,0.11905 0.38602,-0.11905 0.50507,0 0.2381,0.2381 -0.23809,0.77206 0,1.01015 0.11905,0.11905 0.38603,-0.11904 0.50508,0 0.0717,0.0717 -0.0717,2.45367 0,2.52538 0.11905,0.11905 0.38603,-0.11904 0.50507,0 0.11905,0.11905 0,0.33672 0,0.50508 0,0.16836 0,0.33672 0,0.50508 0,0.16836 0.16836,0.50507 0,0.50507 -0.16835,0 0,-0.33671 0,-0.50507 0,-1.1845 -0.11904,0.23809 0.50508,-1.01016 0.0753,-0.15058 0,-0.33671 0,-0.50507 0,-0.16836 0,-0.33672 0,-0.50508 0,-2.0203 -0.16836,0.8418 0.50508,-0.50507 0.15058,-0.30117 -0.15059,-0.70899 0,-1.01016 0.0753,-0.15058 0.38603,0.11905 0.50507,0 0.0951,-0.0951 -0.0951,-1.42012 0,-1.51523 0.11905,-0.11904 0.38603,0.11905 0.50508,0 0,-1.34687 -0.16836,0.16836 0.50508,-0.50507 0,-1.34687 -0.16836,0.16836 0.50507,-0.50508 0.2381,-0.23809 -0.23809,-0.77206 0,-1.01015 0.11905,-0.11905 0.38603,0.11905 0.50508,0 0.23809,-0.2381 -0.15059,-0.70898 0,-1.01015 0.10648,-0.21296 0.3986,-0.29212 0.50507,-0.50508 0.0753,-0.15058 -0.11904,-0.38603 0,-0.50508 0.11905,-0.11904 0.38603,0.11905 0.50508,0 0.11905,-0.11904 -0.11905,-0.38602 0,-0.50507 0.11905,-0.11905 0.38603,0.11905 0.50508,0 0.11904,-0.11905 0,-0.33672 0,-0.50508 0,-0.16836 0,-0.67343 0,-0.50507 0,0.67343 0,1.34687 0,2.0203 0,0.16836 0.11904,0.38603 0,0.50508 -0.11905,0.11904 -0.38603,-0.11905 -0.50508,0 -0.12154,0.12153 0.12154,1.89876 0,2.0203 -0.11905,0.11905 -0.38603,-0.11905 -0.50508,0 -0.12153,0.12154 0.12154,1.89877 0,2.02031 -0.11904,0.11904 -0.38602,-0.11905 -0.50507,0 -0.0951,0.0951 0.0951,1.42012 0,1.51523 -0.11905,0.11904 -0.38603,-0.11905 -0.50508,0 -0.0505,0.0505 -0.0505,1.46472 0,1.51522 0.11905,0.11905 0.38603,0.11905 0.50508,0 0.11905,-0.11904 -0.11905,-0.38602 0,-0.50507 0.11905,-0.11905 0.33672,0 0.50507,0 1.34687,0 -0.16835,0.16836 0.50508,-0.50508 0.16789,-0.16789 0.84226,0.1679 1.01015,0 0.11905,-0.11905 -0.11904,-0.38603 0,-0.50507 0.1679,-0.1679 0.84226,0.16789 1.01016,0 0.11904,-0.11905 -0.11905,-0.38603 0,-0.50508 0.11904,-0.11905 0.38602,0.11905 0.50507,0 0,-1.34687 -0.16836,0.16836 0.50508,-0.50508 0.11905,-0.11904 -0.11905,-0.38603 0,-0.50507 0.0505,-0.0505 1.46472,-0.0505 1.51523,0 0.11904,0.11904 0,0.33671 0,0.50507 0,0.16836 0.11904,0.38603 0,0.50508 -0.11905,0.11905 -0.38603,-0.11905 -0.50508,0 -0.11905,0.11905 0.11905,0.38603 0,0.50508 -0.11905,0.11904 -0.38603,-0.11905 -0.50508,0 -0.11904,0.11904 0.11905,0.38602 0,0.50507 -0.11904,0.11905 -0.38602,-0.11905 -0.50507,0 -0.11905,0.11905 0.11905,0.38603 0,0.50508 -0.11905,0.11905 -0.38603,-0.11905 -0.50508,0 -0.11905,0.11905 0.11905,0.38603 0,0.50507 -0.16789,0.1679 -0.84226,-0.16789 -1.01015,0 -0.11905,0.11905 0.11905,0.38603 0,0.50508 -0.2381,0.2381 -0.70898,-0.15058 -1.01015,0 -0.13676,0.0684 -0.8734,0.94177 -1.01016,1.01015 -0.15058,0.0753 -0.38602,-0.11904 -0.50507,0 -0.11905,0.11905 0.15058,0.42979 0,0.50508 -0.30117,0.15058 -0.70898,-0.15059 -1.01015,0 -0.15059,0.0753 0.11904,0.38603 0,0.50508 -0.2381,0.23809 -0.7079,-0.1484 -1.01016,0 -1.52299,0.32863 -2.24015,1.87769 -3.53553,2.52538 -0.63625,0.31812 1.10067,-0.90145 1.65101,-1.35218"
       id="path26844-4"
       inkscape:connector-curvature="0" />
    <path
       style="fill:#44aa00;fill-rule:evenodd;stroke:#000000;stroke-width:0;stroke-linecap:butt;stroke-linejoin:miter;stroke-miterlimit:4;stroke-dasharray:none;stroke-opacity:1"
       d="m 613.80345,870.00614 c -0.8238,-0.87542 -1.64322,-1.75498 -2.4714,-2.62625 -0.16404,-0.17258 -0.33672,-0.33672 -0.50508,-0.50508 -0.16836,-0.16836 -0.29212,-0.3986 -0.50508,-0.50508 -0.15058,-0.0753 -0.38602,0.11905 -0.50507,0 -0.11905,-0.11904 0.11905,-0.38603 0,-0.50507 -0.2381,-0.2381 -0.77206,0.23809 -1.01015,0 -0.11905,-0.11905 0.11904,-0.38603 0,-0.50508 -0.11905,-0.11905 -0.38603,0.11905 -0.50508,0 -0.11905,-0.11905 0.11905,-0.38603 0,-0.50508 -0.2381,-0.23809 -0.70898,0.15059 -1.01015,0 -0.21296,-0.10647 -0.29212,-0.39859 -0.50508,-0.50507 -0.15058,-0.0753 -0.38603,0.11905 -0.50508,0 -0.11904,-0.11905 0.11905,-0.38603 0,-0.50508 -0.11904,-0.11905 -0.35449,0.0753 -0.50507,0 -0.52666,-0.26332 -0.98858,-1.2519 -1.51523,-1.51523 -0.15058,-0.0753 -0.35449,0.0753 -0.50508,0 -2.102,-1.051 0.53995,0.0349 -0.50507,-1.01015 -0.11905,-0.11905 -0.38603,0.11905 -0.50508,0 -0.11905,-0.11905 0.11905,-0.38603 0,-0.50508 -0.0713,-0.0713 -1.79395,0.27872 -1.01015,-0.50507 0.11905,-0.11905 0.33672,0 0.50507,0 0.16836,0 0.33672,0 0.50508,0 0.16836,0 0.35449,-0.0753 0.50508,0 0.21296,0.10648 0.33671,0.33672 0.50507,0.50507 0.16836,0.16836 0.3986,0.29212 0.50508,0.50508 0.0753,0.15059 -0.11905,0.38603 0,0.50508 0.11905,0.11904 0.35449,-0.0753 0.50508,0 0.42591,0.21296 0.58423,0.79719 1.01015,1.01015 0.15058,0.0753 0.38603,-0.11905 0.50507,0 0.2381,0.23809 -0.23809,0.77206 0,1.01015 0.11905,0.11905 0.38603,-0.11905 0.50508,0 0.11905,0.11905 -0.11905,0.38603 0,0.50508 0.11905,0.11905 0.38603,-0.11905 0.50508,0 0.11904,0.11905 -0.11905,0.38603 0,0.50507 0.11904,0.11905 0.38603,-0.11904 0.50507,0 0.11905,0.11905 -0.11904,0.38603 0,0.50508 0.11905,0.11905 0.38603,-0.11905 0.50508,0 0.11905,0.11905 -0.11905,0.38603 0,0.50508 0.11905,0.11904 0.35449,-0.0753 0.50508,0 0.21295,0.10648 0.29211,0.39859 0.50507,0.50507 0.15059,0.0753 0.38603,-0.11904 0.50508,0 0.11905,0.11905 -0.11905,0.38603 0,0.50508 0.11905,0.11905 0.35449,-0.0753 0.50507,0 0.21296,0.10648 0.29212,0.3986 0.50508,0.50508 0.30117,0.15058 0.77206,-0.2381 1.01015,0 0.11905,0.11904 0.16836,0.50507 0,0.50507 -0.16836,0 0,-0.33672 0,-0.50507 0,-0.67344 0,-1.34687 0,-2.02031 0,-0.75176 0.0753,-0.64468 -0.50507,-1.51523 -0.13207,-0.19811 -0.3986,-0.29212 -0.50508,-0.50507 -0.0913,-0.18266 0,-2.17408 0,-2.52539 0,-0.16835 0.11905,-0.38602 0,-0.50507 -0.11905,-0.11905 -0.38603,0.11905 -0.50508,0 -0.11904,-0.11905 0,-0.33672 0,-0.50508 0,-0.16836 0,-0.33672 0,-0.50507 0,-0.1225 0.0163,-1.49899 0,-1.51523 -0.11904,-0.11905 -0.50507,0.16836 -0.50507,0 0,-0.16836 0.38603,-0.11905 0.50507,0 0.2381,0.23809 -0.23809,0.77205 0,1.01015 0.11905,0.11905 0.38603,-0.11905 0.50508,0 0.11905,0.11905 -0.0753,0.35449 0,0.50508 0.10648,0.21295 0.3986,0.29211 0.50508,0.50507 0.15058,0.30117 -0.2381,0.77206 0,1.01015 0.11905,0.11905 0.38603,-0.11904 0.50507,0 0.10326,0.10326 -0.10013,1.31497 0,1.51523 0.10648,0.21296 0.3986,0.29212 0.50508,0.50508 0.15058,0.30117 -0.2381,0.77206 0,1.01015 0.11905,0.11905 0.38603,-0.11905 0.50508,0 0.0717,0.0717 -0.0717,2.45367 0,2.52538 0.11904,0.11905 0.38602,-0.11904 0.50507,0 0.0761,0.0761 -0.0544,1.76435 0,2.02031 0.11634,0.54706 0.9898,1.46573 0.4511,1.6161 -0.5994,0.1673 -0.4511,-3.75045 -0.4511,-4.14148 0,-1.34687 -0.16836,0.16836 0.50508,-0.50508 0.12154,-0.12154 -0.12154,-1.89877 0,-2.0203 0.11905,-0.11905 0.38603,0.11904 0.50508,0 0.11904,-0.11905 -0.11905,-0.38603 0,-0.50508 0.11904,-0.11905 0.38602,0.11905 0.50507,0 0.11905,-0.11905 -0.0753,-0.35449 0,-0.50508 0.10648,-0.21296 0.3986,-0.29211 0.50508,-0.50507 0.15058,-0.30117 -0.2381,-0.77206 0,-1.01016 1.04502,-1.04502 -0.0409,1.59693 1.01015,-0.50507 0.15058,-0.30117 -0.2381,-0.77206 0,-1.01015 0.11905,-0.11905 0.38603,0.11904 0.50508,0 0,-1.34687 -0.16836,0.16835 0.50507,-0.50508 0.2381,-0.2381 -0.23809,-0.77206 0,-1.01015 0.11905,-0.11905 0.38603,0.11904 0.50508,0 0.11905,-0.11905 -0.16836,-0.50508 0,-0.50508 0.16836,0 0,0.33672 0,0.50508 0,0.33671 0,0.67343 0,1.01015 0,0.84179 0,1.68359 0,2.52538 0,0.1225 0.0162,1.49899 0,1.51523 -0.11905,0.11905 -0.38603,-0.11905 -0.50508,0 -0.0951,0.0951 0.0951,1.42012 0,1.51523 -0.11904,0.11905 -0.38603,-0.11905 -0.50507,0 -0.0951,0.0951 0.0951,1.42012 0,1.51523 -0.11905,0.11904 -0.38603,-0.11905 -0.50508,0 -0.2381,0.23809 0.2381,0.77205 0,1.01015 -0.11905,0.11905 -0.38603,-0.11905 -0.50508,0 -0.11904,0.11905 -0.11904,0.38603 0,0.50508 0.34834,0.34834 0.94441,-0.37358 1.01016,-0.50508 0.0753,-0.15059 -0.11905,-0.38603 0,-0.50508 0.11904,-0.11904 0.38603,0.11905 0.50507,0 0.11905,-0.11904 -0.11904,-0.38603 0,-0.50507 0.11905,-0.11905 0.35449,0.0753 0.50508,0 2.10201,-1.05101 -0.53995,0.0349 0.50508,-1.01016 0.11904,-0.11904 0.38602,0.11905 0.50507,0 0.11905,-0.11904 -0.11905,-0.38602 0,-0.50507 0.2381,-0.2381 0.77206,0.23809 1.01015,0 1.04502,-1.04502 -1.59693,0.0408 0.50508,-1.01015 0.15058,-0.0753 0.38603,0.11904 0.50508,0 0.11904,-0.11905 -0.11905,-0.38603 0,-0.50508 0.11904,-0.11905 0.38603,0.11905 0.50507,0 0.11905,-0.11905 -0.11904,-0.38603 0,-0.50508 0.11905,-0.11904 0.50508,-0.16836 0.50508,0 0,0.16836 -0.38603,-0.11904 -0.50508,0 -0.11904,0.11905 0.11905,0.38603 0,0.50508 -0.11904,0.11905 -0.38603,-0.11905 -0.50507,0 -0.11905,0.11905 0.0753,0.35449 0,0.50508 -0.10648,0.21295 -0.33672,0.33671 -0.50508,0.50507 -0.16836,0.16836 -0.29212,0.3986 -0.50508,0.50508 -0.15058,0.0753 -0.38602,-0.11905 -0.50507,0 -0.2662,0.2662 -0.29626,0.69692 -0.50508,1.01015 -0.16836,0.16836 -0.33672,0.33672 -0.50507,0.50508 -0.16836,0 -0.38603,-0.11905 -0.50508,0 -0.11905,0.11904 0.11905,0.38603 0,0.50507 -0.11905,0.11905 -0.38603,-0.11904 -0.50508,0 -0.11904,0.11905 0.0753,0.35449 0,0.50508 -0.55837,1.11675 -0.31347,0.15674 -1.01015,0.50508 -2.10201,1.051 0.53994,-0.0349 -0.50508,1.01015 -0.11904,0.11905 -0.38602,-0.11905 -0.50507,0 -0.11905,0.11905 0,0.33672 0,0.50507 -0.52307,0.37035 -1.04614,0.74069 -1.56921,1.11103 z"
       id="path26846-5"
       inkscape:connector-curvature="0" />
    <path
       style="fill:#44aa00;fill-rule:evenodd;stroke:#000000;stroke-width:0;stroke-linecap:butt;stroke-linejoin:miter;stroke-miterlimit:4;stroke-dasharray:none;stroke-opacity:1"
       d="m 437.32162,956.42877 c 1.13325,0.2202 2.24651,0.6078 3.39975,0.6605 0.16819,0.01 0,-0.3367 0,-0.505 0,-0.5051 0,-1.0102 0,-1.5153 0,-1.3468 0,-2.6937 0,-4.0406 0,-0.1683 0.11905,-0.386 0,-0.5051 -0.11905,-0.119 -0.38603,0.1191 -0.50507,0 -0.11905,-0.119 0,-0.3367 0,-0.505 0,-0.6735 0,-1.3469 0,-2.0203 0,-0.1684 0.11904,-0.3861 0,-0.5051 -0.11905,-0.1191 -0.38603,0.119 -0.50508,0 -0.0505,-0.05 -0.0505,-1.4647 0,-1.5152 0.11905,-0.1191 0.38603,-0.1191 0.50508,0 0.11904,0.119 -0.11905,0.386 0,0.505 0.11904,0.1191 0.38602,-0.119 0.50507,0 0.11905,0.1191 -0.11905,0.3861 0,0.5051 0.67344,0.6734 0.50508,-0.8418 0.50508,0.5051 0,1.3469 -0.16836,-0.1684 0.50507,0.5051 0.0951,0.095 -0.0951,1.4201 0,1.5152 0.11905,0.119 0.38603,-0.1191 0.50508,0 0.11905,0.119 0,0.3367 0,0.5051 0,0.6734 0,1.3468 0,2.0203 0,0.1683 -0.11905,0.386 0,0.5051 0.11905,0.119 0.38603,-0.1191 0.50508,0 0.11904,0.119 0,0.3367 0,0.505 0,0.1684 0,0.3367 0,0.5051 0,0.1684 0.16836,0.5051 0,0.5051 -0.16836,0 -0.16836,-0.5051 0,-0.5051 1.46168,0 -0.0872,1.1845 0.50507,0 0.10648,-0.213 0.3986,-0.2921 0.50508,-0.5051 0.10013,-0.2002 -0.10326,-1.4119 0,-1.5152 0.11905,-0.119 0.38603,0.119 0.50508,0 0.11904,-0.119 0,-0.3367 0,-0.5051 0.16835,0 0.38602,0.1191 0.50507,0 0.11905,-0.119 -0.11905,-0.386 0,-0.5051 0.11905,-0.119 0.42979,0.1506 0.50508,0 0.15058,-0.3011 0,-0.6734 0,-1.0101 0,-0.1684 -0.11905,-0.386 0,-0.5051 0.11905,-0.119 0.38603,0.1191 0.50507,0 0.2381,-0.2381 -0.23809,-0.772 0,-1.0101 0.11905,-0.1191 0.38603,0.119 0.50508,0 0.11905,-0.1191 -0.11905,-0.3861 0,-0.5051 0.11905,-0.1191 0.38603,0.119 0.50508,0 0.11904,-0.1191 -0.0753,-0.3545 0,-0.5051 0.10648,-0.2129 0.39859,-0.2921 0.50507,-0.5051 0.32025,-0.6405 -0.77283,-1.0101 0.50508,-1.0101 0.16836,0 0.38603,-0.1191 0.50508,0 0.11904,0.119 0,0.3367 0,0.5051 0,0.6734 0,1.3468 0,2.0203 0,0.1683 0.11904,0.386 0,0.505 -0.11905,0.1191 -0.38603,-0.119 -0.50508,0 -0.2381,0.2381 0.15058,0.709 0,1.0102 -0.10648,0.213 -0.3986,0.2921 -0.50508,0.5051 -0.15058,0.3011 0.2381,0.772 0,1.0101 -0.11904,0.1191 -0.38603,-0.119 -0.50507,0 -0.0951,0.095 0.0951,1.4201 0,1.5153 -0.11905,0.119 -0.38603,-0.1191 -0.50508,0 -0.11905,0.119 0,0.3367 0,0.505 0,0.6735 0,1.3469 0,2.0203 0,0.1684 0.11905,0.3861 0,0.5051 -0.11905,0.1191 -0.38603,-0.119 -0.50508,0 -0.0743,0.074 0.0594,1.5152 0,1.5152 -0.16835,0 -0.11904,-0.386 0,-0.505 0.16843,-0.1685 0.84174,0.1684 1.01016,0 0.11904,-0.1191 0,-0.3368 0,-0.5051 0.16836,0 0.38603,0.119 0.50507,0 0.2381,-0.2381 -0.23809,-0.7721 0,-1.0102 0.11905,-0.119 0.3545,0.075 0.50508,0 0.21296,-0.1064 0.33672,-0.3367 0.50508,-0.505 0.16835,-0.1684 0.39859,-0.2922 0.50507,-0.5051 0.0753,-0.1506 -0.0753,-0.3545 0,-0.5051 1.05101,-2.102 -0.0349,0.5399 1.01015,-0.5051 0,-1.3468 -0.16835,0.1684 0.50508,-0.505 0.11905,-0.1191 -0.16836,-0.5051 0,-0.5051 0.16836,0 0,0.3367 0,0.5051 0,0.1224 0.0162,1.4989 0,1.5152 -0.11905,0.119 -0.38603,-0.1191 -0.50508,0 -0.10325,0.1032 0.10013,1.315 0,1.5152 -0.10647,0.213 -0.39859,0.2921 -0.50507,0.5051 -0.10013,0.2002 0.10325,1.412 0,1.5152 -0.11905,0.1191 -0.38603,-0.119 -0.50508,0 -0.0951,0.095 0.0951,1.4201 0,1.5152 -0.11905,0.1191 -0.38603,-0.119 -0.50507,0 -0.11905,0.1191 0.11904,0.3861 0,0.5051 -0.11905,0.1191 -0.33672,0 -0.50508,0 -0.16836,0 -0.33672,0 -0.50508,0 -0.22746,0 -1.36151,0.077 -1.51523,0 -0.21295,-0.1065 -0.29211,-0.3986 -0.50507,-0.5051 -0.30117,-0.1506 -0.77206,0.2381 -1.01015,0 -0.11905,-0.119 0.11904,-0.386 0,-0.505 -0.2381,-0.2381 -0.70899,0.1505 -1.01016,0 -0.21296,-0.1065 -0.29211,-0.3986 -0.50507,-0.5051 -0.29971,-0.1499 -1.21553,0.1498 -1.51523,0 -0.21296,-0.1065 -0.29212,-0.3986 -0.50508,-0.5051 -0.30116,-0.1506 -1.21027,0.1488 -1.51523,0 -0.66385,-0.3238 -1.1459,-1.1656 -1.88452,-1.1656 -0.67367,0 -1.0584,0.8452 -1.65101,1.1656 -0.1299,0.07 -1.30661,0 -1.51523,0 -0.16836,0 -0.38603,0.1191 -0.50508,0 -0.11904,-0.119 0,-0.3367 0,-0.5051 0,-0.1683 0,-0.3367 0,-0.505 0,-0.1684 0.11905,-0.3861 0,-0.5051 -0.11904,-0.1191 -0.38602,0.119 -0.50507,0 -0.1382,-0.1382 0.137,-1.7463 0,-2.0203 -0.10648,-0.213 -0.3986,-0.2921 -0.50508,-0.5051 -0.0753,-0.1506 0.0753,-0.3545 0,-0.5051 -0.10648,-0.2129 -0.3986,-0.2921 -0.50507,-0.5051 -0.0753,-0.1505 0,-0.3367 0,-0.505 0,-0.1684 0,-0.3368 0,-0.5051 0,-0.1684 -0.16836,-0.5051 0,-0.5051 0.16835,0 -0.16836,0.5051 0,0.5051 0.23809,0 0.29211,-0.3986 0.50507,-0.5051 0.15059,-0.075 0.33672,0 0.50508,0 0.16836,0 0.33672,0 0.50507,0 0.16836,0 0.38603,-0.119 0.50508,0 0.11905,0.1191 -0.11905,0.386 0,0.5051 0.11905,0.119 0.38603,-0.1191 0.50508,0 0.11904,0.119 -0.0753,0.3545 0,0.5051 0.10648,0.2129 0.39859,0.2921 0.50507,0.505 0.0753,0.1506 -0.11904,0.3861 0,0.5051 0.11905,0.1191 0.38603,-0.119 0.50508,0 0.23809,0.2381 -0.2381,0.7721 0,1.0102 0.11905,0.119 0.38603,-0.1191 0.50508,0 0.77124,0.7712 -3.43041,2.3699 1.14593,2.3699 0.65729,0 -0.46928,-1.2303 -0.64086,-1.8649 -0.0746,-0.2758 0,-1.1902 0,-1.5152 0,-0.1683 -0.11905,-0.386 0,-0.5051 0.11905,-0.119 0.38603,0.1191 0.50508,0 0.23809,-0.2381 -0.15059,-0.7089 0,-1.0101 0.10648,-0.213 0.3986,-0.2921 0.50507,-0.5051 0.0753,-0.1506 -0.11904,-0.386 0,-0.5051 0.11905,-0.119 0.38603,-0.119 0.50508,0 0.11905,0.1191 -0.0753,0.3545 0,0.5051 0.10648,0.213 0.3986,0.2921 0.50508,0.5051 0.0753,0.1506 -0.11905,0.386 0,0.5051 0.11904,0.119 0.38603,-0.1191 0.50507,0 0.11905,0.119 0,0.3367 0,0.505 0,0.6735 0,1.3469 0,2.0203 0,0.1684 -0.11904,0.3861 0,0.5051 0.11905,0.1191 0.38603,-0.119 0.50508,0 0.11905,0.1191 0,0.3367 0,0.5051 0,0.1684 0.15852,0.4484 0,0.5051 -0.75799,0.2711 -1.59307,0.2331 -2.3896,0.3496"
       id="path26834-2"
       inkscape:connector-curvature="0" />
    <path
       style="fill:#44aa00;fill-rule:evenodd;stroke:#000000;stroke-width:0;stroke-linecap:butt;stroke-linejoin:miter;stroke-miterlimit:4;stroke-dasharray:none;stroke-opacity:1"
       d="m 560.06538,942.25557 c -6.70778,6.0259 -1.38847,-7.0007 -4.18662,-8.3998 -0.15058,-0.075 -0.38603,0.1191 -0.50507,0 -0.0951,-0.095 0.0951,-1.4201 0,-1.5152 -0.11905,-0.119 -0.38603,0.119 -0.50508,0 -0.2381,-0.2381 0.23809,-0.7721 0,-1.0102 -0.11905,-0.119 -0.38603,0.1191 -0.50508,0 -0.23809,-0.238 0.2381,-0.772 0,-1.0101 -0.23809,-0.2381 -0.77205,0.2381 -1.01015,0 -0.2381,-0.2381 0.2381,-0.77207 0,-1.01016 -0.11905,-0.11905 -0.67343,0 -0.50508,0 0.33672,0 0.67344,0 1.01016,0 0.16836,0 0.35449,-0.0753 0.50507,0 0.21296,0.10648 0.29212,0.3986 0.50508,0.50508 0.15058,0.0753 0.38603,-0.11905 0.50508,0 0.11904,0.11904 -0.11905,0.38602 0,0.50508 0.11904,0.119 0.38602,-0.11906 0.50507,0 0.11905,0.119 -0.11905,0.386 0,0.5051 0.11905,0.119 0.38603,-0.1191 0.50508,0 0.23809,0.2381 -0.2381,0.772 0,1.0101 0.11905,0.1191 0.35449,-0.075 0.50507,0 2.10201,1.051 -0.53994,-0.035 0.50508,1.0102 0.11905,0.119 0.38603,-0.1191 0.50508,0 0.0162,0.016 0,1.3927 0,1.5152 0,0.1684 0,0.3367 0,0.5051 0,0.1683 -0.11905,0.386 0,0.5051 0.11904,0.119 0.38603,-0.1191 0.50507,0 0.11905,0.119 0,0.3367 0,0.505 0,0.1684 0,0.3368 0,0.5051 0,0.1684 0.16836,0.5051 0,0.5051 -0.16836,0 0,-0.3367 0,-0.5051 0,-0.3367 0,-0.6734 0,-1.0101 0,-0.1684 0,-0.3368 0,-0.5051 0,-0.1684 -0.0753,-0.3545 0,-0.5051 0.21296,-0.4259 0.7972,-0.5842 1.01016,-1.0101 0.13699,-0.274 -0.1382,-1.8822 0,-2.0204 0.11904,-0.119 0.38602,0.1191 0.50507,0 0.2381,-0.238 -0.23809,-0.772 0,-1.0101 0.11905,-0.11906 0.38603,0.119 0.50508,0 0.23809,-0.2381 -0.15059,-0.70899 0,-1.01016 0.10648,-0.21296 0.39859,-0.29212 0.50507,-0.50508 0.15059,-0.30117 -0.23809,-0.77205 0,-1.01015 0.11905,-0.11905 0.38603,0.11905 0.50508,0 0.11905,-0.11905 -0.16836,-0.50508 0,-0.50508 0.16836,0 0,0.33672 0,0.50508 0,0.16836 0,0.33672 0,0.50508 0,1.34687 0,2.69371 0,4.04061 0,1.3469 0,2.6937 0,4.0406 0,0.1684 0,0.3367 0,0.5051 0,0.1683 0.16836,0.5051 0,0.5051 -0.16836,0 0,-0.3368 0,-0.5051 0,-0.1684 -0.11905,-0.386 0,-0.5051 0.11905,-0.119 0.38603,0.1191 0.50508,0 0.11904,-0.119 -0.11905,-0.386 0,-0.5051 0.11904,-0.119 0.38603,0.1191 0.50507,0 0.11905,-0.119 -0.0753,-0.3545 0,-0.505 0.10648,-0.213 0.33672,-0.3368 0.50508,-0.5051 0.16836,-0.1684 0.29212,-0.3986 0.50508,-0.5051 1.34687,0 -0.16836,0.1684 0.50507,-0.5051 0.11905,-0.119 0.38603,0.1191 0.50508,0 0.23809,-0.2381 -0.2381,-0.772 0,-1.0101 0.16844,-0.1685 0.84171,0.1684 1.01015,0 0.11905,-0.1191 -0.11905,-0.3861 0,-0.5051 0.11905,-0.119 0.38603,0.119 0.50508,0 0.11904,-0.119 -0.11905,-0.386 0,-0.5051 0.11904,-0.119 0.38603,0.1191 0.50507,0 0.11905,-0.119 -0.11904,-0.386 0,-0.5051 0.11905,-0.119 0.38603,0.1191 0.50508,0 0.11905,-0.119 -0.11905,-0.386 0,-0.505 0.23809,-0.2381 0.77206,0.2381 1.01015,0 0.11905,-0.1191 -0.11905,-0.3861 0,-0.5051 0.11905,-0.11906 0.38603,-0.11906 0.50508,0 0.11905,0.119 0,0.3367 0,0.5051 0,0.1683 0,0.3367 0,0.505 0,0.1684 0.0753,0.3545 0,0.5051 -0.10648,0.213 -0.3986,0.2921 -0.50508,0.5051 -0.0753,0.1506 0.0753,0.3545 0,0.5051 -0.10648,0.2129 -0.39859,0.2921 -0.50507,0.5051 -0.0753,0.1505 0.11904,0.386 0,0.505 -0.11905,0.1191 -0.38603,-0.119 -0.50508,0 -0.0951,0.095 0.0951,1.4201 0,1.5153 -0.11905,0.119 -0.38603,-0.1191 -0.50508,0 0,1.3468 0.16836,-0.1684 -0.50507,0.505 -0.2381,0.2381 0.23809,0.7721 0,1.0102 -0.11905,0.119 -0.38603,-0.1191 -0.50508,0 -0.12154,0.1215 0.12154,1.8988 0,2.0203 -0.11905,0.119 -0.38603,-0.1191 -0.50508,0 -0.11904,0.119 0,0.3367 0,0.5051 0,0.1683 -0.11904,0.386 0,0.505 0.39484,0.3949 0.87866,-0.4393 1.01016,-0.505 0.15058,-0.075 0.38603,0.119 0.50507,0 0.11905,-0.1191 -0.11904,-0.3861 0,-0.5051 0.11905,-0.1191 0.38603,0.119 0.50508,0 0,-1.3469 -0.16836,0.1684 0.50508,-0.5051 0.11904,-0.119 -0.11905,-0.386 0,-0.5051 0.23809,-0.2381 0.77205,0.2381 1.01015,0 0.11905,-0.119 -0.11905,-0.386 0,-0.505 0.11905,-0.1191 0.38603,0.119 0.50507,0 0.11905,-0.1191 -0.11904,-0.3861 0,-0.5051 0.11905,-0.1191 0.38603,-0.1191 0.50508,0 0.11905,0.119 0,0.3367 0,0.5051 0,0.1683 0,0.3367 0,0.505 0,0.1684 0.0753,0.3545 0,0.5051 -0.10648,0.213 -0.3986,0.2921 -0.50508,0.5051 0,1.3469 0.16836,-0.1684 -0.50507,0.5051 -0.0951,0.095 0.0951,1.4201 0,1.5152 -0.11905,0.119 -0.33672,0 -0.50508,0 -0.16836,0 -0.33672,0 -0.50507,0 -1.34687,0 -2.69374,0 -4.04061,0 -0.2012,0 -1.39474,-0.067 -1.51523,0 -0.66864,0.3734 -1.10848,1.3287 -1.8743,1.3287 -0.70908,0 -1.0568,-0.958 -1.66124,-1.3287 -0.83483,-0.512 -0.34367,0.3437 -0.50507,0.5051 -0.11905,0.119 -0.33672,0 -0.50508,0 -0.18548,0 -1.99998,0.02 -2.0203,0 -0.11905,-0.1191 0.11904,-0.3861 0,-0.5051 -0.11905,-0.119 -0.38603,0.119 -0.50508,0 -0.11905,-0.119 0.11905,-0.386 0,-0.5051 -0.11905,-0.119 -0.38603,0.1191 -0.50508,0 -0.11904,-0.119 0.11905,-0.386 0,-0.5051 -0.11904,-0.119 -0.38603,0.1191 -0.50507,0 -0.11905,-0.119 0.11904,-0.386 0,-0.505 -0.11905,-0.1191 -0.38603,0.119 -0.50508,0 -0.2381,-0.2381 0.15058,-0.709 0,-1.0102 -0.10648,-0.2129 -0.3986,-0.2921 -0.50508,-0.5051 -0.0753,-0.1505 0.11905,-0.386 0,-0.505 -0.23809,-0.2381 -1.01015,0.3367 -1.01015,0 0,-0.1684 0.33672,0 0.50508,0 0.12249,0 1.49898,-0.016 1.51523,0 0.67343,0.6734 -0.8418,0.505 0.50507,0.505 1.34687,0 -0.16836,-0.1683 0.50508,0.5051 0.11905,0.1191 0.38603,-0.119 0.50508,0 0.11904,0.1191 -0.11905,0.386 0,0.5051 0.23809,0.2381 0.77205,-0.2381 1.01015,0 0.11905,0.119 -0.11905,0.386 0,0.5051 0.16844,0.1684 0.84171,-0.1685 1.01015,0 0.11905,0.119 -0.11905,0.386 0,0.505 0.11905,0.1191 0.33672,0 0.50508,0 0.7221,0.7797 1.4442,1.5593 2.16631,2.3389"
       id="path26836-6"
       inkscape:connector-curvature="0" />
    <path
       style="fill:#44aa00;fill-rule:evenodd;stroke:#000000;stroke-width:0;stroke-linecap:butt;stroke-linejoin:miter;stroke-miterlimit:4;stroke-dasharray:none;stroke-opacity:1"
       d="m 486.41912,928.08231 c -0.41701,-0.60089 -0.83402,-1.20177 -1.25104,-1.80266 -0.16835,0 -0.38602,0.11905 -0.50507,0 -0.2381,-0.23809 0.23809,-0.77206 0,-1.01015 -0.1679,-0.16789 -0.84226,0.16789 -1.01016,0 -0.11904,-0.11905 0,-0.33672 0,-0.50508 -0.16835,0 -0.38602,0.11905 -0.50507,0 -0.11905,-0.11904 0.11905,-0.38603 0,-0.50507 -0.11905,-0.11905 -0.38603,0.11904 -0.50508,0 -0.11905,-0.11905 0.11905,-0.38603 0,-0.50508 -0.67343,-0.67343 -0.50507,0.84179 -0.50507,-0.50508 0,-1.34687 0.16835,0.16836 -0.50508,-0.50507 -0.11905,-0.11905 0.11905,-0.38603 0,-0.50508 -0.11905,-0.11905 -0.38603,0.11905 -0.50508,0 -0.11904,-0.11905 0.11905,-0.38603 0,-0.50507 -0.11904,-0.11905 -0.38603,0.11904 -0.50507,0 -0.11905,-0.11905 0.11904,-0.38603 0,-0.50508 -0.11905,-0.11905 -0.38603,0.11905 -0.50508,0 -0.23809,-0.2381 0.2381,-0.77206 0,-1.01015 -0.11905,-0.11905 -0.50508,0.16836 -0.50508,0 0,-0.16836 0.33672,0 0.50508,0 0.16836,0 0.38603,-0.11905 0.50508,0 0.11904,0.11904 -0.11905,0.38602 0,0.50507 0.16858,0.16859 0.84156,-0.16858 1.01015,0 0.11905,0.11905 -0.11905,0.38603 0,0.50508 0.11905,0.11905 0.38603,-0.11905 0.50508,0 0.11904,0.11905 -0.0753,0.35449 0,0.50508 0.10648,0.21295 0.39859,0.29211 0.50507,0.50507 0.0753,0.15059 -0.11905,0.38603 0,0.50508 0.11905,0.11905 0.38603,-0.11905 0.50508,0 0.11905,0.11905 0,0.33672 0,0.50507 0.16836,0 0.38603,-0.11904 0.50507,0 0,1.34687 -0.16835,-0.16835 0.50508,0.50508 0.11905,0.11905 -0.11905,0.38603 0,0.50508 0.16789,0.16789 0.84226,-0.1679 1.01015,0 0.11905,0.11904 -0.11904,0.38603 0,0.50507 0.11905,0.11905 0.33672,0 0.50508,0 0.16836,0 0.38603,0.11905 0.50508,0 0.0203,-0.0203 0,-1.83482 0,-2.0203 0,-1.34687 0,-2.69374 0,-4.04061 0,-0.16836 0,-0.33672 0,-0.50508 0,-0.16836 -0.11905,-0.38603 0,-0.50508 0.11904,-0.11904 0.38602,0.11905 0.50507,0 0.2381,-0.23809 -0.23809,-0.77205 0,-1.01015 0.11905,-0.11905 0.38603,0.11905 0.50508,0 0.12154,-0.12153 -0.12154,-1.89877 0,-2.0203 0.11905,-0.11905 0.38603,-0.11905 0.50508,0 0.11904,0.11904 -0.0753,0.35449 0,0.50507 0.10647,0.21296 0.39859,0.29212 0.50507,0.50508 0.0664,0.13281 0,1.75619 0,2.0203 0,1.51523 0,3.03046 0,4.54569 0,0.18548 -0.0203,1.99998 0,2.02031 0.11905,0.11904 0.38603,0.11904 0.50508,0 0.0814,-0.0814 -0.0702,-0.79968 0,-1.01016 0.11905,-0.35714 0.23888,-0.74395 0.50507,-1.01015 0.11905,-0.11905 0.38603,0.11905 0.50508,0 0.2381,-0.23809 -0.2381,-0.77206 0,-1.01015 0.11905,-0.11905 0.35449,0.0753 0.50508,0 2.102,-1.051 -0.53995,0.0349 0.50507,-1.01015 0.11905,-0.11905 0.38603,0.11904 0.50508,0 0.11905,-0.11905 0,-0.33672 0,-0.50508 0.16836,0 0.38603,0.11905 0.50508,0 0.11904,-0.11905 -0.11905,-0.38603 0,-0.50508 0.11904,-0.11904 0.38602,0.11905 0.50507,0 0.11905,-0.11904 -0.11905,-0.38602 0,-0.50507 0.11905,-0.11905 0.38603,0.11905 0.50508,0 0,-1.34687 -0.16836,0.16836 0.50507,-0.50508 0.11905,-0.11905 -0.16835,-0.50508 0,-0.50508 0.16836,0 0,0.33672 0,0.50508 0,0.16836 0,0.33672 0,0.50508 0,0.16836 0.0753,0.35449 0,0.50507 -0.10648,0.21296 -0.39859,0.29212 -0.50507,0.50508 -0.15059,0.30117 0.23809,0.77206 0,1.01015 -0.11905,0.11905 -0.38603,-0.11905 -0.50508,0 0,1.34687 0.16836,-0.16836 -0.50507,0.50508 -0.2381,0.23809 0.15058,0.70898 0,1.01015 -0.10648,0.21296 -0.3986,0.29212 -0.50508,0.50508 -0.0753,0.15058 0.11905,0.38603 0,0.50507 -0.11905,0.11905 -0.38603,-0.11904 -0.50508,0 -0.23809,0.2381 0.2381,0.77206 0,1.01016 -0.11904,0.11904 -0.50507,0.16836 -0.50507,0 0,-0.16836 0.33671,0 0.50507,0 0.18549,0 1.99998,0.0203 2.02031,0 0.11905,-0.11905 -0.11905,-0.38603 0,-0.50508 0.11905,-0.11905 0.34535,0.0532 0.50507,0 0.35715,-0.11905 0.65301,-0.38603 1.01016,-0.50508 0.15972,-0.0532 0.38603,0.11905 0.50507,0 1.04502,-1.04502 -1.59693,0.0409 0.50508,-1.01015 0.15058,-0.0753 0.50508,-0.16836 0.50508,0 0,0.16836 -0.38603,-0.11905 -0.50508,0 -0.11905,0.11905 0.11905,0.38603 0,0.50508 -0.11905,0.11905 -0.38603,-0.11905 -0.50508,0 -0.11904,0.11905 0.11905,0.38603 0,0.50507 -0.16789,0.1679 -0.84226,-0.16789 -1.01015,0 -0.11905,0.11905 0.11905,0.38603 0,0.50508 -0.11905,0.11905 -0.38603,-0.11905 -0.50508,0 -0.11904,0.11905 0,0.33672 0,0.50508 -0.16835,0 -0.38602,-0.11905 -0.50507,0 -0.11905,0.11904 0.11905,0.38603 0,0.50507 -0.1679,0.1679 -0.84226,-0.16789 -1.01015,0 -0.11905,0.11905 0.11904,0.38603 0,0.50508 -0.2381,0.23809 -0.70899,-0.15059 -1.01016,0 -2.102,1.051 0.53995,-0.0349 -0.50507,1.01015 -0.16859,0.16859 -0.84157,-0.16858 -1.01016,0 -0.11904,0.11905 0.11905,0.38603 0,0.50508 -0.16858,0.16858 -0.84156,-0.16859 -1.01015,0 -0.11905,0.11905 0,0.33672 0,0.50507 -0.59314,0.26417 -1.18628,0.52834 -1.77942,0.79251 z"
       id="path26842-7"
       inkscape:connector-curvature="0" />
    <path
       style="fill:#44aa00;fill-rule:evenodd;stroke:#000000;stroke-width:0;stroke-linecap:butt;stroke-linejoin:miter;stroke-miterlimit:4;stroke-dasharray:none;stroke-opacity:1"
       d="m 437.32162,871.38939 c -0.88706,-0.39107 -1.77411,-0.78214 -2.66116,-1.1732 0,-0.16836 0.11904,-0.38603 0,-0.50508 -0.11905,-0.11905 -0.38603,0.11905 -0.50508,0 -0.11905,-0.11905 0.11905,-0.38603 0,-0.50508 -0.11905,-0.11904 -0.38603,0.11905 -0.50508,0 -0.11904,-0.11904 0.11905,-0.38603 0,-0.50507 -0.11904,-0.11905 -0.38602,0.11904 -0.50507,0 -0.11905,-0.11905 0.11905,-0.38603 0,-0.50508 -0.11905,-0.11905 -0.38603,0.11905 -0.50508,0 -1.04502,-1.04502 1.59693,0.0409 -0.50507,-1.01015 -0.15059,-0.0753 -0.38603,0.11905 -0.50508,0 -0.11905,-0.11905 0.11905,-0.38603 0,-0.50508 -0.11905,-0.11905 -0.38603,0.11905 -0.50508,0 -0.23809,-0.23809 0.2381,-0.77206 0,-1.01015 -0.11904,-0.11905 -0.38603,0.11905 -0.50507,0 -0.2381,-0.2381 0.23809,-0.77206 0,-1.01015 -0.11905,-0.11905 -0.38603,0.11904 -0.50508,0 -0.11905,-0.11905 0.11905,-0.38603 0,-0.50508 -0.11905,-0.11905 -0.38603,0.11905 -0.50508,0 -0.23809,-0.23809 0.2381,-0.77206 0,-1.01015 -0.11904,-0.11905 -0.38602,0.11905 -0.50507,0 -0.11905,-0.11905 0,-0.33672 0,-0.50508 0,-0.16836 -0.11905,-0.38603 0,-0.50507 0.11905,-0.11905 0.50507,-0.16836 0.50507,0 0,0.16835 -0.67343,0 -0.50507,0 0.33672,0 0.67343,0 1.01015,0 0.16836,0 0.38603,-0.11905 0.50508,0 0.11904,0.11904 -0.11905,0.38602 0,0.50507 0.11904,0.11905 0.38603,-0.11905 0.50507,0 0.11905,0.11905 -0.0753,0.35449 0,0.50508 0.10648,0.21296 0.3986,0.29212 0.50508,0.50507 0.0753,0.15059 -0.11905,0.38603 0,0.50508 0.11905,0.11905 0.38603,-0.11905 0.50508,0 0.23809,0.2381 -0.2381,0.77206 0,1.01015 0.11904,0.11905 0.38602,-0.11904 0.50507,0 0.11905,0.11905 -0.0753,0.35449 0,0.50508 0.62037,1.24073 1.01015,-0.37155 1.01015,1.01015 0,1.1845 -0.11904,-0.23809 0.50508,1.01015 0.0753,0.15059 -0.11905,0.38603 0,0.50508 0.11905,0.11905 0.38603,-0.11905 0.50508,0 0.11904,0.11905 0,0.33672 0,0.50508 0,0.16836 0,0.67343 0,0.50507 0,-2.8621 0,-5.72419 0,-8.58629 0,-0.1225 -0.0163,-1.49899 0,-1.51523 0.67343,-0.67344 0.50507,0.84179 0.50507,-0.50508 0,-0.16836 -0.11904,-0.38603 0,-0.50507 0.11905,-0.11905 0.38603,-0.11905 0.50508,0 0.10326,0.10325 -0.10013,1.31497 0,1.51522 0.10648,0.21296 0.3986,0.29212 0.50508,0.50508 0.0753,0.15058 0,0.33672 0,0.50508 0,0.16836 0,0.33671 0,0.50507 0,0.67344 0,1.34687 0,2.02031 0,0.16836 0,0.33672 0,0.50507 0,0.16836 -0.11905,0.38603 0,0.50508 0.11904,0.11905 0.38602,-0.11905 0.50507,0 0.2381,0.2381 -0.23809,0.77206 0,1.01015 0.11905,0.11905 0.38603,-0.11904 0.50508,0 0.0717,0.0717 -0.0717,2.45367 0,2.52538 0.11905,0.11905 0.38603,-0.11904 0.50507,0 0.11905,0.11905 0,0.33672 0,0.50508 0,0.16836 0,0.33672 0,0.50508 0,0.16836 0.16836,0.50507 0,0.50507 -0.16835,0 0,-0.33671 0,-0.50507 0,-1.1845 -0.11904,0.23809 0.50508,-1.01016 0.0753,-0.15058 0,-0.33671 0,-0.50507 0,-0.16836 0,-0.33672 0,-0.50508 0,-2.0203 -0.16836,0.8418 0.50508,-0.50507 0.15058,-0.30117 -0.15059,-0.70899 0,-1.01016 0.0753,-0.15058 0.38603,0.11905 0.50507,0 0.0951,-0.0951 -0.0951,-1.42012 0,-1.51523 0.11905,-0.11904 0.38603,0.11905 0.50508,0 0,-1.34687 -0.16836,0.16836 0.50508,-0.50507 0,-1.34687 -0.16836,0.16836 0.50507,-0.50508 0.2381,-0.23809 -0.23809,-0.77206 0,-1.01015 0.11905,-0.11905 0.38603,0.11905 0.50508,0 0.23809,-0.2381 -0.15059,-0.70898 0,-1.01015 0.10648,-0.21296 0.3986,-0.29212 0.50507,-0.50508 0.0753,-0.15058 -0.11904,-0.38603 0,-0.50508 0.11905,-0.11904 0.38603,0.11905 0.50508,0 0.11905,-0.11904 -0.11905,-0.38602 0,-0.50507 0.11905,-0.11905 0.38603,0.11905 0.50508,0 0.11904,-0.11905 0,-0.33672 0,-0.50508 0,-0.16836 0,-0.67343 0,-0.50507 0,0.67343 0,1.34687 0,2.0203 0,0.16836 0.11904,0.38603 0,0.50508 -0.11905,0.11904 -0.38603,-0.11905 -0.50508,0 -0.12154,0.12153 0.12154,1.89876 0,2.0203 -0.11905,0.11905 -0.38603,-0.11905 -0.50508,0 -0.12153,0.12154 0.12154,1.89877 0,2.02031 -0.11904,0.11904 -0.38602,-0.11905 -0.50507,0 -0.0951,0.0951 0.0951,1.42012 0,1.51523 -0.11905,0.11904 -0.38603,-0.11905 -0.50508,0 -0.0505,0.0505 -0.0505,1.46472 0,1.51522 0.11905,0.11905 0.38603,0.11905 0.50508,0 0.11905,-0.11904 -0.11905,-0.38602 0,-0.50507 0.11905,-0.11905 0.33672,0 0.50507,0 1.34687,0 -0.16835,0.16836 0.50508,-0.50508 0.16789,-0.16789 0.84226,0.1679 1.01015,0 0.11905,-0.11905 -0.11904,-0.38603 0,-0.50507 0.1679,-0.1679 0.84226,0.16789 1.01016,0 0.11904,-0.11905 -0.11905,-0.38603 0,-0.50508 0.11904,-0.11905 0.38602,0.11905 0.50507,0 0,-1.34687 -0.16836,0.16836 0.50508,-0.50508 0.11905,-0.11904 -0.11905,-0.38603 0,-0.50507 0.0505,-0.0505 1.46472,-0.0505 1.51523,0 0.11904,0.11904 0,0.33671 0,0.50507 0,0.16836 0.11904,0.38603 0,0.50508 -0.11905,0.11905 -0.38603,-0.11905 -0.50508,0 -0.11905,0.11905 0.11905,0.38603 0,0.50508 -0.11905,0.11904 -0.38603,-0.11905 -0.50508,0 -0.11904,0.11904 0.11905,0.38602 0,0.50507 -0.11904,0.11905 -0.38602,-0.11905 -0.50507,0 -0.11905,0.11905 0.11905,0.38603 0,0.50508 -0.11905,0.11905 -0.38603,-0.11905 -0.50508,0 -0.11905,0.11905 0.11905,0.38603 0,0.50507 -0.16789,0.1679 -0.84226,-0.16789 -1.01015,0 -0.11905,0.11905 0.11905,0.38603 0,0.50508 -0.2381,0.2381 -0.70898,-0.15058 -1.01015,0 -0.13676,0.0684 -0.8734,0.94177 -1.01016,1.01015 -0.15058,0.0753 -0.38602,-0.11904 -0.50507,0 -0.11905,0.11905 0.15058,0.42979 0,0.50508 -0.30117,0.15058 -0.70898,-0.15059 -1.01015,0 -0.15059,0.0753 0.11904,0.38603 0,0.50508 -0.2381,0.23809 -0.7079,-0.1484 -1.01016,0 -1.52299,0.32863 -2.24015,1.87769 -3.53553,2.52538 -0.63625,0.31812 1.10067,-0.90145 1.65101,-1.35218"
       id="path26844-44"
       inkscape:connector-curvature="0" />
    <path
       style="fill:#44aa00;fill-rule:evenodd;stroke:#000000;stroke-width:0;stroke-linecap:butt;stroke-linejoin:miter;stroke-miterlimit:4;stroke-dasharray:none;stroke-opacity:1"
       d="m 584.61413,843.04294 c -0.8238,-0.87542 -1.64322,-1.75498 -2.4714,-2.62625 -0.16404,-0.17258 -0.33672,-0.33672 -0.50508,-0.50508 -0.16836,-0.16836 -0.29212,-0.3986 -0.50508,-0.50508 -0.15058,-0.0753 -0.38602,0.11905 -0.50507,0 -0.11905,-0.11904 0.11905,-0.38603 0,-0.50507 -0.2381,-0.2381 -0.77206,0.23809 -1.01015,0 -0.11905,-0.11905 0.11904,-0.38603 0,-0.50508 -0.11905,-0.11905 -0.38603,0.11905 -0.50508,0 -0.11905,-0.11905 0.11905,-0.38603 0,-0.50508 -0.2381,-0.23809 -0.70898,0.15059 -1.01015,0 -0.21296,-0.10647 -0.29212,-0.39859 -0.50508,-0.50507 -0.15058,-0.0753 -0.38603,0.11905 -0.50508,0 -0.11904,-0.11905 0.11905,-0.38603 0,-0.50508 -0.11904,-0.11905 -0.35449,0.0753 -0.50507,0 -0.52666,-0.26332 -0.98858,-1.2519 -1.51523,-1.51523 -0.15058,-0.0753 -0.35449,0.0753 -0.50508,0 -2.102,-1.051 0.53995,0.0349 -0.50507,-1.01015 -0.11905,-0.11905 -0.38603,0.11905 -0.50508,0 -0.11905,-0.11905 0.11905,-0.38603 0,-0.50508 -0.0713,-0.0713 -1.79395,0.27872 -1.01015,-0.50507 0.11905,-0.11905 0.33672,0 0.50507,0 0.16836,0 0.33672,0 0.50508,0 0.16836,0 0.35449,-0.0753 0.50508,0 0.21296,0.10648 0.33671,0.33672 0.50507,0.50507 0.16836,0.16836 0.3986,0.29212 0.50508,0.50508 0.0753,0.15059 -0.11905,0.38603 0,0.50508 0.11905,0.11904 0.35449,-0.0753 0.50508,0 0.42591,0.21296 0.58423,0.79719 1.01015,1.01015 0.15058,0.0753 0.38603,-0.11905 0.50507,0 0.2381,0.23809 -0.23809,0.77206 0,1.01015 0.11905,0.11905 0.38603,-0.11905 0.50508,0 0.11905,0.11905 -0.11905,0.38603 0,0.50508 0.11905,0.11905 0.38603,-0.11905 0.50508,0 0.11904,0.11905 -0.11905,0.38603 0,0.50507 0.11904,0.11905 0.38603,-0.11904 0.50507,0 0.11905,0.11905 -0.11904,0.38603 0,0.50508 0.11905,0.11905 0.38603,-0.11905 0.50508,0 0.11905,0.11905 -0.11905,0.38603 0,0.50508 0.11905,0.11904 0.35449,-0.0753 0.50508,0 0.21295,0.10648 0.29211,0.39859 0.50507,0.50507 0.15059,0.0753 0.38603,-0.11904 0.50508,0 0.11905,0.11905 -0.11905,0.38603 0,0.50508 0.11905,0.11905 0.35449,-0.0753 0.50507,0 0.21296,0.10648 0.29212,0.3986 0.50508,0.50508 0.30117,0.15058 0.77206,-0.2381 1.01015,0 0.11905,0.11904 0.16836,0.50507 0,0.50507 -0.16836,0 0,-0.33672 0,-0.50507 0,-0.67344 0,-1.34687 0,-2.02031 0,-0.75176 0.0753,-0.64468 -0.50507,-1.51523 -0.13207,-0.19811 -0.3986,-0.29212 -0.50508,-0.50507 -0.0913,-0.18266 0,-2.17408 0,-2.52539 0,-0.16835 0.11905,-0.38602 0,-0.50507 -0.11905,-0.11905 -0.38603,0.11905 -0.50508,0 -0.11904,-0.11905 0,-0.33672 0,-0.50508 0,-0.16836 0,-0.33672 0,-0.50507 0,-0.1225 0.0163,-1.49899 0,-1.51523 -0.11904,-0.11905 -0.50507,0.16836 -0.50507,0 0,-0.16836 0.38603,-0.11905 0.50507,0 0.2381,0.23809 -0.23809,0.77205 0,1.01015 0.11905,0.11905 0.38603,-0.11905 0.50508,0 0.11905,0.11905 -0.0753,0.35449 0,0.50508 0.10648,0.21295 0.3986,0.29211 0.50508,0.50507 0.15058,0.30117 -0.2381,0.77206 0,1.01015 0.11905,0.11905 0.38603,-0.11904 0.50507,0 0.10326,0.10326 -0.10013,1.31497 0,1.51523 0.10648,0.21296 0.3986,0.29212 0.50508,0.50508 0.15058,0.30117 -0.2381,0.77206 0,1.01015 0.11905,0.11905 0.38603,-0.11905 0.50508,0 0.0717,0.0717 -0.0717,2.45367 0,2.52538 0.11904,0.11905 0.38602,-0.11904 0.50507,0 0.0761,0.0761 -0.0544,1.76435 0,2.02031 0.11634,0.54706 0.9898,1.46573 0.4511,1.6161 -0.5994,0.1673 -0.4511,-3.75045 -0.4511,-4.14148 0,-1.34687 -0.16836,0.16836 0.50508,-0.50508 0.12154,-0.12154 -0.12154,-1.89877 0,-2.0203 0.11905,-0.11905 0.38603,0.11904 0.50508,0 0.11904,-0.11905 -0.11905,-0.38603 0,-0.50508 0.11904,-0.11905 0.38602,0.11905 0.50507,0 0.11905,-0.11905 -0.0753,-0.35449 0,-0.50508 0.10648,-0.21296 0.3986,-0.29211 0.50508,-0.50507 0.15058,-0.30117 -0.2381,-0.77206 0,-1.01016 1.04502,-1.04502 -0.0409,1.59693 1.01015,-0.50507 0.15058,-0.30117 -0.2381,-0.77206 0,-1.01015 0.11905,-0.11905 0.38603,0.11904 0.50508,0 0,-1.34687 -0.16836,0.16835 0.50507,-0.50508 0.2381,-0.2381 -0.23809,-0.77206 0,-1.01015 0.11905,-0.11905 0.38603,0.11904 0.50508,0 0.11905,-0.11905 -0.16836,-0.50508 0,-0.50508 0.16836,0 0,0.33672 0,0.50508 0,0.33671 0,0.67343 0,1.01015 0,0.84179 0,1.68359 0,2.52538 0,0.1225 0.0162,1.49899 0,1.51523 -0.11905,0.11905 -0.38603,-0.11905 -0.50508,0 -0.0951,0.0951 0.0951,1.42012 0,1.51523 -0.11904,0.11905 -0.38603,-0.11905 -0.50507,0 -0.0951,0.0951 0.0951,1.42012 0,1.51523 -0.11905,0.11904 -0.38603,-0.11905 -0.50508,0 -0.2381,0.23809 0.2381,0.77205 0,1.01015 -0.11905,0.11905 -0.38603,-0.11905 -0.50508,0 -0.11904,0.11905 -0.11904,0.38603 0,0.50508 0.34834,0.34834 0.94441,-0.37358 1.01016,-0.50508 0.0753,-0.15059 -0.11905,-0.38603 0,-0.50508 0.11904,-0.11904 0.38603,0.11905 0.50507,0 0.11905,-0.11904 -0.11904,-0.38603 0,-0.50507 0.11905,-0.11905 0.35449,0.0753 0.50508,0 2.10201,-1.05101 -0.53995,0.0349 0.50508,-1.01016 0.11904,-0.11904 0.38602,0.11905 0.50507,0 0.11905,-0.11904 -0.11905,-0.38602 0,-0.50507 0.2381,-0.2381 0.77206,0.23809 1.01015,0 1.04502,-1.04502 -1.59693,0.0408 0.50508,-1.01015 0.15058,-0.0753 0.38603,0.11904 0.50508,0 0.11904,-0.11905 -0.11905,-0.38603 0,-0.50508 0.11904,-0.11905 0.38603,0.11905 0.50507,0 0.11905,-0.11905 -0.11904,-0.38603 0,-0.50508 0.11905,-0.11904 0.50508,-0.16836 0.50508,0 0,0.16836 -0.38603,-0.11904 -0.50508,0 -0.11904,0.11905 0.11905,0.38603 0,0.50508 -0.11904,0.11905 -0.38603,-0.11905 -0.50507,0 -0.11905,0.11905 0.0753,0.35449 0,0.50508 -0.10648,0.21295 -0.33672,0.33671 -0.50508,0.50507 -0.16836,0.16836 -0.29212,0.3986 -0.50508,0.50508 -0.15058,0.0753 -0.38602,-0.11905 -0.50507,0 -0.2662,0.2662 -0.29626,0.69692 -0.50508,1.01015 -0.16836,0.16836 -0.33672,0.33672 -0.50507,0.50508 -0.16836,0 -0.38603,-0.11905 -0.50508,0 -0.11905,0.11904 0.11905,0.38603 0,0.50507 -0.11905,0.11905 -0.38603,-0.11904 -0.50508,0 -0.11904,0.11905 0.0753,0.35449 0,0.50508 -0.55837,1.11675 -0.31347,0.15674 -1.01015,0.50508 -2.10201,1.051 0.53994,-0.0349 -0.50508,1.01015 -0.11904,0.11905 -0.38602,-0.11905 -0.50507,0 -0.11905,0.11905 0,0.33672 0,0.50507 -0.52307,0.37035 -1.04614,0.74069 -1.56921,1.11103 z"
       id="path26846-2"
       inkscape:connector-curvature="0" />
  </g>
</svg>
