<?xml version="1.0" encoding="UTF-8" standalone="no"?>
<!-- Created with Inkscape (http://www.inkscape.org/) -->

<svg
   xmlns:dc="http://purl.org/dc/elements/1.1/"
   xmlns:cc="http://creativecommons.org/ns#"
   xmlns:rdf="http://www.w3.org/1999/02/22-rdf-syntax-ns#"
   xmlns:svg="http://www.w3.org/2000/svg"
   xmlns="http://www.w3.org/2000/svg"
   xmlns:sodipodi="http://sodipodi.sourceforge.net/DTD/sodipodi-0.dtd"
   xmlns:inkscape="http://www.inkscape.org/namespaces/inkscape"
   width="1024"
   height="1052.36"
   id="svg2"
   version="1.1"
   inkscape:version="0.91 r13725"
   sodipodi:docname="HamletTile.svg"
   inkscape:export-filename="D:\Dev\Unity3D\FireStarter\Assets\Sprites\TileTemplate.png"
   inkscape:export-xdpi="90"
   inkscape:export-ydpi="90">
  <defs
     id="defs4" />
  <sodipodi:namedview
     id="base"
     pagecolor="#ffffff"
     bordercolor="#666666"
     borderopacity="1.0"
     inkscape:pageopacity="0.0"
     inkscape:pageshadow="2"
     inkscape:zoom="2.8"
     inkscape:cx="497.9865"
     inkscape:cy="174.22846"
     inkscape:document-units="px"
     inkscape:current-layer="layer1"
     showgrid="true"
     showguides="true"
     inkscape:window-width="1280"
     inkscape:window-height="738"
     inkscape:window-x="-8"
     inkscape:window-y="-8"
     inkscape:window-maximized="1">
    <inkscape:grid
       type="axonomgrid"
       id="grid2987"
       units="mm"
       empspacing="10"
       visible="true"
       enabled="true"
       snapvisiblegridlinesonly="true"
       spacingy="8mm" />
  </sodipodi:namedview>
  <metadata
     id="metadata7">
    <rdf:RDF>
      <cc:Work
         rdf:about="">
        <dc:format>image/svg+xml</dc:format>
        <dc:type
           rdf:resource="http://purl.org/dc/dcmitype/StillImage" />
        <dc:title></dc:title>
      </cc:Work>
    </rdf:RDF>
  </metadata>
  <g
     inkscape:label="Layer 1"
     inkscape:groupmode="layer"
     id="layer1"
     transform="translate(0,-0.00218262)">
    <path
       style="fill:none;fill-rule:evenodd;stroke:#000000;stroke-width:1px;stroke-linecap:butt;stroke-linejoin:miter;stroke-opacity:1"
       d="m 320.14392,925.246 49.0975,28.34646 49.09751,-28.34646 0,-28.34645 -49.09751,28.34645 -49.0975,-28.34645 0,28.34645"
       id="path3337"
       inkscape:connector-curvature="0" />
    <path
       style="fill:none;fill-rule:evenodd;stroke:#000000;stroke-width:1px;stroke-linecap:butt;stroke-linejoin:miter;stroke-opacity:1"
       d="M 369.24142,925.246 344.69267,882.72632"
       id="path3339"
       inkscape:connector-curvature="0" />
    <path
       style="fill:none;fill-rule:evenodd;stroke:#000000;stroke-width:1.01402915px;stroke-linecap:butt;stroke-linejoin:miter;stroke-opacity:1"
       d="M 418.33135,896.35921 393.08347,853.84878"
       id="path3341"
       inkscape:connector-curvature="0" />
    <path
       style="fill:none;fill-rule:evenodd;stroke:#000000;stroke-width:1px;stroke-linecap:butt;stroke-linejoin:miter;stroke-opacity:1"
       d="m 467.13135,981.90783 49.0975,28.34637 49.09751,-28.34637 0,-28.34646 -49.09751,28.34646 -49.0975,-28.34646 z"
       id="path3343"
       inkscape:connector-curvature="0" />
    <path
       style="fill:none;fill-rule:evenodd;stroke:#000000;stroke-width:1.00090122px;stroke-linecap:butt;stroke-linejoin:miter;stroke-opacity:1"
       d="m 516.22902,981.69825 24.59327,-42.51926 24.59327,14.17309 -73.77981,-42.51925 -24.59326,42.51925"
       id="path3345"
       inkscape:connector-curvature="0" />
    <path
       style="fill:none;fill-rule:evenodd;stroke:#000000;stroke-width:1px;stroke-linecap:butt;stroke-linejoin:miter;stroke-opacity:1"
       d="m 613.77006,953.05284 -49.0975,-28.34646 0,-56.69291 49.0975,28.34646 0,56.69291"
       id="path3347"
       inkscape:connector-curvature="0" />
    <path
       style="fill:none;fill-rule:evenodd;stroke:#000000;stroke-width:1px;stroke-linecap:butt;stroke-linejoin:miter;stroke-opacity:1"
       d="m 613.77006,953.05284 73.64626,-42.51969"
       id="path3349"
       inkscape:connector-curvature="0" />
    <path
       style="fill:none;fill-rule:evenodd;stroke:#000000;stroke-width:1px;stroke-linecap:butt;stroke-linejoin:miter;stroke-opacity:1"
       d="m 687.41632,910.53315 0,-56.69291 -73.64626,42.51969"
       id="path3351"
       inkscape:connector-curvature="0" />
    <path
       style="fill:none;fill-rule:evenodd;stroke:#000000;stroke-width:1px;stroke-linecap:butt;stroke-linejoin:miter;stroke-opacity:1"
       d="m 516.10113,866.5849 24.54875,-14.17323"
       id="path3353"
       inkscape:connector-curvature="0" />
    <path
       style="fill:none;fill-rule:evenodd;stroke:#000000;stroke-width:1px;stroke-linecap:butt;stroke-linejoin:miter;stroke-opacity:1"
       d="m 613.77006,896.35993 -24.54875,-42.51969 73.64625,-42.51968"
       id="path3355"
       inkscape:connector-curvature="0" />
    <path
       style="fill:none;fill-rule:evenodd;stroke:#000000;stroke-width:1px;stroke-linecap:butt;stroke-linejoin:miter;stroke-opacity:1"
       d="m 662.86756,811.32056 24.54876,42.51968"
       id="path3357"
       inkscape:connector-curvature="0" />
    <path
       style="fill:none;fill-rule:evenodd;stroke:#000000;stroke-width:1px;stroke-linecap:butt;stroke-linejoin:miter;stroke-opacity:1"
       d="m 467.09773,867.90099 0,-56.69292"
       id="path3361"
       inkscape:connector-curvature="0" />
    <path
       style="fill:none;fill-rule:evenodd;stroke:#000000;stroke-width:1px;stroke-linecap:butt;stroke-linejoin:miter;stroke-opacity:1"
       d="m 467.09773,867.90099 -49.0975,-28.34646 0,0 0,-56.69291 49.0975,28.34646"
       id="path3365"
       inkscape:connector-curvature="0" />
    <path
       style="fill:none;fill-rule:evenodd;stroke:#000000;stroke-width:1px;stroke-linecap:butt;stroke-linejoin:miter;stroke-opacity:1"
       d="m 418.00023,782.86162 24.54875,-14.17323"
       id="path3367"
       inkscape:connector-curvature="0" />
    <path
       style="fill:none;fill-rule:evenodd;stroke:#000000;stroke-width:1px;stroke-linecap:butt;stroke-linejoin:miter;stroke-opacity:1"
       d="m 467.09773,811.20807 -24.54875,-42.51968 49.09751,-28.34646 0,0"
       id="path3369"
       inkscape:connector-curvature="0" />
    <path
       style="fill:none;fill-rule:evenodd;stroke:#000000;stroke-width:1px;stroke-linecap:butt;stroke-linejoin:miter;stroke-opacity:1"
       d="m 320.02663,896.54594 73.64626,-42.51968 0,0"
       id="path3391"
       inkscape:connector-curvature="0" />
    <path
       style="fill:none;fill-rule:evenodd;stroke:#000000;stroke-width:1px;stroke-linecap:butt;stroke-linejoin:miter;stroke-opacity:1"
       d="M 516.59521,782.35655 467.49771,810.703"
       id="path3432"
       inkscape:connector-curvature="0" />
    <path
       style="fill:none;fill-rule:evenodd;stroke:#000000;stroke-width:1px;stroke-linecap:butt;stroke-linejoin:miter;stroke-opacity:1"
       d="M 516.59521,782.35655 492.04646,739.83686"
       id="path3436"
       inkscape:connector-curvature="0" />
    <path
       style="fill:none;fill-rule:evenodd;stroke:#000000;stroke-width:1px;stroke-linecap:butt;stroke-linejoin:miter;stroke-opacity:1"
       d="m 467.4036,866.07983 24.54875,-14.17323 0,-28.34646"
       id="path3438"
       inkscape:connector-curvature="0" />
    <path
       style="fill:none;fill-rule:evenodd;stroke:#000000;stroke-width:1px;stroke-linecap:butt;stroke-linejoin:miter;stroke-opacity:1"
       d="m 491.95235,823.56014 24.54876,-14.17322 0,-28.34646"
       id="path3440"
       inkscape:connector-curvature="0" />
    <path
       style="fill:none;fill-rule:evenodd;stroke:#000000;stroke-width:1px;stroke-linecap:butt;stroke-linejoin:miter;stroke-opacity:1"
       d="m 516.50111,809.38692 24.54875,14.17322 -24.54875,14.17323"
       id="path3442"
       inkscape:connector-curvature="0" />
    <path
       style="fill:none;fill-rule:evenodd;stroke:#000000;stroke-width:1px;stroke-linecap:butt;stroke-linejoin:miter;stroke-opacity:1"
       d="m 541.04986,823.56014 0,28.34646 -24.54875,14.17323"
       id="path3444"
       inkscape:connector-curvature="0" />
    <path
       style="fill:none;fill-rule:evenodd;stroke:#000000;stroke-width:1px;stroke-linecap:butt;stroke-linejoin:miter;stroke-opacity:1"
       d="M 516.50111,866.07983 491.95235,851.9066"
       id="path3446"
       inkscape:connector-curvature="0" />
    <path
       style="fill:none;fill-rule:evenodd;stroke:#000000;stroke-width:1px;stroke-linecap:butt;stroke-linejoin:miter;stroke-opacity:1"
       d="m 516.50111,837.73337 0,28.34646"
       id="path3448"
       inkscape:connector-curvature="0" />
    <path
       style="fill:none;fill-rule:evenodd;stroke:#000000;stroke-width:1px;stroke-linecap:butt;stroke-linejoin:miter;stroke-opacity:1"
       d="M 516.50111,837.73337 491.95235,823.56014"
       id="path3450"
       inkscape:connector-curvature="0" />
    <path
       style="fill:none;fill-rule:evenodd;stroke:#000000;stroke-width:1px;stroke-linecap:butt;stroke-linejoin:miter;stroke-opacity:1"
       d="m 564.62129,868.1102 24.54875,-14.17323"
       id="path3452"
       inkscape:connector-curvature="0" />
    <path
       style="fill:none;fill-rule:evenodd;stroke:#000000;stroke-width:1px;stroke-linecap:butt;stroke-linejoin:miter;stroke-opacity:1"
       d="m 515.52378,981.49602 0,28.34648 0,0"
       id="path3454"
       inkscape:connector-curvature="0" />
    <path
       style="fill:none;fill-rule:evenodd;stroke:#000000;stroke-width:1px;stroke-linecap:butt;stroke-linejoin:miter;stroke-opacity:1"
       d="m 368.23127,924.80311 0,28.34646"
       id="path3456"
       inkscape:connector-curvature="0" />
    <path
       style="fill:none;fill-rule:evenodd;stroke:#000000;stroke-width:1px;stroke-linecap:butt;stroke-linejoin:miter;stroke-opacity:1"
       d="m 417.32878,811.41728 -171.84126,99.2126 245.48751,141.73232 245.48752,-141.73232 -49.09751,-28.34645 0,0"
       id="path3458"
       inkscape:connector-curvature="0" />
    <path
       style="fill:#000080"
       d="m 357.51026,903.55609 c -6.58899,-11.4103 -11.86824,-20.85955 -11.73167,-20.99834 0.67996,-0.691 47.38563,-27.43189 47.47542,-27.1816 0.0574,0.1601 5.5527,9.4518 12.2117,20.64823 6.659,11.19643 11.99942,20.46268 11.8676,20.59166 -0.13182,0.12898 -10.95043,6.41111 -24.04137,13.96027 l -23.8017,13.72576 -11.97998,-20.74598 z"
       id="path3460"
       inkscape:connector-curvature="0"
       transform="translate(0,0.00218262)" />
    <path
       style="fill:#000080"
       d="m 518.34364,979.59796 c 0,-0.17809 22.33024,-38.96767 22.67212,-39.38347 0.0881,-0.1071 22.36726,12.69071 22.75108,13.06887 0.13455,0.13256 -8.93327,5.54459 -20.1507,12.02674 -24.07059,13.9095 -25.2725,14.58901 -25.2725,14.28786 z"
       id="path3462"
       inkscape:connector-curvature="0"
       transform="translate(0,0.00218262)" />
    <path
       style="fill:#000080"
       d="m 602.09172,874.76021 c -6.48109,-11.2249 -11.74613,-20.51462 -11.70009,-20.6438 0.16787,-0.47107 72.06657,-41.78511 72.30818,-41.54933 0.13696,0.13366 5.54241,9.40373 12.0121,20.60016 l 11.76309,20.35714 -0.94068,0.58654 c -2.89901,1.8076 -70.67322,40.79874 -71.12117,40.91668 -0.38683,0.10184 -3.84307,-5.58331 -12.32143,-20.26739 z"
       id="path3464"
       inkscape:connector-curvature="0"
       transform="translate(0,0.00218262)" />
    <path
       style="fill:#000080"
       d="m 455.47384,789.70531 c -6.37697,-11.03798 -11.64195,-20.25568 -11.69995,-20.48376 -0.0962,-0.3783 47.27999,-28.0248 48.00573,-28.01386 0.53007,0.008 23.83491,40.72633 23.49075,41.04317 -0.55527,0.51121 -47.54919,27.52352 -47.88328,27.52352 -0.17532,0 -5.53628,-9.03108 -11.91325,-20.06907 z"
       id="path3466"
       inkscape:connector-curvature="0"
       transform="translate(0,0.00218262)" />
    <path
       style="fill:#0000ff"
       d="m 588.64677,881.09626 c -12.3065,-7.11096 -22.27078,-13.04013 -22.14286,-13.17593 0.12792,-0.13579 4.57187,-2.75897 9.87544,-5.82927 5.30358,-3.0703 10.3112,-5.97075 11.12807,-6.44544 l 1.4852,-0.86308 10.87184,18.83521 c 12.26552,21.24972 11.8168,20.44844 11.43817,20.42494 -0.15423,-0.01 -10.34937,-5.83547 -22.65586,-12.94643 z"
       id="path3468"
       inkscape:connector-curvature="0"
       transform="translate(0,0.00218262)" />
    <path
       style="fill:#0000ff"
       d="m 508.87936,976.88328 c -3.73215,-2.16783 -14.46579,-8.37291 -23.85254,-13.78904 -9.38675,-5.41613 -17.02068,-9.9638 -16.96428,-10.10592 0.38535,-0.97114 23.7213,-41.06273 23.90337,-41.06643 0.32273,-0.007 46.81513,26.77767 47.3592,27.28359 0.35021,0.32565 -2.09938,4.8293 -11.42857,21.01181 -6.53088,11.32852 -11.95468,20.59961 -12.0529,20.60242 -0.0982,0.003 -3.23214,-1.76858 -6.96428,-3.93643 z"
       id="path3470"
       inkscape:connector-curvature="0"
       transform="translate(0,0.00218262)" />
    <path
       style="fill:#0000ff"
       d="m 442.15016,796.02879 c -12.34391,-7.14264 -22.50239,-13.04551 -22.57439,-13.11751 -0.14054,-0.14055 21.84972,-12.89808 22.49115,-13.04812 0.21112,-0.0494 3.59815,5.4939 7.52672,12.31842 3.92857,6.82451 9.02201,15.66403 11.31876,19.64336 2.29674,3.97933 4.0646,7.2251 3.92857,7.2128 -0.13603,-0.0123 -10.3469,-5.86632 -22.69081,-13.00895 z"
       id="path3472"
       inkscape:connector-curvature="0"
       transform="translate(0,0.00218262)" />
    <path
       style="fill:#0000ff"
       d="m 344.03836,909.90655 c -12.46245,-7.18395 -22.70668,-13.1065 -22.76495,-13.16123 -0.0583,-0.0547 5.07337,-3.08641 11.40365,-6.73707 10.33583,-5.96065 11.55214,-6.5751 11.92667,-6.025 1.21745,1.78814 22.36228,38.71638 22.23919,38.83948 -0.0801,0.0801 -10.34211,-5.73223 -22.80456,-12.91618 z"
       id="path3474"
       inkscape:connector-curvature="0"
       transform="translate(0,0.00218262)" />
    <path
       style="fill:#008000;fill-rule:evenodd;stroke:#000000;stroke-width:1px;stroke-linecap:butt;stroke-linejoin:miter;stroke-opacity:1"
       d="m 613.71879,839.76374 -98.19501,-56.69291 0,0"
       id="path3476"
       inkscape:connector-curvature="0" />
    <path
       style="fill:#008000"
       d="m 343.70078,966.52973 c -52.74107,-30.45813 -96.10442,-55.4997 -96.36301,-55.64793 -0.30097,-0.17253 30.15931,-17.95366 84.64285,-49.41012 l 85.11302,-49.1406 0.10165,13.81094 0.10164,13.81093 24.66293,14.2222 c 13.57682,7.82925 24.88915,14.13538 25.16621,14.02906 0.27681,-0.10622 0.50329,-0.48354 0.50329,-0.83849 0,-0.47212 3.26541,-2.53321 12.16352,-7.67748 l 12.16351,-7.03211 11.85434,6.84751 c 6.51989,3.76612 12.01505,7.04315 12.21148,7.28227 0.26785,0.32606 3.12075,-1.16411 11.40983,-5.95975 6.07898,-3.51699 11.74415,-6.8316 12.58929,-7.3658 l 1.5366,-0.97127 0,-14.14307 c 0,-9.27674 0.12726,-14.27033 0.36986,-14.51293 0.25505,-0.25505 -3.48649,-2.59269 -12.05357,-7.53084 l -12.42344,-7.16097 -0.0939,-12.14895 -0.0939,-12.14895 47.46509,27.37621 c 26.1058,15.05692 47.36234,27.48015 47.23677,27.60716 -0.12553,0.12702 -5.37114,3.20162 -11.65685,6.83246 -6.28572,3.63083 -16.86916,9.75388 -23.51878,13.60678 -6.6496,3.8529 -12.23537,6.91555 -12.4128,6.80589 -0.19133,-0.11824 -0.28542,11.67456 -0.23123,28.9794 l 0.0914,29.17878 24.64285,14.22974 c 13.55358,7.82635 24.74433,14.23275 24.86833,14.23644 0.25942,0.008 73.11875,-42.02821 73.78825,-42.57185 0.33453,-0.27166 0.46503,-3.67802 0.53571,-13.98447 l 0.0934,-13.62533 23.45864,13.54869 23.45864,13.54869 -2.56578,1.4936 c -1.41118,0.82148 -44.78275,25.86517 -96.38129,55.65264 l -93.81552,54.15899 -51.36306,-0 -51.36306,-0 -95.89286,-55.37837 z m 197.64145,30.03037 24.4741,-14.10715 0.0137,-14.83453 0.0137,-14.83454 -4.73214,-2.71522 c -2.60268,-1.49338 -8.75,-5.03313 -13.66072,-7.86611 -40.74091,-23.50341 -55.26863,-31.80204 -55.7463,-31.84381 -0.37847,-0.0331 -4.48502,6.74225 -12.85018,21.20136 l -12.29396,21.25 -0.001,14.91071 c -7.1e-4,8.20089 0.11933,14.91274 0.26665,14.91522 0.14732,0.002 11.19643,6.34002 24.55357,14.0834 13.35714,7.74337 24.5564,14.04937 24.88724,14.01337 0.33085,-0.036 11.61488,-6.4138 25.07564,-14.1727 l -1.4e-4,0 z m -145.42081,-57.5762 23.11349,-13.31666 0.0115,-14.72537 0.0115,-14.72537 -12.72255,-21.42131 -12.72254,-21.42132 -1.16735,0.61097 c -0.64202,0.33603 -17.33055,9.9324 -37.0856,21.32526 l -35.91826,20.71428 -0.0133,14.72391 -0.0132,14.72391 0.80357,0.52229 c 0.44196,0.28726 11.65178,6.78879 24.91071,14.44783 l 24.10714,13.92554 1.78572,-1.03365 c 0.98214,-0.56851 12.18678,-7.02615 24.89921,-14.35031 l -4e-5,0 z"
       id="path3478"
       inkscape:connector-curvature="0"
       transform="translate(0,0.00218262)" />
    <path
       style="fill:#ffe6d5"
       d="m 614.41788,924.31293 0.003,-27.57426 36.0345,-20.80357 c 19.81898,-11.44197 36.13021,-20.80358 36.24719,-20.80358 0.11697,0 0.21268,12.35022 0.21268,27.44492 l 0,27.44491 -29.91072,17.26647 c -16.45089,9.49655 -32.76339,18.91637 -36.25,20.93292 l -6.33928,3.66646 0.003,-27.57427 z"
       id="path3480"
       inkscape:connector-curvature="0"
       transform="translate(0,0.00218262)" />
    <path
       style="fill:#ffe6d5"
       d="m 589.05793,937.99732 -23.39286,-13.53353 -0.0915,-27.55377 c -0.0504,-15.17233 0.0458,-27.49995 0.21415,-27.43399 0.1681,0.0659 10.85659,6.21046 23.75221,13.65462 l 23.44657,13.53484 0,27.4473 c 0,15.09602 -0.12054,27.44072 -0.26786,27.43268 -0.14732,-0.008 -10.79464,-6.10472 -23.66071,-13.54815 z"
       id="path3482"
       inkscape:connector-curvature="0"
       transform="translate(0,0.00218262)" />
    <path
       style="fill:#ffe6d5"
       d="m 490.93293,994.85843 -23.30357,-13.46856 0,-13.30774 c 0,-7.31926 0.0628,-13.30775 0.13962,-13.30775 0.0768,0 10.64376,6.06751 23.48215,13.48336 l 23.34251,13.48336 0.0936,13.30235 c 0.0515,7.31625 -0.0289,13.29815 -0.17857,13.29295 -0.14971,-0.01 -10.75881,-6.0703 -23.57577,-13.47797 z"
       id="path3484"
       inkscape:connector-curvature="0"
       transform="translate(0,0.00218262)" />
    <path
       style="fill:#ffe6d5"
       d="M 344.16357,938.358 320.87635,924.95295 320.86,911.61117 c -0.0143,-11.64817 0.0509,-13.31598 0.5132,-13.13857 0.86084,0.33034 45.32142,26.00744 45.81415,26.45883 0.35078,0.32134 0.43005,3.34488 0.35714,13.62231 l -0.0937,13.20931 -23.28721,-13.40505 z"
       id="path3486"
       inkscape:connector-curvature="0"
       transform="translate(0,0.00218262)" />
    <path
       style="fill:#ffe6d5"
       d="m 442.37506,852.8841 -23.64715,-13.64543 -0.0136,-27.63036 -0.0136,-27.63036 0.80358,0.50823 c 0.44196,0.27952 11.20982,6.50954 23.92857,13.84447 l 23.125,13.33624 0,27.4466 c 0,15.09563 -0.12054,27.43973 -0.26786,27.43133 -0.14732,-0.008 -10.90908,-6.15573 -23.91501,-13.66072 z"
       id="path3488"
       inkscape:connector-curvature="0"
       transform="translate(0,0.00218262)" />
    <path
       style="fill:#ffe6d5"
       d="m 504.22319,858.19033 -11.41526,-6.58405 -0.0936,-13.42961 -0.0936,-13.42961 0.83779,0.46009 c 0.46079,0.25305 5.68594,3.26149 11.61145,6.68543 l 10.77366,6.22535 0,13.32822 c 0,7.33053 -0.0462,13.32823 -0.1026,13.32823 -0.0564,0 -5.23946,-2.96282 -11.51785,-6.58405 z"
       id="path3490"
       inkscape:connector-curvature="0"
       transform="translate(0,0.00218262)" />
    <path
       style="fill:#ffe6d5"
       d="m 504.95078,830.26699 c -6.28571,-3.64406 -11.45777,-6.65431 -11.49347,-6.68946 -0.0357,-0.0351 5.13367,-3.07289 11.48748,-6.75054 l 11.55237,-6.68664 11.01252,6.36479 c 6.05689,3.50063 11.28393,6.51291 11.61564,6.69396 0.47479,0.25914 -1.83256,1.7344 -10.84559,6.93437 -6.29678,3.63286 -11.55032,6.63982 -11.67453,6.68214 -0.12421,0.0423 -5.3687,-2.90457 -11.65442,-6.54862 z"
       id="path3492"
       inkscape:connector-curvature="0"
       transform="translate(0,0.00218262)" />
    <path
       style="fill:#ffccaa"
       d="m 517.27221,851.45164 0,-13.39329 11.33929,-6.52125 c 6.2366,-3.58669 11.45982,-6.58507 11.60714,-6.66306 0.14732,-0.078 0.26786,5.86939 0.26786,13.21642 l 0,13.35823 -10.44643,6.01616 c -5.74554,3.30888 -10.96875,6.32304 -11.60714,6.69812 l -1.16072,0.68197 0,-13.3933 z"
       id="path3494"
       inkscape:connector-curvature="0"
       transform="translate(0,0.00218262)" />
    <path
       style="fill:#ffccaa"
       d="m 614.41507,924.30029 0,-27.6259 21.875,-12.6301 c 20.16153,-11.64079 38.92391,-22.44078 41.51786,-23.89848 6.85933,-3.85469 8.4786,-4.69046 8.68596,-4.4832 0.13343,0.13338 0.28571,12.40461 0.3384,27.2694 l 0.0958,27.0269 -4.20294,2.45606 c -2.31161,1.35083 -5.08686,2.94225 -6.16721,3.53649 -1.08036,0.59424 -2.81116,1.61714 -3.84623,2.27311 -1.03506,0.65596 -1.94157,1.19267 -2.01446,1.19267 -0.0729,0 -3.08317,1.70922 -6.6895,3.79827 -12.81362,7.42259 -17.65123,10.21544 -19.4141,11.20815 -0.98214,0.55306 -6.6875,3.85051 -12.67857,7.32767 -5.99107,3.47715 -11.77679,6.81219 -12.85714,7.4112 -1.08036,0.59901 -2.56697,1.46588 -3.30358,1.92639 l -1.33928,0.83728 0,-27.62591 z"
       id="path3496"
       inkscape:connector-curvature="0"
       transform="translate(0,0.00218262)" />
    <path
       style="fill:#ffccaa"
       d="m 467.63238,838.27158 0.003,-26.89006 23.90821,-13.79709 c 13.14951,-7.5884 23.99637,-13.70894 24.10411,-13.60119 0.10775,0.10775 0.19591,5.77402 0.19591,12.59172 l 0,12.39582 -10.44643,6.00306 c -5.74553,3.30168 -11.28833,6.53288 -12.31732,7.18045 l -1.8709,1.1774 -0.0934,14.15375 -0.0934,14.15375 -10.17857,5.87723 c -5.59821,3.23249 -10.86161,6.27504 -11.69643,6.76123 l -1.51785,0.88399 0.003,-26.89006 z"
       id="path3498"
       inkscape:connector-curvature="0"
       transform="translate(0,0.00218262)" />
    <path
       style="fill:#ffccaa"
       d="m 516.28576,996.01598 0.0936,-13.42858 21.96428,-12.68213 c 12.08036,-6.97518 22.96875,-13.24694 24.19643,-13.93725 l 2.23214,-1.25511 0,13.36626 0,13.36626 -23.45041,13.53948 c -12.89773,7.44669 -23.82824,13.74649 -24.29002,13.99959 l -0.83961,0.4601 0.0936,-13.42862 z"
       id="path3500"
       inkscape:connector-curvature="0"
       transform="translate(0,0.00218262)" />
    <path
       style="fill:#ffccaa"
       d="m 369.07188,939.32795 0.014,-13.30357 24.04503,-13.83928 c 13.22477,-7.61161 24.14706,-13.83929 24.27176,-13.83929 0.1247,0 0.21955,5.98661 0.21079,13.30357 l -0.0159,13.30357 -24.03325,13.83929 c -13.2183,7.61161 -24.1397,13.83928 -24.26979,13.83928 -0.13009,0 -0.23024,-5.9866 -0.22257,-13.30357 z"
       id="path3502"
       inkscape:connector-curvature="0"
       transform="translate(0,0.00218262)" />
  </g>
</svg>
