<?xml version="1.0" encoding="UTF-8" standalone="no"?>
<!-- Created with Inkscape (http://www.inkscape.org/) -->

<svg
   xmlns:dc="http://purl.org/dc/elements/1.1/"
   xmlns:cc="http://creativecommons.org/ns#"
   xmlns:rdf="http://www.w3.org/1999/02/22-rdf-syntax-ns#"
   xmlns:svg="http://www.w3.org/2000/svg"
   xmlns="http://www.w3.org/2000/svg"
   xmlns:sodipodi="http://sodipodi.sourceforge.net/DTD/sodipodi-0.dtd"
   xmlns:inkscape="http://www.inkscape.org/namespaces/inkscape"
   width="512"
   height="512"
   viewBox="0 0 512.00001 512.00001"
   id="svg17077"
   version="1.1"
   inkscape:version="0.91 r13725"
   sodipodi:docname="ShittyGuard.svg">
  <defs
     id="defs17079" />
  <sodipodi:namedview
     id="base"
     pagecolor="#ffffff"
     bordercolor="#666666"
     borderopacity="1.0"
     inkscape:pageopacity="0.0"
     inkscape:pageshadow="2"
     inkscape:zoom="0.64"
     inkscape:cx="132.82411"
     inkscape:cy="358.93429"
     inkscape:document-units="px"
     inkscape:current-layer="layer1"
     showgrid="false"
     showguides="true"
     inkscape:guide-bbox="true"
     units="px"
     showborder="true"
     inkscape:window-width="1280"
     inkscape:window-height="738"
     inkscape:window-x="-8"
     inkscape:window-y="-8"
     inkscape:window-maximized="1">
    <sodipodi:guide
       position="2.8571429,207.14286"
       orientation="1,0"
       id="guide18128" />
  </sodipodi:namedview>
  <metadata
     id="metadata17082">
    <rdf:RDF>
      <cc:Work
         rdf:about="">
        <dc:format>image/svg+xml</dc:format>
        <dc:type
           rdf:resource="http://purl.org/dc/dcmitype/StillImage" />
        <dc:title></dc:title>
      </cc:Work>
    </rdf:RDF>
  </metadata>
  <g
     inkscape:label="Layer 1"
     inkscape:groupmode="layer"
     id="layer1"
     transform="translate(0,-540.3622)">
    <ellipse
       style="fill:#000000"
       id="path15866"
       cx="260.44644"
       cy="795.42438"
       rx="246.50539"
       ry="247.47853" />
    <ellipse
       style="fill:#2b0000;stroke:#000000;stroke-width:0.9633618;stroke-opacity:1"
       id="path15866-4"
       cx="260.44644"
       cy="794.6311"
       rx="221.22278"
       ry="224.47571" />
    <path
       style="fill:#000000;fill-rule:evenodd;stroke:#000000;stroke-width:0.86914301px;stroke-linecap:butt;stroke-linejoin:miter;stroke-opacity:1"
       d="m 259.32842,1018.3565 c 0,0 0,36.5433 -25.31217,29.2347 C 208.70408,1040.2826 109.98659,974.50453 99.861704,886.80052 89.736839,799.0965 79.611974,721.13738 79.611974,721.13738 c 0,0 7.593651,-119.3749 164.529146,-121.81113 156.93549,-2.43623 78.46774,97.44891 78.46774,97.44891"
       id="path17145-01"
       inkscape:connector-curvature="0" />
    <path
       style="fill:#000000;fill-rule:evenodd;stroke:#000000;stroke-width:0.86914301px;stroke-linecap:butt;stroke-linejoin:miter;stroke-opacity:1"
       d="m 248.88631,1017.8977 c 0,0 0,36.5434 25.31217,29.2347 25.31217,-7.3087 124.02967,-73.08668 134.15454,-160.79069 10.12488,-87.70402 20.24974,-165.66314 20.24974,-165.66314 0,0 -7.59365,-119.3749 -164.52916,-121.81112 -156.93548,-2.43624 -78.46774,97.4489 -78.46774,97.4489"
       id="path17145-0-1"
       inkscape:connector-curvature="0" />
    <path
       style="fill:#ffccaa;fill-rule:evenodd;stroke:#000000;stroke-width:0.7899012px;stroke-linecap:butt;stroke-linejoin:miter;stroke-opacity:1"
       d="m 250.68115,1001.5149 c 0,0 -0.46123,33.3751 -23.25652,26.4012 -22.79529,-6.974 -111.22646,-68.21508 -119.27454,-148.435 -8.04807,-80.21994 -16.219127,-151.53983 -16.219127,-151.53983 0,0 8.372947,-108.93583 150.306427,-109.30753 141.93348,-0.37169 69.72142,89.92707 69.72142,89.92707"
       id="path17145-5-7"
       inkscape:connector-curvature="0" />
    <path
       style="fill:#ff9955;fill-rule:evenodd;stroke:#000000;stroke-width:0.9633618px;stroke-linecap:butt;stroke-linejoin:miter;stroke-opacity:1"
       d="m 194.38734,730.74149 c -0.45875,1.83497 -0.7781,3.71053 -1.37623,5.50491 -0.32438,0.97315 -1.05185,1.77932 -1.37623,2.75247 -0.14507,0.4352 0.32438,1.05185 0,1.37623 -0.32439,0.32438 -1.05185,-0.32438 -1.37623,0 -0.37657,0.37657 0.37329,4.75834 0,5.50492 -0.29014,0.58027 -1.0861,0.79597 -1.37623,1.37623 -0.33508,0.67015 0.33507,4.83478 0,5.50493 -0.29014,0.58027 -1.0861,0.79596 -1.37623,1.37623 -0.20516,0.41032 0.14506,0.94103 0,1.37623 -0.32439,0.97315 -1.05186,1.77932 -1.37623,2.75247 -0.29014,0.8704 0.4103,1.93183 0,2.75246 -0.29014,0.58027 -1.08611,0.79596 -1.37624,1.37623 -0.27283,0.54567 0.28136,3.84734 0,4.12869 -0.32438,0.32438 -1.05185,-0.32438 -1.37623,0 -0.32438,0.32438 0,0.91749 0,1.37624 0,3.2112 0,6.4224 0,9.63361 0,5.04618 0,10.09237 0,15.13854 0,0.95723 -0.24885,6.38347 0,6.88116 0.29013,0.58027 1.08609,0.79596 1.37623,1.37623 0.24884,0.49769 0,5.92393 0,6.88116 0,0.45874 -0.32438,1.05184 0,1.37623 0.32438,0.32438 1.05185,-0.32439 1.37624,0 0.32437,0.32438 0,0.91748 0,1.37623 0,0.45874 0,0.91748 0,1.37623 0,4.58744 0,9.17487 0,13.76231 0,4.58744 0,9.17488 0,13.76231 0,0.71966 0.18093,5.14306 0,5.50493 -0.29014,0.58026 -1.08611,0.79596 -1.37624,1.37623 -0.27283,0.54566 0.28136,3.84734 0,4.12869 -0.32438,0.32438 -1.05185,-0.32438 -1.37623,0 -0.33117,0.33116 0.33116,5.17376 0,5.50493 -0.32438,0.32437 -1.05185,-0.32439 -1.37623,0 -0.32439,0.32437 0.32438,1.05184 0,1.37623 -0.32439,0.32438 -1.05185,-0.32439 -1.37623,0 -0.19541,0.19541 0.19541,6.68574 0,6.88116 -0.32439,0.32437 -1.05185,-0.32439 -1.37623,0 -0.32438,0.32437 0,0.91748 0,1.37623 0,3.2112 0,6.4224 0,9.63361 0,0.33377 0.0442,4.08444 0,4.12869 -0.32438,0.32439 -1.05186,-0.32438 -1.37623,0 -0.0443,0.0442 0,3.79493 0,4.1287 0,6.88115 0,13.76231 0,20.64347 0,0.5054 0.0554,5.44954 0,5.50492 -0.32438,0.32438 -1.05186,-0.32438 -1.37623,0 -0.33117,0.33116 0.33115,5.17376 0,5.50492 -0.32438,0.32439 -1.05186,-0.32438 -1.37624,0 -0.32437,0.32439 0.45874,1.37623 0,1.37623 -0.91749,0 0.41031,-1.93183 0,-2.75246 -0.29014,-0.58027 -1.08609,-0.79596 -1.37623,-1.37622 -0.20516,-0.41032 0,-0.9175 0,-1.37624 0,-0.45875 0,-0.91749 0,-1.37623 0,-5.04618 0,-10.09237 0,-15.13854 0,-0.45874 0,-0.91749 0,-1.37623 0,-0.45874 0.32438,-1.05186 0,-1.37624 -0.32437,-0.32437 -1.05185,0.32438 -1.37623,0 -0.25915,-0.25915 0.25915,-3.86954 0,-4.12869 -0.32438,-0.32438 -1.05185,0.32438 -1.37623,0 -0.19541,-0.19541 0.19541,-6.68575 0,-6.88116 -0.32438,-0.32437 -1.05185,0.32439 -1.37623,0 -0.19541,-0.19541 0.19541,-6.68574 0,-6.88115 -0.32438,-0.32438 -1.05186,0.32438 -1.37623,0 -0.0443,-0.0443 0,-3.79492 0,-4.1287 0,-7.79864 0,-15.59728 0,-23.39592 0,-16.51478 0,-33.02955 0,-49.54432 0,-2.29373 0,-4.58744 0,-6.88116 0,-0.45874 -0.32438,-1.05185 0,-1.37623 0.32437,-0.32438 1.05185,0.32438 1.37623,0 0.32438,-0.32438 0,-0.91748 0,-1.37623 0,-1.83498 0,-3.66995 0,-5.50493 0,-0.45874 -0.32438,-1.05184 0,-1.37623 0.32438,-0.32438 1.05185,0.32439 1.37623,0 0.64876,-0.64876 -0.64877,-2.1037 0,-2.75246 0.32438,-0.32438 1.05185,0.32438 1.37623,0 0.19541,-0.19541 -0.19541,-6.68575 0,-6.88115 0.32438,-0.32439 1.05186,0.32438 1.37623,0 0.32438,-0.32439 0,-0.91749 0,-1.37623 0,-2.29373 0,-4.58745 0,-6.88116 0,-0.45874 -0.32437,-1.05185 0,-1.37623 0.32438,-0.32438 1.05186,0.32438 1.37623,0 0.32438,-0.32438 0,-0.91749 0,-1.37623 0,-0.45874 0,-0.91749 0,-1.37623 0,-6.88116 0,-13.76232 0,-20.64348 0,-3.66994 -0.45874,0.45875 1.37624,-1.37623 0.64876,-0.64875 -0.64877,-2.10369 0,-2.75246 0.32437,-0.32438 1.05185,0.32439 1.37623,0 0.25915,-0.25915 -0.25917,-3.86953 0,-4.12868 0.32437,-0.32439 1.05185,0.32437 1.37623,0 0.64875,-0.64877 -0.64877,-2.10371 0,-2.75247 0.32438,-0.32438 1.05184,0.32438 1.37623,0 0.32438,-0.32438 -0.32439,-1.05185 0,-1.37623 0.32438,-0.32439 1.05184,0.32438 1.37623,0 0.25915,-0.25916 -0.25916,-3.86954 0,-4.12869 0.32438,-0.32439 1.05185,0.32437 1.37623,0 0.25916,-0.25917 -0.25916,-3.86954 0,-4.1287 0.32438,-0.32437 1.05185,0.32438 1.37623,0 0.64876,-0.64876 -0.91749,-2.75246 0,-2.75246 0.45874,0 -0.45875,1.37623 0,1.37623 0.64876,0 0.72747,-1.37623 1.37624,-1.37623 0.45874,0 -0.32439,1.05185 0,1.37623 0.64875,0.64877 2.10369,-0.64876 2.75246,0 0.32438,0.32438 -0.32439,1.05186 0,1.37623 0.32438,0.32438 1.05184,-0.32437 1.37623,0 0.32438,0.32438 -0.32439,1.05185 0,1.37623 0.32438,0.32438 1.05184,-0.32438 1.37623,0 0.32438,0.32438 -0.32439,1.05185 0,1.37624 0.32438,0.32437 1.05185,-0.32439 1.37623,0 0.64876,0.64875 -0.64876,2.10369 0,2.75246 0.32438,0.32438 1.05185,-0.32439 1.37623,0 0.32438,0.32438 -0.32438,1.05184 0,1.37623 0.32438,0.32438 1.05185,-0.32439 1.37623,0 0.32438,0.32438 -0.32438,1.05184 0,1.37623 0.32438,0.32438 1.48749,-0.44505 1.37623,0 -0.49757,1.99031 -1.83498,3.66995 -2.75246,5.50493 z"
       id="path18122"
       inkscape:connector-curvature="0" />
    <path
       style="fill:#ffccaa;fill-rule:evenodd;stroke:#000000;stroke-width:0.81994218px;stroke-linecap:butt;stroke-linejoin:miter;stroke-opacity:1"
       d="m 243.19334,1000.2895 c 0,0 -0.48545,34.1667 23.70172,27.6394 24.18718,-6.5274 119.01237,-66.8342 129.81354,-148.71222 10.80113,-81.878 21.47283,-154.64485 21.47283,-154.64485 0,0 -5.64119,-111.70348 -154.9674,-115.87856 -149.3262,-4.17507 -75.97385,90.16294 -75.97385,90.16294"
       id="path17145-0-2-7"
       inkscape:connector-curvature="0" />
    <path
       style="fill:#000000"
       id="path15866-6-4"
       sodipodi:type="arc"
       sodipodi:cx="168.17134"
       sodipodi:cy="809.81586"
       sodipodi:rx="39.347816"
       sodipodi:ry="44.854973"
       sodipodi:start="0.038716829"
       sodipodi:end="4.7446985"
       sodipodi:open="true"
       d="m 207.48967,811.55207 a 39.347816,44.854973 0 0 1 -40.75739,43.08875 39.347816,44.854973 0 0 1 -37.88542,-46.3697 39.347816,44.854973 0 0 1 40.59557,-43.28683" />
    <path
       style="fill:#e6e6e6"
       id="path15866-6-7-1"
       sodipodi:type="arc"
       sodipodi:cx="167.95055"
       sodipodi:cy="814.14154"
       sodipodi:rx="33.897892"
       sodipodi:ry="26.559895"
       sodipodi:start="0.038716829"
       sodipodi:end="4.7446985"
       sodipodi:open="true"
       d="m 201.82304,815.1696 a 33.897892,26.559895 0 0 1 -35.11224,25.51407 33.897892,26.559895 0 0 1 -32.63804,-27.45681 33.897892,26.559895 0 0 1 34.97282,-25.63135" />
    <path
       style="fill:#000000"
       id="path15866-6-3-5-1"
       sodipodi:type="arc"
       sodipodi:cx="-335.75647"
       sodipodi:cy="810.30316"
       sodipodi:rx="39.347816"
       sodipodi:ry="44.854973"
       sodipodi:start="0.038716829"
       sodipodi:end="4.7446985"
       sodipodi:open="true"
       d="m -296.43814,812.03937 a 39.347816,44.854973 0 0 1 -40.75739,43.08876 39.347816,44.854973 0 0 1 -37.88542,-46.36971 39.347816,44.854973 0 0 1 40.59557,-43.28682"
       transform="scale(-1,1)" />
    <path
       style="fill:#e6e6e6"
       id="path15866-6-7-7-0-4"
       sodipodi:type="arc"
       sodipodi:cx="-335.97723"
       sodipodi:cy="815.60327"
       sodipodi:rx="33.897892"
       sodipodi:ry="28.996119"
       sodipodi:start="0.038716829"
       sodipodi:end="4.7446985"
       sodipodi:open="true"
       d="m -302.10475,816.72563 a 33.897892,28.996119 0 0 1 -35.11223,27.85436 33.897892,28.996119 0 0 1 -32.63804,-29.9753 33.897892,28.996119 0 0 1 34.97282,-27.9824"
       transform="scale(-1,1)" />
    <path
       style="fill:#4d4d4d;fill-rule:evenodd;stroke:#000000;stroke-width:0.86914301px;stroke-linecap:butt;stroke-linejoin:miter;stroke-opacity:1"
       d="m 120.11146,705.30194 130.3577,49.94257 154.40428,-60.90557 17.71852,-42.63389 -2.53122,-90.14025 -329.058294,1.21811 3.796831,108.41191 25.312183,38.97957 z"
       id="path17930-6"
       inkscape:connector-curvature="0" />
    <path
       style="fill:#666666;fill-rule:evenodd;stroke:#000000;stroke-width:0.86914301px;stroke-linecap:butt;stroke-linejoin:miter;stroke-opacity:1"
       d="m 246.67233,696.77516 c 0,0 -124.02966,-2.43622 -129.0921,87.704 -5.06242,90.14024 -37.968256,197.33403 -37.968256,197.33403 l -43.030702,0 c 0,0 48.09314,-163.2269 43.030702,-297.21914 -5.062437,-133.99225 167.060356,12.18111 167.060356,12.18111 z"
       id="path17247-44"
       inkscape:connector-curvature="0" />
    <ellipse
       style="fill:#000000"
       id="path15866-7-6"
       cx="169.47021"
       cy="809.81586"
       rx="19.131287"
       ry="19.274632" />
    <ellipse
       style="fill:#000000"
       id="path15866-7-7-9"
       cx="330.20251"
       cy="810.30316"
       rx="19.131287"
       ry="19.274632" />
    <ellipse
       style="fill:#800000;stroke:#000000;stroke-width:0.07489841;stroke-opacity:1"
       id="path15866-4-9-2-6"
       cx="330.70877"
       cy="810.30316"
       rx="17.169102"
       ry="17.483078" />
    <ellipse
       style="fill:#800000;stroke:#000000;stroke-width:0.07489841;stroke-opacity:1"
       id="path15866-4-9-2-3-1"
       cx="169.47021"
       cy="809.81586"
       rx="17.169102"
       ry="17.483078" />
    <ellipse
       style="fill:#000000;stroke:#000000;stroke-width:0.03743133;stroke-opacity:1"
       id="path15866-4-9-2-4-6"
       cx="170.10301"
       cy="810.42493"
       rx="8.9617405"
       ry="8.3656216" />
    <ellipse
       style="fill:#000000;stroke:#000000;stroke-width:0.03743133;stroke-opacity:1"
       id="path15866-4-9-2-4-4-9"
       cx="330.70877"
       cy="809.08502"
       rx="8.9617405"
       ry="8.3656216" />
    <path
       style="fill:#000000;fill-rule:evenodd;stroke:#000000;stroke-width:0.86914301px;stroke-linecap:butt;stroke-linejoin:miter;stroke-opacity:1"
       d="m 163.14216,783.50469 c 6.89538,0.87359 29.9292,26.00901 31.64021,24.36221 3.27293,-3.15008 -15.40681,-20.20446 -18.98413,-21.926 -5.50177,-2.64764 -12.65608,-1.49716 -12.65608,-2.43621 0,-1.62417 3.37495,0 0,0 z"
       id="path17909-6"
       inkscape:connector-curvature="0" />
    <path
       style="fill:#000000;fill-rule:evenodd;stroke:#000000;stroke-width:0.86914301px;stroke-linecap:butt;stroke-linejoin:miter;stroke-opacity:1"
       d="m 309.69965,807.8669 c 0.42332,4.9878 21.51535,-25.38832 21.51535,-21.926 0,0.14331 -3.6107,-0.17914 -3.79682,0 -1.47655,1.42113 -3.5859,2.23321 -5.06244,3.65433 -2.74215,2.63925 -4.8515,5.88754 -7.59365,8.52678 -0.37711,0.36296 -7.62188,4.76377 -7.59366,4.87245 0.45759,1.76164 3.37496,3.2483 2.53122,4.87244 -1.41993,2.7333 -7.59365,-3.52426 -7.59365,7.30867"
       id="path17911-8"
       inkscape:connector-curvature="0" />
    <path
       style="fill:#666666;fill-rule:evenodd;stroke:#000000;stroke-width:0.86914301px;stroke-linecap:butt;stroke-linejoin:miter;stroke-opacity:1"
       d="m 265.96313,697.03702 c 0,0 124.02967,-2.43623 129.09211,87.70401 5.06243,90.14024 37.96825,197.33402 37.96825,197.33402 l 43.03071,0 c 0,0 -48.09314,-163.22691 -43.03071,-297.21914 5.06244,-133.99225 -167.06036,12.18111 -167.06036,12.18111 z"
       id="path17247-4-5"
       inkscape:connector-curvature="0" />
    <path
       style="fill:#000000;fill-rule:evenodd;stroke:#000000;stroke-width:0.86914301px;stroke-linecap:butt;stroke-linejoin:miter;stroke-opacity:1"
       d="m 256.79721,862.43828 c 3.37496,0 6.74991,0 10.12486,0 0.42188,0 0.96731,-0.2871 1.26561,0 0.29831,0.28712 -0.2983,0.93101 0,1.21813 0.23833,0.22937 3.55851,-0.22939 3.79683,0 0.29831,0.2871 -0.29831,0.93099 0,1.21811 0.59661,0.57421 1.93461,-0.57423 2.53121,0 0.59662,0.57421 -0.5966,1.86199 0,2.43622 0.59662,0.57423 1.93462,-0.57423 2.53123,0 0,3.24829 -0.42188,-0.40604 1.26561,1.21811 0.59661,0.57422 -0.59662,1.86199 0,2.43621 0.2983,0.28712 0.96729,-0.2871 1.26561,0 0.59661,0.57424 -0.59662,1.86201 0,2.43623 0.59661,0.57422 1.9346,-0.57422 2.53121,0 0.29831,0.28711 -0.29831,0.931 0,1.21811 0.29831,0.28712 0.9673,-0.28711 1.26561,0 0.59662,0.57423 -0.59661,1.86201 0,2.43622 0.29831,0.28712 0.9673,-0.28711 1.26561,0 0.2983,0.28712 -0.29831,0.93101 0,1.21811 0.2983,0.28712 0.9673,-0.2871 1.2656,0 0.29831,0.28712 0.29831,0.93101 0,1.21812 -0.2983,0.28711 -0.84374,0 -1.2656,0 -0.42187,0 -0.84374,0 -1.26561,0 -0.30695,0 -3.75613,0.0391 -3.79682,0 -0.29832,-0.28711 0.29829,-0.931 0,-1.21812 -0.23834,-0.22937 -3.5585,0.22939 -3.79683,0 -0.59661,-0.57422 0.59661,-1.86199 0,-2.43621 -0.29831,-0.28712 -0.9673,0.28711 -1.26562,0 -0.2983,-0.28712 0.29832,-0.931 0,-1.21812 -0.2983,-0.28711 -0.96729,0.28712 -1.2656,0 -2.61859,-2.52031 4.00155,0.0985 -1.26561,-2.43621 -0.37733,-0.1816 -0.9673,0.2871 -1.26561,0 -0.2983,-0.28712 0.29831,-0.93101 0,-1.21813 -0.59662,-0.57422 -1.9346,0.57424 -2.53122,0 -0.2983,-0.2871 0.29831,-0.93099 0,-1.21811 -0.23832,-0.22937 -3.5585,0.2294 -3.79682,0 -0.29831,-0.2871 0.2983,-0.93099 0,-1.2181 -0.59661,-0.57422 -2.53122,0.81206 -2.53122,0 0,-0.40604 1.68748,0 1.26561,0 -0.84374,0 -1.77655,0.36317 -2.53121,0 -3.37497,-1.62415 3.79682,-1.21811 -1.26562,-1.21811 -0.42187,0 -0.84374,0 -1.26561,0 -0.42187,0 -1.16329,0.3939 -1.2656,0 -0.40928,-1.57566 1.60088,-4.35885 0,-4.87246 -10.12488,-3.24829 0,12.9932 0,0 0,-1.46397 -2.35381,1.97329 -3.79682,2.43624 -0.40023,0.1284 0,-0.81208 0,-1.21811"
       id="path17932-9"
       inkscape:connector-curvature="0" />
    <path
       style="fill:#000000;fill-rule:evenodd;stroke:#000000;stroke-width:0.86914301px;stroke-linecap:butt;stroke-linejoin:miter;stroke-opacity:1"
       d="m 203.64164,831.74189 c -0.84374,1.62415 -1.68748,3.2483 -2.53122,4.87244 -0.42187,0 -0.96731,-0.28711 -1.26561,0 -0.29831,0.28712 0.2983,0.931 0,1.21811 -0.29831,0.28711 -0.9673,-0.28711 -1.26561,0 -0.59662,0.57423 0.59661,1.86201 0,2.43622 -0.2983,0.28712 -0.9673,-0.2871 -1.26561,0 -0.2983,0.28712 0.29831,0.93101 0,1.21812 -0.2983,0.2871 -0.9673,-0.28711 -1.26561,0 -0.2983,0.2871 0.29831,0.93099 0,1.21812 -0.2983,0.2871 -0.96729,-0.28713 -1.26561,0 -0.2983,0.2871 0.29832,0.93099 0,1.2181 -0.2983,0.28711 -0.96729,-0.28711 -1.26561,0 -0.2983,0.28711 0.29832,0.931 0,1.21811 -0.2983,0.28711 -0.96729,-0.28711 -1.2656,0 -0.29831,0.28711 0.29831,0.93099 0,1.21812 -0.29831,0.28711 -0.9673,-0.28713 -1.26561,0 -0.59662,0.57422 0.59661,1.86199 0,2.43621 -0.2983,0.28711 -0.96731,-0.28711 -1.26561,0 -0.2983,0.28711 0.2983,0.931 0,1.21811 -0.59662,0.57423 -1.9346,-0.57422 -2.53122,0 -0.2983,0.28712 0.18866,0.85495 0,1.21812 -0.26681,0.5136 -0.99879,0.7045 -1.26561,1.21811 -0.18866,0.36317 0.29831,0.93099 0,1.2181 -0.29831,0.28713 -0.9673,-0.28711 -1.2656,0 -0.29832,0.28713 0.2983,0.93101 0,1.21812 -0.29832,0.28711 -0.96731,-0.28711 -1.26561,0 -0.29832,0.28711 0.2983,0.931 0,1.21811 -0.29832,0.28711 -0.96731,-0.28711 -1.26561,0 -0.29831,0.28711 0.2983,0.931 0,1.2181 -0.29831,0.28713 -0.96731,-0.2871 -1.2656,0 -0.29832,0.28713 0.29829,0.93102 0,1.21813 -0.29832,0.2871 -0.96732,-0.28711 -1.26562,0 -0.29831,0.2871 0.2983,0.93099 0,1.21811 -0.29831,0.2871 -0.9673,-0.28712 -1.26561,0 -0.2983,0.2871 0.29831,0.93099 0,1.2181 -0.2983,0.28712 -0.9673,-0.28711 -1.2656,0 -0.29832,0.28712 0.2983,0.93101 0,1.21812 -0.59661,0.57423 -1.93462,-0.57422 -2.53123,0 -0.2983,0.28711 0.29832,0.93099 0,1.21811 -0.2983,0.28711 -0.9673,-0.28712 -1.26561,0 -0.2983,0.28711 0.29831,0.931 0,1.2181 -0.2983,0.28712 -0.9673,-0.2871 -1.2656,0 -0.29831,0.28712 0.2983,0.93102 0,1.21812 -0.29831,0.28711 -0.88828,-0.18158 -1.26562,0 -0.53361,0.2568 -0.73197,0.96132 -1.26561,1.21812 -0.37732,0.18157 -1.2656,0.40604 -1.2656,0 0,-0.14331 3.61071,0.17913 3.79683,0 0.2983,-0.28712 -0.29831,-0.93101 0,-1.21812 0.2983,-0.2871 0.88828,0.18158 1.2656,0 0.53364,-0.2568 0.73199,-0.96131 1.26561,-1.21812 0.37734,-0.18158 0.88828,0.1816 1.26561,0 0.53363,-0.25679 0.84374,-0.81206 1.26562,-1.2181 0.53702,-0.51687 3.33169,-3.43049 3.79683,-3.65433 0.37732,-0.18159 0.96729,0.2871 1.2656,0 0.2983,-0.28712 -0.29831,-0.93101 0,-1.21811 0.66703,-0.64201 1.86418,-0.57611 2.53122,-1.21813 0.2983,-0.2871 -0.29832,-0.93099 0,-1.2181 0.2983,-0.28711 0.96729,0.28711 1.2656,0 0.29831,-0.28711 -0.29831,-0.931 0,-1.21811 0.59662,-0.57422 1.93461,0.57423 2.53122,0 0.2983,-0.28711 -0.18866,-0.85494 0,-1.21812 2.63358,-5.06947 -0.0874,1.30221 2.53122,-1.2181 0.29831,-0.28712 -0.18866,-0.85493 0,-1.21811 2.63357,-5.06949 -0.0874,1.3022 2.53121,-1.21812 0.59662,-0.57422 -0.59661,-1.86199 0,-2.43622 0.29832,-0.2871 0.96731,0.28712 1.26561,0 0.29832,-0.2871 -0.2983,-0.93099 0,-1.2181 0.29832,-0.28713 0.96731,0.28711 1.26561,0 0.29831,-0.28713 -0.18867,-0.85495 0,-1.21812 0.26681,-0.5136 0.9988,-0.7045 1.26561,-1.21811 0.18867,-0.36317 -0.2983,-0.931 0,-1.2181 0.29831,-0.28713 0.96731,0.2871 1.26561,0 0.29831,-0.28713 -0.2983,-0.93102 0,-1.21812 1.68748,-1.62416 1.26561,2.03018 1.26561,-1.21812 0,-3.24829 -0.42187,0.40604 1.26561,-1.2181 0.29831,-0.28712 -0.29831,-0.93101 0,-1.21812 0.29831,-0.28711 0.9673,-0.28711 1.26561,0 0.29831,0.28711 0.29831,0.931 0,1.21812 -0.29831,0.28711 -0.9673,-0.28712 -1.26561,0 -0.59661,0.57422 0.59661,1.86199 0,2.43622 -0.29831,0.2871 -0.96731,-0.28711 -1.26561,0 -0.29831,0.2871 0.2983,0.93099 0,1.21812 -1.68747,1.62414 -1.26561,-2.0302 -1.26561,1.2181 0,1.26015 0.29831,1.68361 -1.26561,2.43623 -0.37732,0.18158 -0.9673,-0.28713 -1.26561,0 -0.2983,0.28711 0,0.81206 0,1.2181 0,3.2483 0.42187,-0.40604 -1.26561,1.21811 -0.59661,0.57423 0.59662,1.862 0,2.43623 -0.59661,0.57422 -1.9346,-0.57423 -2.53121,0 -0.59662,0.57422 0.59661,1.862 0,2.43621 -0.29831,0.28713 -0.9673,-0.28711 -1.26561,0 -0.59662,0.57424 0.59661,1.86201 0,2.43623 -0.2983,0.28711 -0.96731,-0.28711 -1.26561,0 -0.59662,0.57422 0.59661,1.862 0,2.43623 -0.2983,0.2871 -0.96731,-0.28711 -1.26561,0 -0.29831,0.2871 0.2983,0.93099 0,1.21811 -0.29831,0.2871 -0.9673,-0.28712 -1.26561,0 -0.2983,0.2871 0.29831,0.93099 0,1.2181 -0.2983,0.28712 -0.9673,-0.28711 -1.26561,0 -1.24848,1.20164 2.59332,2.43623 -1.2656,2.43623 -3.85894,0 -0.0171,1.23458 -1.26561,2.43622 -0.29832,0.28711 -0.96731,-0.2871 -1.26561,0 -0.29831,0.28711 0.42187,1.21812 0,1.21812 -0.42187,0 -0.29831,-0.93101 0,-1.21812 0.2983,-0.2871 0.88827,0.18158 1.26561,0 0.53362,-0.2568 0.84373,-0.81208 1.26561,-1.21812 4.1975,-4.03995 -0.59661,1.14846 1.2656,-2.43621 2.63358,-5.06949 -0.0874,1.3022 2.53122,-1.21812 0.2983,-0.28711 -0.18866,-0.85493 0,-1.2181 0.26681,-0.51361 0.9988,-0.70452 1.26561,-1.21811 0.18866,-0.36317 -0.2983,-0.931 0,-1.21813 0.2983,-0.2871 0.96731,0.28713 1.26561,0 0.29831,-0.2871 -0.2983,-0.93099 0,-1.2181 2.61858,-2.52031 -0.10237,3.85138 2.53121,-1.21811 0.18867,-0.36317 -0.2983,-0.93099 0,-1.21812 0.29832,-0.28711 0.96731,0.28713 1.26561,0 0.42359,-0.40767 -0.42358,-2.02853 0,-2.43621 0.29832,-0.28711 0.96731,0.28711 1.26561,0 0.29831,-0.28711 -0.2983,-0.931 0,-1.21812 0.29831,-0.28711 0.96731,0.28712 1.26561,0 0.59661,-0.57422 -0.59661,-1.86199 0,-2.43622 0.29831,-0.2871 0.96731,0.28712 1.26561,0 0.59661,-0.57422 -0.59662,-1.862 0,-2.43622 0.29831,-0.28711 0.9673,0.28711 1.26561,0 0.59661,-0.57422 -0.59661,-1.862 0,-2.43621 0.2983,-0.28713 0.9673,0.2871 1.26561,0 0.29831,-0.28713 -0.29831,-0.93102 0,-1.21812 0.29831,-0.28711 0.9673,0.2871 1.26561,0 0.29831,-0.28711 -0.42187,-1.21812 0,-1.21812 0.42187,0 0,0.81208 0,1.21812 0,2.85669 0.29831,-0.57423 -1.26561,2.43622 -0.3755,0.72281 0.3755,2.93153 0,3.65433 -0.26682,0.51361 -0.99879,0.70451 -1.26561,1.21811 -0.37733,0.72635 0.59661,1.862 0,2.43623 -0.29831,0.28711 -0.9673,-0.28711 -1.26561,0 -0.30454,0.29312 0.30454,4.57932 0,4.87244 -0.2983,0.28711 -0.9673,0.28711 -1.26561,0 -0.2983,-0.28711 -0.2983,-0.931 0,-1.21811 0.29831,-0.28711 1.07695,0.36318 1.26561,0 0.37733,-0.72634 -0.37733,-1.70988 0,-2.43622 1.68748,-3.2483 1.26561,3.65433 1.26561,-1.21811 0,-3.71412 1.28272,-0.0165 2.53122,-1.21812 0.23832,-0.22938 -0.23832,-3.42495 0,-3.65432 0.29831,-0.28713 0.96729,0.28711 1.26561,0 0.59661,-0.57423 -0.59661,-1.86201 0,-2.43623 0.2983,-0.28711 0.9673,0.28711 1.26561,0 0.2983,-0.28711 0,-0.81208 0,-1.2181 0.42186,0 0.9673,0.2871 1.2656,0 0.23833,-0.2294 -0.23832,-3.42496 0,-3.65434 0.29831,-0.28712 0.9673,0.28711 1.26562,0 0.29829,-0.28712 0,-0.81208 0,-1.21812 0,-0.40604 0,-0.81207 0,-1.21811 0,-0.40604 0.25311,-0.89328 0,-1.2181 -1.07392,-1.37815 -2.53122,-2.43623 -3.79683,-3.65434 z"
       id="path17934-3"
       inkscape:connector-curvature="0" />
    <path
       style="fill:#000000;fill-rule:evenodd;stroke:#000000;stroke-width:0.86914301px;stroke-linecap:butt;stroke-linejoin:miter;stroke-opacity:1"
       d="m 297.29669,828.33117 c 5.96613,-0.34832 -1.49154,4.655 0,6.09056 0.2983,0.28712 0.9673,-0.28711 1.2656,0 0.59661,0.57423 -0.59661,1.862 0,2.43622 0.29832,0.28711 0.9673,-0.28711 1.26562,0 0.59661,0.57423 -0.59661,1.862 0,2.43623 0.2983,0.2871 0.96729,-0.28711 1.26561,0 0.59661,0.57422 -0.59661,1.862 0,2.43622 0.2983,0.28712 0.9673,-0.28711 1.2656,0 0.29831,0.28712 -0.2983,0.931 0,1.21811 0.29831,0.28711 0.9673,-0.28711 1.26561,0 0.2983,0.28711 -0.29831,0.931 0,1.21811 0.2983,0.28711 0.9673,-0.28711 1.26562,0 0.29829,0.28711 -0.29832,0.93101 0,1.21811 0.29829,0.28712 0.96729,-0.2871 1.2656,0 0.2983,0.28712 -0.29831,0.931 0,1.21812 0.59661,0.57422 1.93461,-0.57423 2.53122,0 0,3.24829 -0.42187,-0.40604 1.2656,1.2181 0.29831,0.28711 -0.2983,0.93101 0,1.21812 0.59662,0.57422 1.93461,-0.57423 2.53122,0 0.2983,0.28711 -0.2983,0.931 0,1.21811 0.2983,0.28711 0.96731,-0.28711 1.26561,0 0.29831,0.28711 -0.2983,0.93099 0,1.2181 0.59661,0.57423 1.9346,-0.57421 2.53122,0 0.29831,0.28712 -0.29831,0.93102 0,1.21812 0.59661,0.57423 1.9346,-0.57423 2.53121,0 0.29832,0.28711 -0.2983,0.931 0,1.21811 0.29832,0.28711 0.96731,-0.28711 1.26561,0 0.29831,0.28711 -0.2983,0.931 0,1.21811 0.29831,0.28711 0.96731,-0.28711 1.26561,0 0.29831,0.28711 -0.2983,0.93101 0,1.21812 0.29831,0.28711 0.96731,-0.28711 1.26561,0 0.29831,0.28711 -0.2983,0.93099 0,1.21811 0.29831,0.28711 0.9673,-0.28712 1.26561,0 0.2983,0.28711 -0.29831,0.93099 0,1.2181 0.2983,0.28712 1.26562,-0.40603 1.26562,0 0,0.40604 -0.84375,0 -1.26562,0 -0.56997,0 -3.41165,0.18536 -3.79683,0 -0.53363,-0.25679 -0.73197,-0.9613 -1.26561,-1.2181 -0.75466,-0.36318 -1.9346,0.57421 -2.53121,0 -0.29831,-0.28712 0.29831,-0.931 0,-1.21811 -0.59662,-0.57424 -1.93461,0.57422 -2.53122,0 -0.2983,-0.28711 0.29831,-0.93101 0,-1.21812 -0.2983,-0.28711 -0.96731,0.28711 -1.26561,0 -0.2983,-0.28711 0.2983,-0.931 0,-1.21811 -0.59661,-0.57422 -1.9346,0.57422 -2.53122,0 -0.2983,-0.28711 0.29831,-0.931 0,-1.21811 -0.2983,-0.2871 -0.9673,0.28711 -1.2656,0 -0.29832,-0.2871 0.2983,-0.931 0,-1.21812 -0.29832,-0.28711 -0.96731,0.28712 -1.26561,0 -0.59662,-0.57421 0.59661,-1.86199 0,-2.43621 -0.29831,-0.28711 -0.96731,0.28711 -1.26561,0 -0.29831,-0.28711 0.2983,-0.93101 0,-1.21812 -0.29831,-0.28711 -0.96731,0.28711 -1.2656,0 -0.29832,-0.28711 0.29829,-0.931 0,-1.2181 -0.29832,-0.28712 -0.96732,0.2871 -1.26562,0 -0.29831,-0.28712 0.2983,-0.931 0,-1.21812 -0.29831,-0.2871 -0.9673,0.28712 -1.26561,0 -0.2983,-0.2871 0.18867,-0.85494 0,-1.21811 -0.26682,-0.5136 -0.99879,-0.70451 -1.2656,-1.21811 -0.87287,-1.68021 1.53271,-1.08957 -1.26561,-2.43622 -0.37734,-0.18159 -0.9673,0.28711 -1.26562,0 -0.59661,-0.57423 0.59661,-1.862 0,-2.43622 -0.2983,-0.28711 -0.9673,0.28711 -1.2656,0 -0.23833,-0.22939 0.23832,-3.42496 0,-3.65434 -1.12499,-1.08276 -1.8281,1.48881 -1.26561,-1.21811 0.34112,-1.64162 -0.42187,-5.27849 1.26561,-4.87245 1.68748,0.40604 -0.92449,3.23083 -1.26561,4.87245 -0.16547,0.79631 0,1.62415 0,2.43622 0,0.40604 -0.29831,0.931 0,1.21811 0.2983,0.28711 0.9673,-0.28711 1.26561,0 0.2983,0.28711 -0.29831,0.93101 0,1.21812 0.2983,0.28711 0.9673,-0.28711 1.2656,0 0.59661,0.57422 -0.37733,1.70988 0,2.43622 0.26682,0.5136 0.9988,0.70451 1.26562,1.21811 0.37733,0.72634 -0.59661,1.862 0,2.43622 0.2983,0.28711 0.96729,-0.28711 1.26561,0 0.23831,0.22939 -0.23833,3.42495 0,3.65433 0.2983,0.28711 0.9673,-0.28711 1.2656,0 0.59661,0.57422 -0.59661,1.86201 0,2.43623 0.29831,0.28711 0.9673,-0.28711 1.26561,0 0.59662,0.57422 -0.59661,1.86199 0,2.43622 0.2983,0.28711 0.9673,-0.2871 1.26562,0 0.59661,0.57423 -0.59662,1.862 0,2.43622 0.29829,0.28711 0.96729,-0.28711 1.2656,0 0.2983,0.28711 -0.29831,0.93101 0,1.21812 0.2983,0.28711 0.9673,-0.28711 1.26561,0 0.2983,0.28711 -0.29831,0.93099 0,1.21811 0.2983,0.28711 0.96729,-0.28712 1.26561,0 0.2983,0.28711 -0.29832,0.93099 0,1.2181 0.2983,0.28712 0.9673,-0.28711 1.2656,0 0.29831,0.28712 -0.2983,0.931 0,1.21812 0.59662,0.57423 1.93461,-0.57423 2.53122,0 0.59662,0.57423 -0.59661,1.862 0,2.43621 0.2983,0.28712 0.96731,-0.2871 1.26561,0 0.29831,0.28712 -0.2983,0.93101 0,1.21813 0.29831,0.2871 0.96731,-0.28712 1.26561,0 0.29831,0.2871 0.29831,0.93099 0,1.21811 -0.2983,0.2871 -0.84374,0 -1.26561,0 -0.42186,0 -0.88828,0.18158 -1.26561,0 -0.53362,-0.25681 -0.73198,-0.96131 -1.26561,-1.21811 -0.37733,-0.18159 -0.9673,0.2871 -1.26561,0 -0.2983,-0.28712 0.29831,-0.93101 0,-1.21813 -0.2983,-0.2871 -0.88827,0.1816 -1.2656,0 -0.53363,-0.25678 -0.73198,-0.9613 -1.26561,-1.2181 -0.37734,-0.18159 -0.96731,0.28711 -1.26561,0 -0.29831,-0.28711 0.2983,-0.931 0,-1.21811 -0.29831,-0.28712 -0.96731,0.28711 -1.2656,0 -0.59662,-0.57423 0.59661,-1.86201 0,-2.43622 -0.59662,-0.57423 -1.93462,0.57421 -2.53123,0 0,-3.2483 0.42187,0.40604 -1.2656,-1.21811 -0.59661,-0.57424 0.59661,-1.86201 0,-2.43623 -0.29832,-0.28711 -0.96731,0.28711 -1.26561,0 -0.29832,-0.28711 0.2983,-0.931 0,-1.21811 -0.29832,-0.2871 -0.9673,0.28711 -1.26562,0 -0.2983,-0.2871 0.29832,-0.931 0,-1.21812 -0.2983,-0.28711 -0.9673,0.28712 -1.2656,0 -0.59661,-0.57421 0.59661,-1.86199 0,-2.43621 -0.29831,-0.28711 -0.96731,0.28711 -1.26561,0 -0.25874,-0.24902 0.2509,-3.17137 0,-3.65434 -0.26681,-0.51359 -0.9988,-0.70451 -1.26562,-1.21811 -0.18865,-0.36316 0.18868,-0.85494 0,-1.21811 -0.2668,-0.51361 -0.99879,-0.70451 -1.2656,-1.21811 -0.16639,-0.32029 0,-4.23547 0,-4.87245 0,-0.40603 -0.42187,-1.21811 0,-1.21811 0.84374,0 -0.37732,1.70988 0,2.43623 0.26681,0.51359 0.9988,0.7045 1.2656,1.21811 0.18868,0.36317 -0.18865,0.85494 0,1.21811 0.26682,0.5136 0.99881,0.70451 1.26562,1.21811 0.18866,0.36317 0,0.81207 0,1.21811 0.42187,0.40604 0.99879,0.70451 1.26561,1.21811 0.18867,0.36317 0,0.81207 0,1.21811 0,0.40603 0,0.81208 0,1.21812 0,2.03018 0,4.06037 0,6.09055 0,1.21811 0,2.43622 0,3.65434 0,0.40603 0.42187,1.21811 0,1.21811 -0.42187,0 0,-0.81208 0,-1.21811 0,-2.8567 0.2983,0.57422 -1.26561,-2.43623 -0.18867,-0.36317 0.18866,-0.85494 0,-1.21811 -0.26681,-0.5136 -0.9988,-0.70451 -1.26562,-1.21812 -0.18865,-0.36317 0,-0.81206 0,-1.2181 -0.42186,-0.40604 -0.99879,-0.70451 -1.2656,-1.21811 -0.19258,-0.37071 0,-3.10576 0,-3.65434 0,-3.2483 0,-6.49659 0,-9.74489 0,-0.40604 0,-0.81207 0,-1.21811 0,-0.40604 -0.2983,-0.931 0,-1.21811 0.29831,-0.28712 0.84374,0 1.2656,0"
       id="path17936-1"
       inkscape:connector-curvature="0" />
    <path
       style="fill:#000000;fill-rule:evenodd;stroke:#000000;stroke-width:0.86914301px;stroke-linecap:butt;stroke-linejoin:miter;stroke-opacity:1"
       d="m 203.64164,747.93584 c 1.68747,0 3.42534,-0.39392 5.06244,0 0.40926,0.0985 -0.29832,0.93099 0,1.2181 0.23831,0.22939 3.55849,-0.22938 3.79682,0 0.2983,0.28712 -0.29831,0.93101 0,1.21811 0.59662,0.57423 1.9346,-0.57422 2.53121,0 0.29832,0.28711 -0.29829,0.93101 0,1.21812 0.23834,0.22938 3.55851,-0.22939 3.79683,0 0.29832,0.28711 -0.2983,0.931 0,1.21811 0.30455,0.29311 4.7579,-0.29311 5.06243,0 0.29831,0.28711 -0.2983,0.931 0,1.21811 0.29831,0.2871 0.96731,-0.28711 1.26562,0 0.2983,0.2871 -0.29831,0.931 0,1.21812 0.23832,0.22937 3.5585,-0.22939 3.79683,0 0.2983,0.28711 -0.29832,0.93099 0,1.2181 0.2983,0.28711 0.96729,-0.28711 1.2656,0 0.29831,0.28711 -0.29831,0.931 0,1.21811 0.59662,0.57422 1.93461,-0.57422 2.53122,0 0.2983,0.28711 -0.29831,0.931 0,1.21812 0.2983,0.28711 0.9673,-0.28712 1.26561,0 0.2983,0.28711 -0.29831,0.931 0,1.2181 0.59661,0.57423 1.9346,-0.57422 2.53122,0 0.2983,0.28712 -0.29832,0.931 0,1.21812 0.59661,0.57422 1.9346,-0.57423 2.53121,0 0.29831,0.2871 -0.2983,0.93099 0,1.21811 0.29831,0.28711 0.96731,-0.28712 1.26561,0 0.29831,0.28711 -0.2983,0.931 0,1.21811 0.29831,0.28711 0.84374,0 1.2656,0 2.10936,0 4.21871,0 6.32805,0 2.95309,0 5.90618,0 8.85927,0 0.42186,0 0.9673,0.28711 1.2656,0 0.29831,-0.28711 -0.2983,-0.931 0,-1.21811 0.29831,-0.28712 0.84374,0 1.26561,0 1.68748,0 3.37496,0 5.06244,0 0.42186,0 0.9673,0.28711 1.2656,0 0.29832,-0.28712 -0.2983,-0.93101 0,-1.21811 0.30455,-0.29312 4.75789,0.2931 5.06244,0 0.29831,-0.28712 -0.2983,-0.931 0,-1.21812 0.29831,-0.2871 0.88828,0.18158 1.26561,0 0.53363,-0.25679 0.73198,-0.96131 1.26561,-1.2181 0.75466,-0.36317 1.93461,0.57422 2.53122,0 0.2983,-0.28712 -0.29831,-0.93101 0,-1.21812 0.23833,-0.22937 3.55849,0.22938 3.79683,0 0.29829,-0.28711 -0.29832,-0.931 0,-1.21811 0.23832,-0.22938 3.55849,0.22938 3.79682,0 0.29831,-0.28711 -0.29831,-0.93099 0,-1.2181 0.424,-0.4081 2.10722,0.40808 2.53121,0 0.29831,-0.28712 -0.2983,-0.93102 0,-1.21812 0.25874,-0.24903 3.29503,0.24149 3.79683,0 0.53363,-0.2568 0.73199,-0.96131 1.26561,-1.21811 0.37734,-0.18158 0.84374,0 1.26561,0 0.42187,0 1.26561,-0.40604 1.26561,0 0,0.40604 -1.26561,0.40604 -1.26561,0 0,-2.31877 3.15565,-0.60099 3.79683,-1.21811 1.68748,-1.62415 -2.10935,-1.21812 1.26561,-1.21812 0.42187,0 1.68748,0 1.2656,0 -0.75944,0 -2.78414,0 -3.79683,0 -0.42186,0 -0.96729,-0.2871 -1.2656,0 -0.2983,0.28711 0.29831,0.93101 0,1.21812 -0.23832,0.22938 -3.5585,-0.22939 -3.79683,0 -0.2983,0.28711 0.29832,0.931 0,1.21811 -0.23832,0.22938 -3.55849,-0.22939 -3.79683,0 -0.2983,0.28711 0.29831,0.931 0,1.21811 -0.59661,0.57422 -1.93459,-0.57423 -2.53121,0 -0.29831,0.2871 0.29831,0.931 0,1.21812 -0.23833,0.22937 -3.5585,-0.22939 -3.79682,0 -0.29832,0.28711 0.29829,0.93099 0,1.2181 -0.29832,0.28711 -0.84374,0 -1.26561,0 -0.42187,0 -0.84375,0 -1.26561,0 -0.42188,0 -0.84375,0 -1.26561,0 -0.42188,0 -0.88828,-0.18158 -1.26562,0 -0.53362,0.2568 -0.73197,0.96131 -1.2656,1.21811 -0.68657,0.33041 -4.71614,-0.3333 -5.06244,0 -0.2983,0.28711 0.29831,0.931 0,1.21812 -0.59661,0.57422 -1.9346,-0.57423 -2.53122,0 -0.2983,0.28711 0.29832,0.931 0,1.2181 -0.2983,0.28712 -0.84374,0 -1.2656,0 -1.68748,0 -3.37496,0 -5.06244,0 -0.42187,0 -0.9673,-0.2871 -1.26561,0 -1.68748,1.62416 2.10936,1.21812 -1.2656,1.21812 -2.53122,0 -5.06243,0 -7.59366,0 -0.42187,0 -0.9673,-0.28712 -1.26561,0 -0.29831,0.2871 0.29831,0.93099 0,1.21811 -0.0407,0.0391 -3.48989,0 -3.79682,0 -3.79683,0 -7.59365,0 -11.39048,0 -0.42188,0 -0.84374,0 -1.26561,0 -0.42188,0 -0.9673,0.28711 -1.26561,0 -0.29831,-0.28712 0.29831,-0.93101 0,-1.21811 -0.59661,-0.57423 -1.93461,0.57422 -2.53121,0 -0.59662,-0.57423 0.5966,-1.862 0,-2.43622 -0.59662,-0.57423 -1.93461,0.57422 -2.53122,0 -0.29831,-0.28712 0.2983,-0.93101 0,-1.21812 -0.59661,-0.57422 -1.93461,0.57422 -2.53123,0 -0.29829,-0.28711 0.29832,-0.931 0,-1.21811 -0.59661,-0.57422 -1.93459,0.57423 -2.53121,0 -0.29831,-0.28711 0.29831,-0.93099 0,-1.2181 -0.29831,-0.28712 -0.96729,0.28711 -1.26561,0 -0.2983,-0.28712 0.29832,-0.93102 0,-1.21812 -0.59662,-0.57423 -1.9346,0.57422 -2.53121,0 -0.29831,-0.28711 0.2983,-0.931 0,-1.21811 -0.59662,-0.57422 -1.93461,0.57422 -2.53123,0 -0.59661,-0.57422 0.59662,-1.862 0,-2.43623 -0.23832,-0.22937 -3.55849,0.22939 -3.79682,0 -0.29831,-0.2871 0.29831,-0.93099 0,-1.21811 -0.29831,-0.28711 -0.85194,0.0797 -1.2656,0 -1.70565,-0.32832 -3.46367,-0.55863 -5.06244,-1.2181 -1.39809,-0.5767 -2.43633,-1.78152 -3.79683,-2.43623 -0.38517,-0.18535 -3.22685,0 -3.79683,0"
       id="path17938-2"
       inkscape:connector-curvature="0" />
    <path
       style="fill:#000000;fill-rule:evenodd;stroke:#000000;stroke-width:1.09290004px;stroke-linecap:butt;stroke-linejoin:miter;stroke-opacity:1"
       d="m 264.50952,790.06134 c 2.01618,0.53735 4.03234,1.0747 6.04849,1.61205 0,0.53735 -0.35641,1.23209 0,1.61206 0.71282,0.75992 2.31141,-0.75994 3.02423,0 0.35642,0.37996 -0.3564,1.23207 0,1.61204 0.71283,0.75994 2.31142,-0.75992 3.02424,0 0.35641,0.37998 -0.3564,1.23209 0,1.61205 0.0609,0.0649 5.49317,0 6.04848,0 0.50404,0 2.01616,0 1.51212,0 -1.00808,0 -4.03231,0 -3.02424,0 1.51212,0 3.02424,0 4.53636,0 0.50403,0 1.00807,0 1.51211,0 0.50404,0 1.15572,0.37997 1.51213,0 0.3564,-0.37996 -0.35641,-1.23207 0,-1.61205 0.3564,-0.37997 1.15571,0.37998 1.51211,0 0.3564,-0.37997 -0.3564,-1.23208 0,-1.61204 0.3564,-0.37997 1.15571,0.37996 1.51211,0 0.35643,-0.37997 -0.3564,-1.23209 0,-1.61206 0.35643,-0.37996 1.15572,0.37997 1.51213,0 0.35641,-0.37996 -0.35641,-1.2321 0,-1.61205 0.35641,-0.37996 1.1557,0.37995 1.51211,0 0.35642,-0.37996 -0.35641,-1.23209 0,-1.61207 0.71283,-0.75991 2.31143,0.75995 3.02424,0 0.35642,-0.37995 -0.3564,-1.23207 0,-1.61204 4.03233,0 -0.50404,0.53735 1.51213,-1.61205 0.3564,-0.37997 1.1557,0.37996 1.51211,0 0.3564,-0.37997 -0.35641,-1.23208 0,-1.61205 0.71282,-0.75993 2.31142,0.75993 3.02424,0 0.3564,-0.37997 -0.35641,-1.23208 0,-1.61205 0.3564,-0.37997 1.1557,0.37997 1.51212,0 0.35641,-0.37997 -0.35642,-1.23209 0,-1.61204 0.71282,-0.75995 2.31141,0.75991 3.02422,0 0.35643,-0.37998 -0.35639,-1.2321 0,-1.61206 0.35643,-0.37996 1.15573,0.37996 1.51213,0 0.35641,-0.37996 -0.3564,-1.23209 0,-1.61205 0.71281,-0.75993 2.31142,0.75993 3.02425,0 0.3564,-0.37997 -0.35642,-1.2321 0,-1.61206 0.3564,-0.37995 1.15569,0.37996 1.51211,0 0.3564,-0.37995 -0.35642,-1.23209 0,-1.61206 0.3564,-0.37996 1.1557,0.37997 1.51212,0 0.35641,-0.37996 -0.35642,-1.23208 0,-1.61204 0.71282,-0.75993 2.31141,0.75993 3.02423,0 0.35641,-0.37997 -0.3564,-1.23208 0,-1.61206 0.71282,-0.75993 2.31142,0.75993 3.02424,0 0.3564,-0.37996 -0.35641,-1.23209 0,-1.61204 4.03231,0 -0.50403,0.53735 1.51212,-1.61206 0.71282,-0.75993 2.31142,0.75993 3.02423,0 0.35642,-0.37996 -0.3564,-1.23209 0,-1.61205 0.71282,-0.75993 2.31143,0.75993 3.02425,0 0.3564,-0.37996 -0.35642,-1.23209 0,-1.61206 0.71281,-0.75991 2.31141,0.75995 3.02424,0 0.35639,-0.37995 -0.35643,-1.23207 0,-1.61204 0.35639,-0.37997 1.1557,0.37997 1.51211,0 0.35641,-0.37997 -0.35641,-1.23209 0,-1.61205 0.71282,-0.75992 2.31141,0.75992 3.02423,0 0.35642,-0.37997 -0.3564,-1.23209 0,-1.61206 0.21351,-0.22761 5.37079,0.88958 3.02424,-1.61205 -0.1512,-0.16121 -4.38513,-0.16121 -4.53635,0 -0.35642,0.37995 0.35641,1.23209 0,1.61205 -0.28475,0.30356 -4.25161,-0.30355 -4.53635,0 -0.35642,0.37997 0.3564,1.23209 0,1.61206 -0.71282,0.75992 -2.31143,-0.75992 -3.02426,0 -0.35639,0.37996 0.35643,1.23208 0,1.61205 -0.50656,0.54007 -2.51764,-0.54006 -3.02423,0 -0.3564,0.37997 0.35643,1.23209 0,1.61204 -0.28473,0.30358 -4.2516,-0.30355 -4.53634,0 -0.35641,0.37997 0.35639,1.2321 0,1.61206 -0.71282,0.75993 -2.31142,-0.75993 -3.02425,0 -0.3564,0.37996 0,1.07471 0,1.61205 -0.50404,0 -1.1557,-0.37996 -1.51211,0 -0.35642,0.37997 0.35641,1.23209 0,1.61206 -0.28475,0.30356 -4.25161,-0.30357 -4.53635,0 -0.35642,0.37995 0.3564,1.23208 0,1.61204 -0.71282,0.75993 -2.31143,-0.75993 -3.02426,0 -0.35639,0.37998 0.35643,1.23209 0,1.61206 -0.35639,0.37996 -1.15569,-0.37997 -1.51211,0 -0.35639,0.37996 0.35642,1.23208 0,1.61204 -0.71282,0.75994 -2.3114,-0.75991 -3.02423,0 -0.35641,0.37997 0.3564,1.23211 0,1.61206 -0.28474,0.30357 -4.25162,-0.30357 -4.53635,0 -0.35642,0.37996 0.3564,1.23209 0,1.61206 -0.71283,0.75993 -2.31143,-0.75993 -3.02425,0 -0.35641,0.37996 0.35641,1.23209 0,1.61205 -0.35641,0.37996 -1.1557,-0.37996 -1.51212,0 -0.35641,0.37996 0.35642,1.23208 0,1.61206 -0.28473,0.30354 -4.25161,-0.30359 -4.53635,0 -2.01615,2.14939 2.5202,1.61204 -1.51211,1.61204 -0.50404,0 -1.00809,0 -1.51213,0 -0.50404,0 -1.15571,-0.37997 -1.51211,0 -0.35641,0.37997 0.3564,1.23208 0,1.61205 -0.71282,0.75993 -2.31142,-0.75993 -3.02424,0 -2.01616,2.14941 2.5202,1.61205 -1.51212,1.61205 -1.00807,0 -2.01615,0 -3.02424,0 -4.03232,0 0.50405,-0.53735 -1.51212,1.61205 -0.71282,0.75993 -2.31141,-0.75993 -3.02424,0 -0.3564,0.37997 0.35642,1.23209 0,1.61204 -0.14585,0.15551 -2.41241,-0.13043 -3.02423,0 -2.03785,0.43453 -5.54444,3.76147 -6.04849,1.61207 -0.50403,-2.14941 4.03234,-1.07471 0,0 z"
       id="path17940-2"
       inkscape:connector-curvature="0" />
    <path
       style="fill:#000000;fill-rule:evenodd;stroke:#000000;stroke-width:1.09290004px;stroke-linecap:butt;stroke-linejoin:miter;stroke-opacity:1"
       d="m 240.98196,791.26067 c -2.01617,0.53736 -4.03233,1.07471 -6.04848,1.61205 0,0.53736 0.35641,1.23209 0,1.61206 -0.71282,0.75992 -2.31142,-0.75994 -3.02423,0 -0.35642,0.37996 0.3564,1.23208 0,1.61205 -0.71283,0.75992 -2.31143,-0.75992 -3.02424,0 -0.35641,0.37996 0.3564,1.23208 0,1.61205 -0.0609,0.0649 -5.49317,0 -6.04848,0 -0.50404,0 -2.01616,0 -1.51212,0 1.00808,0 4.03231,0 3.02424,0 -1.51212,0 -3.02424,0 -4.53636,0 -0.50404,0 -1.00807,0 -1.51211,0 -0.50404,0 -1.15572,0.37997 -1.51213,0 -0.3564,-0.37997 0.35641,-1.23209 0,-1.61205 -0.3564,-0.37997 -1.15571,0.37996 -1.51211,0 -0.35641,-0.37997 0.3564,-1.23209 0,-1.61205 -0.35641,-0.37997 -1.15571,0.37996 -1.51212,0 -0.35642,-0.37997 0.35641,-1.2321 0,-1.61206 -0.35642,-0.37996 -1.15571,0.37996 -1.51212,0 -0.35641,-0.37996 0.35641,-1.23209 0,-1.61205 -0.35641,-0.37997 -1.1557,0.37996 -1.51212,0 -0.35641,-0.37997 0.35642,-1.23209 0,-1.61206 -0.71282,-0.75992 -2.31142,0.75994 -3.02423,0 -0.35642,-0.37995 0.3564,-1.23207 0,-1.61205 -4.03233,0 0.50403,0.53735 -1.51213,-1.61204 -0.3564,-0.37997 -1.1557,0.37996 -1.51211,0 -0.35641,-0.37997 0.35641,-1.23208 0,-1.61206 -0.71282,-0.75992 -2.31143,0.75994 -3.02424,0 -0.35641,-0.37996 0.35641,-1.23207 0,-1.61204 -0.35641,-0.37997 -1.1557,0.37997 -1.51212,0 -0.35641,-0.37997 0.35642,-1.23209 0,-1.61205 -0.71282,-0.75994 -2.31141,0.75991 -3.02423,0 -0.35642,-0.37997 0.3564,-1.2321 0,-1.61206 -0.35642,-0.37996 -1.15572,0.37996 -1.51212,0 -0.35641,-0.37996 0.3564,-1.2321 0,-1.61206 -0.71282,-0.75991 -2.31142,0.75994 -3.02425,0 -0.3564,-0.37996 0.35642,-1.23208 0,-1.61205 -0.3564,-0.37996 -1.15569,0.37997 -1.51211,0 -0.35641,-0.37996 0.35642,-1.23209 0,-1.61205 -0.35641,-0.37997 -1.15571,0.37996 -1.51212,0 -0.35641,-0.37997 0.35641,-1.23208 0,-1.61204 -0.71282,-0.75993 -2.31141,0.75993 -3.02423,0 -0.35641,-0.37998 0.3564,-1.23209 0,-1.61206 -0.71282,-0.75993 -2.31142,0.75993 -3.02425,0 -0.35639,-0.37996 0.35642,-1.23209 0,-1.61205 -4.0323,0 0.50404,0.53735 -1.51211,-1.61205 -0.71282,-0.75993 -2.31142,0.75992 -3.02423,0 -0.35642,-0.37996 0.3564,-1.23209 0,-1.61206 -0.71283,-0.75992 -2.31143,0.75994 -3.02425,0 -0.3564,-0.37995 0.35641,-1.23208 0,-1.61205 -0.71282,-0.75992 -2.31141,0.75993 -3.02424,0 -0.35639,-0.37995 0.35642,-1.23208 0,-1.61206 -0.35639,-0.37996 -1.1557,0.37998 -1.51211,0 -0.35642,-0.37996 0.35641,-1.23208 0,-1.61204 -0.71282,-0.75993 -2.31142,0.75993 -3.02423,0 -0.35642,-0.37997 0.3564,-1.23209 0,-1.61206 -0.21351,-0.22761 -5.3708,0.88959 -3.02424,-1.61204 0.1512,-0.16121 4.38513,-0.16121 4.53635,0 0.35641,0.37995 -0.35641,1.23208 0,1.61204 0.28475,0.30357 4.25161,-0.30354 4.53635,0 0.35642,0.37997 -0.3564,1.23209 0,1.61206 0.71282,0.75993 2.31143,-0.75993 3.02425,0 0.3564,0.37996 -0.35642,1.23208 0,1.61204 0.50657,0.54008 2.51765,-0.54006 3.02423,0 0.35641,0.37998 -0.35642,1.23211 0,1.61206 0.28474,0.30357 4.2516,-0.30356 4.53635,0 0.35641,0.37997 -0.3564,1.2321 0,1.61205 0.71282,0.75994 2.31142,-0.75992 3.02425,0 0.3564,0.37997 0,1.0747 0,1.61206 0.50403,0 1.1557,-0.37996 1.51211,0 0.35641,0.37996 -0.35641,1.23208 0,1.61205 0.28475,0.30356 4.25161,-0.30357 4.53635,0 0.35642,0.37996 -0.3564,1.23209 0,1.61205 0.71282,0.75993 2.31143,-0.75993 3.02425,0 0.3564,0.37997 -0.35642,1.23208 0,1.61206 0.3564,0.37996 1.1557,-0.37998 1.51212,0 0.35639,0.37996 -0.35642,1.23207 0,1.61204 0.71281,0.75993 2.3114,-0.75992 3.02423,0 0.35641,0.37996 -0.35641,1.23209 0,1.61205 0.28474,0.30357 4.25162,-0.30356 4.53635,0 0.35641,0.37997 -0.3564,1.23209 0,1.61205 0.71283,0.75994 2.31142,-0.75991 3.02425,0 0.3564,0.37996 -0.35641,1.2321 0,1.61206 0.3564,0.37996 1.1557,-0.37996 1.51211,0 0.35642,0.37996 -0.35641,1.23209 0,1.61206 0.28474,0.30355 4.25161,-0.30358 4.53636,0 2.01615,2.14939 -2.5202,1.61205 1.51211,1.61205 0.50404,0 1.00809,0 1.51213,0 0.50404,0 1.15571,-0.37997 1.51211,0 0.35641,0.37997 -0.3564,1.23208 0,1.61204 0.71282,0.75994 2.31142,-0.75992 3.02424,0 2.01615,2.1494 -2.5202,1.61206 1.51212,1.61206 1.00807,0 2.01615,0 3.02423,0 4.03233,0 -0.50404,-0.53736 1.51213,1.61204 0.71281,0.75994 2.31141,-0.75992 3.02424,0 0.3564,0.37998 -0.35642,1.2321 0,1.61205 0.14584,0.15551 2.41241,-0.13044 3.02423,0 2.03785,0.43452 5.54444,3.76147 6.04848,1.61206 0.50404,-2.1494 -4.03233,-1.0747 0,0 z"
       id="path17940-4-3"
       inkscape:connector-curvature="0" />
    <path
       style="fill:#000000;stroke:#000000;stroke-width:0;stroke-miterlimit:4;stroke-dasharray:none;stroke-opacity:1"
       id="path17957-5"
       sodipodi:type="arc"
       sodipodi:cx="258.06305"
       sodipodi:cy="950.75134"
       sodipodi:rx="60.749401"
       sodipodi:ry="32.279907"
       sodipodi:start="6.2820557"
       sodipodi:end="4.5674748"
       sodipodi:open="true"
       d="m 318.81241,950.71488 a 60.749401,32.279907 0 0 1 -57.77032,32.27753 60.749401,32.279907 0 0 1 -63.44295,-29.11527 60.749401,32.279907 0 0 1 51.69124,-35.06736" />
    <path
       style="fill:#ffffff;fill-rule:evenodd;stroke:#000000;stroke-width:0.86914301px;stroke-linecap:butt;stroke-linejoin:miter;stroke-opacity:1"
       d="m 207.43847,950.14231 c 2.95308,0 5.90617,0 8.85926,0 1.24752,0 3.77874,0 2.53121,0 -0.84374,0 -3.37496,0 -2.53121,0 1.2656,0 2.53121,0 3.79682,0 0.42187,0 0.9673,0.2871 1.2656,0 0.29832,-0.28712 -0.2983,-0.93102 0,-1.21812 0.29832,-0.28711 0.96732,0.2871 1.26561,0 0.4268,-0.41077 -0.42678,-2.02545 0,-2.43622 0.29832,-0.28711 0.96731,0.28711 1.26561,0 0.29831,-0.28711 -0.2983,-0.93101 0,-1.21812 1.68749,-1.62414 1.26562,2.03019 1.26562,-1.21811 0,-3.64379 -1.26562,1.20758 -1.26562,-2.43622 0,-0.40603 0,-1.62414 0,-1.21811 0,0.81208 0,3.2483 0,2.43623 0,-1.21812 0,-2.43623 0,-3.65434 0,-0.40604 0.29831,-0.931 0,-1.21812 -0.2983,-0.2871 -0.96729,0.28712 -1.26561,0 -0.59661,-0.57422 0.59662,-1.86199 0,-2.43621 -0.29829,-0.28711 -1.26561,0.40603 -1.26561,0 0,-0.40604 1.26561,0.40603 1.26561,0 0,-0.57422 -0.99879,-0.70451 -1.26561,-1.21812 -0.25089,-0.48297 0.25874,-3.4053 0,-3.65434 -0.2983,-0.2871 -0.96729,-0.2871 -1.2656,0 -0.29831,0.28712 0.29831,0.93102 0,1.21813 -0.59661,0.57422 -1.93461,-0.57423 -2.53122,0 -0.2983,0.2871 0.29831,0.93099 0,1.21811 -0.2983,0.2871 -0.9673,-0.28712 -1.2656,0 -0.29831,0.2871 0.2983,0.93099 0,1.2181 -0.29831,0.28711 -0.9673,-0.28711 -1.26562,0 -0.29829,0.28711 0.29832,0.93101 0,1.21812 -0.59661,0.57422 -1.93459,-0.57422 -2.53121,0 -0.29831,0.28711 0.2983,0.93099 0,1.21811 -0.29831,0.28711 -0.96731,-0.28712 -1.26561,0 -0.29831,0.28711 0.2983,0.931 0,1.2181 -0.59661,0.57423 -1.9346,-0.57422 -2.53121,0 -0.59662,0.57423 0.59661,1.86201 0,2.43623 -0.29832,0.28711 -0.96732,-0.28711 -1.26561,0 -0.29832,0.28711 0.29829,0.931 0,1.21811 -0.29832,0.28711 -0.96731,-0.28711 -1.26562,0 -0.2983,0.28711 0.29831,0.931 0,1.21812 -0.2983,0.28711 -0.9673,-0.28712 -1.2656,0 -0.29831,0.28711 0,0.81207 0,1.2181 0,0.40604 -0.15669,0.84112 0,1.21811 0.70068,1.68598 0.96142,3.86519 2.53122,4.87246 1.40406,0.9009 3.37495,0 5.06243,0"
       id="path17959-6"
       inkscape:connector-curvature="0" />
    <path
       style="fill:#ffffff;fill-rule:evenodd;stroke:#000000;stroke-width:0.86914301px;stroke-linecap:butt;stroke-linejoin:miter;stroke-opacity:1"
       d="m 230.21942,933.08875 c 0,2.84225 0,5.68451 0,8.52677 0,0.40604 -0.29831,0.931 0,1.21812 0.29831,0.28711 0.9673,-0.28712 1.26561,0 0.2983,0.28711 -0.29831,0.93099 0,1.2181 0.2983,0.28712 0.84373,0 1.26561,0 2.10934,0 4.21869,0 6.32804,0 0.42187,0 0.96731,0.28712 1.26561,0 0.29831,-0.28711 -0.2983,-0.93099 0,-1.2181 0.29831,-0.28712 0.96731,0.28711 1.2656,0 0.29832,-0.28712 -0.29829,-0.93101 0,-1.21812 0.42359,-0.40768 2.10764,0.40769 2.53123,0 0.2983,-0.28711 -0.29831,-0.931 0,-1.21811 0.2983,-0.28711 0.9673,0.28711 1.2656,0 0.59661,-0.57422 -0.59661,-1.862 0,-2.43623 0.29832,-0.2871 0.96731,0.28712 1.26561,0 0.29832,-0.2871 0,-0.81207 0,-1.2181 0,-0.40604 0,-0.81208 0,-1.21811 0,-0.29543 0.0407,-3.61516 0,-3.65433 -0.2983,-0.28711 -0.96729,0.2871 -1.26561,0 -0.2983,-0.28711 0.29832,-0.93101 0,-1.21813 -0.2983,-0.2871 -0.9673,0.28712 -1.2656,0 -0.29831,-0.2871 0.2983,-0.93099 0,-1.2181 -0.29831,-0.28711 -1.26561,0.40603 -1.26561,0 0,-0.40604 1.68748,0 1.26561,0 -0.84373,0 -1.68747,0 -2.53123,0 -0.56996,0 -3.41165,-0.18536 -3.79682,0 -0.53362,0.25679 -0.73198,0.96131 -1.2656,1.2181 -0.37734,0.1816 -0.87392,-0.15079 -1.26561,0 -1.75173,0.6744 -3.37496,1.62416 -5.06244,2.43624 z"
       id="path17961-5"
       inkscape:connector-curvature="0" />
    <path
       style="fill:#ffffff;fill-rule:evenodd;stroke:#000000;stroke-width:0.86914301px;stroke-linecap:butt;stroke-linejoin:miter;stroke-opacity:1"
       d="m 254.26599,931.87064 c -1.2656,1.62414 -2.30529,3.43688 -3.79683,4.87244 -0.2983,0.28711 -0.9673,-0.28712 -1.26561,0 -0.5966,0.57422 0.59662,1.862 0,2.43622 -0.2983,0.28711 -0.9673,-0.28711 -1.26561,0 -0.12656,0.12181 -0.12656,3.53252 0,3.65434 0.29831,0.28711 0.84374,0 1.26561,0 2.53123,0 5.06244,0 7.59366,0 0.42186,0 0.84373,0 1.2656,0 0.42187,0 0.96731,-0.28712 1.26561,0 0.29831,0.28711 -0.2983,0.93099 0,1.2181 0.29831,0.28712 0.84375,0 1.26562,0 0.30693,0 3.75612,0.0391 3.79682,0 0.23832,-0.22938 -0.23833,-3.42494 0,-3.65433 0.2983,-0.28711 0.9673,0.28711 1.2656,0 0.29832,-0.28711 0,-0.81207 0,-1.21811 0,-0.40604 0,-0.81208 0,-1.21812 0,-0.82154 0,-1.61467 0,-2.43621 0,-0.40604 -0.42186,-1.21812 0,-1.21812 0.42187,0 0.42187,1.21812 0,1.21812 -0.59661,0 -0.73198,-0.96131 -1.2656,-1.21812 -0.37733,-0.18158 -0.9673,0.28711 -1.26561,0 -0.2983,-0.28711 0.29831,-0.931 0,-1.2181 -0.59662,-0.57423 -1.9346,0.57421 -2.53121,0 -0.29832,-0.28712 0.29829,-0.93101 0,-1.21811 -0.29832,-0.28711 -0.84375,0 -1.26562,0 -1.68748,0 -3.37495,0 -5.06243,0 z"
       id="path17963-4"
       inkscape:connector-curvature="0" />
    <path
       style="fill:#ffffff;fill-rule:evenodd;stroke:#000000;stroke-width:0.86914301px;stroke-linecap:butt;stroke-linejoin:miter;stroke-opacity:1"
       d="m 277.04695,937.96118 c 4.46429,-1.41811 -4.13765,4.54442 -2.53123,6.09056 0.29832,0.28712 0.84374,0 1.26562,0 3.37495,0 6.74991,0 10.12486,0 0.42187,0 0.84375,0 1.26562,0 0.42187,0 0.9673,0.28712 1.26561,0 0.2983,-0.28711 0.2983,-0.93099 0,-1.2181 -0.29831,-0.28712 -0.96731,0.28711 -1.26561,0 -0.59662,-0.57423 0.59661,-1.86201 0,-2.43623 -0.2983,-0.28711 -0.96731,0.28711 -1.26562,0 -0.2983,-0.28711 0.29831,-0.931 0,-1.21811 -0.2983,-0.28711 -0.9673,0.28711 -1.2656,0 -0.29831,-0.28711 0.2983,-0.931 0,-1.21812 -0.59661,-0.57422 -1.9346,0.57423 -2.53122,0 -0.29831,-0.2871 0,-0.81207 0,-1.2181 -1.68748,0.40603 -3.37495,0.81207 -5.06243,1.2181 z"
       id="path17965-1"
       inkscape:connector-curvature="0" />
    <path
       style="fill:#ffffff;fill-rule:evenodd;stroke:#000000;stroke-width:0.86914301px;stroke-linecap:butt;stroke-linejoin:miter;stroke-opacity:1"
       d="m 216.29773,965.97775 c 1.2656,-1.62415 2.53121,-3.2483 3.79682,-4.87244 0.42187,0 0.9673,0.28711 1.2656,0 0.29832,-0.28713 -0.2983,-0.93101 0,-1.21812 0.29832,-0.28711 0.96732,0.28711 1.26561,0 0.29832,-0.28711 -0.29829,-0.931 0,-1.21811 0.29832,-0.28711 0.96731,0.28711 1.26561,0 0.29831,-0.28711 -0.18866,-0.85495 0,-1.2181 0.26682,-0.51361 0.73199,-0.96132 1.26562,-1.21813 0.38517,-0.18535 3.22684,0 3.79683,0 0.42186,0 0.84373,0 1.2656,0 0.42187,0 0.9673,-0.2871 1.26561,0 0.2983,0.28711 0,0.81209 0,1.21813 0.42187,0 0.9673,-0.28712 1.26561,0 0.59662,0.57421 -0.59661,1.86198 0,2.43621 0.2983,0.28711 0.9673,-0.28711 1.26561,0 0.59661,0.57422 -0.59662,1.86201 0,2.43622 0.2983,0.28712 0.9673,-0.28711 1.26561,0 0.2983,0.28712 0,0.81207 0,1.21811 0,0.40604 0,0.81208 0,1.21812 0,1.62415 0,3.2483 0,4.87244 0,0.40604 0,0.81207 0,1.21811 0,0.40604 0.42187,1.21811 0,1.21811 -0.42188,0 0.42187,-1.21811 0,-1.21811 -0.59662,0 -0.73199,0.96131 -1.26561,1.21811 -0.37734,0.18159 -0.84375,0 -1.26561,0 -0.42188,0 -0.84374,0 -1.26561,0 -1.68748,0 -3.37496,0 -5.06244,0 -0.42186,0 -0.9673,0.28712 -1.2656,0 -0.29831,-0.28711 0.2983,-0.931 0,-1.21811 -0.59661,-0.57422 -1.93461,0.57423 -2.53123,0 -0.29829,-0.28711 0.29832,-0.93099 0,-1.21811 -0.29829,-0.28711 -0.84373,0 -1.26561,0 -0.42186,0 -0.84373,0 -1.2656,0 -2.78668,0 -1.0316,0.33784 -3.79682,-3.65433 z"
       id="path17967-0"
       inkscape:connector-curvature="0" />
    <path
       style="fill:#ffffff;fill-rule:evenodd;stroke:#000000;stroke-width:0.86914301px;stroke-linecap:butt;stroke-linejoin:miter;stroke-opacity:1"
       d="m 245.40672,972.0683 c 1.68749,0.40604 3.35681,0.88978 5.06244,1.21811 0.82736,0.15926 1.68748,0 2.53123,0 1.68747,0 3.37494,0 5.06242,0 0.42187,0 1.26561,-0.40604 1.26561,0 0,0.40605 -1.68748,0 -1.26561,0 0.84374,0 1.77656,0.36318 2.53123,0 0.37732,-0.18158 -0.18867,-0.85494 0,-1.21811 0.26681,-0.5136 0.99879,-0.70451 1.2656,-1.21811 0.18867,-0.36318 -0.2983,-0.93099 0,-1.21811 0.424,-0.40808 2.10722,0.40809 2.53122,0 0.42148,-0.40566 -0.42148,-2.03057 0,-2.43622 0.2983,-0.28711 0.9673,0.2871 1.2656,0 0.29832,-0.28711 0,-0.81207 0,-1.21811 0,-0.40604 0,-0.81208 0,-1.21811 0,-0.29543 0.0407,-3.61516 0,-3.65433 -0.42358,-0.40769 -2.10763,0.40768 -2.53121,0 -0.2983,-0.28713 0.29831,-0.93101 0,-1.21812 -0.2983,-0.28711 -0.96731,0.28711 -1.26561,0 -0.2983,-0.28711 0.2983,-0.931 0,-1.21811 -0.59662,-0.57422 -1.77655,0.36318 -2.53122,0 -0.53363,-0.25679 -0.73198,-0.96131 -1.26561,-1.2181 -0.33278,-0.16015 -4.40061,0 -5.06242,0 -0.42188,0 -1.68749,0 -1.26561,0 4.94403,0 1.64294,-0.36318 0,1.2181 -0.29832,0.28711 0.29829,0.931 0,1.21811 -2.6186,2.52031 0.10236,-3.85137 -2.53123,1.21812 -0.37732,0.72634 0.59662,1.86199 0,2.43621 -0.2983,0.28711 -0.9673,-0.2871 -1.26561,0 -0.59661,0.57423 0.59662,1.86201 0,2.43623 -0.29831,0.28711 -0.96729,-0.28711 -1.26561,0 -0.2983,0.28711 0.0828,0.81995 0,1.21811 -0.68225,3.28324 -1.68747,6.4966 -2.53121,9.74489"
       id="path17969-3"
       inkscape:connector-curvature="0" />
    <path
       style="fill:#ffffff;fill-rule:evenodd;stroke:#000000;stroke-width:0.86914301px;stroke-linecap:butt;stroke-linejoin:miter;stroke-opacity:1"
       d="m 274.51572,974.50453 c -1.32207,-4.17132 3.85439,-3.76513 5.06245,-6.09056 0.37733,-0.72634 -0.59662,-1.862 0,-2.43622 0.29829,-0.28711 0.96729,0.28711 1.26561,0 0.30454,-0.29311 -0.30455,-4.57933 0,-4.87244 0.2983,-0.28713 0.96729,0.28711 1.2656,0 0.23832,-0.22939 -0.23832,-3.42496 0,-3.65433 0.29831,-0.28712 0.84373,0 1.26561,0 0.42187,0 0.9673,-0.28712 1.26561,0 0.2983,0.2871 -0.29831,0.93099 0,1.2181 0.2983,0.28711 0.9673,-0.28711 1.2656,0 0.29831,0.28711 -0.2983,0.931 0,1.21811 0.59662,0.57422 1.93461,-0.57423 2.53123,0 0.2983,0.28711 -0.29831,0.93099 0,1.21812 0.2983,0.28711 0.9673,-0.28713 1.2656,0 0.29832,0.28711 -0.2983,0.93099 0,1.2181 0.29832,0.28712 0.96731,-0.28711 1.26561,0 0.29832,0.28712 -0.2983,0.93101 0,1.21811 0.29832,0.28711 0.9673,-0.2871 1.26561,0 0.29831,0.28711 0,0.81208 0,1.21812 0,0.40603 0.29831,0.931 0,1.21811 -0.29831,0.28711 -0.96729,-0.28711 -1.26561,0 -0.2983,0.28711 0.29832,0.931 0,1.21811 -0.2983,0.2871 -0.96729,-0.28711 -1.26561,0 -0.2983,0.2871 0.29832,0.93099 0,1.21811 -0.59662,0.57422 -1.9346,-0.57423 -2.53121,0 -0.2983,0.28712 0.2983,0.931 0,1.21811 -0.23834,0.22938 -3.5585,-0.22938 -3.79683,0 -0.29831,0.28712 0.29831,0.931 0,1.21811 -0.29831,0.28711 -0.9673,-0.28711 -1.26561,0 -0.29831,0.28711 0.29831,0.931 0,1.21811 -0.59661,0.57423 -1.74782,-0.3016 -2.53121,0 -1.75173,0.6744 -3.37497,1.62416 -5.06245,2.43623 z"
       id="path17971-0"
       inkscape:connector-curvature="0" />
    <path
       style="fill:#ffffff;fill-rule:evenodd;stroke:#000000;stroke-width:0.86914301px;stroke-linecap:butt;stroke-linejoin:miter;stroke-opacity:1"
       d="m 302.35912,965.97775 c -2.10935,-1.21811 -4.40718,-2.17532 -6.32804,-3.65434 -0.32943,-0.25364 0.2983,-0.93099 0,-1.2181 -0.29831,-0.28713 -0.9673,0.28711 -1.26562,0 -0.0407,-0.0391 0,-3.35892 0,-3.65433 0,-0.40604 -0.29829,-0.93102 0,-1.21813 0.29832,-0.2871 0.84375,0 1.26562,0 3.37495,0 6.74991,0 10.12487,0 0.42187,0 0.84373,0 1.26561,0 0.42187,0 0.96729,-0.2871 1.26561,0 0.2983,0.28711 -0.29832,0.93101 0,1.21813 0.2983,0.2871 1.2656,-0.40604 1.2656,0 0,0.81206 -1.9346,-0.57424 -2.53121,0 -0.59662,0.57421 0.59661,1.86198 0,2.43621 -0.23833,0.22938 -3.5585,-0.22937 -3.79683,0 -0.29831,0.28711 0.2983,0.93099 0,1.21812 -0.59661,0.57422 -2.53121,-0.81208 -2.53121,0 0,1.67413 2.49555,3.68864 1.2656,4.87244 -1.22995,1.18379 -3.3568,-0.88978 -5.06243,-1.21811 -0.82736,-0.15926 -1.68748,0 -2.53123,0"
       id="path17973-5"
       inkscape:connector-curvature="0" />
    <path
       style="fill:#ffffff;fill-rule:evenodd;stroke:#000000;stroke-width:0.86914301px;stroke-linecap:butt;stroke-linejoin:miter;stroke-opacity:1"
       d="m 237.81307,967.19586 c 0,-2.03019 0,-4.06038 0,-6.09055 0,-0.40604 -0.2983,-0.93101 0,-1.21812 0.29831,-0.28711 0.96731,0.28711 1.26561,0 0.29831,-0.28711 -0.2983,-0.931 0,-1.21811 0.29831,-0.28711 1.26561,-0.40604 1.26561,0 0,0.57422 -1.86222,1.21811 -1.26561,1.21811 0.94333,0 1.6363,-0.931 2.53121,-1.21811 1.6875,-0.54138 1.26562,0.13535 1.26562,1.21811 0,0.40604 0,0.81208 0,1.21812 0,1.33437 0.12779,4.81095 0,4.87244 -1.55578,0.74869 -4.01879,-0.1212 -5.06244,1.21811 -0.80044,1.0272 1.26561,2.37033 1.26561,3.65433 0,0.40604 -0.84374,0 -1.26561,0 -0.84374,0 -1.68747,0 -2.53121,0"
       id="path17975-4"
       inkscape:connector-curvature="0" />
    <path
       style="fill:#ffffff;fill-rule:evenodd;stroke:#000000;stroke-width:0.86914301px;stroke-linecap:butt;stroke-linejoin:miter;stroke-opacity:1"
       d="m 268.18768,969.63208 c 0,-1.62414 0,-3.24829 0,-4.87244 0.42187,0 0.96731,0.28711 1.26561,0 0.59661,-0.57423 -0.59661,-1.862 0,-2.43623 0.29831,-0.28711 0.96731,0.28712 1.26561,0 0.29831,-0.28711 -0.2983,-0.93099 0,-1.2181 0.87287,-0.8401 2.36647,0.90097 2.53122,1.2181 0.18867,0.36318 0,0.81207 0,1.21811 0,0.40604 0,0.81208 0,1.21812 0,1.62415 0,3.2483 0,4.87244 0,0.40604 -0.29831,0.931 0,1.21811 0.29831,0.28711 0.9673,-0.28711 1.2656,0 0.29832,0.28711 0,0.81208 0,1.21811 0,0.40604 0.29832,0.93101 0,1.21811 -0.2983,0.28712 -0.90385,0.2089 -1.2656,0 -1.80875,-1.04452 -3.37495,-2.43622 -5.06244,-3.65433 z"
       id="path17977-2"
       inkscape:connector-curvature="0" />
    <path
       style="fill:#000000;fill-rule:evenodd;stroke:#000000;stroke-width:0.86914301px;stroke-linecap:butt;stroke-linejoin:miter;stroke-opacity:1"
       d="m 136.56438,860.00207 c -1.47343,9.53236 4.7216,0.89008 6.32803,2.43621 0.29832,0.28712 -0.29829,0.93101 0,1.21813 0.29832,0.2871 0.96731,-0.28712 1.26561,0 0.29831,0.2871 -0.2983,0.93099 0,1.21811 0.29831,0.2871 0.96731,-0.28712 1.26561,0 0.29831,0.2871 -0.2983,0.93099 0,1.2181 0.29831,0.28712 0.88828,-0.18158 1.26561,0 0.53364,0.25681 0.73198,0.96131 1.26561,1.21812 0.37734,0.18158 0.9673,-0.28712 1.2656,0 0.59662,0.57423 -0.59661,1.862 0,2.43621 0.59662,0.57423 1.93462,-0.57421 2.53122,0 0.29831,0.28712 -0.2983,0.93101 0,1.21811 0.29831,0.28712 0.96731,-0.2871 1.26562,0 0.2983,0.28712 -0.29831,0.93101 0,1.21813 0.2983,0.2871 0.9673,-0.28712 1.26561,0 0.2983,0.2871 -0.29831,0.93099 0,1.2181 0.2983,0.28711 0.96729,-0.28711 1.26561,0 0.29829,0.28711 -0.29832,0.931 0,1.21811 0.42678,0.41077 2.10442,-0.41077 2.53121,0 0.29831,0.28712 -0.29831,0.931 0,1.21812 0.59662,0.57422 1.93461,-0.57422 2.53122,0 0.424,0.40808 -0.424,2.02813 0,2.43621 0.4222,0.40637 2.10902,-0.40635 2.53122,0 0.2983,0.28712 -0.29831,0.93101 0,1.21812 0.2983,0.28711 0.9673,-0.28711 1.26561,0 0.29829,0.28711 -0.29831,0.931 0,1.21811 2.61858,2.52031 -0.10237,-3.85138 2.53121,1.21811 0.18867,0.36317 -0.2983,0.931 0,1.21812 0.4268,0.41076 2.10443,-0.41078 2.53121,0 0.29832,0.28711 -0.29829,0.93099 0,1.2181 0.29832,0.28712 0.96732,-0.28711 1.26561,0 0.29832,0.28712 0,0.81208 0,1.21811 0,1.62415 0,3.24831 0,4.87245 0,0.40603 -0.29829,0.931 0,1.21811 0.29832,0.28711 0.96731,-0.28711 1.26562,0 0.051,0.049 0,4.42511 0,4.87244 0,1.62415 0,3.2483 0,4.87245 0,0.40603 -0.29831,0.931 0,1.21811 0.2983,0.28711 0.9673,-0.28711 1.2656,0 0.29831,0.28711 0,0.81207 0,1.21811 0,1.62414 0,3.2483 0,4.87245 0,0.40603 -0.2983,0.931 0,1.21811 0.29831,0.28711 0.96731,-0.28711 1.26561,0 0.29832,0.28711 0,0.81207 0,1.21811 0,1.62414 0,3.2483 0,4.87245 0,0.40603 -0.2983,0.931 0,1.21811 0.29832,0.28711 0.9673,-0.28711 1.26561,0 0.29831,0.28711 0,0.81207 0,1.21811 0,0.40604 0,0.81207 0,1.21811 0,3.65433 0,7.30866 0,10.96299 0,0.40605 0,0.81209 0,1.21813 0,0.40603 0.29831,0.93099 0,1.21811 -0.29831,0.2871 -0.96729,0.2871 -1.26561,0 -0.2983,-0.28712 0.29832,-0.93101 0,-1.21811 -0.2983,-0.28711 -0.9673,0.2871 -1.26561,0 -0.2983,-0.28711 0,-0.81208 0,-1.21813 0,-1.62414 0,-3.24829 0,-4.87243 0,-0.40604 0.29831,-0.93101 0,-1.21811 -0.2983,-0.28711 -0.9673,0.2871 -1.2656,0 -0.0408,-0.0391 0,-3.35892 0,-3.65434 0,-3.24829 0.42187,0.40604 -1.26562,-1.21811 -0.23832,-0.22938 0.23834,-3.42495 0,-3.65433 -0.29829,-0.28712 -0.96729,0.28711 -1.26561,0 -0.29829,-0.28712 0.18867,-0.85495 0,-1.21811 -0.26681,-0.51361 -0.99879,-0.70451 -1.2656,-1.21812 -0.37733,-0.72634 0.59662,-1.862 0,-2.43622 -0.29831,-0.28712 -0.96729,0.28711 -1.26561,0 -0.2983,-0.28712 0,-0.81207 0,-1.21811 0,-0.63698 0.16639,-4.55215 0,-4.87245 -0.26681,-0.51359 -0.99879,-0.70451 -1.26561,-1.21811 -0.18866,-0.36317 0.29831,-0.931 0,-1.21811 -0.2983,-0.28711 -0.96731,0.28711 -1.2656,0 -0.17971,-0.17295 0.1797,-5.91759 0,-6.09056 -0.29831,-0.28711 -0.96731,0.28711 -1.26561,0 -0.0408,-0.0391 0,-3.3589 0,-3.65433 0,-0.29542 0.0406,-3.61516 0,-3.65433 -0.29831,-0.28711 -0.96731,0.2871 -1.26562,0 -0.30453,-0.29312 0.30455,-4.57933 0,-4.87245 -0.2983,-0.28711 -0.9673,0.28712 -1.2656,0 -0.59661,-0.57422 0.59662,-1.86199 0,-2.43622 -0.051,-0.049 -4.59766,0 -5.06243,0 -3.78589,0 1.25465,-1.21811 -2.53122,-1.21811 -0.42188,0 -0.84375,0 -1.26562,0 -0.42187,0 -0.96729,0.28711 -1.26561,0 -0.2983,-0.28711 0.29832,-0.931 0,-1.21811 -0.2983,-0.28711 -0.96729,0.28711 -1.26561,0 -0.42399,-0.40809 0.424,-2.02813 0,-2.43623 -0.59661,-0.57421 -1.9346,0.57423 -2.53121,0 -0.2983,-0.28711 0.29831,-0.93099 0,-1.2181 -0.2983,-0.28712 -0.9673,0.28711 -1.26561,0 -0.59662,-0.57422 0.59661,-1.86201 0,-2.43623 -0.2983,-0.28711 -0.9673,0.28711 -1.26561,0 -0.2983,-0.28711 0.29831,-0.931 0,-1.2181 -0.59661,-0.57423 -1.9346,0.57421 -2.53122,0 -0.59661,-0.57423 0.59662,-1.86201 0,-2.43624 -0.2983,-0.2871 -0.9673,0.28712 -1.2656,0 -0.29831,-0.2871 0.2983,-0.93099 0,-1.2181 -0.29831,-0.28712 -0.96731,0.28711 -1.26561,0 -0.29831,-0.28712 0.2983,-0.931 0,-1.21811 -0.29831,-0.28712 -0.96731,0.28711 -1.26561,0 -0.59662,-0.57423 0.59661,-1.86201 0,-2.43622 -0.29831,-0.28712 -1.16329,0.39391 -1.2656,0 -0.40929,-1.57566 1.01248,-3.57313 0,-4.87245 -0.75937,-0.97449 -2.59618,0.38521 -3.79683,0 -0.80045,-0.25681 0.59662,-1.86201 0,-2.43622 -1.68749,-1.62415 -1.26561,2.03018 -1.26561,-1.21811"
       id="path17979-7"
       inkscape:connector-curvature="0" />
    <path
       style="fill:#000000;fill-rule:evenodd;stroke:#000000;stroke-width:0.86914301px;stroke-linecap:butt;stroke-linejoin:miter;stroke-opacity:1"
       d="m 366.31638,859.07217 c 1.47343,9.53237 -4.7216,0.89009 -6.32803,2.43622 -0.29831,0.28712 0.29829,0.93101 0,1.21812 -0.29831,0.2871 -0.96731,-0.28711 -1.26561,0 -0.2983,0.2871 0.2983,0.93099 0,1.2181 -0.2983,0.28711 -0.96731,-0.28711 -1.26561,0 -0.29831,0.28711 0.2983,0.93101 0,1.21812 -0.29831,0.28711 -0.88828,-0.18159 -1.26561,0 -0.53363,0.2568 -0.73198,0.96131 -1.26561,1.21811 -0.37734,0.18158 -0.9673,-0.28711 -1.2656,0 -0.59662,0.57422 0.59661,1.862 0,2.43622 -0.59662,0.57423 -1.93461,-0.57422 -2.53122,0 -0.29831,0.28711 0.2983,0.931 0,1.21811 -0.29831,0.28711 -0.96731,-0.28711 -1.26561,0 -0.29831,0.28711 0.2983,0.931 0,1.21811 -0.29831,0.28711 -0.96731,-0.28711 -1.26561,0 -0.29831,0.28711 0.2983,0.93101 0,1.21812 -0.29831,0.28711 -0.9673,-0.28711 -1.26561,0 -0.2983,0.28711 0.29831,0.93099 0,1.21811 -0.42679,0.41077 -2.10443,-0.41078 -2.53122,0 -0.29831,0.28711 0.29831,0.93099 0,1.2181 -0.59661,0.57423 -1.93461,-0.57421 -2.53122,0 -0.424,0.40809 0.424,2.02814 0,2.43623 -0.4222,0.40636 -2.10901,-0.40636 -2.53122,0 -0.29829,0.28711 0.29832,0.931 0,1.2181 -0.29829,0.28712 -0.96729,-0.2871 -1.26561,0 -0.29829,0.28712 0.29832,0.93102 0,1.21813 -2.61858,2.5203 0.10237,-3.85138 -2.53121,1.21811 -0.18867,0.36317 0.2983,0.93099 0,1.2181 -0.4268,0.41077 -2.10443,-0.41077 -2.53121,0 -0.29832,0.28712 0.29829,0.93101 0,1.21812 -0.29832,0.28711 -0.96732,-0.28711 -1.26561,0 -0.29832,0.28711 0,0.81207 0,1.21811 0,1.62414 0,3.2483 0,4.87244 0,0.40604 0.29829,0.931 0,1.21812 -0.29832,0.28711 -0.96731,-0.28712 -1.26562,0 -0.051,0.049 0,4.4251 0,4.87244 0,1.62415 0,3.2483 0,4.87244 0,0.40604 0.29831,0.931 0,1.21811 -0.2983,0.28712 -0.9673,-0.28711 -1.2656,0 -0.29831,0.28712 0,0.81208 0,1.21812 0,1.62414 0,3.2483 0,4.87244 0,0.40604 0.2983,0.931 0,1.21811 -0.29831,0.28711 -0.96731,-0.28711 -1.26561,0 -0.29832,0.28711 0,0.81208 0,1.21812 0,1.62414 0,3.2483 0,4.87244 0,0.40604 0.2983,0.93099 0,1.21811 -0.29832,0.28711 -0.9673,-0.28712 -1.26561,0 -0.29831,0.28711 0,0.81208 0,1.21811 0,0.40603 0,0.81207 0,1.21811 0,3.65434 0,7.30867 0,10.963 0,0.40605 0,0.81208 0,1.21812 0,0.40604 -0.29831,0.931 0,1.21811 0.29831,0.28711 0.96729,0.28711 1.26561,0 0.2983,-0.28711 -0.29832,-0.93101 0,-1.21811 0.2983,-0.28712 0.9673,0.2871 1.26561,0 0.2983,-0.28712 0,-0.81207 0,-1.21812 0,-1.62414 0,-3.24829 0,-4.87244 0,-0.40604 -0.29831,-0.93101 0,-1.21811 0.2983,-0.28712 0.9673,0.2871 1.2656,0 0.0408,-0.0391 0,-3.35891 0,-3.65434 0,-3.24829 -0.42186,0.40604 1.26562,-1.21811 0.23833,-0.22938 -0.23834,-3.42495 0,-3.65433 0.29829,-0.28711 0.96729,0.28711 1.26561,0 0.29829,-0.28711 -0.18867,-0.85494 0,-1.21811 0.26681,-0.5136 0.99879,-0.70452 1.2656,-1.21812 0.37733,-0.72633 -0.59662,-1.86199 0,-2.43621 0.29831,-0.28712 0.9673,0.28711 1.26561,0 0.2983,-0.28712 0,-0.81208 0,-1.21812 0,-0.63697 -0.16639,-4.55215 0,-4.87245 0.26681,-0.51359 0.99879,-0.7045 1.26561,-1.2181 0.18866,-0.36317 -0.29831,-0.931 0,-1.21812 0.29831,-0.28711 0.96731,0.28712 1.2656,0 0.17971,-0.17296 -0.17969,-5.91759 0,-6.09055 0.29832,-0.28711 0.96732,0.28711 1.26561,0 0.0408,-0.0391 0,-3.35891 0,-3.65433 0,-0.29544 -0.0407,-3.61516 0,-3.65433 0.29832,-0.28712 0.96731,0.2871 1.26562,0 0.30453,-0.29312 -0.30455,-4.57934 0,-4.87245 0.2983,-0.28711 0.9673,0.28711 1.2656,0 0.59661,-0.57423 -0.59662,-1.86201 0,-2.43622 0.051,-0.049 4.59766,0 5.06244,0 3.78588,0 -1.25466,-1.21811 2.53122,-1.21811 0.42187,0 0.84374,0 1.26561,0 0.42187,0 0.96729,0.2871 1.26561,0 0.2983,-0.28711 -0.29832,-0.93101 0,-1.21813 0.2983,-0.2871 0.96729,0.28712 1.26561,0 0.42399,-0.40808 -0.424,-2.02812 0,-2.43621 0.59661,-0.57422 1.9346,0.57423 2.53121,0 0.2983,-0.28711 -0.29831,-0.931 0,-1.21812 0.2983,-0.28711 0.9673,0.28712 1.26561,0 0.59662,-0.57421 -0.59661,-1.86199 0,-2.43621 0.2983,-0.28711 0.96731,0.28711 1.26561,0 0.2983,-0.28711 -0.2983,-0.93101 0,-1.21812 0.59661,-0.57422 1.9346,0.57422 2.53122,0 0.59661,-0.57422 -0.59662,-1.86199 0,-2.43622 0.2983,-0.2871 0.9673,0.28711 1.2656,0 0.29832,-0.2871 -0.2983,-0.931 0,-1.21811 0.29832,-0.28712 0.96731,0.28711 1.26561,0 0.29831,-0.28712 -0.2983,-0.931 0,-1.21811 0.29831,-0.28711 0.96731,0.28711 1.26561,0 0.59662,-0.57422 -0.59661,-1.862 0,-2.43623 0.29831,-0.28711 1.1633,0.39392 1.2656,0 0.40929,-1.57564 -1.01247,-3.57312 0,-4.87244 0.75937,-0.97449 2.59618,0.3852 3.79683,0 0.80045,-0.2568 -0.59661,-1.862 0,-2.43622 1.68749,-1.62415 1.26561,2.03018 1.26561,-1.21811"
       id="path17979-0-3"
       inkscape:connector-curvature="0" />
  </g>
</svg>
